G04 #@! TF.GenerationSoftware,KiCad,Pcbnew,8.0.4*
G04 #@! TF.CreationDate,2024-09-30T00:02:48+08:00*
G04 #@! TF.ProjectId,Transformer_Monitor_V1,5472616e-7366-46f7-926d-65725f4d6f6e,rev?*
G04 #@! TF.SameCoordinates,Original*
G04 #@! TF.FileFunction,Copper,L1,Top*
G04 #@! TF.FilePolarity,Positive*
%FSLAX46Y46*%
G04 Gerber Fmt 4.6, Leading zero omitted, Abs format (unit mm)*
G04 Created by KiCad (PCBNEW 8.0.4) date 2024-09-30 00:02:48*
%MOMM*%
%LPD*%
G01*
G04 APERTURE LIST*
G04 Aperture macros list*
%AMRoundRect*
0 Rectangle with rounded corners*
0 $1 Rounding radius*
0 $2 $3 $4 $5 $6 $7 $8 $9 X,Y pos of 4 corners*
0 Add a 4 corners polygon primitive as box body*
4,1,4,$2,$3,$4,$5,$6,$7,$8,$9,$2,$3,0*
0 Add four circle primitives for the rounded corners*
1,1,$1+$1,$2,$3*
1,1,$1+$1,$4,$5*
1,1,$1+$1,$6,$7*
1,1,$1+$1,$8,$9*
0 Add four rect primitives between the rounded corners*
20,1,$1+$1,$2,$3,$4,$5,0*
20,1,$1+$1,$4,$5,$6,$7,0*
20,1,$1+$1,$6,$7,$8,$9,0*
20,1,$1+$1,$8,$9,$2,$3,0*%
%AMRotRect*
0 Rectangle, with rotation*
0 The origin of the aperture is its center*
0 $1 length*
0 $2 width*
0 $3 Rotation angle, in degrees counterclockwise*
0 Add horizontal line*
21,1,$1,$2,0,0,$3*%
G04 Aperture macros list end*
G04 #@! TA.AperFunction,SMDPad,CuDef*
%ADD10C,2.000000*%
G04 #@! TD*
G04 #@! TA.AperFunction,SMDPad,CuDef*
%ADD11RotRect,0.990600X3.708400X45.000000*%
G04 #@! TD*
G04 #@! TA.AperFunction,SMDPad,CuDef*
%ADD12RotRect,0.990600X3.708400X315.000000*%
G04 #@! TD*
G04 #@! TA.AperFunction,SMDPad,CuDef*
%ADD13RoundRect,0.200000X-0.275000X0.200000X-0.275000X-0.200000X0.275000X-0.200000X0.275000X0.200000X0*%
G04 #@! TD*
G04 #@! TA.AperFunction,SMDPad,CuDef*
%ADD14RoundRect,0.225000X0.250000X-0.225000X0.250000X0.225000X-0.250000X0.225000X-0.250000X-0.225000X0*%
G04 #@! TD*
G04 #@! TA.AperFunction,SMDPad,CuDef*
%ADD15RoundRect,0.225000X-0.225000X-0.250000X0.225000X-0.250000X0.225000X0.250000X-0.225000X0.250000X0*%
G04 #@! TD*
G04 #@! TA.AperFunction,SMDPad,CuDef*
%ADD16RoundRect,0.225000X-0.250000X0.225000X-0.250000X-0.225000X0.250000X-0.225000X0.250000X0.225000X0*%
G04 #@! TD*
G04 #@! TA.AperFunction,SMDPad,CuDef*
%ADD17RoundRect,0.225000X0.225000X0.250000X-0.225000X0.250000X-0.225000X-0.250000X0.225000X-0.250000X0*%
G04 #@! TD*
G04 #@! TA.AperFunction,SMDPad,CuDef*
%ADD18R,0.990600X3.708400*%
G04 #@! TD*
G04 #@! TA.AperFunction,SMDPad,CuDef*
%ADD19RoundRect,0.200000X-0.200000X-0.275000X0.200000X-0.275000X0.200000X0.275000X-0.200000X0.275000X0*%
G04 #@! TD*
G04 #@! TA.AperFunction,SMDPad,CuDef*
%ADD20RoundRect,0.317500X-0.317500X1.157500X-0.317500X-1.157500X0.317500X-1.157500X0.317500X1.157500X0*%
G04 #@! TD*
G04 #@! TA.AperFunction,SMDPad,CuDef*
%ADD21R,3.708400X0.990600*%
G04 #@! TD*
G04 #@! TA.AperFunction,SMDPad,CuDef*
%ADD22R,1.500000X0.550000*%
G04 #@! TD*
G04 #@! TA.AperFunction,SMDPad,CuDef*
%ADD23R,0.550000X1.500000*%
G04 #@! TD*
G04 #@! TA.AperFunction,SMDPad,CuDef*
%ADD24R,1.050000X2.200000*%
G04 #@! TD*
G04 #@! TA.AperFunction,SMDPad,CuDef*
%ADD25R,1.000000X1.050000*%
G04 #@! TD*
G04 #@! TA.AperFunction,SMDPad,CuDef*
%ADD26RotRect,0.990600X3.708400X135.000000*%
G04 #@! TD*
G04 #@! TA.AperFunction,SMDPad,CuDef*
%ADD27R,0.762000X4.394200*%
G04 #@! TD*
G04 #@! TA.AperFunction,SMDPad,CuDef*
%ADD28RotRect,0.990600X3.708400X225.000000*%
G04 #@! TD*
G04 #@! TA.AperFunction,SMDPad,CuDef*
%ADD29RoundRect,0.200000X0.275000X-0.200000X0.275000X0.200000X-0.275000X0.200000X-0.275000X-0.200000X0*%
G04 #@! TD*
G04 #@! TA.AperFunction,SMDPad,CuDef*
%ADD30R,1.270000X0.558800*%
G04 #@! TD*
G04 #@! TA.AperFunction,ViaPad*
%ADD31C,0.600000*%
G04 #@! TD*
G04 #@! TA.AperFunction,Conductor*
%ADD32C,0.500000*%
G04 #@! TD*
G04 #@! TA.AperFunction,Conductor*
%ADD33C,0.250000*%
G04 #@! TD*
G04 #@! TA.AperFunction,Conductor*
%ADD34C,0.200000*%
G04 #@! TD*
G04 APERTURE END LIST*
D10*
X182500000Y-82500000D03*
X162500000Y-123000000D03*
X158000000Y-138000000D03*
X137500000Y-72500000D03*
X158000000Y-143000000D03*
X139500000Y-112000000D03*
D11*
X174524274Y-129912427D03*
X178443624Y-130239675D03*
X178116376Y-126320325D03*
X182035726Y-126647573D03*
D12*
X120087573Y-124524274D03*
X119760325Y-128443624D03*
X123679675Y-128116376D03*
X123352427Y-132035726D03*
D13*
X135500000Y-107175000D03*
X135500000Y-108825000D03*
D10*
X153500000Y-132000000D03*
X161500000Y-110000000D03*
D14*
X158500000Y-96550000D03*
X158500000Y-95000000D03*
D15*
X149950000Y-127025000D03*
X151500000Y-127025000D03*
D16*
X133000000Y-98000000D03*
X133000000Y-99550000D03*
D17*
X149275000Y-84490000D03*
X147725000Y-84490000D03*
D10*
X147000000Y-132000000D03*
D18*
X146190000Y-138498601D03*
X148730000Y-141501399D03*
X151270000Y-138498601D03*
X153810000Y-141501399D03*
D16*
X143250000Y-94250000D03*
X143250000Y-95800000D03*
D19*
X147675000Y-86000000D03*
X149325000Y-86000000D03*
D10*
X161500000Y-85000000D03*
X142500000Y-104500000D03*
D20*
X157500000Y-107950000D03*
X155500000Y-107950000D03*
X153500000Y-107950000D03*
X151500000Y-107950000D03*
X149500000Y-107950000D03*
X147500000Y-107950000D03*
X145500000Y-107950000D03*
X143500000Y-107950000D03*
X143500000Y-123000000D03*
X145500000Y-123000000D03*
X147500000Y-123000000D03*
X149500000Y-123000000D03*
X151500000Y-123000000D03*
X153500000Y-123000000D03*
X155500000Y-123000000D03*
X157500000Y-123000000D03*
D14*
X133000000Y-92775000D03*
X133000000Y-91225000D03*
D10*
X165000000Y-110000000D03*
D16*
X141750000Y-94250000D03*
X141750000Y-95800000D03*
D15*
X149950000Y-125500000D03*
X151500000Y-125500000D03*
D10*
X162000000Y-100000000D03*
D21*
X111501399Y-96190000D03*
X108498601Y-98730000D03*
X111501399Y-101270000D03*
X108498601Y-103810000D03*
D10*
X143000000Y-132000000D03*
X158000000Y-132000000D03*
D22*
X145800000Y-92200000D03*
X145800000Y-93000000D03*
X145800000Y-93800000D03*
X145800000Y-94600000D03*
X145800000Y-95400000D03*
X145800000Y-96200000D03*
X145800000Y-97000000D03*
X145800000Y-97800000D03*
D23*
X147200000Y-99200000D03*
X148000000Y-99200000D03*
X148800000Y-99200000D03*
X149600000Y-99200000D03*
X150400000Y-99200000D03*
X151200000Y-99200000D03*
X152000000Y-99200000D03*
X152800000Y-99200000D03*
D22*
X154200000Y-97800000D03*
X154200000Y-97000000D03*
X154200000Y-96200000D03*
X154200000Y-95400000D03*
X154200000Y-94600000D03*
X154200000Y-93800000D03*
X154200000Y-93000000D03*
X154200000Y-92200000D03*
D23*
X152800000Y-90800000D03*
X152000000Y-90800000D03*
X151200000Y-90800000D03*
X150400000Y-90800000D03*
X149600000Y-90800000D03*
X148800000Y-90800000D03*
X148000000Y-90800000D03*
X147200000Y-90800000D03*
D10*
X165000000Y-85000000D03*
X165000000Y-80500000D03*
D24*
X136975000Y-137500000D03*
X134025000Y-137500000D03*
D25*
X135500000Y-136000000D03*
D26*
X179912427Y-75475726D03*
X180239675Y-71556376D03*
X176320325Y-71883624D03*
X176647573Y-67964274D03*
D27*
X136500000Y-91097100D03*
X136500000Y-99902900D03*
D10*
X161500000Y-115000000D03*
D28*
X125475726Y-70087573D03*
X121556376Y-69760325D03*
X121883624Y-73679675D03*
X117964274Y-73352427D03*
D10*
X130500000Y-104000000D03*
X161500000Y-80500000D03*
D29*
X147500000Y-105325000D03*
X147500000Y-103675000D03*
D21*
X188498601Y-103810000D03*
X191501399Y-101270000D03*
X188498601Y-98730000D03*
X191501399Y-96190000D03*
D10*
X162500000Y-132000000D03*
X108500000Y-110000000D03*
D14*
X157000000Y-96550000D03*
X157000000Y-95000000D03*
D10*
X165000000Y-115000000D03*
D18*
X153810000Y-61501399D03*
X151270000Y-58498601D03*
X148730000Y-61501399D03*
X146190000Y-58498601D03*
D30*
X137458600Y-107047500D03*
X137458600Y-108952500D03*
X139541400Y-108000000D03*
D31*
X147744337Y-118333682D03*
X160000000Y-120000000D03*
X165000000Y-120000000D03*
X190000000Y-125000000D03*
X175000000Y-135000000D03*
X175000000Y-140000000D03*
X140000000Y-140000000D03*
X139974225Y-134875449D03*
X140000000Y-120000000D03*
X135000000Y-125000000D03*
X105000000Y-110000000D03*
X115000000Y-105000000D03*
X105007321Y-84971227D03*
X125000000Y-85000000D03*
X170000000Y-90000000D03*
X170000000Y-80000000D03*
X155000000Y-80000000D03*
X110000000Y-75000000D03*
X115000000Y-75000000D03*
X120000000Y-90000000D03*
X125000000Y-90000000D03*
X125000000Y-95000000D03*
X130000000Y-95000000D03*
X120000000Y-105000000D03*
X125000000Y-105000000D03*
X115000000Y-110000000D03*
X120000000Y-110000000D03*
X110000000Y-120000000D03*
X115000000Y-120000000D03*
X110000000Y-125000000D03*
X115000000Y-125000000D03*
X125000000Y-135000000D03*
X130000000Y-135000000D03*
X125000000Y-140000000D03*
X130000000Y-140000000D03*
X135000000Y-145000000D03*
X140000000Y-145000000D03*
X160000000Y-145000000D03*
X165000000Y-145000000D03*
X165000000Y-130000000D03*
X170000000Y-130000000D03*
X160000000Y-125000000D03*
X165000000Y-125000000D03*
X185000000Y-120000000D03*
X190000000Y-120000000D03*
X170000000Y-95000000D03*
X175000000Y-95000000D03*
X180000000Y-95000000D03*
X185000000Y-95000000D03*
X190000000Y-90000000D03*
X195000000Y-90000000D03*
X190000000Y-85000000D03*
X195000000Y-85000000D03*
X185000000Y-75000000D03*
X190000000Y-75000000D03*
X180000000Y-80000000D03*
X185000000Y-80000000D03*
X190000000Y-80000000D03*
X175000000Y-85000000D03*
X180000000Y-85000000D03*
X185000000Y-85000000D03*
X175000000Y-90000000D03*
X180000000Y-90000000D03*
X185000000Y-90000000D03*
X185000000Y-115000000D03*
X190000000Y-115000000D03*
X195000000Y-115000000D03*
X185000000Y-110000000D03*
X190000000Y-110000000D03*
X195000000Y-110000000D03*
X160000000Y-135000000D03*
X165000000Y-135000000D03*
X170000000Y-135000000D03*
X160000000Y-140000000D03*
X165000000Y-140000000D03*
X170000000Y-140000000D03*
X105000000Y-115000000D03*
X110000000Y-115000000D03*
X115000000Y-115000000D03*
X120000000Y-100000000D03*
X125000000Y-100000000D03*
X130000000Y-100000000D03*
X105000000Y-90000000D03*
X110000000Y-90000000D03*
X115000000Y-90000000D03*
X110000000Y-85000000D03*
X115000000Y-85000000D03*
X120000000Y-85000000D03*
X110000000Y-80000000D03*
X115000000Y-80000000D03*
X120000000Y-80000000D03*
X140000000Y-80000000D03*
X145000000Y-80000000D03*
X150000000Y-80000000D03*
X160000000Y-70000000D03*
X165000000Y-70000000D03*
X170000000Y-70000000D03*
X160000000Y-75000000D03*
X165000000Y-75000000D03*
X170000000Y-75000000D03*
X135000000Y-75000000D03*
X140000000Y-75000000D03*
X145000000Y-75000000D03*
X130000000Y-70000000D03*
X135000000Y-70000000D03*
X140000000Y-70000000D03*
X125000000Y-65000000D03*
X130000000Y-65000000D03*
X135000000Y-65000000D03*
X140000000Y-65000000D03*
X145000000Y-65000000D03*
X160000000Y-65000000D03*
X165000000Y-65000000D03*
X170000000Y-65000000D03*
X175000000Y-60000000D03*
X170000000Y-60000000D03*
X140000000Y-60000000D03*
X135000000Y-60000000D03*
X129921968Y-59922525D03*
X125000000Y-60000000D03*
X165000000Y-55000000D03*
X160000000Y-55000000D03*
X155000000Y-55000000D03*
X150000000Y-55000000D03*
X145000000Y-55000000D03*
X140000000Y-55000000D03*
X135000000Y-55000000D03*
X154069211Y-90154572D03*
X155480914Y-88665058D03*
X149000000Y-125500000D03*
X152500000Y-93500000D03*
X134000000Y-107750000D03*
X147750000Y-83250000D03*
X150500000Y-97250000D03*
X140500000Y-95750000D03*
X159250000Y-94000000D03*
X144400000Y-91250000D03*
X150850000Y-102500000D03*
X152500000Y-96500000D03*
X147250000Y-96750000D03*
X124250000Y-125000000D03*
X140500000Y-94250000D03*
X148500000Y-87250000D03*
X128000000Y-128750000D03*
X151500000Y-128250000D03*
X126000000Y-126750000D03*
X122500000Y-123250000D03*
X145250000Y-100750000D03*
X144400000Y-93800000D03*
X137500000Y-105500000D03*
X155750000Y-93500000D03*
X114250000Y-101250000D03*
X144400000Y-93000000D03*
X144384076Y-96243320D03*
X145534859Y-105700318D03*
X155750000Y-105750000D03*
X175000000Y-125750000D03*
X167500000Y-101250000D03*
X144400000Y-92100000D03*
X114250000Y-98750000D03*
X149614850Y-89422008D03*
X167500000Y-96250000D03*
X179000000Y-121750000D03*
X173500000Y-127250000D03*
X167500000Y-103750000D03*
X153750000Y-105750000D03*
X147250000Y-121000000D03*
X146250000Y-100750000D03*
X177000000Y-123750000D03*
X152000000Y-105750000D03*
X167500000Y-98750000D03*
X155750000Y-97750000D03*
X155250000Y-121000000D03*
X149250000Y-100750000D03*
X149250000Y-121000000D03*
X147250000Y-100750000D03*
X150250000Y-100750000D03*
X157250000Y-121000000D03*
X148250000Y-100750000D03*
X153250000Y-121000000D03*
X155750000Y-92561766D03*
X155712128Y-91361766D03*
X155750000Y-95810380D03*
X161000000Y-91000000D03*
X150500000Y-105750000D03*
X165000000Y-117500000D03*
X147750000Y-102500000D03*
D32*
X157500000Y-108475054D02*
X157500000Y-107950000D01*
X152975054Y-113000000D02*
X157500000Y-108475054D01*
X161085787Y-123000000D02*
X151085787Y-113000000D01*
X162500000Y-123000000D02*
X161085787Y-123000000D01*
X151085787Y-113000000D02*
X152975054Y-113000000D01*
X145500000Y-118500000D02*
X151000000Y-113000000D01*
X145500000Y-123000000D02*
X145500000Y-118500000D01*
X151000000Y-113000000D02*
X153000000Y-113000000D01*
X148000000Y-113000000D02*
X151000000Y-113000000D01*
X153000000Y-113000000D02*
X157500000Y-108500000D01*
X143500000Y-108500000D02*
X148000000Y-113000000D01*
X143500000Y-107950000D02*
X143500000Y-108500000D01*
X157500000Y-108500000D02*
X157500000Y-107950000D01*
X151500000Y-132914213D02*
X151500000Y-128250000D01*
X156585787Y-138000000D02*
X151500000Y-132914213D01*
X158000000Y-138000000D02*
X156585787Y-138000000D01*
X155308601Y-143000000D02*
X153810000Y-141501399D01*
X158000000Y-143000000D02*
X155308601Y-143000000D01*
X139500000Y-112000000D02*
X139500000Y-108041400D01*
X139500000Y-108041400D02*
X139541400Y-108000000D01*
X135500000Y-108825000D02*
X132205000Y-108825000D01*
X137458600Y-108952500D02*
X135627500Y-108952500D01*
X149950000Y-127025000D02*
X149950000Y-125500000D01*
X139775000Y-93725000D02*
X142250000Y-91250000D01*
X108498601Y-103810000D02*
X127190000Y-103810000D01*
X145191399Y-137500000D02*
X146190000Y-138498601D01*
X143650000Y-95400000D02*
X143250000Y-95800000D01*
X140500000Y-95750000D02*
X139775000Y-95025000D01*
X139775000Y-95025000D02*
X139775000Y-93725000D01*
X134000000Y-107750000D02*
X134425000Y-107750000D01*
X127190000Y-103810000D02*
X133000000Y-98000000D01*
X149950000Y-125500000D02*
X149000000Y-125500000D01*
D33*
X150850000Y-102500000D02*
X147750000Y-102500000D01*
D32*
X108500000Y-110000000D02*
X108500000Y-103811399D01*
X154069211Y-90076761D02*
X155480914Y-88665058D01*
X143250000Y-95800000D02*
X141750000Y-95800000D01*
X141700000Y-95750000D02*
X141750000Y-95800000D01*
X136975000Y-137500000D02*
X145191399Y-137500000D01*
X134025000Y-137500000D02*
X136975000Y-137500000D01*
X132205000Y-108825000D02*
X127190000Y-103810000D01*
D33*
X147500000Y-102750000D02*
X147750000Y-102500000D01*
D32*
X108500000Y-103811399D02*
X108498601Y-103810000D01*
X148730000Y-141501399D02*
X148730000Y-141038601D01*
X148730000Y-141038601D02*
X146190000Y-138498601D01*
X151270000Y-138961399D02*
X153810000Y-141501399D01*
X140500000Y-95750000D02*
X141700000Y-95750000D01*
X145800000Y-95400000D02*
X143650000Y-95400000D01*
X154069211Y-90154572D02*
X154069211Y-90076761D01*
X135627500Y-108952500D02*
X135500000Y-108825000D01*
X149950000Y-132741399D02*
X145191399Y-137500000D01*
D33*
X159250000Y-94000000D02*
X158500000Y-94750000D01*
D32*
X150500000Y-97250000D02*
X151750000Y-97250000D01*
X133000000Y-92775000D02*
X133000000Y-98000000D01*
X151750000Y-97250000D02*
X152500000Y-96500000D01*
X148730000Y-141038601D02*
X151270000Y-138498601D01*
X151270000Y-138498601D02*
X151270000Y-138961399D01*
X142250000Y-91250000D02*
X144400000Y-91250000D01*
D33*
X147725000Y-83275000D02*
X147725000Y-84490000D01*
D32*
X134425000Y-107750000D02*
X135500000Y-108825000D01*
D33*
X158500000Y-94750000D02*
X158500000Y-95000000D01*
D32*
X153150000Y-94600000D02*
X154200000Y-94600000D01*
D33*
X147500000Y-103675000D02*
X147500000Y-102750000D01*
D32*
X149950000Y-127025000D02*
X149950000Y-132741399D01*
D33*
X152500000Y-93500000D02*
X153150000Y-94150000D01*
X147750000Y-83250000D02*
X147725000Y-83275000D01*
X158500000Y-95000000D02*
X157000000Y-95000000D01*
X153150000Y-94150000D02*
X153150000Y-94600000D01*
D32*
X150500000Y-97250000D02*
X153150000Y-94600000D01*
X145800000Y-94600000D02*
X146875000Y-94600000D01*
X120087573Y-124524274D02*
X121225726Y-124524274D01*
D33*
X148350000Y-97850000D02*
X152350000Y-97850000D01*
X154200000Y-97000000D02*
X155500000Y-97000000D01*
D32*
X119760325Y-128443624D02*
X123352427Y-128443624D01*
X143250000Y-94250000D02*
X141750000Y-94250000D01*
X146875000Y-94600000D02*
X147250000Y-94975000D01*
X180239675Y-71556376D02*
X180239675Y-75148478D01*
X120087573Y-128116376D02*
X119760325Y-128443624D01*
X161950000Y-100000000D02*
X158500000Y-96550000D01*
X123679675Y-128116376D02*
X124633624Y-128116376D01*
X120087573Y-124524274D02*
X120087573Y-128116376D01*
X151500000Y-128250000D02*
X151500000Y-127025000D01*
X147675000Y-86000000D02*
X148500000Y-86825000D01*
X119760325Y-128443624D02*
X120806376Y-128443624D01*
X120806376Y-128443624D02*
X124250000Y-125000000D01*
X147250000Y-94975000D02*
X147250000Y-96750000D01*
X179912427Y-75475726D02*
X179912427Y-76587573D01*
X145800000Y-94600000D02*
X143600000Y-94600000D01*
D33*
X155750000Y-96750000D02*
X156800000Y-96750000D01*
D32*
X121225726Y-124524274D02*
X122500000Y-123250000D01*
X123352427Y-132035726D02*
X123352427Y-128443624D01*
D33*
X155500000Y-97000000D02*
X155750000Y-96750000D01*
X147250000Y-96750000D02*
X148350000Y-97850000D01*
D32*
X123352427Y-132035726D02*
X124714274Y-132035726D01*
X159950000Y-96550000D02*
X158500000Y-96550000D01*
X124714274Y-132035726D02*
X128000000Y-128750000D01*
X141750000Y-94250000D02*
X140500000Y-94250000D01*
X124633624Y-128116376D02*
X126000000Y-126750000D01*
X148500000Y-86825000D02*
X148500000Y-87250000D01*
X151500000Y-127025000D02*
X151500000Y-125500000D01*
X123352427Y-128443624D02*
X123679675Y-128116376D01*
X162000000Y-100000000D02*
X161950000Y-100000000D01*
X180239675Y-75148478D02*
X179912427Y-75475726D01*
X158500000Y-96550000D02*
X157000000Y-96550000D01*
D33*
X156800000Y-96750000D02*
X157000000Y-96550000D01*
X153200000Y-97000000D02*
X154200000Y-97000000D01*
D32*
X151500000Y-125500000D02*
X151500000Y-123000000D01*
X143600000Y-94600000D02*
X143250000Y-94250000D01*
D33*
X152350000Y-97850000D02*
X153200000Y-97000000D01*
D32*
X136500000Y-93000000D02*
X136500000Y-91097100D01*
X145800000Y-97000000D02*
X140500000Y-97000000D01*
X136372100Y-91225000D02*
X136500000Y-91097100D01*
X133000000Y-91225000D02*
X136372100Y-91225000D01*
X140500000Y-97000000D02*
X136500000Y-93000000D01*
X136500000Y-99902900D02*
X138597100Y-99902900D01*
X133000000Y-99550000D02*
X136147100Y-99550000D01*
X140700000Y-97800000D02*
X145800000Y-97800000D01*
X136147100Y-99550000D02*
X136500000Y-99902900D01*
X138597100Y-99902900D02*
X140700000Y-97800000D01*
X135500000Y-131000000D02*
X135500000Y-136000000D01*
X143500000Y-123000000D02*
X135500000Y-131000000D01*
X139541400Y-108000000D02*
X143450000Y-108000000D01*
D33*
X157500000Y-109425000D02*
X157500000Y-107950000D01*
D32*
X139541400Y-104458600D02*
X139541400Y-108000000D01*
X143250000Y-100750000D02*
X139541400Y-104458600D01*
X145250000Y-100750000D02*
X143250000Y-100750000D01*
X143450000Y-108000000D02*
X143500000Y-107950000D01*
D33*
X144394711Y-93800000D02*
X144377673Y-93817038D01*
X135500000Y-107175000D02*
X137331100Y-107175000D01*
D32*
X130500000Y-104000000D02*
X130500000Y-105500000D01*
X132025000Y-107025000D02*
X135350000Y-107025000D01*
D33*
X137331100Y-107175000D02*
X137458600Y-107047500D01*
D32*
X135350000Y-107025000D02*
X135500000Y-107175000D01*
X137500000Y-107006100D02*
X137458600Y-107047500D01*
D33*
X145800000Y-93800000D02*
X144394711Y-93800000D01*
D32*
X137500000Y-105500000D02*
X137500000Y-107006100D01*
X130500000Y-105500000D02*
X132025000Y-107025000D01*
D34*
X147500000Y-107950000D02*
X147500000Y-105325000D01*
D32*
X161500000Y-88000000D02*
X161500000Y-85000000D01*
X155750000Y-93500000D02*
X156000000Y-93500000D01*
X156000000Y-93500000D02*
X161500000Y-88000000D01*
D33*
X155450000Y-93800000D02*
X154200000Y-93800000D01*
X155750000Y-93500000D02*
X155450000Y-93800000D01*
D32*
X134046051Y-82250000D02*
X121556376Y-69760325D01*
X148750000Y-82250000D02*
X134046051Y-82250000D01*
X150400000Y-90800000D02*
X150400000Y-83900000D01*
X150400000Y-83900000D02*
X148750000Y-82250000D01*
X111501399Y-101270000D02*
X114230000Y-101270000D01*
D33*
X144400000Y-93000000D02*
X145800000Y-93000000D01*
D32*
X114230000Y-101270000D02*
X114250000Y-101250000D01*
X142500000Y-104500000D02*
X144334541Y-104500000D01*
D33*
X145534859Y-107915141D02*
X145500000Y-107950000D01*
X144384076Y-96243320D02*
X145756680Y-96243320D01*
X145534859Y-105700318D02*
X145534859Y-107915141D01*
D32*
X144334541Y-104500000D02*
X145534859Y-105700318D01*
D33*
X145756680Y-96243320D02*
X145800000Y-96200000D01*
D32*
X152800000Y-99200000D02*
X152800000Y-100300000D01*
X178443624Y-129193624D02*
X178443624Y-130239675D01*
X155750000Y-103250000D02*
X155750000Y-105750000D01*
X167500000Y-101250000D02*
X165000000Y-103750000D01*
X155750000Y-107700000D02*
X155500000Y-107950000D01*
X155750000Y-105750000D02*
X155750000Y-107700000D01*
X191501399Y-101270000D02*
X167520000Y-101270000D01*
X152800000Y-100300000D02*
X155750000Y-103250000D01*
X167520000Y-101270000D02*
X167500000Y-101250000D01*
X175000000Y-125750000D02*
X178443624Y-129193624D01*
X165000000Y-103750000D02*
X165000000Y-110000000D01*
D33*
X145700000Y-92100000D02*
X145800000Y-92200000D01*
D32*
X114250000Y-98750000D02*
X114230000Y-98730000D01*
X114230000Y-98730000D02*
X108498601Y-98730000D01*
D33*
X144400000Y-92100000D02*
X145700000Y-92100000D01*
D32*
X167500000Y-96250000D02*
X191441399Y-96250000D01*
X149614850Y-89422008D02*
X149614850Y-90785150D01*
X179000000Y-121750000D02*
X182035726Y-124785726D01*
X149614850Y-90785150D02*
X149600000Y-90800000D01*
X149325000Y-86260000D02*
X149325000Y-84800000D01*
X149614850Y-89422008D02*
X149614850Y-86549850D01*
X149614850Y-86549850D02*
X149325000Y-86260000D01*
X182035726Y-124785726D02*
X182035726Y-126647573D01*
X191441399Y-96250000D02*
X191501399Y-96190000D01*
X149325000Y-84800000D02*
X149275000Y-84750000D01*
X152000000Y-101500000D02*
X152000000Y-99200000D01*
X167500000Y-109515255D02*
X162015255Y-115000000D01*
X153500000Y-106000000D02*
X153750000Y-105750000D01*
X188438601Y-103750000D02*
X188498601Y-103810000D01*
X153750000Y-103250000D02*
X152000000Y-101500000D01*
X153500000Y-107950000D02*
X153500000Y-106000000D01*
X162015255Y-115000000D02*
X161500000Y-115000000D01*
X167500000Y-103750000D02*
X188438601Y-103750000D01*
X174524274Y-128274274D02*
X174524274Y-129912427D01*
X153750000Y-105750000D02*
X153750000Y-103250000D01*
X173500000Y-127250000D02*
X174524274Y-128274274D01*
X167500000Y-103750000D02*
X167500000Y-109515255D01*
D33*
X147500000Y-123000000D02*
X147500000Y-121250000D01*
X146250000Y-100750000D02*
X147200000Y-99800000D01*
X147500000Y-121250000D02*
X147250000Y-121000000D01*
D32*
X147500000Y-124475000D02*
X143000000Y-128975000D01*
X147500000Y-123000000D02*
X147500000Y-124475000D01*
X143000000Y-128975000D02*
X143000000Y-132000000D01*
D33*
X147200000Y-99800000D02*
X147200000Y-99200000D01*
D32*
X146190000Y-58961399D02*
X148730000Y-61501399D01*
X148730000Y-61501399D02*
X150001399Y-61501399D01*
X146190000Y-58498601D02*
X146190000Y-58961399D01*
X152000000Y-89362500D02*
X152000000Y-90800000D01*
X156250000Y-85112500D02*
X152000000Y-89362500D01*
X156250000Y-67750000D02*
X156250000Y-85112500D01*
X150001399Y-61501399D02*
X156250000Y-67750000D01*
X167500000Y-98750000D02*
X167520000Y-98730000D01*
X155700000Y-97800000D02*
X154200000Y-97800000D01*
X167520000Y-98730000D02*
X188498601Y-98730000D01*
X178116376Y-124866376D02*
X178116376Y-126320325D01*
X151500000Y-106250000D02*
X151500000Y-107950000D01*
X177000000Y-123750000D02*
X178116376Y-124866376D01*
X152000000Y-105750000D02*
X151500000Y-106250000D01*
X167500000Y-98750000D02*
X161500000Y-104750000D01*
X161500000Y-104750000D02*
X161500000Y-110000000D01*
X155750000Y-97750000D02*
X155700000Y-97800000D01*
X188478601Y-98750000D02*
X188498601Y-98730000D01*
X151200000Y-83450000D02*
X151200000Y-90800000D01*
X136638153Y-81250000D02*
X149000000Y-81250000D01*
X125475726Y-70087573D02*
X136638153Y-81250000D01*
X149000000Y-81250000D02*
X151200000Y-83450000D01*
X121883624Y-73679675D02*
X134203949Y-86000000D01*
X134203949Y-86000000D02*
X145750000Y-86000000D01*
X145750000Y-86000000D02*
X148800000Y-89050000D01*
X148800000Y-89050000D02*
X148800000Y-90800000D01*
D33*
X155500000Y-121250000D02*
X155250000Y-121000000D01*
X149250000Y-100750000D02*
X149600000Y-100400000D01*
D32*
X155500000Y-123000000D02*
X155500000Y-129500000D01*
D33*
X155500000Y-123000000D02*
X155500000Y-121250000D01*
D32*
X155500000Y-129500000D02*
X158000000Y-132000000D01*
D33*
X149600000Y-100400000D02*
X149600000Y-99200000D01*
D32*
X149500000Y-123525054D02*
X147000000Y-126025054D01*
D33*
X149500000Y-123000000D02*
X149500000Y-121250000D01*
X149500000Y-121250000D02*
X149250000Y-121000000D01*
X148000000Y-100000000D02*
X147250000Y-100750000D01*
D32*
X149500000Y-123000000D02*
X149500000Y-123525054D01*
X147000000Y-126025054D02*
X147000000Y-132000000D01*
D33*
X148000000Y-99200000D02*
X148000000Y-100000000D01*
X150400000Y-100600000D02*
X150400000Y-99200000D01*
X157500000Y-123000000D02*
X157500000Y-121250000D01*
X150250000Y-100750000D02*
X150400000Y-100600000D01*
D32*
X157500000Y-127000000D02*
X162500000Y-132000000D01*
D33*
X157500000Y-121250000D02*
X157250000Y-121000000D01*
D32*
X157500000Y-123000000D02*
X157500000Y-127000000D01*
D33*
X153500000Y-123000000D02*
X153500000Y-121250000D01*
X148800000Y-100200000D02*
X148800000Y-99200000D01*
X153500000Y-121250000D02*
X153250000Y-121000000D01*
D32*
X153500000Y-123000000D02*
X153500000Y-132000000D01*
D33*
X148250000Y-100750000D02*
X148800000Y-100200000D01*
D32*
X111501399Y-96190000D02*
X119691399Y-88000000D01*
X119691399Y-88000000D02*
X144400000Y-88000000D01*
X144400000Y-88000000D02*
X147200000Y-90800000D01*
X159500000Y-84585787D02*
X159500000Y-88811766D01*
X165000000Y-80500000D02*
X163585787Y-80500000D01*
X159500000Y-88811766D02*
X155750000Y-92561766D01*
D33*
X155311766Y-93000000D02*
X154200000Y-93000000D01*
D32*
X163585787Y-80500000D02*
X159500000Y-84585787D01*
D33*
X155750000Y-92561766D02*
X155311766Y-93000000D01*
D32*
X153810000Y-61501399D02*
X153810000Y-64060000D01*
X152800000Y-90200000D02*
X152800000Y-90800000D01*
X153810000Y-64060000D02*
X157000000Y-67250000D01*
X151270000Y-58961399D02*
X153810000Y-61501399D01*
X157000000Y-67250000D02*
X157000000Y-86000000D01*
X151270000Y-58498601D02*
X151270000Y-58961399D01*
X157000000Y-86000000D02*
X152800000Y-90200000D01*
X157260075Y-93275000D02*
X161725000Y-93275000D01*
X176647573Y-67964274D02*
X176647573Y-71556376D01*
X161725000Y-93275000D02*
X176320325Y-78679675D01*
X176320325Y-78679675D02*
X176320325Y-71883624D01*
X155135075Y-95400000D02*
X157260075Y-93275000D01*
X176647573Y-71556376D02*
X176320325Y-71883624D01*
X154200000Y-95400000D02*
X155135075Y-95400000D01*
D33*
X155038234Y-91361766D02*
X154200000Y-92200000D01*
D32*
X155712128Y-91361766D02*
X158825000Y-88248894D01*
X158825000Y-83175000D02*
X161500000Y-80500000D01*
X158825000Y-88248894D02*
X158825000Y-83175000D01*
D33*
X155712128Y-91361766D02*
X155038234Y-91361766D01*
D32*
X165000000Y-87000000D02*
X165000000Y-85000000D01*
D33*
X155360380Y-96200000D02*
X155750000Y-95810380D01*
X154200000Y-96200000D02*
X155360380Y-96200000D01*
D32*
X161000000Y-91000000D02*
X165000000Y-87000000D01*
X165000000Y-115000000D02*
X165000000Y-117500000D01*
X151575000Y-104675000D02*
X150500000Y-105750000D01*
X149500000Y-107950000D02*
X149500000Y-106750000D01*
X149500000Y-106750000D02*
X150500000Y-105750000D01*
X151200000Y-99200000D02*
X151200000Y-101824695D01*
X151200000Y-101824695D02*
X151575000Y-102199695D01*
X151575000Y-102199695D02*
X151575000Y-104675000D01*
X145387500Y-87000000D02*
X131611847Y-87000000D01*
X148000000Y-90800000D02*
X148000000Y-89612500D01*
X131611847Y-87000000D02*
X117964274Y-73352427D01*
X148000000Y-89612500D02*
X145387500Y-87000000D01*
X179912427Y-76587573D02*
X159950000Y-96550000D01*
X182500000Y-82500000D02*
X182500000Y-78063299D01*
X182500000Y-78063299D02*
X179912427Y-75475726D01*
G04 #@! TA.AperFunction,Conductor*
G36*
X151086227Y-114077653D02*
G01*
X151130571Y-114106152D01*
X154224448Y-117200028D01*
X157055880Y-120031460D01*
X157089365Y-120092783D01*
X157084381Y-120162475D01*
X157042509Y-120218408D01*
X157009154Y-120236182D01*
X156900480Y-120274209D01*
X156747737Y-120370184D01*
X156620184Y-120497737D01*
X156524211Y-120650476D01*
X156464631Y-120820745D01*
X156464630Y-120820750D01*
X156444435Y-120999996D01*
X156444435Y-121000004D01*
X156448387Y-121035082D01*
X156436332Y-121103904D01*
X156388983Y-121155283D01*
X156321372Y-121172907D01*
X156259195Y-121153959D01*
X156174662Y-121100843D01*
X156157555Y-121094857D01*
X156100779Y-121054135D01*
X156083950Y-121025269D01*
X156055567Y-120956746D01*
X156046909Y-120923179D01*
X156035369Y-120820750D01*
X156035368Y-120820745D01*
X155994127Y-120702885D01*
X155975789Y-120650478D01*
X155879816Y-120497738D01*
X155752262Y-120370184D01*
X155599523Y-120274211D01*
X155429254Y-120214631D01*
X155429249Y-120214630D01*
X155250004Y-120194435D01*
X155249996Y-120194435D01*
X155070750Y-120214630D01*
X155070745Y-120214631D01*
X154900476Y-120274211D01*
X154747737Y-120370184D01*
X154620184Y-120497737D01*
X154524211Y-120650476D01*
X154464631Y-120820745D01*
X154464630Y-120820750D01*
X154444435Y-120999996D01*
X154444435Y-121000004D01*
X154448387Y-121035082D01*
X154436332Y-121103904D01*
X154388983Y-121155283D01*
X154321372Y-121172907D01*
X154259195Y-121153959D01*
X154174662Y-121100843D01*
X154157555Y-121094857D01*
X154100779Y-121054135D01*
X154083950Y-121025269D01*
X154055567Y-120956746D01*
X154046909Y-120923179D01*
X154035369Y-120820750D01*
X154035368Y-120820745D01*
X153994127Y-120702885D01*
X153975789Y-120650478D01*
X153879816Y-120497738D01*
X153752262Y-120370184D01*
X153599523Y-120274211D01*
X153429254Y-120214631D01*
X153429249Y-120214630D01*
X153250004Y-120194435D01*
X153249996Y-120194435D01*
X153070750Y-120214630D01*
X153070745Y-120214631D01*
X152900476Y-120274211D01*
X152747737Y-120370184D01*
X152620184Y-120497737D01*
X152524211Y-120650476D01*
X152464631Y-120820745D01*
X152464630Y-120820750D01*
X152444435Y-120999996D01*
X152444435Y-121000004D01*
X152448387Y-121035082D01*
X152436332Y-121103904D01*
X152388983Y-121155283D01*
X152321372Y-121172907D01*
X152259195Y-121153959D01*
X152174665Y-121100845D01*
X152174664Y-121100844D01*
X152174663Y-121100844D01*
X152132896Y-121086229D01*
X152000671Y-121039961D01*
X151863442Y-121024500D01*
X151863438Y-121024500D01*
X151136562Y-121024500D01*
X151136558Y-121024500D01*
X150999328Y-121039961D01*
X150825334Y-121100845D01*
X150669257Y-121198915D01*
X150587681Y-121280492D01*
X150526358Y-121313977D01*
X150456666Y-121308993D01*
X150412319Y-121280492D01*
X150330742Y-121198915D01*
X150174662Y-121100843D01*
X150157555Y-121094857D01*
X150100779Y-121054135D01*
X150083950Y-121025269D01*
X150055567Y-120956746D01*
X150046909Y-120923179D01*
X150035369Y-120820750D01*
X150035368Y-120820745D01*
X149994127Y-120702885D01*
X149975789Y-120650478D01*
X149879816Y-120497738D01*
X149752262Y-120370184D01*
X149599523Y-120274211D01*
X149429254Y-120214631D01*
X149429249Y-120214630D01*
X149250004Y-120194435D01*
X149249996Y-120194435D01*
X149070750Y-120214630D01*
X149070745Y-120214631D01*
X148900476Y-120274211D01*
X148747737Y-120370184D01*
X148620184Y-120497737D01*
X148524211Y-120650476D01*
X148464631Y-120820745D01*
X148464630Y-120820750D01*
X148444435Y-120999996D01*
X148444435Y-121000004D01*
X148448387Y-121035082D01*
X148436332Y-121103904D01*
X148388983Y-121155283D01*
X148321372Y-121172907D01*
X148259195Y-121153959D01*
X148174662Y-121100843D01*
X148157555Y-121094857D01*
X148100779Y-121054135D01*
X148083950Y-121025269D01*
X148055567Y-120956746D01*
X148046909Y-120923179D01*
X148035369Y-120820750D01*
X148035368Y-120820745D01*
X147994127Y-120702885D01*
X147975789Y-120650478D01*
X147879816Y-120497738D01*
X147752262Y-120370184D01*
X147599523Y-120274211D01*
X147429254Y-120214631D01*
X147429249Y-120214630D01*
X147250004Y-120194435D01*
X147249996Y-120194435D01*
X147070750Y-120214630D01*
X147070745Y-120214631D01*
X146900476Y-120274211D01*
X146747737Y-120370184D01*
X146620184Y-120497737D01*
X146524209Y-120650480D01*
X146491541Y-120743840D01*
X146450820Y-120800616D01*
X146385867Y-120826363D01*
X146317305Y-120812907D01*
X146266903Y-120764519D01*
X146250500Y-120702885D01*
X146250500Y-118862229D01*
X146270185Y-118795190D01*
X146286819Y-118774548D01*
X148601797Y-116459570D01*
X150955214Y-114106152D01*
X151016535Y-114072669D01*
X151086227Y-114077653D01*
G37*
G04 #@! TD.AperFunction*
G04 #@! TA.AperFunction,Conductor*
G36*
X149815973Y-101422691D02*
G01*
X149900475Y-101475788D01*
X150070745Y-101535368D01*
X150070750Y-101535369D01*
X150249996Y-101555565D01*
X150250000Y-101555565D01*
X150250001Y-101555565D01*
X150258324Y-101554627D01*
X150311617Y-101548622D01*
X150380437Y-101560676D01*
X150431817Y-101608024D01*
X150449500Y-101671842D01*
X150449500Y-101898613D01*
X150449500Y-101898615D01*
X150449499Y-101898615D01*
X150478340Y-102043602D01*
X150478343Y-102043612D01*
X150534912Y-102180183D01*
X150534920Y-102180197D01*
X150562622Y-102221655D01*
X150562623Y-102221658D01*
X150617046Y-102303109D01*
X150617047Y-102303110D01*
X150617048Y-102303111D01*
X150788182Y-102474244D01*
X150821666Y-102535565D01*
X150824500Y-102561924D01*
X150824500Y-104312769D01*
X150804815Y-104379808D01*
X150788181Y-104400450D01*
X150191937Y-104996693D01*
X150155873Y-105019370D01*
X150156750Y-105021191D01*
X150150475Y-105024212D01*
X149997737Y-105120184D01*
X149870184Y-105247737D01*
X149774208Y-105400483D01*
X149771186Y-105406758D01*
X149769361Y-105405878D01*
X149746692Y-105441939D01*
X149250451Y-105938181D01*
X149189128Y-105971666D01*
X149162770Y-105974500D01*
X149136558Y-105974500D01*
X148999328Y-105989961D01*
X148825334Y-106050845D01*
X148669257Y-106148915D01*
X148587681Y-106230492D01*
X148526358Y-106263977D01*
X148456666Y-106258993D01*
X148412319Y-106230492D01*
X148325818Y-106143991D01*
X148327539Y-106142269D01*
X148293927Y-106094355D01*
X148291096Y-106024543D01*
X148323711Y-105966945D01*
X148330472Y-105960185D01*
X148418478Y-105814606D01*
X148469086Y-105652196D01*
X148475500Y-105581616D01*
X148475500Y-105068384D01*
X148469086Y-104997804D01*
X148418478Y-104835394D01*
X148330472Y-104689815D01*
X148330470Y-104689813D01*
X148330469Y-104689811D01*
X148227984Y-104587326D01*
X148194499Y-104526003D01*
X148199483Y-104456311D01*
X148227985Y-104411963D01*
X148330071Y-104309878D01*
X148330072Y-104309877D01*
X148418019Y-104164395D01*
X148468590Y-104002106D01*
X148475000Y-103931572D01*
X148475000Y-103925000D01*
X146525001Y-103925000D01*
X146525001Y-103931582D01*
X146531408Y-104002102D01*
X146531409Y-104002107D01*
X146581981Y-104164396D01*
X146669927Y-104309877D01*
X146772015Y-104411965D01*
X146805500Y-104473288D01*
X146800516Y-104542980D01*
X146772015Y-104587327D01*
X146669531Y-104689810D01*
X146669530Y-104689811D01*
X146581522Y-104835393D01*
X146530913Y-104997807D01*
X146524500Y-105068386D01*
X146524500Y-105375028D01*
X146504815Y-105442067D01*
X146452011Y-105487822D01*
X146382853Y-105497766D01*
X146319297Y-105468741D01*
X146283459Y-105415983D01*
X146260649Y-105350798D01*
X146241769Y-105320750D01*
X146164675Y-105198056D01*
X146037121Y-105070502D01*
X145963451Y-105024212D01*
X145884375Y-104974525D01*
X145878106Y-104971506D01*
X145878988Y-104969674D01*
X145842919Y-104947010D01*
X144812962Y-103917052D01*
X144812955Y-103917046D01*
X144739270Y-103867812D01*
X144739270Y-103867813D01*
X144690032Y-103834913D01*
X144553458Y-103778343D01*
X144553448Y-103778340D01*
X144408461Y-103749500D01*
X144408459Y-103749500D01*
X143869136Y-103749500D01*
X143802097Y-103729815D01*
X143765327Y-103693322D01*
X143688164Y-103575215D01*
X143543831Y-103418427D01*
X146525000Y-103418427D01*
X146525000Y-103425000D01*
X147250000Y-103425000D01*
X147750000Y-103425000D01*
X148474999Y-103425000D01*
X148474999Y-103418417D01*
X148468591Y-103347897D01*
X148468590Y-103347892D01*
X148418018Y-103185603D01*
X148330072Y-103040122D01*
X148209877Y-102919927D01*
X148064395Y-102831980D01*
X148064396Y-102831980D01*
X147902105Y-102781409D01*
X147902106Y-102781409D01*
X147831572Y-102775000D01*
X147750000Y-102775000D01*
X147750000Y-103425000D01*
X147250000Y-103425000D01*
X147250000Y-102775000D01*
X147249999Y-102774999D01*
X147168417Y-102775000D01*
X147097897Y-102781408D01*
X147097892Y-102781409D01*
X146935603Y-102831981D01*
X146790122Y-102919927D01*
X146669927Y-103040122D01*
X146581980Y-103185604D01*
X146531409Y-103347893D01*
X146525000Y-103418427D01*
X143543831Y-103418427D01*
X143519744Y-103392262D01*
X143323509Y-103239526D01*
X143323507Y-103239525D01*
X143323506Y-103239524D01*
X143104811Y-103121172D01*
X143104802Y-103121169D01*
X142869616Y-103040429D01*
X142624335Y-102999500D01*
X142375665Y-102999500D01*
X142375653Y-102999500D01*
X142370615Y-102999917D01*
X142302180Y-102985830D01*
X142252226Y-102936980D01*
X142236612Y-102868877D01*
X142260295Y-102803144D01*
X142272698Y-102788667D01*
X143524548Y-101536819D01*
X143585871Y-101503334D01*
X143612229Y-101500500D01*
X144950028Y-101500500D01*
X144990983Y-101507458D01*
X145070745Y-101535368D01*
X145070750Y-101535369D01*
X145249996Y-101555565D01*
X145250000Y-101555565D01*
X145250004Y-101555565D01*
X145429249Y-101535369D01*
X145429252Y-101535368D01*
X145429255Y-101535368D01*
X145599522Y-101475789D01*
X145625335Y-101459570D01*
X145684027Y-101422691D01*
X145751264Y-101403690D01*
X145815973Y-101422691D01*
X145900475Y-101475788D01*
X146070745Y-101535368D01*
X146070750Y-101535369D01*
X146249996Y-101555565D01*
X146250000Y-101555565D01*
X146250004Y-101555565D01*
X146429249Y-101535369D01*
X146429252Y-101535368D01*
X146429255Y-101535368D01*
X146599522Y-101475789D01*
X146625335Y-101459570D01*
X146684027Y-101422691D01*
X146751264Y-101403690D01*
X146815973Y-101422691D01*
X146900475Y-101475788D01*
X147070745Y-101535368D01*
X147070750Y-101535369D01*
X147249996Y-101555565D01*
X147250000Y-101555565D01*
X147250004Y-101555565D01*
X147429249Y-101535369D01*
X147429252Y-101535368D01*
X147429255Y-101535368D01*
X147599522Y-101475789D01*
X147625335Y-101459570D01*
X147684027Y-101422691D01*
X147751264Y-101403690D01*
X147815973Y-101422691D01*
X147900475Y-101475788D01*
X148070745Y-101535368D01*
X148070750Y-101535369D01*
X148249996Y-101555565D01*
X148250000Y-101555565D01*
X148250004Y-101555565D01*
X148429249Y-101535369D01*
X148429252Y-101535368D01*
X148429255Y-101535368D01*
X148599522Y-101475789D01*
X148625335Y-101459570D01*
X148684027Y-101422691D01*
X148751264Y-101403690D01*
X148815973Y-101422691D01*
X148900475Y-101475788D01*
X149070745Y-101535368D01*
X149070750Y-101535369D01*
X149249996Y-101555565D01*
X149250000Y-101555565D01*
X149250004Y-101555565D01*
X149429249Y-101535369D01*
X149429252Y-101535368D01*
X149429255Y-101535368D01*
X149599522Y-101475789D01*
X149625335Y-101459570D01*
X149684027Y-101422691D01*
X149751264Y-101403690D01*
X149815973Y-101422691D01*
G37*
G04 #@! TD.AperFunction*
G04 #@! TA.AperFunction,Conductor*
G36*
X147617514Y-92044089D02*
G01*
X147617517Y-92044091D01*
X147677127Y-92050500D01*
X148322872Y-92050499D01*
X148382483Y-92044091D01*
X148382486Y-92044089D01*
X148386744Y-92043632D01*
X148413254Y-92043632D01*
X148417514Y-92044089D01*
X148417517Y-92044091D01*
X148477127Y-92050500D01*
X149122872Y-92050499D01*
X149182483Y-92044091D01*
X149182486Y-92044089D01*
X149186744Y-92043632D01*
X149213254Y-92043632D01*
X149217514Y-92044089D01*
X149217517Y-92044091D01*
X149277127Y-92050500D01*
X149922872Y-92050499D01*
X149982483Y-92044091D01*
X149982486Y-92044089D01*
X149986744Y-92043632D01*
X150013254Y-92043632D01*
X150017514Y-92044089D01*
X150017517Y-92044091D01*
X150077127Y-92050500D01*
X150722872Y-92050499D01*
X150782483Y-92044091D01*
X150782486Y-92044089D01*
X150786744Y-92043632D01*
X150813254Y-92043632D01*
X150817514Y-92044089D01*
X150817517Y-92044091D01*
X150877127Y-92050500D01*
X151522872Y-92050499D01*
X151582483Y-92044091D01*
X151582486Y-92044089D01*
X151586744Y-92043632D01*
X151613254Y-92043632D01*
X151617514Y-92044089D01*
X151617517Y-92044091D01*
X151677127Y-92050500D01*
X152322872Y-92050499D01*
X152382483Y-92044091D01*
X152382486Y-92044089D01*
X152386744Y-92043632D01*
X152413254Y-92043632D01*
X152417514Y-92044089D01*
X152417517Y-92044091D01*
X152477127Y-92050500D01*
X152825500Y-92050499D01*
X152892539Y-92070183D01*
X152938294Y-92122987D01*
X152949500Y-92174499D01*
X152949500Y-92522869D01*
X152949501Y-92522879D01*
X152956367Y-92586751D01*
X152956367Y-92613257D01*
X152955909Y-92617516D01*
X152955909Y-92617517D01*
X152949500Y-92677127D01*
X152949500Y-92677129D01*
X152949500Y-92677133D01*
X152949500Y-93322870D01*
X152949501Y-93322879D01*
X152956367Y-93386751D01*
X152956367Y-93413257D01*
X152955909Y-93417516D01*
X152955909Y-93417517D01*
X152949500Y-93477127D01*
X152949500Y-93477129D01*
X152949500Y-93477133D01*
X152949500Y-94122870D01*
X152949501Y-94122876D01*
X152956619Y-94189092D01*
X152956619Y-94215599D01*
X152950000Y-94277169D01*
X152950000Y-94350000D01*
X152968591Y-94350000D01*
X153035630Y-94369685D01*
X153067855Y-94399686D01*
X153092454Y-94432546D01*
X153092455Y-94432546D01*
X153092456Y-94432548D01*
X153183540Y-94500734D01*
X153225411Y-94556668D01*
X153230395Y-94626359D01*
X153196909Y-94687682D01*
X153183540Y-94699266D01*
X153092456Y-94767451D01*
X153092454Y-94767454D01*
X153067856Y-94800312D01*
X153011924Y-94842182D01*
X152968591Y-94850000D01*
X152950000Y-94850000D01*
X152950000Y-94922844D01*
X152956619Y-94984398D01*
X152956620Y-95010909D01*
X152955909Y-95017514D01*
X152955909Y-95017517D01*
X152949500Y-95077127D01*
X152949500Y-95077134D01*
X152949500Y-95077135D01*
X152949500Y-95722870D01*
X152949501Y-95722879D01*
X152956367Y-95786751D01*
X152956367Y-95813257D01*
X152955909Y-95817516D01*
X152955909Y-95817517D01*
X152949500Y-95877127D01*
X152949500Y-95877132D01*
X152949500Y-96348816D01*
X152929815Y-96415855D01*
X152894391Y-96451918D01*
X152801267Y-96514141D01*
X152801263Y-96514144D01*
X152127229Y-97188181D01*
X152065906Y-97221666D01*
X152039548Y-97224500D01*
X148660452Y-97224500D01*
X148593413Y-97204815D01*
X148572771Y-97188181D01*
X148076211Y-96691621D01*
X148042726Y-96630298D01*
X148040673Y-96617838D01*
X148035368Y-96570745D01*
X148007458Y-96490982D01*
X148000500Y-96450028D01*
X148000500Y-94901079D01*
X147971659Y-94756092D01*
X147971658Y-94756091D01*
X147971658Y-94756087D01*
X147918351Y-94627392D01*
X147915087Y-94619511D01*
X147915080Y-94619498D01*
X147832952Y-94496585D01*
X147802874Y-94466507D01*
X147728416Y-94392049D01*
X147653698Y-94317331D01*
X147353421Y-94017052D01*
X147353418Y-94017049D01*
X147279192Y-93967454D01*
X147230495Y-93934916D01*
X147147349Y-93900476D01*
X147127046Y-93892066D01*
X147072643Y-93848225D01*
X147050578Y-93781931D01*
X147050499Y-93777505D01*
X147050499Y-93477129D01*
X147050499Y-93477128D01*
X147044091Y-93417517D01*
X147044089Y-93417513D01*
X147043632Y-93413255D01*
X147043632Y-93386745D01*
X147044089Y-93382486D01*
X147044091Y-93382483D01*
X147050500Y-93322873D01*
X147050499Y-92677128D01*
X147044091Y-92617517D01*
X147044089Y-92617513D01*
X147043632Y-92613255D01*
X147043632Y-92586745D01*
X147044089Y-92582486D01*
X147044091Y-92582483D01*
X147050500Y-92522873D01*
X147050499Y-92174498D01*
X147070183Y-92107460D01*
X147122987Y-92061705D01*
X147174499Y-92050499D01*
X147522871Y-92050499D01*
X147522872Y-92050499D01*
X147582483Y-92044091D01*
X147582486Y-92044089D01*
X147586744Y-92043632D01*
X147613254Y-92043632D01*
X147617514Y-92044089D01*
G37*
G04 #@! TD.AperFunction*
G04 #@! TA.AperFunction,Conductor*
G36*
X144104809Y-88770185D02*
G01*
X144125451Y-88786819D01*
X146388181Y-91049549D01*
X146421666Y-91110872D01*
X146424500Y-91137230D01*
X146424500Y-91300500D01*
X146404815Y-91367539D01*
X146352011Y-91413294D01*
X146300500Y-91424500D01*
X145002129Y-91424500D01*
X145002123Y-91424501D01*
X144942517Y-91430908D01*
X144935443Y-91433547D01*
X144865751Y-91438527D01*
X144826146Y-91422356D01*
X144749520Y-91374209D01*
X144579262Y-91314633D01*
X144579249Y-91314630D01*
X144400004Y-91294435D01*
X144399996Y-91294435D01*
X144220750Y-91314630D01*
X144220745Y-91314631D01*
X144050476Y-91374211D01*
X143897737Y-91470184D01*
X143770184Y-91597737D01*
X143674211Y-91750476D01*
X143614631Y-91920745D01*
X143614630Y-91920750D01*
X143594435Y-92099996D01*
X143594435Y-92100003D01*
X143614630Y-92279249D01*
X143614633Y-92279262D01*
X143674209Y-92449519D01*
X143695893Y-92484030D01*
X143714892Y-92551267D01*
X143695893Y-92615970D01*
X143674209Y-92650480D01*
X143614633Y-92820737D01*
X143614630Y-92820750D01*
X143594435Y-92999996D01*
X143594435Y-93000003D01*
X143612644Y-93161617D01*
X143600589Y-93230439D01*
X143553240Y-93281818D01*
X143489424Y-93299500D01*
X142951662Y-93299500D01*
X142951644Y-93299501D01*
X142852292Y-93309650D01*
X142852289Y-93309651D01*
X142691305Y-93362996D01*
X142691300Y-93362998D01*
X142565097Y-93440842D01*
X142497704Y-93459282D01*
X142434903Y-93440842D01*
X142308699Y-93362998D01*
X142308694Y-93362996D01*
X142147709Y-93309651D01*
X142048346Y-93299500D01*
X141451662Y-93299500D01*
X141451644Y-93299501D01*
X141352292Y-93309650D01*
X141352289Y-93309651D01*
X141191305Y-93362996D01*
X141191294Y-93363001D01*
X141046959Y-93452029D01*
X141046955Y-93452032D01*
X141035807Y-93463181D01*
X140974484Y-93496666D01*
X140948126Y-93499500D01*
X140799972Y-93499500D01*
X140759017Y-93492542D01*
X140679254Y-93464631D01*
X140679249Y-93464630D01*
X140500004Y-93444435D01*
X140499996Y-93444435D01*
X140320750Y-93464630D01*
X140320745Y-93464631D01*
X140150476Y-93524211D01*
X139997737Y-93620184D01*
X139870184Y-93747737D01*
X139774211Y-93900476D01*
X139714631Y-94070745D01*
X139714630Y-94070750D01*
X139694435Y-94249996D01*
X139694435Y-94250003D01*
X139714630Y-94429249D01*
X139714631Y-94429254D01*
X139774211Y-94599523D01*
X139836884Y-94699266D01*
X139870184Y-94752262D01*
X139997738Y-94879816D01*
X140150478Y-94975789D01*
X140255812Y-95012647D01*
X140320745Y-95035368D01*
X140320750Y-95035369D01*
X140499996Y-95055565D01*
X140500000Y-95055565D01*
X140500004Y-95055565D01*
X140679249Y-95035369D01*
X140679250Y-95035368D01*
X140679255Y-95035368D01*
X140734005Y-95016209D01*
X140803782Y-95012647D01*
X140864410Y-95047375D01*
X140896638Y-95109368D01*
X140890234Y-95178944D01*
X140880499Y-95198347D01*
X140838457Y-95266509D01*
X140838452Y-95266518D01*
X140785144Y-95427393D01*
X140775000Y-95526677D01*
X140775000Y-95550000D01*
X143376000Y-95550000D01*
X143443039Y-95569685D01*
X143488794Y-95622489D01*
X143500000Y-95674000D01*
X143500000Y-95926000D01*
X143480315Y-95993039D01*
X143427511Y-96038794D01*
X143376000Y-96050000D01*
X140770126Y-96050000D01*
X140719540Y-96077621D01*
X140649849Y-96072635D01*
X140605503Y-96044135D01*
X137417818Y-92856450D01*
X137384333Y-92795127D01*
X137381499Y-92768769D01*
X137381499Y-88874500D01*
X137401184Y-88807461D01*
X137453988Y-88761706D01*
X137505499Y-88750500D01*
X144037770Y-88750500D01*
X144104809Y-88770185D01*
G37*
G04 #@! TD.AperFunction*
G04 #@! TA.AperFunction,Conductor*
G36*
X161180809Y-94045185D02*
G01*
X161226564Y-94097989D01*
X161236508Y-94167147D01*
X161207483Y-94230703D01*
X161201451Y-94237181D01*
X159675451Y-95763181D01*
X159614128Y-95796666D01*
X159587770Y-95799500D01*
X159469641Y-95799500D01*
X159402602Y-95779815D01*
X159356847Y-95727011D01*
X159346903Y-95657853D01*
X159364103Y-95610403D01*
X159411542Y-95533492D01*
X159411547Y-95533481D01*
X159464855Y-95372606D01*
X159474999Y-95273322D01*
X159475000Y-95273309D01*
X159475000Y-95250000D01*
X156874000Y-95250000D01*
X156806961Y-95230315D01*
X156761206Y-95177511D01*
X156750000Y-95126000D01*
X156750000Y-94897804D01*
X156769685Y-94830765D01*
X156786319Y-94810123D01*
X156810123Y-94786319D01*
X156871446Y-94752834D01*
X156897804Y-94750000D01*
X159474999Y-94750000D01*
X159474999Y-94726692D01*
X159474998Y-94726677D01*
X159464855Y-94627392D01*
X159411547Y-94466518D01*
X159411542Y-94466507D01*
X159322575Y-94322271D01*
X159322572Y-94322267D01*
X159237486Y-94237181D01*
X159204001Y-94175858D01*
X159208985Y-94106166D01*
X159250857Y-94050233D01*
X159316321Y-94025816D01*
X159325167Y-94025500D01*
X161113770Y-94025500D01*
X161180809Y-94045185D01*
G37*
G04 #@! TD.AperFunction*
G04 #@! TA.AperFunction,Conductor*
G36*
X150702226Y-50505506D02*
G01*
X152099094Y-50545052D01*
X152102544Y-50545198D01*
X153497767Y-50624260D01*
X153501207Y-50624503D01*
X154799262Y-50734984D01*
X154893616Y-50743015D01*
X154897111Y-50743362D01*
X156285626Y-50901231D01*
X156289021Y-50901666D01*
X157600668Y-51088531D01*
X157672493Y-51098764D01*
X157675963Y-51099308D01*
X159053323Y-51335480D01*
X159056677Y-51336105D01*
X160426816Y-51611162D01*
X160430181Y-51611887D01*
X161791992Y-51925610D01*
X161795353Y-51926434D01*
X163147730Y-52278565D01*
X163151022Y-52279472D01*
X164307811Y-52615905D01*
X164492913Y-52669740D01*
X164496268Y-52670768D01*
X165826479Y-53098821D01*
X165829805Y-53099943D01*
X167147424Y-53565487D01*
X167150670Y-53566686D01*
X168454594Y-54069334D01*
X168457819Y-54070630D01*
X169721324Y-54599236D01*
X169746962Y-54609962D01*
X169750180Y-54611362D01*
X171023526Y-55186951D01*
X171026700Y-55188439D01*
X172283292Y-55799853D01*
X172286398Y-55801419D01*
X172942411Y-56143902D01*
X173525181Y-56448147D01*
X173528268Y-56449815D01*
X174748245Y-57131335D01*
X174751252Y-57133071D01*
X175951466Y-57848849D01*
X175954384Y-57850645D01*
X177133883Y-58600115D01*
X177136812Y-58602035D01*
X178294615Y-59384574D01*
X178297433Y-59386537D01*
X179432616Y-60201518D01*
X179435434Y-60203602D01*
X180484786Y-61002917D01*
X180547093Y-61050377D01*
X180549843Y-61052535D01*
X181637094Y-61930427D01*
X181639759Y-61932641D01*
X182301752Y-62498848D01*
X182701712Y-62840936D01*
X182704339Y-62843247D01*
X183323001Y-63403471D01*
X183740205Y-63781267D01*
X183742772Y-63783659D01*
X184751656Y-64750596D01*
X184754113Y-64753018D01*
X185296267Y-65302899D01*
X185735227Y-65748115D01*
X185737645Y-65750637D01*
X185890927Y-65915168D01*
X186690216Y-66773112D01*
X186692571Y-66775713D01*
X187044940Y-67176082D01*
X187515921Y-67711221D01*
X187615801Y-67824706D01*
X187618075Y-67827365D01*
X188470733Y-68853312D01*
X188511261Y-68902076D01*
X188513456Y-68904795D01*
X189242668Y-69834523D01*
X189375853Y-70004331D01*
X189377973Y-70007114D01*
X189503682Y-70177082D01*
X190208958Y-71130678D01*
X190211004Y-71133529D01*
X191009817Y-72280099D01*
X191011782Y-72283007D01*
X191379826Y-72844511D01*
X191681575Y-73304873D01*
X191777813Y-73451697D01*
X191779687Y-73454645D01*
X191913435Y-73671865D01*
X192512389Y-74644630D01*
X192514186Y-74647644D01*
X192622291Y-74834887D01*
X193195939Y-75828474D01*
X193212879Y-75857814D01*
X193214581Y-75860860D01*
X193602566Y-76579071D01*
X193878776Y-77090372D01*
X193880400Y-77093483D01*
X194509519Y-78341266D01*
X194511054Y-78344421D01*
X195104603Y-79609493D01*
X195106049Y-79612691D01*
X195663581Y-80894100D01*
X195664935Y-80897338D01*
X196185949Y-82193931D01*
X196187212Y-82197205D01*
X196671355Y-83508105D01*
X196672524Y-83511414D01*
X196868561Y-84092292D01*
X197107951Y-84801632D01*
X197119366Y-84835454D01*
X197120436Y-84838782D01*
X197374499Y-85668384D01*
X197529634Y-86174952D01*
X197530614Y-86178322D01*
X197901833Y-87525528D01*
X197902717Y-87528924D01*
X198235658Y-88886079D01*
X198236446Y-88889499D01*
X198530851Y-90255541D01*
X198531542Y-90258982D01*
X198787173Y-91632816D01*
X198787766Y-91636274D01*
X199004417Y-93016793D01*
X199004912Y-93020268D01*
X199182409Y-94406372D01*
X199182805Y-94409859D01*
X199321001Y-95800387D01*
X199321299Y-95803883D01*
X199420096Y-97197832D01*
X199420294Y-97201336D01*
X199479600Y-98597443D01*
X199479700Y-98600951D01*
X199499475Y-99998245D01*
X199499475Y-100001755D01*
X199479700Y-101399048D01*
X199479600Y-101402556D01*
X199420294Y-102798663D01*
X199420096Y-102802167D01*
X199321299Y-104196116D01*
X199321001Y-104199612D01*
X199182805Y-105590140D01*
X199182409Y-105593627D01*
X199004912Y-106979731D01*
X199004417Y-106983206D01*
X198787766Y-108363725D01*
X198787173Y-108367183D01*
X198531542Y-109741017D01*
X198530851Y-109744458D01*
X198236446Y-111110500D01*
X198235658Y-111113920D01*
X197902717Y-112471075D01*
X197901833Y-112474471D01*
X197530614Y-113821677D01*
X197529634Y-113825047D01*
X197120441Y-115161204D01*
X197119366Y-115164545D01*
X196672524Y-116488585D01*
X196671355Y-116491894D01*
X196187212Y-117802794D01*
X196185949Y-117806068D01*
X195664935Y-119102661D01*
X195663581Y-119105899D01*
X195106049Y-120387308D01*
X195104603Y-120390506D01*
X194511054Y-121655578D01*
X194509519Y-121658733D01*
X193880400Y-122906516D01*
X193878776Y-122909627D01*
X193214591Y-124139121D01*
X193212879Y-124142185D01*
X192514186Y-125352355D01*
X192512389Y-125355369D01*
X191779696Y-126545340D01*
X191777813Y-126548302D01*
X191011782Y-127716992D01*
X191009817Y-127719900D01*
X190211004Y-128866470D01*
X190208958Y-128869321D01*
X189377980Y-129992877D01*
X189375853Y-129995668D01*
X188513466Y-131095192D01*
X188511261Y-131097923D01*
X187618082Y-132172626D01*
X187615801Y-132175293D01*
X186692571Y-133224286D01*
X186690216Y-133226887D01*
X185737656Y-134249350D01*
X185735227Y-134251884D01*
X184754134Y-135246960D01*
X184751635Y-135249424D01*
X183742772Y-136216340D01*
X183740205Y-136218732D01*
X182704347Y-137156745D01*
X182701712Y-137159063D01*
X181639776Y-138067343D01*
X181637077Y-138069586D01*
X180549854Y-138947456D01*
X180547093Y-138949622D01*
X179435438Y-139796394D01*
X179432616Y-139798481D01*
X178297464Y-140613440D01*
X178294585Y-140615446D01*
X177136818Y-141397960D01*
X177133883Y-141399884D01*
X175954419Y-142149332D01*
X175951430Y-142151172D01*
X174751268Y-142866918D01*
X174748229Y-142868673D01*
X173528268Y-143550184D01*
X173525181Y-143551852D01*
X172286412Y-144198573D01*
X172283278Y-144200153D01*
X171026703Y-144811558D01*
X171023526Y-144813048D01*
X169750180Y-145388637D01*
X169746962Y-145390037D01*
X168457835Y-145929362D01*
X168454578Y-145930671D01*
X167150693Y-146433304D01*
X167147401Y-146434520D01*
X165829804Y-146900056D01*
X165826479Y-146901178D01*
X164496268Y-147329231D01*
X164492913Y-147330259D01*
X163151067Y-147720514D01*
X163147683Y-147721446D01*
X161795376Y-148073559D01*
X161791968Y-148074395D01*
X160430214Y-148388105D01*
X160426783Y-148388844D01*
X159056725Y-148663885D01*
X159053275Y-148664527D01*
X157675960Y-148900691D01*
X157672493Y-148901235D01*
X156289064Y-149098327D01*
X156285583Y-149098773D01*
X154897108Y-149256637D01*
X154893616Y-149256984D01*
X153501238Y-149375493D01*
X153497737Y-149375741D01*
X152102572Y-149454799D01*
X152099066Y-149454948D01*
X150702226Y-149494494D01*
X150698717Y-149494544D01*
X149301283Y-149494544D01*
X149297774Y-149494494D01*
X147900933Y-149454948D01*
X147897427Y-149454799D01*
X146502262Y-149375741D01*
X146498761Y-149375493D01*
X145106383Y-149256984D01*
X145102891Y-149256637D01*
X143714416Y-149098773D01*
X143710935Y-149098327D01*
X142327506Y-148901235D01*
X142324039Y-148900691D01*
X140946724Y-148664527D01*
X140943274Y-148663885D01*
X139573216Y-148388844D01*
X139569785Y-148388105D01*
X138208031Y-148074395D01*
X138204623Y-148073559D01*
X136852316Y-147721446D01*
X136848932Y-147720514D01*
X135507086Y-147330259D01*
X135503731Y-147329231D01*
X134173520Y-146901178D01*
X134170195Y-146900056D01*
X132852598Y-146434520D01*
X132849306Y-146433304D01*
X131545421Y-145930671D01*
X131542164Y-145929362D01*
X130253037Y-145390037D01*
X130249819Y-145388637D01*
X128976473Y-144813048D01*
X128973296Y-144811558D01*
X127764928Y-144223609D01*
X157129942Y-144223609D01*
X157176768Y-144260055D01*
X157176770Y-144260056D01*
X157395385Y-144378364D01*
X157395396Y-144378369D01*
X157630506Y-144459083D01*
X157875707Y-144500000D01*
X158124293Y-144500000D01*
X158369493Y-144459083D01*
X158604603Y-144378369D01*
X158604614Y-144378364D01*
X158823228Y-144260057D01*
X158823231Y-144260055D01*
X158870056Y-144223609D01*
X158000000Y-143353553D01*
X157129942Y-144223609D01*
X127764928Y-144223609D01*
X127716721Y-144200153D01*
X127713587Y-144198573D01*
X126474818Y-143551852D01*
X126471731Y-143550184D01*
X126209052Y-143403443D01*
X147734700Y-143403443D01*
X147741101Y-143462971D01*
X147741103Y-143462978D01*
X147791345Y-143597685D01*
X147791349Y-143597692D01*
X147877509Y-143712786D01*
X147877512Y-143712789D01*
X147992606Y-143798949D01*
X147992613Y-143798953D01*
X148127320Y-143849195D01*
X148127327Y-143849197D01*
X148186855Y-143855598D01*
X148186872Y-143855599D01*
X148480000Y-143855599D01*
X148980000Y-143855599D01*
X149273128Y-143855599D01*
X149273144Y-143855598D01*
X149332672Y-143849197D01*
X149332679Y-143849195D01*
X149467386Y-143798953D01*
X149467393Y-143798949D01*
X149582487Y-143712789D01*
X149582490Y-143712786D01*
X149668650Y-143597692D01*
X149668654Y-143597685D01*
X149718896Y-143462978D01*
X149718898Y-143462971D01*
X149725299Y-143403443D01*
X152814700Y-143403443D01*
X152821101Y-143462971D01*
X152821103Y-143462978D01*
X152871345Y-143597685D01*
X152871349Y-143597692D01*
X152957509Y-143712786D01*
X152957512Y-143712789D01*
X153072606Y-143798949D01*
X153072613Y-143798953D01*
X153207320Y-143849195D01*
X153207327Y-143849197D01*
X153266855Y-143855598D01*
X153266872Y-143855599D01*
X153560000Y-143855599D01*
X154060000Y-143855599D01*
X154353128Y-143855599D01*
X154353144Y-143855598D01*
X154412672Y-143849197D01*
X154412679Y-143849195D01*
X154547386Y-143798953D01*
X154547393Y-143798949D01*
X154662487Y-143712789D01*
X154662490Y-143712786D01*
X154748650Y-143597692D01*
X154748654Y-143597685D01*
X154798896Y-143462978D01*
X154798898Y-143462971D01*
X154805299Y-143403443D01*
X154805300Y-143403426D01*
X154805300Y-142999994D01*
X156494859Y-142999994D01*
X156494859Y-143000005D01*
X156515385Y-143247729D01*
X156515387Y-143247738D01*
X156576412Y-143488717D01*
X156676266Y-143716364D01*
X156776564Y-143869882D01*
X157646447Y-143000000D01*
X157646447Y-142999999D01*
X158353553Y-142999999D01*
X158353553Y-143000001D01*
X159223434Y-143869882D01*
X159323731Y-143716369D01*
X159423587Y-143488717D01*
X159484612Y-143247738D01*
X159484614Y-143247729D01*
X159505141Y-143000005D01*
X159505141Y-142999994D01*
X159484614Y-142752270D01*
X159484612Y-142752261D01*
X159423587Y-142511282D01*
X159323731Y-142283630D01*
X159223434Y-142130116D01*
X158353553Y-142999999D01*
X157646447Y-142999999D01*
X156776564Y-142130116D01*
X156676267Y-142283632D01*
X156576412Y-142511282D01*
X156515387Y-142752261D01*
X156515385Y-142752270D01*
X156494859Y-142999994D01*
X154805300Y-142999994D01*
X154805300Y-141776388D01*
X157129942Y-141776388D01*
X157129942Y-141776390D01*
X158000000Y-142646447D01*
X158000001Y-142646447D01*
X158870057Y-141776390D01*
X158870056Y-141776389D01*
X158823229Y-141739943D01*
X158604614Y-141621635D01*
X158604603Y-141621630D01*
X158369493Y-141540916D01*
X158124293Y-141500000D01*
X157875707Y-141500000D01*
X157630506Y-141540916D01*
X157395396Y-141621630D01*
X157395390Y-141621632D01*
X157176761Y-141739949D01*
X157129942Y-141776388D01*
X154805300Y-141776388D01*
X154805300Y-141751399D01*
X154060000Y-141751399D01*
X154060000Y-143855599D01*
X153560000Y-143855599D01*
X153560000Y-141751399D01*
X152814700Y-141751399D01*
X152814700Y-143403443D01*
X149725299Y-143403443D01*
X149725300Y-143403426D01*
X149725300Y-141751399D01*
X148980000Y-141751399D01*
X148980000Y-143855599D01*
X148480000Y-143855599D01*
X148480000Y-141751399D01*
X147734700Y-141751399D01*
X147734700Y-143403443D01*
X126209052Y-143403443D01*
X125251770Y-142868673D01*
X125248731Y-142866918D01*
X124270678Y-142283632D01*
X124048553Y-142151162D01*
X124045596Y-142149342D01*
X122866116Y-141399884D01*
X122863181Y-141397960D01*
X121845298Y-140709991D01*
X121705398Y-140615435D01*
X121702535Y-140613440D01*
X121676702Y-140594894D01*
X121406134Y-140400645D01*
X145194700Y-140400645D01*
X145201101Y-140460173D01*
X145201103Y-140460180D01*
X145251345Y-140594887D01*
X145251349Y-140594894D01*
X145337509Y-140709988D01*
X145337512Y-140709991D01*
X145452606Y-140796151D01*
X145452613Y-140796155D01*
X145587320Y-140846397D01*
X145587327Y-140846399D01*
X145646855Y-140852800D01*
X145646872Y-140852801D01*
X145940000Y-140852801D01*
X146440000Y-140852801D01*
X146733128Y-140852801D01*
X146733144Y-140852800D01*
X146792672Y-140846399D01*
X146792679Y-140846397D01*
X146927386Y-140796155D01*
X146927393Y-140796151D01*
X147042487Y-140709991D01*
X147042490Y-140709988D01*
X147128650Y-140594894D01*
X147128654Y-140594887D01*
X147178896Y-140460180D01*
X147178898Y-140460173D01*
X147185299Y-140400645D01*
X147185300Y-140400628D01*
X147185300Y-139599354D01*
X147734700Y-139599354D01*
X147734700Y-141251399D01*
X148480000Y-141251399D01*
X148980000Y-141251399D01*
X149725300Y-141251399D01*
X149725300Y-140400645D01*
X150274700Y-140400645D01*
X150281101Y-140460173D01*
X150281103Y-140460180D01*
X150331345Y-140594887D01*
X150331349Y-140594894D01*
X150417509Y-140709988D01*
X150417512Y-140709991D01*
X150532606Y-140796151D01*
X150532613Y-140796155D01*
X150667320Y-140846397D01*
X150667327Y-140846399D01*
X150726855Y-140852800D01*
X150726872Y-140852801D01*
X151020000Y-140852801D01*
X151520000Y-140852801D01*
X151813128Y-140852801D01*
X151813144Y-140852800D01*
X151872672Y-140846399D01*
X151872679Y-140846397D01*
X152007386Y-140796155D01*
X152007393Y-140796151D01*
X152122487Y-140709991D01*
X152122490Y-140709988D01*
X152208650Y-140594894D01*
X152208654Y-140594887D01*
X152258896Y-140460180D01*
X152258898Y-140460173D01*
X152265299Y-140400645D01*
X152265300Y-140400628D01*
X152265300Y-139599354D01*
X152814700Y-139599354D01*
X152814700Y-141251399D01*
X153560000Y-141251399D01*
X154060000Y-141251399D01*
X154805300Y-141251399D01*
X154805300Y-139599371D01*
X154805299Y-139599354D01*
X154798898Y-139539826D01*
X154798896Y-139539819D01*
X154748654Y-139405112D01*
X154748650Y-139405105D01*
X154662490Y-139290011D01*
X154662487Y-139290008D01*
X154547393Y-139203848D01*
X154547386Y-139203844D01*
X154412679Y-139153602D01*
X154412672Y-139153600D01*
X154353144Y-139147199D01*
X154060000Y-139147199D01*
X154060000Y-141251399D01*
X153560000Y-141251399D01*
X153560000Y-139147199D01*
X153266855Y-139147199D01*
X153207327Y-139153600D01*
X153207320Y-139153602D01*
X153072613Y-139203844D01*
X153072606Y-139203848D01*
X152957512Y-139290008D01*
X152957509Y-139290011D01*
X152871349Y-139405105D01*
X152871345Y-139405112D01*
X152821103Y-139539819D01*
X152821101Y-139539826D01*
X152814700Y-139599354D01*
X152265300Y-139599354D01*
X152265300Y-138748601D01*
X151520000Y-138748601D01*
X151520000Y-140852801D01*
X151020000Y-140852801D01*
X151020000Y-138748601D01*
X150274700Y-138748601D01*
X150274700Y-140400645D01*
X149725300Y-140400645D01*
X149725300Y-139599371D01*
X149725299Y-139599354D01*
X149718898Y-139539826D01*
X149718896Y-139539819D01*
X149668654Y-139405112D01*
X149668650Y-139405105D01*
X149582490Y-139290011D01*
X149582487Y-139290008D01*
X149467393Y-139203848D01*
X149467386Y-139203844D01*
X149332679Y-139153602D01*
X149332672Y-139153600D01*
X149273144Y-139147199D01*
X148980000Y-139147199D01*
X148980000Y-141251399D01*
X148480000Y-141251399D01*
X148480000Y-139147199D01*
X148186855Y-139147199D01*
X148127327Y-139153600D01*
X148127320Y-139153602D01*
X147992613Y-139203844D01*
X147992606Y-139203848D01*
X147877512Y-139290008D01*
X147877509Y-139290011D01*
X147791349Y-139405105D01*
X147791345Y-139405112D01*
X147741103Y-139539819D01*
X147741101Y-139539826D01*
X147734700Y-139599354D01*
X147185300Y-139599354D01*
X147185300Y-138748601D01*
X146440000Y-138748601D01*
X146440000Y-140852801D01*
X145940000Y-140852801D01*
X145940000Y-138748601D01*
X145194700Y-138748601D01*
X145194700Y-140400645D01*
X121406134Y-140400645D01*
X120567383Y-139798481D01*
X120564561Y-139796394D01*
X119452906Y-138949622D01*
X119450145Y-138947456D01*
X119079082Y-138647844D01*
X133000000Y-138647844D01*
X133006401Y-138707372D01*
X133006403Y-138707379D01*
X133056645Y-138842086D01*
X133056649Y-138842093D01*
X133142809Y-138957187D01*
X133142812Y-138957190D01*
X133257906Y-139043350D01*
X133257913Y-139043354D01*
X133392620Y-139093596D01*
X133392627Y-139093598D01*
X133452155Y-139099999D01*
X133452172Y-139100000D01*
X133775000Y-139100000D01*
X134275000Y-139100000D01*
X134597828Y-139100000D01*
X134597844Y-139099999D01*
X134657372Y-139093598D01*
X134657379Y-139093596D01*
X134792086Y-139043354D01*
X134792093Y-139043350D01*
X134907187Y-138957190D01*
X134907190Y-138957187D01*
X134993350Y-138842093D01*
X134993354Y-138842086D01*
X135043596Y-138707379D01*
X135043598Y-138707372D01*
X135049999Y-138647844D01*
X135950000Y-138647844D01*
X135956401Y-138707372D01*
X135956403Y-138707379D01*
X136006645Y-138842086D01*
X136006649Y-138842093D01*
X136092809Y-138957187D01*
X136092812Y-138957190D01*
X136207906Y-139043350D01*
X136207913Y-139043354D01*
X136342620Y-139093596D01*
X136342627Y-139093598D01*
X136402155Y-139099999D01*
X136402172Y-139100000D01*
X136725000Y-139100000D01*
X137225000Y-139100000D01*
X137547828Y-139100000D01*
X137547844Y-139099999D01*
X137607372Y-139093598D01*
X137607379Y-139093596D01*
X137742086Y-139043354D01*
X137742093Y-139043350D01*
X137857187Y-138957190D01*
X137857190Y-138957187D01*
X137943350Y-138842093D01*
X137943354Y-138842086D01*
X137993596Y-138707379D01*
X137993598Y-138707372D01*
X137999999Y-138647844D01*
X138000000Y-138647827D01*
X138000000Y-137750000D01*
X137225000Y-137750000D01*
X137225000Y-139100000D01*
X136725000Y-139100000D01*
X136725000Y-137750000D01*
X135950000Y-137750000D01*
X135950000Y-138647844D01*
X135049999Y-138647844D01*
X135050000Y-138647827D01*
X135050000Y-137750000D01*
X134275000Y-137750000D01*
X134275000Y-139100000D01*
X133775000Y-139100000D01*
X133775000Y-137750000D01*
X133000000Y-137750000D01*
X133000000Y-138647844D01*
X119079082Y-138647844D01*
X118362912Y-138069578D01*
X118360223Y-138067343D01*
X118281493Y-138000005D01*
X117298284Y-137159060D01*
X117295652Y-137156745D01*
X116407134Y-136352155D01*
X133000000Y-136352155D01*
X133000000Y-137250000D01*
X133775000Y-137250000D01*
X133775000Y-135900000D01*
X133452155Y-135900000D01*
X133392627Y-135906401D01*
X133392620Y-135906403D01*
X133257913Y-135956645D01*
X133257906Y-135956649D01*
X133142812Y-136042809D01*
X133142809Y-136042812D01*
X133056649Y-136157906D01*
X133056645Y-136157913D01*
X133006403Y-136292620D01*
X133006401Y-136292627D01*
X133000000Y-136352155D01*
X116407134Y-136352155D01*
X116259794Y-136218732D01*
X116257227Y-136216340D01*
X115933842Y-135906401D01*
X115248343Y-135249404D01*
X115245886Y-135246980D01*
X114264759Y-134251871D01*
X114262343Y-134249350D01*
X114199819Y-134182238D01*
X113464198Y-133392634D01*
X113309783Y-133226887D01*
X113307428Y-133224286D01*
X112774426Y-132618678D01*
X112384186Y-132175279D01*
X112381917Y-132172626D01*
X112304454Y-132079420D01*
X111488721Y-131097902D01*
X111486533Y-131095192D01*
X111470866Y-131075217D01*
X110624131Y-129995649D01*
X110622019Y-129992877D01*
X110617388Y-129986616D01*
X110186865Y-129404510D01*
X117593331Y-129404510D01*
X117613812Y-129546968D01*
X117673599Y-129677883D01*
X117673601Y-129677885D01*
X117711219Y-129724567D01*
X117711222Y-129724570D01*
X117711227Y-129724576D01*
X118356455Y-130369801D01*
X118479382Y-130492728D01*
X118479386Y-130492731D01*
X118479388Y-130492733D01*
X118526063Y-130530348D01*
X118656980Y-130590136D01*
X118799438Y-130610618D01*
X118941895Y-130590136D01*
X119072811Y-130530348D01*
X119119493Y-130492730D01*
X120381779Y-129230442D01*
X120443102Y-129196958D01*
X120469460Y-129194124D01*
X120732459Y-129194124D01*
X120880293Y-129194124D01*
X120880294Y-129194124D01*
X121441783Y-129194124D01*
X121508822Y-129213809D01*
X121554577Y-129266612D01*
X121592949Y-129350634D01*
X121592950Y-129350635D01*
X121592951Y-129350637D01*
X121630569Y-129397319D01*
X121630572Y-129397322D01*
X121630577Y-129397328D01*
X122398720Y-130165468D01*
X122398732Y-130165480D01*
X122445414Y-130203100D01*
X122529440Y-130241473D01*
X122582242Y-130287227D01*
X122601927Y-130354267D01*
X122601927Y-131326591D01*
X122582242Y-131393630D01*
X122565608Y-131414272D01*
X121303326Y-132676554D01*
X121303317Y-132676564D01*
X121265702Y-132723239D01*
X121205914Y-132854156D01*
X121185433Y-132996612D01*
X121205914Y-133139070D01*
X121265701Y-133269985D01*
X121265703Y-133269987D01*
X121303321Y-133316669D01*
X121303324Y-133316672D01*
X121303329Y-133316678D01*
X121698834Y-133712181D01*
X122071484Y-134084830D01*
X122071488Y-134084833D01*
X122071490Y-134084835D01*
X122118165Y-134122450D01*
X122249082Y-134182238D01*
X122391540Y-134202720D01*
X122533997Y-134182238D01*
X122664913Y-134122450D01*
X122711595Y-134084832D01*
X123973881Y-132822544D01*
X124035204Y-132789060D01*
X124061562Y-132786226D01*
X124788194Y-132786226D01*
X124885736Y-132766822D01*
X124933187Y-132757384D01*
X125069769Y-132700810D01*
X125123237Y-132665084D01*
X125123237Y-132665083D01*
X125123239Y-132665083D01*
X125157963Y-132641881D01*
X125192690Y-132618678D01*
X128308059Y-129503306D01*
X128344132Y-129480657D01*
X128343244Y-129478813D01*
X128349515Y-129475792D01*
X128349516Y-129475790D01*
X128349522Y-129475789D01*
X128502262Y-129379816D01*
X128629816Y-129252262D01*
X128725789Y-129099522D01*
X128785368Y-128929255D01*
X128785369Y-128929249D01*
X128805565Y-128750003D01*
X128805565Y-128749996D01*
X128785369Y-128570750D01*
X128785368Y-128570745D01*
X128771490Y-128531085D01*
X128725789Y-128400478D01*
X128629816Y-128247738D01*
X128502262Y-128120184D01*
X128423582Y-128070746D01*
X128349523Y-128024211D01*
X128179254Y-127964631D01*
X128179249Y-127964630D01*
X128000004Y-127944435D01*
X127999996Y-127944435D01*
X127820750Y-127964630D01*
X127820745Y-127964631D01*
X127650476Y-128024211D01*
X127497737Y-128120184D01*
X127370184Y-128247737D01*
X127274208Y-128400483D01*
X127271186Y-128406758D01*
X127269361Y-128405878D01*
X127246692Y-128441939D01*
X125255370Y-130433260D01*
X125194047Y-130466745D01*
X125124355Y-130461761D01*
X125080010Y-130433261D01*
X124633370Y-129986622D01*
X124623194Y-129978421D01*
X124586688Y-129949001D01*
X124455771Y-129889213D01*
X124333795Y-129871676D01*
X124313314Y-129868732D01*
X124313313Y-129868732D01*
X124244573Y-129878615D01*
X124175415Y-129868671D01*
X124122611Y-129822916D01*
X124102927Y-129755877D01*
X124102927Y-129152759D01*
X124122612Y-129085720D01*
X124139246Y-129065078D01*
X124301129Y-128903195D01*
X124362452Y-128869710D01*
X124388810Y-128866876D01*
X124707544Y-128866876D01*
X124805086Y-128847472D01*
X124852537Y-128838034D01*
X124989119Y-128781460D01*
X125059704Y-128734297D01*
X125112040Y-128699328D01*
X126308059Y-127503306D01*
X126344132Y-127480657D01*
X126343244Y-127478813D01*
X126349515Y-127475792D01*
X126349516Y-127475790D01*
X126349522Y-127475789D01*
X126502262Y-127379816D01*
X126629816Y-127252262D01*
X126725789Y-127099522D01*
X126785368Y-126929255D01*
X126786194Y-126921926D01*
X126805565Y-126750003D01*
X126805565Y-126749996D01*
X126785369Y-126570750D01*
X126785368Y-126570745D01*
X126753843Y-126480653D01*
X126725789Y-126400478D01*
X126722045Y-126394520D01*
X126645545Y-126272771D01*
X126629816Y-126247738D01*
X126502262Y-126120184D01*
X126418058Y-126067275D01*
X126349523Y-126024211D01*
X126179254Y-125964631D01*
X126179249Y-125964630D01*
X126000004Y-125944435D01*
X125999996Y-125944435D01*
X125820750Y-125964630D01*
X125820745Y-125964631D01*
X125650476Y-126024211D01*
X125497737Y-126120184D01*
X125370182Y-126247739D01*
X125370182Y-126247740D01*
X125364502Y-126256779D01*
X125312165Y-126303068D01*
X125243111Y-126313713D01*
X125179264Y-126285335D01*
X125171830Y-126278483D01*
X124960621Y-126067275D01*
X124960615Y-126067270D01*
X124960611Y-126067266D01*
X124913936Y-126029651D01*
X124783019Y-125969863D01*
X124651850Y-125951005D01*
X124588295Y-125921980D01*
X124550520Y-125863202D01*
X124550520Y-125793333D01*
X124588294Y-125734554D01*
X124603518Y-125723277D01*
X124752262Y-125629816D01*
X124879816Y-125502262D01*
X124975789Y-125349522D01*
X125035368Y-125179255D01*
X125036962Y-125165112D01*
X125055565Y-125000003D01*
X125055565Y-124999996D01*
X125035369Y-124820750D01*
X125035368Y-124820745D01*
X125010770Y-124750449D01*
X124975789Y-124650478D01*
X124973891Y-124647458D01*
X124890452Y-124514665D01*
X124879816Y-124497738D01*
X124752262Y-124370184D01*
X124705297Y-124340674D01*
X124599523Y-124274211D01*
X124429254Y-124214631D01*
X124429249Y-124214630D01*
X124250004Y-124194435D01*
X124249996Y-124194435D01*
X124070750Y-124214630D01*
X124070745Y-124214631D01*
X123900476Y-124274211D01*
X123747737Y-124370184D01*
X123620184Y-124497737D01*
X123524211Y-124650478D01*
X123521188Y-124656756D01*
X123519362Y-124655876D01*
X123496693Y-124691937D01*
X121505370Y-126683260D01*
X121444047Y-126716745D01*
X121374355Y-126711761D01*
X121330010Y-126683261D01*
X121041268Y-126394520D01*
X121032288Y-126387283D01*
X120994586Y-126356899D01*
X120910561Y-126318526D01*
X120857757Y-126272771D01*
X120838073Y-126205732D01*
X120838073Y-125398774D01*
X120857758Y-125331735D01*
X120910562Y-125285980D01*
X120962073Y-125274774D01*
X121299646Y-125274774D01*
X121424188Y-125250000D01*
X121444639Y-125245932D01*
X121581221Y-125189358D01*
X121630455Y-125156460D01*
X121704142Y-125107226D01*
X122808059Y-124003306D01*
X122844132Y-123980657D01*
X122843244Y-123978813D01*
X122849515Y-123975792D01*
X122849516Y-123975790D01*
X122849522Y-123975789D01*
X123002262Y-123879816D01*
X123129816Y-123752262D01*
X123225789Y-123599522D01*
X123285368Y-123429255D01*
X123288610Y-123400484D01*
X123305565Y-123250003D01*
X123305565Y-123249996D01*
X123285369Y-123070750D01*
X123285368Y-123070745D01*
X123228452Y-122908088D01*
X123225789Y-122900478D01*
X123129816Y-122747738D01*
X123002262Y-122620184D01*
X122849523Y-122524211D01*
X122679254Y-122464631D01*
X122679249Y-122464630D01*
X122500004Y-122444435D01*
X122499996Y-122444435D01*
X122320750Y-122464630D01*
X122320745Y-122464631D01*
X122150476Y-122524211D01*
X121997737Y-122620184D01*
X121870182Y-122747739D01*
X121870182Y-122747740D01*
X121864502Y-122756779D01*
X121812165Y-122803068D01*
X121743111Y-122813713D01*
X121679264Y-122785335D01*
X121671830Y-122778483D01*
X121368519Y-122475173D01*
X121368513Y-122475168D01*
X121355440Y-122464632D01*
X121321834Y-122437549D01*
X121190917Y-122377761D01*
X121068941Y-122360224D01*
X121048460Y-122357280D01*
X121048459Y-122357280D01*
X120906003Y-122377761D01*
X120775088Y-122437548D01*
X120728395Y-122475176D01*
X118038472Y-125165102D01*
X118038463Y-125165112D01*
X118000848Y-125211787D01*
X117941060Y-125342704D01*
X117920579Y-125485160D01*
X117941060Y-125627618D01*
X118000847Y-125758533D01*
X118000849Y-125758535D01*
X118038467Y-125805217D01*
X118038470Y-125805220D01*
X118038475Y-125805226D01*
X118806626Y-126573374D01*
X118806636Y-126573383D01*
X118853311Y-126610998D01*
X118969649Y-126664128D01*
X118984228Y-126670786D01*
X119126686Y-126691268D01*
X119195428Y-126681384D01*
X119264584Y-126691327D01*
X119317388Y-126737082D01*
X119337073Y-126804121D01*
X119337073Y-127407240D01*
X119317388Y-127474279D01*
X119300754Y-127494921D01*
X117711224Y-129084452D01*
X117711215Y-129084462D01*
X117673600Y-129131137D01*
X117613812Y-129262054D01*
X117593331Y-129404510D01*
X110186865Y-129404510D01*
X109976223Y-129119703D01*
X109791041Y-128869321D01*
X109788995Y-128866470D01*
X108990182Y-127719900D01*
X108988217Y-127716992D01*
X108829128Y-127474279D01*
X108222165Y-126548269D01*
X108220323Y-126545372D01*
X107512919Y-125396474D01*
X107487610Y-125355369D01*
X107485813Y-125352355D01*
X107407654Y-125216980D01*
X106787096Y-124142143D01*
X106785431Y-124139162D01*
X106121211Y-122909605D01*
X106119599Y-122906516D01*
X106110481Y-122888432D01*
X105490478Y-121658730D01*
X105488945Y-121655578D01*
X104895396Y-120390506D01*
X104893950Y-120387308D01*
X104336418Y-119105899D01*
X104335064Y-119102661D01*
X103814039Y-117806040D01*
X103812787Y-117802794D01*
X103767161Y-117679255D01*
X103328642Y-116491890D01*
X103327475Y-116488585D01*
X103317683Y-116459570D01*
X102880614Y-115164488D01*
X102879576Y-115161261D01*
X102470352Y-113825004D01*
X102469397Y-113821721D01*
X102098153Y-112474422D01*
X102097295Y-112471125D01*
X101791250Y-111223609D01*
X107629942Y-111223609D01*
X107676768Y-111260055D01*
X107676770Y-111260056D01*
X107895385Y-111378364D01*
X107895396Y-111378369D01*
X108130506Y-111459083D01*
X108375707Y-111500000D01*
X108624293Y-111500000D01*
X108869493Y-111459083D01*
X109104603Y-111378369D01*
X109104614Y-111378364D01*
X109323228Y-111260057D01*
X109323231Y-111260055D01*
X109370056Y-111223609D01*
X108500000Y-110353553D01*
X107629942Y-111223609D01*
X101791250Y-111223609D01*
X101764340Y-111113919D01*
X101763553Y-111110500D01*
X101755949Y-111075217D01*
X101524220Y-109999994D01*
X106994859Y-109999994D01*
X106994859Y-110000005D01*
X107015385Y-110247729D01*
X107015387Y-110247738D01*
X107076412Y-110488717D01*
X107176266Y-110716364D01*
X107276564Y-110869882D01*
X108146447Y-110000000D01*
X108146447Y-109999999D01*
X108853553Y-109999999D01*
X108853553Y-110000001D01*
X109723434Y-110869882D01*
X109823731Y-110716369D01*
X109923587Y-110488717D01*
X109984612Y-110247738D01*
X109984614Y-110247729D01*
X110005141Y-110000005D01*
X110005141Y-109999994D01*
X109984614Y-109752270D01*
X109984612Y-109752261D01*
X109923587Y-109511282D01*
X109823731Y-109283630D01*
X109723434Y-109130116D01*
X108853553Y-109999999D01*
X108146447Y-109999999D01*
X107276564Y-109130116D01*
X107176267Y-109283632D01*
X107076412Y-109511282D01*
X107015387Y-109752261D01*
X107015385Y-109752270D01*
X106994859Y-109999994D01*
X101524220Y-109999994D01*
X101469146Y-109744449D01*
X101468457Y-109741017D01*
X101467183Y-109734168D01*
X101288967Y-108776388D01*
X107629942Y-108776388D01*
X107629942Y-108776390D01*
X108500000Y-109646447D01*
X108500001Y-109646447D01*
X109064865Y-109081582D01*
X134525001Y-109081582D01*
X134531408Y-109152102D01*
X134531409Y-109152107D01*
X134581981Y-109314396D01*
X134669927Y-109459877D01*
X134790122Y-109580072D01*
X134935604Y-109668019D01*
X134935603Y-109668019D01*
X135097894Y-109718590D01*
X135097892Y-109718590D01*
X135168418Y-109724999D01*
X135750000Y-109724999D01*
X135831581Y-109724999D01*
X135902102Y-109718591D01*
X135902107Y-109718590D01*
X136064396Y-109668018D01*
X136209877Y-109580072D01*
X136209877Y-109580071D01*
X136251535Y-109538414D01*
X136312858Y-109504928D01*
X136382549Y-109509912D01*
X136438483Y-109551782D01*
X136466412Y-109589090D01*
X136581506Y-109675250D01*
X136581513Y-109675254D01*
X136716220Y-109725496D01*
X136716227Y-109725498D01*
X136775755Y-109731899D01*
X136775772Y-109731900D01*
X137208600Y-109731900D01*
X137208600Y-109202500D01*
X136404600Y-109202500D01*
X136337561Y-109182815D01*
X136291806Y-109130011D01*
X136280600Y-109078500D01*
X136280600Y-109075000D01*
X135750000Y-109075000D01*
X135750000Y-109724999D01*
X135168418Y-109724999D01*
X135249999Y-109724998D01*
X135250000Y-109724998D01*
X135250000Y-109075000D01*
X134525001Y-109075000D01*
X134525001Y-109081582D01*
X109064865Y-109081582D01*
X109370057Y-108776390D01*
X109370056Y-108776389D01*
X109323229Y-108739943D01*
X109104614Y-108621635D01*
X109104603Y-108621630D01*
X108869493Y-108540916D01*
X108624293Y-108500000D01*
X108375707Y-108500000D01*
X108130506Y-108540916D01*
X107895396Y-108621630D01*
X107895390Y-108621632D01*
X107676761Y-108739949D01*
X107629942Y-108776388D01*
X101288967Y-108776388D01*
X101212821Y-108367159D01*
X101212233Y-108363725D01*
X101207820Y-108335604D01*
X100995575Y-106983160D01*
X100995093Y-106979777D01*
X100817583Y-105593574D01*
X100817200Y-105590195D01*
X100694256Y-104353144D01*
X106144401Y-104353144D01*
X106150802Y-104412672D01*
X106150804Y-104412679D01*
X106201046Y-104547386D01*
X106201050Y-104547393D01*
X106287210Y-104662487D01*
X106287213Y-104662490D01*
X106402307Y-104748650D01*
X106402314Y-104748654D01*
X106537021Y-104798896D01*
X106537028Y-104798898D01*
X106596556Y-104805299D01*
X106596573Y-104805300D01*
X108248601Y-104805300D01*
X108748601Y-104805300D01*
X110400629Y-104805300D01*
X110400645Y-104805299D01*
X110460173Y-104798898D01*
X110460180Y-104798896D01*
X110594887Y-104748654D01*
X110594894Y-104748650D01*
X110709988Y-104662490D01*
X110709991Y-104662487D01*
X110796151Y-104547393D01*
X110796155Y-104547386D01*
X110846397Y-104412679D01*
X110846399Y-104412672D01*
X110852800Y-104353144D01*
X110852801Y-104353127D01*
X110852801Y-104060000D01*
X108748601Y-104060000D01*
X108748601Y-104805300D01*
X108248601Y-104805300D01*
X108248601Y-104060000D01*
X106144401Y-104060000D01*
X106144401Y-104353144D01*
X100694256Y-104353144D01*
X100678997Y-104199610D01*
X100678700Y-104196116D01*
X100665439Y-104009017D01*
X100612838Y-103266855D01*
X106144401Y-103266855D01*
X106144401Y-103560000D01*
X108248601Y-103560000D01*
X108748601Y-103560000D01*
X110852801Y-103560000D01*
X110852801Y-103266869D01*
X110852800Y-103266855D01*
X110846399Y-103207327D01*
X110846397Y-103207320D01*
X110796155Y-103072613D01*
X110796151Y-103072606D01*
X110709991Y-102957512D01*
X110709988Y-102957509D01*
X110594894Y-102871349D01*
X110594887Y-102871345D01*
X110460180Y-102821103D01*
X110460173Y-102821101D01*
X110400645Y-102814700D01*
X108748601Y-102814700D01*
X108748601Y-103560000D01*
X108248601Y-103560000D01*
X108248601Y-102814700D01*
X106596556Y-102814700D01*
X106537028Y-102821101D01*
X106537021Y-102821103D01*
X106402314Y-102871345D01*
X106402307Y-102871349D01*
X106287213Y-102957509D01*
X106287210Y-102957512D01*
X106201050Y-103072606D01*
X106201046Y-103072613D01*
X106150804Y-103207320D01*
X106150802Y-103207327D01*
X106144401Y-103266855D01*
X100612838Y-103266855D01*
X100579900Y-102802124D01*
X100579707Y-102798708D01*
X100520398Y-101402521D01*
X100520299Y-101399083D01*
X100510786Y-100726835D01*
X109146699Y-100726835D01*
X109146699Y-101813170D01*
X109146700Y-101813176D01*
X109153107Y-101872783D01*
X109203401Y-102007628D01*
X109203405Y-102007635D01*
X109289651Y-102122844D01*
X109289654Y-102122847D01*
X109404863Y-102209093D01*
X109404870Y-102209097D01*
X109539716Y-102259391D01*
X109539715Y-102259391D01*
X109546643Y-102260135D01*
X109599326Y-102265800D01*
X113403471Y-102265799D01*
X113463082Y-102259391D01*
X113597930Y-102209096D01*
X113713145Y-102122846D01*
X113752565Y-102070188D01*
X113808499Y-102028318D01*
X113851831Y-102020500D01*
X114007188Y-102020500D01*
X114048142Y-102027458D01*
X114070745Y-102035368D01*
X114070751Y-102035368D01*
X114070753Y-102035369D01*
X114249996Y-102055565D01*
X114250000Y-102055565D01*
X114250004Y-102055565D01*
X114429249Y-102035369D01*
X114429252Y-102035368D01*
X114429255Y-102035368D01*
X114599522Y-101975789D01*
X114752262Y-101879816D01*
X114879816Y-101752262D01*
X114975789Y-101599522D01*
X115035368Y-101429255D01*
X115036108Y-101422691D01*
X115055565Y-101250003D01*
X115055565Y-101249996D01*
X115035369Y-101070750D01*
X115035368Y-101070745D01*
X114984293Y-100924782D01*
X114975789Y-100900478D01*
X114879816Y-100747738D01*
X114752262Y-100620184D01*
X114599523Y-100524211D01*
X114429254Y-100464631D01*
X114429249Y-100464630D01*
X114250004Y-100444435D01*
X114249996Y-100444435D01*
X114070750Y-100464630D01*
X114070745Y-100464631D01*
X113933826Y-100512542D01*
X113892871Y-100519500D01*
X113851831Y-100519500D01*
X113784792Y-100499815D01*
X113752565Y-100469812D01*
X113718644Y-100424500D01*
X113713145Y-100417154D01*
X113713143Y-100417153D01*
X113713143Y-100417152D01*
X113597934Y-100330906D01*
X113597927Y-100330902D01*
X113463081Y-100280608D01*
X113463082Y-100280608D01*
X113403482Y-100274201D01*
X113403480Y-100274200D01*
X113403472Y-100274200D01*
X113403463Y-100274200D01*
X109599328Y-100274200D01*
X109599322Y-100274201D01*
X109539715Y-100280608D01*
X109404870Y-100330902D01*
X109404863Y-100330906D01*
X109289654Y-100417152D01*
X109289651Y-100417155D01*
X109203405Y-100532364D01*
X109203401Y-100532371D01*
X109153107Y-100667217D01*
X109146700Y-100726816D01*
X109146700Y-100726823D01*
X109146699Y-100726835D01*
X100510786Y-100726835D01*
X100500524Y-100001695D01*
X100500524Y-99998304D01*
X100520300Y-98600914D01*
X100520397Y-98597480D01*
X100537841Y-98186835D01*
X106143901Y-98186835D01*
X106143901Y-99273170D01*
X106143902Y-99273176D01*
X106150309Y-99332783D01*
X106200603Y-99467628D01*
X106200607Y-99467635D01*
X106286853Y-99582844D01*
X106286856Y-99582847D01*
X106402065Y-99669093D01*
X106402072Y-99669097D01*
X106536918Y-99719391D01*
X106536917Y-99719391D01*
X106542582Y-99720000D01*
X106596528Y-99725800D01*
X110400673Y-99725799D01*
X110460284Y-99719391D01*
X110595132Y-99669096D01*
X110710347Y-99582846D01*
X110749767Y-99530188D01*
X110805701Y-99488318D01*
X110849033Y-99480500D01*
X113892871Y-99480500D01*
X113933826Y-99487458D01*
X114070745Y-99535368D01*
X114070750Y-99535369D01*
X114249996Y-99555565D01*
X114250000Y-99555565D01*
X114250004Y-99555565D01*
X114429249Y-99535369D01*
X114429252Y-99535368D01*
X114429255Y-99535368D01*
X114599522Y-99475789D01*
X114752262Y-99379816D01*
X114879816Y-99252262D01*
X114975789Y-99099522D01*
X115035368Y-98929255D01*
X115039536Y-98892262D01*
X115055565Y-98750003D01*
X115055565Y-98749996D01*
X115035369Y-98570750D01*
X115035368Y-98570745D01*
X115022083Y-98532780D01*
X114975789Y-98400478D01*
X114958276Y-98372607D01*
X114936582Y-98338080D01*
X114879816Y-98247738D01*
X114752262Y-98120184D01*
X114719379Y-98099522D01*
X114599523Y-98024211D01*
X114429254Y-97964631D01*
X114429249Y-97964630D01*
X114250004Y-97944435D01*
X114249996Y-97944435D01*
X114070753Y-97964630D01*
X114070743Y-97964632D01*
X114052386Y-97971055D01*
X114050598Y-97971682D01*
X114048143Y-97972541D01*
X114007188Y-97979500D01*
X110849033Y-97979500D01*
X110781994Y-97959815D01*
X110749767Y-97929812D01*
X110734085Y-97908864D01*
X110710347Y-97877154D01*
X110710345Y-97877153D01*
X110710345Y-97877152D01*
X110595136Y-97790906D01*
X110595129Y-97790902D01*
X110460283Y-97740608D01*
X110460284Y-97740608D01*
X110400684Y-97734201D01*
X110400682Y-97734200D01*
X110400674Y-97734200D01*
X110400665Y-97734200D01*
X106596530Y-97734200D01*
X106596524Y-97734201D01*
X106536917Y-97740608D01*
X106402072Y-97790902D01*
X106402065Y-97790906D01*
X106286856Y-97877152D01*
X106286853Y-97877155D01*
X106200607Y-97992364D01*
X106200603Y-97992371D01*
X106150309Y-98127217D01*
X106143902Y-98186816D01*
X106143902Y-98186823D01*
X106143901Y-98186835D01*
X100537841Y-98186835D01*
X100557388Y-97726677D01*
X132025000Y-97726677D01*
X132025000Y-97750000D01*
X132750000Y-97750000D01*
X133250000Y-97750000D01*
X133974999Y-97750000D01*
X133974999Y-97726692D01*
X133974998Y-97726677D01*
X133964855Y-97627392D01*
X133911547Y-97466518D01*
X133911542Y-97466507D01*
X133822575Y-97322271D01*
X133822572Y-97322267D01*
X133702732Y-97202427D01*
X133702728Y-97202424D01*
X133558492Y-97113457D01*
X133558481Y-97113452D01*
X133397606Y-97060144D01*
X133298322Y-97050000D01*
X133250000Y-97050000D01*
X133250000Y-97750000D01*
X132750000Y-97750000D01*
X132750000Y-97050000D01*
X132749999Y-97049999D01*
X132701693Y-97050000D01*
X132701675Y-97050001D01*
X132602392Y-97060144D01*
X132441518Y-97113452D01*
X132441507Y-97113457D01*
X132297271Y-97202424D01*
X132297267Y-97202427D01*
X132177427Y-97322267D01*
X132177424Y-97322271D01*
X132088457Y-97466507D01*
X132088452Y-97466518D01*
X132035144Y-97627393D01*
X132025000Y-97726677D01*
X100557388Y-97726677D01*
X100579707Y-97201287D01*
X100579900Y-97197879D01*
X100678700Y-95803875D01*
X100678998Y-95800387D01*
X100694259Y-95646835D01*
X109146699Y-95646835D01*
X109146699Y-96733170D01*
X109146700Y-96733176D01*
X109153107Y-96792783D01*
X109203401Y-96927628D01*
X109203405Y-96927635D01*
X109289651Y-97042844D01*
X109289654Y-97042847D01*
X109404863Y-97129093D01*
X109404870Y-97129097D01*
X109539716Y-97179391D01*
X109539715Y-97179391D01*
X109546643Y-97180135D01*
X109599326Y-97185800D01*
X113403471Y-97185799D01*
X113463082Y-97179391D01*
X113597930Y-97129096D01*
X113713145Y-97042846D01*
X113799395Y-96927631D01*
X113849690Y-96792783D01*
X113856099Y-96733173D01*
X113856098Y-95646828D01*
X113849690Y-95587217D01*
X113826953Y-95526257D01*
X113799396Y-95452371D01*
X113799392Y-95452364D01*
X113713147Y-95337156D01*
X113713145Y-95337155D01*
X113713145Y-95337154D01*
X113657546Y-95295532D01*
X113615677Y-95239601D01*
X113610693Y-95169909D01*
X113644176Y-95108589D01*
X115704444Y-93048322D01*
X132025001Y-93048322D01*
X132035144Y-93147607D01*
X132088452Y-93308481D01*
X132088457Y-93308492D01*
X132177424Y-93452728D01*
X132177427Y-93452732D01*
X132297267Y-93572572D01*
X132297271Y-93572575D01*
X132441507Y-93661542D01*
X132441518Y-93661547D01*
X132602393Y-93714855D01*
X132701683Y-93724999D01*
X133250000Y-93724999D01*
X133298308Y-93724999D01*
X133298322Y-93724998D01*
X133397607Y-93714855D01*
X133558481Y-93661547D01*
X133558492Y-93661542D01*
X133702728Y-93572575D01*
X133702732Y-93572572D01*
X133822572Y-93452732D01*
X133822575Y-93452728D01*
X133911542Y-93308492D01*
X133911547Y-93308481D01*
X133964855Y-93147606D01*
X133974999Y-93048322D01*
X133975000Y-93048309D01*
X133975000Y-93025000D01*
X133250000Y-93025000D01*
X133250000Y-93724999D01*
X132701683Y-93724999D01*
X132749999Y-93724998D01*
X132750000Y-93724998D01*
X132750000Y-93025000D01*
X132025001Y-93025000D01*
X132025001Y-93048322D01*
X115704444Y-93048322D01*
X119965948Y-88786819D01*
X120027271Y-88753334D01*
X120053629Y-88750500D01*
X135494500Y-88750500D01*
X135561539Y-88770185D01*
X135607294Y-88822989D01*
X135618500Y-88874500D01*
X135618500Y-90350500D01*
X135598815Y-90417539D01*
X135546011Y-90463294D01*
X135494500Y-90474500D01*
X133801874Y-90474500D01*
X133734835Y-90454815D01*
X133714193Y-90438181D01*
X133703044Y-90427032D01*
X133703040Y-90427029D01*
X133558705Y-90338001D01*
X133558699Y-90337998D01*
X133558697Y-90337997D01*
X133510243Y-90321941D01*
X133397709Y-90284651D01*
X133298346Y-90274500D01*
X132701662Y-90274500D01*
X132701644Y-90274501D01*
X132602292Y-90284650D01*
X132602289Y-90284651D01*
X132441305Y-90337996D01*
X132441294Y-90338001D01*
X132296959Y-90427029D01*
X132296955Y-90427032D01*
X132177032Y-90546955D01*
X132177029Y-90546959D01*
X132088001Y-90691294D01*
X132087996Y-90691305D01*
X132034651Y-90852290D01*
X132024500Y-90951647D01*
X132024500Y-91498337D01*
X132024501Y-91498355D01*
X132034650Y-91597707D01*
X132034651Y-91597710D01*
X132087996Y-91758694D01*
X132088001Y-91758705D01*
X132177029Y-91903040D01*
X132177032Y-91903044D01*
X132186660Y-91912672D01*
X132220145Y-91973995D01*
X132215161Y-92043687D01*
X132186663Y-92088031D01*
X132177428Y-92097265D01*
X132177424Y-92097271D01*
X132088457Y-92241507D01*
X132088452Y-92241518D01*
X132035144Y-92402393D01*
X132025000Y-92501677D01*
X132025000Y-92525000D01*
X133974999Y-92525000D01*
X133974999Y-92501692D01*
X133974998Y-92501677D01*
X133964855Y-92402392D01*
X133911547Y-92241518D01*
X133911542Y-92241507D01*
X133864103Y-92164597D01*
X133845662Y-92097205D01*
X133866584Y-92030541D01*
X133920226Y-91985772D01*
X133969641Y-91975500D01*
X135494501Y-91975500D01*
X135561540Y-91995185D01*
X135607295Y-92047989D01*
X135618501Y-92099500D01*
X135618501Y-93342076D01*
X135624908Y-93401683D01*
X135675202Y-93536528D01*
X135675206Y-93536535D01*
X135761452Y-93651744D01*
X135761455Y-93651747D01*
X135876664Y-93737993D01*
X135876671Y-93737997D01*
X135921618Y-93754761D01*
X136011517Y-93788291D01*
X136071127Y-93794700D01*
X136181969Y-93794699D01*
X136249008Y-93814383D01*
X136269650Y-93831018D01*
X138085467Y-95646835D01*
X139850951Y-97412318D01*
X139884436Y-97473641D01*
X139879452Y-97543333D01*
X139850951Y-97587680D01*
X138322551Y-99116081D01*
X138261228Y-99149566D01*
X138234870Y-99152400D01*
X137505499Y-99152400D01*
X137438460Y-99132715D01*
X137392705Y-99079911D01*
X137381499Y-99028400D01*
X137381499Y-97657929D01*
X137381498Y-97657923D01*
X137381497Y-97657916D01*
X137375091Y-97598317D01*
X137364807Y-97570745D01*
X137324797Y-97463471D01*
X137324793Y-97463464D01*
X137238547Y-97348255D01*
X137238544Y-97348252D01*
X137123335Y-97262006D01*
X137123328Y-97262002D01*
X136988482Y-97211708D01*
X136988483Y-97211708D01*
X136928883Y-97205301D01*
X136928881Y-97205300D01*
X136928873Y-97205300D01*
X136928864Y-97205300D01*
X136071129Y-97205300D01*
X136071123Y-97205301D01*
X136011516Y-97211708D01*
X135876671Y-97262002D01*
X135876664Y-97262006D01*
X135761455Y-97348252D01*
X135761452Y-97348255D01*
X135675206Y-97463464D01*
X135675202Y-97463471D01*
X135624908Y-97598317D01*
X135618501Y-97657916D01*
X135618501Y-97657923D01*
X135618500Y-97657935D01*
X135618500Y-98675500D01*
X135598815Y-98742539D01*
X135546011Y-98788294D01*
X135494500Y-98799500D01*
X133969641Y-98799500D01*
X133902602Y-98779815D01*
X133856847Y-98727011D01*
X133846903Y-98657853D01*
X133864103Y-98610403D01*
X133911542Y-98533492D01*
X133911547Y-98533481D01*
X133964855Y-98372606D01*
X133974999Y-98273322D01*
X133975000Y-98273309D01*
X133975000Y-98250000D01*
X132025001Y-98250000D01*
X132025001Y-98273322D01*
X132035144Y-98372607D01*
X132088452Y-98533481D01*
X132088457Y-98533492D01*
X132177424Y-98677728D01*
X132177427Y-98677732D01*
X132186660Y-98686965D01*
X132220145Y-98748288D01*
X132215161Y-98817980D01*
X132186663Y-98862324D01*
X132177033Y-98871953D01*
X132177029Y-98871959D01*
X132088001Y-99016294D01*
X132087996Y-99016305D01*
X132034651Y-99177290D01*
X132024500Y-99276647D01*
X132024500Y-99823337D01*
X132024501Y-99823355D01*
X132034650Y-99922707D01*
X132034651Y-99922710D01*
X132087996Y-100083694D01*
X132088001Y-100083705D01*
X132177029Y-100228040D01*
X132177032Y-100228044D01*
X132296955Y-100347967D01*
X132296959Y-100347970D01*
X132441294Y-100436998D01*
X132441297Y-100436999D01*
X132441303Y-100437003D01*
X132602292Y-100490349D01*
X132701655Y-100500500D01*
X133298344Y-100500499D01*
X133298352Y-100500498D01*
X133298355Y-100500498D01*
X133352760Y-100494940D01*
X133397708Y-100490349D01*
X133558697Y-100437003D01*
X133703044Y-100347968D01*
X133714193Y-100336819D01*
X133775516Y-100303334D01*
X133801874Y-100300500D01*
X135494501Y-100300500D01*
X135561540Y-100320185D01*
X135607295Y-100372989D01*
X135618501Y-100424500D01*
X135618501Y-102147876D01*
X135624908Y-102207483D01*
X135675202Y-102342328D01*
X135675206Y-102342335D01*
X135761452Y-102457544D01*
X135761455Y-102457547D01*
X135876664Y-102543793D01*
X135876671Y-102543797D01*
X136011517Y-102594091D01*
X136011516Y-102594091D01*
X136018444Y-102594835D01*
X136071127Y-102600500D01*
X136928872Y-102600499D01*
X136988483Y-102594091D01*
X137123331Y-102543796D01*
X137238546Y-102457546D01*
X137324796Y-102342331D01*
X137375091Y-102207483D01*
X137381500Y-102147873D01*
X137381500Y-100777400D01*
X137401185Y-100710361D01*
X137453989Y-100664606D01*
X137505500Y-100653400D01*
X138671020Y-100653400D01*
X138768562Y-100633996D01*
X138816013Y-100624558D01*
X138943040Y-100571942D01*
X138952591Y-100567986D01*
X138952592Y-100567985D01*
X138952595Y-100567984D01*
X139007814Y-100531088D01*
X139075516Y-100485852D01*
X140974549Y-98586819D01*
X141035872Y-98553334D01*
X141062230Y-98550500D01*
X144870300Y-98550500D01*
X144913632Y-98558317D01*
X144942517Y-98569091D01*
X145002127Y-98575500D01*
X146300500Y-98575499D01*
X146367539Y-98595184D01*
X146413294Y-98647987D01*
X146424500Y-98699499D01*
X146424500Y-99639547D01*
X146404815Y-99706586D01*
X146388181Y-99727228D01*
X146191621Y-99923787D01*
X146130298Y-99957272D01*
X146117825Y-99959326D01*
X146070750Y-99964630D01*
X145900476Y-100024211D01*
X145815971Y-100077309D01*
X145748734Y-100096309D01*
X145684029Y-100077309D01*
X145599520Y-100024209D01*
X145429262Y-99964633D01*
X145429249Y-99964630D01*
X145250004Y-99944435D01*
X145249996Y-99944435D01*
X145070750Y-99964630D01*
X145070745Y-99964631D01*
X144990983Y-99992542D01*
X144950028Y-99999500D01*
X143176080Y-99999500D01*
X143031092Y-100028340D01*
X143031082Y-100028343D01*
X142894511Y-100084912D01*
X142894498Y-100084919D01*
X142771584Y-100167048D01*
X142771580Y-100167051D01*
X138958452Y-103980178D01*
X138958449Y-103980181D01*
X138930785Y-104021583D01*
X138930786Y-104021584D01*
X138876314Y-104103108D01*
X138819743Y-104239682D01*
X138819740Y-104239692D01*
X138790900Y-104384679D01*
X138790900Y-106518153D01*
X138771215Y-106585192D01*
X138718411Y-106630947D01*
X138649253Y-106640891D01*
X138585697Y-106611866D01*
X138550718Y-106561486D01*
X138537397Y-106525771D01*
X138537393Y-106525764D01*
X138451147Y-106410555D01*
X138451144Y-106410552D01*
X138335934Y-106324305D01*
X138331161Y-106322525D01*
X138275230Y-106280651D01*
X138250816Y-106215186D01*
X138250500Y-106206345D01*
X138250500Y-105799972D01*
X138257458Y-105759017D01*
X138270141Y-105722771D01*
X138285368Y-105679255D01*
X138285369Y-105679249D01*
X138305565Y-105500003D01*
X138305565Y-105499996D01*
X138285369Y-105320750D01*
X138285368Y-105320745D01*
X138264278Y-105260474D01*
X138225789Y-105150478D01*
X138129816Y-104997738D01*
X138002262Y-104870184D01*
X137946894Y-104835394D01*
X137849523Y-104774211D01*
X137679254Y-104714631D01*
X137679249Y-104714630D01*
X137500004Y-104694435D01*
X137499996Y-104694435D01*
X137320750Y-104714630D01*
X137320745Y-104714631D01*
X137150476Y-104774211D01*
X136997737Y-104870184D01*
X136870184Y-104997737D01*
X136774211Y-105150476D01*
X136714631Y-105320745D01*
X136714630Y-105320750D01*
X136694435Y-105499996D01*
X136694435Y-105500003D01*
X136714630Y-105679249D01*
X136714631Y-105679254D01*
X136742542Y-105759017D01*
X136749500Y-105799972D01*
X136749500Y-106175462D01*
X136729815Y-106242501D01*
X136677011Y-106288256D01*
X136668833Y-106291644D01*
X136581271Y-106324302D01*
X136581264Y-106324306D01*
X136466055Y-106410552D01*
X136466053Y-106410554D01*
X136438428Y-106447456D01*
X136382494Y-106489326D01*
X136312802Y-106494309D01*
X136251482Y-106460824D01*
X136210188Y-106419530D01*
X136064606Y-106331522D01*
X135902196Y-106280914D01*
X135902194Y-106280913D01*
X135902192Y-106280913D01*
X135852778Y-106276423D01*
X135831616Y-106274500D01*
X135831613Y-106274500D01*
X132387229Y-106274500D01*
X132320190Y-106254815D01*
X132299548Y-106238181D01*
X131421860Y-105360492D01*
X131388375Y-105299169D01*
X131393359Y-105229477D01*
X131433376Y-105174960D01*
X131519744Y-105107738D01*
X131688164Y-104924785D01*
X131824173Y-104716607D01*
X131924063Y-104488881D01*
X131985108Y-104247821D01*
X131985782Y-104239687D01*
X132005643Y-104000005D01*
X132005643Y-103999994D01*
X131985109Y-103752187D01*
X131985107Y-103752175D01*
X131924063Y-103511118D01*
X131824173Y-103283393D01*
X131688166Y-103075217D01*
X131641212Y-103024212D01*
X131519744Y-102892262D01*
X131323509Y-102739526D01*
X131323507Y-102739525D01*
X131323506Y-102739524D01*
X131104811Y-102621172D01*
X131104802Y-102621169D01*
X130869616Y-102540429D01*
X130624335Y-102499500D01*
X130375665Y-102499500D01*
X130130383Y-102540429D01*
X129895197Y-102621169D01*
X129895188Y-102621172D01*
X129676493Y-102739524D01*
X129480257Y-102892261D01*
X129311833Y-103075217D01*
X129175826Y-103283393D01*
X129075936Y-103511118D01*
X129014892Y-103752175D01*
X129014890Y-103752187D01*
X128994357Y-103999994D01*
X128994357Y-104000005D01*
X129014890Y-104247812D01*
X129014892Y-104247824D01*
X129075936Y-104488881D01*
X129175826Y-104716606D01*
X129311833Y-104924782D01*
X129342291Y-104957868D01*
X129480256Y-105107738D01*
X129566619Y-105174957D01*
X129660127Y-105247738D01*
X129676491Y-105260474D01*
X129684513Y-105264815D01*
X129734106Y-105314032D01*
X129749500Y-105373872D01*
X129749500Y-105573918D01*
X129749500Y-105573920D01*
X129749499Y-105573920D01*
X129778340Y-105718907D01*
X129778343Y-105718917D01*
X129834913Y-105855490D01*
X129834914Y-105855492D01*
X129860982Y-105894505D01*
X129860983Y-105894507D01*
X129917043Y-105978410D01*
X129917047Y-105978415D01*
X131546579Y-107607947D01*
X131546582Y-107607949D01*
X131546585Y-107607952D01*
X131580259Y-107630452D01*
X131669505Y-107690084D01*
X131669506Y-107690084D01*
X131669507Y-107690085D01*
X131723824Y-107712584D01*
X131723825Y-107712584D01*
X131806088Y-107746659D01*
X131919199Y-107769158D01*
X131951082Y-107775500D01*
X131951083Y-107775500D01*
X132098918Y-107775500D01*
X134583480Y-107775500D01*
X134650519Y-107795185D01*
X134671161Y-107811819D01*
X134772015Y-107912673D01*
X134805500Y-107973996D01*
X134800516Y-108043688D01*
X134772015Y-108088035D01*
X134669928Y-108190121D01*
X134669927Y-108190122D01*
X134581980Y-108335604D01*
X134531409Y-108497893D01*
X134525000Y-108568427D01*
X134525000Y-108575000D01*
X136394000Y-108575000D01*
X136461039Y-108594685D01*
X136506794Y-108647489D01*
X136518000Y-108699000D01*
X136518000Y-108702500D01*
X137208600Y-108702500D01*
X137208600Y-108173100D01*
X136775755Y-108173100D01*
X136716227Y-108179501D01*
X136716220Y-108179503D01*
X136581513Y-108229745D01*
X136581507Y-108229749D01*
X136534499Y-108264939D01*
X136469035Y-108289356D01*
X136400762Y-108274504D01*
X136354073Y-108229823D01*
X136330074Y-108190125D01*
X136330071Y-108190121D01*
X136227984Y-108088034D01*
X136194499Y-108026711D01*
X136199483Y-107957019D01*
X136227983Y-107912673D01*
X136265912Y-107874744D01*
X136303840Y-107836818D01*
X136365164Y-107803333D01*
X136391520Y-107800500D01*
X136638806Y-107800500D01*
X136682141Y-107808319D01*
X136716111Y-107820989D01*
X136716112Y-107820989D01*
X136716117Y-107820991D01*
X136775727Y-107827400D01*
X138141472Y-107827399D01*
X138201083Y-107820991D01*
X138220334Y-107813810D01*
X138238566Y-107807011D01*
X138308257Y-107802026D01*
X138369581Y-107835510D01*
X138403066Y-107896833D01*
X138405900Y-107923192D01*
X138405900Y-108077340D01*
X138386215Y-108144379D01*
X138333411Y-108190134D01*
X138264253Y-108200078D01*
X138238568Y-108193522D01*
X138200982Y-108179503D01*
X138200972Y-108179501D01*
X138141444Y-108173100D01*
X137708600Y-108173100D01*
X137708600Y-109731900D01*
X138141428Y-109731900D01*
X138141444Y-109731899D01*
X138200972Y-109725498D01*
X138200979Y-109725496D01*
X138335686Y-109675254D01*
X138335693Y-109675250D01*
X138450786Y-109589090D01*
X138526233Y-109488308D01*
X138582167Y-109446437D01*
X138651859Y-109441453D01*
X138713182Y-109474938D01*
X138746666Y-109536262D01*
X138749500Y-109562619D01*
X138749500Y-110626128D01*
X138729815Y-110693167D01*
X138684522Y-110735179D01*
X138676491Y-110739526D01*
X138545667Y-110841350D01*
X138480257Y-110892261D01*
X138311833Y-111075217D01*
X138175826Y-111283393D01*
X138075936Y-111511118D01*
X138014892Y-111752175D01*
X138014890Y-111752187D01*
X137994357Y-111999994D01*
X137994357Y-112000005D01*
X138014890Y-112247812D01*
X138014892Y-112247824D01*
X138075936Y-112488881D01*
X138175826Y-112716606D01*
X138311833Y-112924782D01*
X138311836Y-112924785D01*
X138480256Y-113107738D01*
X138676491Y-113260474D01*
X138895190Y-113378828D01*
X139130386Y-113459571D01*
X139375665Y-113500500D01*
X139624335Y-113500500D01*
X139869614Y-113459571D01*
X140104810Y-113378828D01*
X140323509Y-113260474D01*
X140519744Y-113107738D01*
X140688164Y-112924785D01*
X140824173Y-112716607D01*
X140924063Y-112488881D01*
X140985108Y-112247821D01*
X140986600Y-112229815D01*
X141005643Y-112000005D01*
X141005643Y-111999994D01*
X140985109Y-111752187D01*
X140985107Y-111752175D01*
X140924063Y-111511118D01*
X140824173Y-111283393D01*
X140688166Y-111075217D01*
X140666557Y-111051744D01*
X140519744Y-110892262D01*
X140323509Y-110739526D01*
X140315477Y-110735179D01*
X140265891Y-110685961D01*
X140250500Y-110626128D01*
X140250500Y-108874500D01*
X140270185Y-108807461D01*
X140322989Y-108761706D01*
X140374500Y-108750500D01*
X142240500Y-108750500D01*
X142307539Y-108770185D01*
X142353294Y-108822989D01*
X142364500Y-108874500D01*
X142364500Y-109153442D01*
X142379961Y-109290671D01*
X142416743Y-109395787D01*
X142439169Y-109459877D01*
X142440845Y-109464665D01*
X142500000Y-109558809D01*
X142538915Y-109620742D01*
X142669258Y-109751085D01*
X142825337Y-109849156D01*
X142957559Y-109895422D01*
X142999328Y-109910038D01*
X143087090Y-109919925D01*
X143136557Y-109925499D01*
X143136558Y-109925500D01*
X143812770Y-109925500D01*
X143879809Y-109945185D01*
X143900451Y-109961819D01*
X147521584Y-113582952D01*
X147521590Y-113582957D01*
X147564581Y-113611680D01*
X147578780Y-113621168D01*
X147578782Y-113621169D01*
X147578785Y-113621172D01*
X147578786Y-113621172D01*
X147644505Y-113665084D01*
X147644507Y-113665085D01*
X147644511Y-113665087D01*
X147781082Y-113721656D01*
X147781087Y-113721658D01*
X147781091Y-113721658D01*
X147781092Y-113721659D01*
X147926079Y-113750500D01*
X147926082Y-113750500D01*
X147926083Y-113750500D01*
X148073917Y-113750500D01*
X148888771Y-113750500D01*
X148955810Y-113770185D01*
X149001565Y-113822989D01*
X149011509Y-113892147D01*
X148982484Y-113955703D01*
X148976452Y-113962181D01*
X144917048Y-118021583D01*
X144896478Y-118052369D01*
X144876045Y-118082951D01*
X144834919Y-118144499D01*
X144834912Y-118144511D01*
X144778343Y-118281082D01*
X144778340Y-118281092D01*
X144749500Y-118426079D01*
X144749500Y-121079962D01*
X144729815Y-121147001D01*
X144691474Y-121184955D01*
X144669258Y-121198914D01*
X144587681Y-121280492D01*
X144526358Y-121313977D01*
X144456666Y-121308993D01*
X144412319Y-121280492D01*
X144330742Y-121198915D01*
X144174665Y-121100845D01*
X144174664Y-121100844D01*
X144174663Y-121100844D01*
X144132896Y-121086229D01*
X144000671Y-121039961D01*
X143863442Y-121024500D01*
X143863438Y-121024500D01*
X143136562Y-121024500D01*
X143136558Y-121024500D01*
X142999328Y-121039961D01*
X142825334Y-121100845D01*
X142669257Y-121198915D01*
X142538915Y-121329257D01*
X142440845Y-121485334D01*
X142379961Y-121659328D01*
X142364500Y-121796557D01*
X142364500Y-123022770D01*
X142344815Y-123089809D01*
X142328181Y-123110451D01*
X134917047Y-130521584D01*
X134917043Y-130521589D01*
X134895884Y-130553258D01*
X134895884Y-130553259D01*
X134834914Y-130644508D01*
X134778343Y-130781082D01*
X134778340Y-130781092D01*
X134749500Y-130926079D01*
X134749500Y-134975249D01*
X134729815Y-135042288D01*
X134699812Y-135074515D01*
X134642457Y-135117451D01*
X134642451Y-135117457D01*
X134556206Y-135232664D01*
X134556202Y-135232671D01*
X134505908Y-135367517D01*
X134499501Y-135427116D01*
X134499501Y-135427123D01*
X134499500Y-135427135D01*
X134499500Y-135776000D01*
X134479815Y-135843039D01*
X134427011Y-135888794D01*
X134375500Y-135900000D01*
X134275000Y-135900000D01*
X134275000Y-137250000D01*
X135050000Y-137250000D01*
X135050000Y-137149499D01*
X135069685Y-137082460D01*
X135122489Y-137036705D01*
X135173996Y-137025499D01*
X135826000Y-137025499D01*
X135893039Y-137045184D01*
X135938794Y-137097988D01*
X135950000Y-137149499D01*
X135950000Y-137250000D01*
X136725000Y-137250000D01*
X137225000Y-137250000D01*
X138000000Y-137250000D01*
X138000000Y-136596556D01*
X145194700Y-136596556D01*
X145194700Y-138248601D01*
X145940000Y-138248601D01*
X146440000Y-138248601D01*
X147185300Y-138248601D01*
X147185300Y-136596573D01*
X147185299Y-136596556D01*
X150274700Y-136596556D01*
X150274700Y-138248601D01*
X151020000Y-138248601D01*
X151520000Y-138248601D01*
X152265300Y-138248601D01*
X152265300Y-136596573D01*
X152265299Y-136596556D01*
X152258898Y-136537028D01*
X152258896Y-136537021D01*
X152208654Y-136402314D01*
X152208650Y-136402307D01*
X152122490Y-136287213D01*
X152122487Y-136287210D01*
X152007393Y-136201050D01*
X152007386Y-136201046D01*
X151872679Y-136150804D01*
X151872672Y-136150802D01*
X151813144Y-136144401D01*
X151520000Y-136144401D01*
X151520000Y-138248601D01*
X151020000Y-138248601D01*
X151020000Y-136144401D01*
X150726855Y-136144401D01*
X150667327Y-136150802D01*
X150667320Y-136150804D01*
X150532613Y-136201046D01*
X150532606Y-136201050D01*
X150417512Y-136287210D01*
X150417509Y-136287213D01*
X150331349Y-136402307D01*
X150331345Y-136402314D01*
X150281103Y-136537021D01*
X150281101Y-136537028D01*
X150274700Y-136596556D01*
X147185299Y-136596556D01*
X147178898Y-136537028D01*
X147178896Y-136537021D01*
X147128654Y-136402314D01*
X147128650Y-136402307D01*
X147042490Y-136287213D01*
X147042487Y-136287210D01*
X146927393Y-136201050D01*
X146927386Y-136201046D01*
X146792679Y-136150804D01*
X146792672Y-136150802D01*
X146733144Y-136144401D01*
X146440000Y-136144401D01*
X146440000Y-138248601D01*
X145940000Y-138248601D01*
X145940000Y-136144401D01*
X145646855Y-136144401D01*
X145587327Y-136150802D01*
X145587320Y-136150804D01*
X145452613Y-136201046D01*
X145452606Y-136201050D01*
X145337512Y-136287210D01*
X145337509Y-136287213D01*
X145251349Y-136402307D01*
X145251345Y-136402314D01*
X145201103Y-136537021D01*
X145201101Y-136537028D01*
X145194700Y-136596556D01*
X138000000Y-136596556D01*
X138000000Y-136352172D01*
X137999999Y-136352155D01*
X137993598Y-136292627D01*
X137993596Y-136292620D01*
X137943354Y-136157913D01*
X137943350Y-136157906D01*
X137857190Y-136042812D01*
X137857187Y-136042809D01*
X137742093Y-135956649D01*
X137742086Y-135956645D01*
X137607379Y-135906403D01*
X137607372Y-135906401D01*
X137547844Y-135900000D01*
X137225000Y-135900000D01*
X137225000Y-137250000D01*
X136725000Y-137250000D01*
X136725000Y-135900000D01*
X136624499Y-135900000D01*
X136557460Y-135880315D01*
X136511705Y-135827511D01*
X136500499Y-135776000D01*
X136500499Y-135427129D01*
X136500498Y-135427123D01*
X136500497Y-135427116D01*
X136494091Y-135367517D01*
X136443796Y-135232669D01*
X136443795Y-135232668D01*
X136443793Y-135232664D01*
X136357548Y-135117457D01*
X136357546Y-135117454D01*
X136357542Y-135117451D01*
X136300188Y-135074515D01*
X136258318Y-135018581D01*
X136250500Y-134975249D01*
X136250500Y-131362228D01*
X136270185Y-131295189D01*
X136286814Y-131274552D01*
X142655235Y-124906130D01*
X142716556Y-124872647D01*
X142786248Y-124877631D01*
X142808885Y-124888819D01*
X142821882Y-124896985D01*
X142825337Y-124899156D01*
X142945767Y-124941296D01*
X142999328Y-124960038D01*
X143087090Y-124969925D01*
X143136557Y-124975499D01*
X143136558Y-124975500D01*
X143136562Y-124975500D01*
X143863442Y-124975500D01*
X143863442Y-124975499D01*
X143925673Y-124968487D01*
X144000671Y-124960038D01*
X144000674Y-124960037D01*
X144174663Y-124899156D01*
X144330742Y-124801085D01*
X144412319Y-124719508D01*
X144473642Y-124686023D01*
X144543334Y-124691007D01*
X144587681Y-124719508D01*
X144669258Y-124801085D01*
X144825337Y-124899156D01*
X144945767Y-124941296D01*
X144999328Y-124960038D01*
X145087090Y-124969925D01*
X145136557Y-124975499D01*
X145136558Y-124975500D01*
X145638769Y-124975500D01*
X145705808Y-124995185D01*
X145751563Y-125047989D01*
X145761507Y-125117147D01*
X145732482Y-125180703D01*
X145726450Y-125187181D01*
X142417047Y-128496584D01*
X142405496Y-128513873D01*
X142393994Y-128531088D01*
X142377381Y-128555951D01*
X142334914Y-128619507D01*
X142278343Y-128756082D01*
X142278340Y-128756092D01*
X142249500Y-128901079D01*
X142249500Y-130626128D01*
X142229815Y-130693167D01*
X142184522Y-130735179D01*
X142176491Y-130739526D01*
X142123087Y-130781092D01*
X141980257Y-130892261D01*
X141811833Y-131075217D01*
X141675826Y-131283393D01*
X141575936Y-131511118D01*
X141514892Y-131752175D01*
X141514890Y-131752187D01*
X141494357Y-131999994D01*
X141494357Y-132000005D01*
X141514890Y-132247812D01*
X141514892Y-132247824D01*
X141575936Y-132488881D01*
X141675826Y-132716606D01*
X141811833Y-132924782D01*
X141811836Y-132924785D01*
X141980256Y-133107738D01*
X142176491Y-133260474D01*
X142395190Y-133378828D01*
X142630386Y-133459571D01*
X142875665Y-133500500D01*
X143124335Y-133500500D01*
X143369614Y-133459571D01*
X143604810Y-133378828D01*
X143823509Y-133260474D01*
X144019744Y-133107738D01*
X144188164Y-132924785D01*
X144324173Y-132716607D01*
X144424063Y-132488881D01*
X144485108Y-132247821D01*
X144499062Y-132079420D01*
X144505643Y-132000005D01*
X144505643Y-131999994D01*
X144485109Y-131752187D01*
X144485107Y-131752175D01*
X144424063Y-131511118D01*
X144324173Y-131283393D01*
X144188166Y-131075217D01*
X144133442Y-131015771D01*
X144019744Y-130892262D01*
X143823509Y-130739526D01*
X143815477Y-130735179D01*
X143765891Y-130685961D01*
X143750500Y-130626128D01*
X143750500Y-129337230D01*
X143770185Y-129270191D01*
X143786819Y-129249549D01*
X146037819Y-126998549D01*
X146099142Y-126965064D01*
X146168834Y-126970048D01*
X146224767Y-127011920D01*
X146249184Y-127077384D01*
X146249500Y-127086230D01*
X146249500Y-130626128D01*
X146229815Y-130693167D01*
X146184522Y-130735179D01*
X146176491Y-130739526D01*
X146123087Y-130781092D01*
X145980257Y-130892261D01*
X145811833Y-131075217D01*
X145675826Y-131283393D01*
X145575936Y-131511118D01*
X145514892Y-131752175D01*
X145514890Y-131752187D01*
X145494357Y-131999994D01*
X145494357Y-132000005D01*
X145514890Y-132247812D01*
X145514892Y-132247824D01*
X145575936Y-132488881D01*
X145675826Y-132716606D01*
X145811833Y-132924782D01*
X145811836Y-132924785D01*
X145980256Y-133107738D01*
X146176491Y-133260474D01*
X146395190Y-133378828D01*
X146630386Y-133459571D01*
X146875665Y-133500500D01*
X147124335Y-133500500D01*
X147369614Y-133459571D01*
X147604810Y-133378828D01*
X147823509Y-133260474D01*
X148019744Y-133107738D01*
X148188164Y-132924785D01*
X148324173Y-132716607D01*
X148424063Y-132488881D01*
X148485108Y-132247821D01*
X148499062Y-132079420D01*
X148505643Y-132000005D01*
X148505643Y-131999994D01*
X148485109Y-131752187D01*
X148485107Y-131752175D01*
X148424063Y-131511118D01*
X148324173Y-131283393D01*
X148188166Y-131075217D01*
X148133442Y-131015771D01*
X148019744Y-130892262D01*
X147823509Y-130739526D01*
X147815477Y-130735179D01*
X147765891Y-130685961D01*
X147750500Y-130626128D01*
X147750500Y-127323322D01*
X149000001Y-127323322D01*
X149010144Y-127422607D01*
X149063452Y-127583481D01*
X149063457Y-127583492D01*
X149152424Y-127727728D01*
X149152427Y-127727732D01*
X149272267Y-127847572D01*
X149272271Y-127847575D01*
X149416507Y-127936542D01*
X149416518Y-127936547D01*
X149577393Y-127989855D01*
X149676683Y-127999999D01*
X149700000Y-127999998D01*
X149700000Y-127275000D01*
X149000001Y-127275000D01*
X149000001Y-127323322D01*
X147750500Y-127323322D01*
X147750500Y-126726677D01*
X149000000Y-126726677D01*
X149000000Y-126775000D01*
X149700000Y-126775000D01*
X149700000Y-125750000D01*
X149000001Y-125750000D01*
X149000001Y-125798322D01*
X149010144Y-125897607D01*
X149063452Y-126058481D01*
X149063457Y-126058492D01*
X149149139Y-126197403D01*
X149167580Y-126264795D01*
X149149139Y-126327597D01*
X149063457Y-126466507D01*
X149063452Y-126466518D01*
X149010144Y-126627393D01*
X149000000Y-126726677D01*
X147750500Y-126726677D01*
X147750500Y-126387283D01*
X147770185Y-126320244D01*
X147786814Y-126299607D01*
X148830531Y-125255889D01*
X148891852Y-125222406D01*
X148961544Y-125227390D01*
X148996725Y-125250000D01*
X150076000Y-125250000D01*
X150143039Y-125269685D01*
X150188794Y-125322489D01*
X150200000Y-125374000D01*
X150200000Y-127999999D01*
X150223308Y-127999999D01*
X150223322Y-127999998D01*
X150322607Y-127989855D01*
X150483481Y-127936547D01*
X150483490Y-127936543D01*
X150540493Y-127901382D01*
X150607885Y-127882940D01*
X150674549Y-127903861D01*
X150719320Y-127957502D01*
X150727983Y-128026833D01*
X150722635Y-128047869D01*
X150714631Y-128070743D01*
X150714631Y-128070746D01*
X150694435Y-128249996D01*
X150694435Y-128250003D01*
X150714630Y-128429249D01*
X150714631Y-128429254D01*
X150742542Y-128509017D01*
X150749500Y-128549972D01*
X150749500Y-132988131D01*
X150749500Y-132988133D01*
X150749499Y-132988133D01*
X150778340Y-133133120D01*
X150778343Y-133133130D01*
X150834914Y-133269704D01*
X150834916Y-133269708D01*
X150855927Y-133301154D01*
X150866293Y-133316668D01*
X150917049Y-133392631D01*
X150917052Y-133392634D01*
X156107371Y-138582952D01*
X156107373Y-138582954D01*
X156136845Y-138602645D01*
X156181057Y-138632186D01*
X156230292Y-138665084D01*
X156230293Y-138665084D01*
X156230294Y-138665085D01*
X156230296Y-138665086D01*
X156332384Y-138707372D01*
X156366874Y-138721658D01*
X156366878Y-138721658D01*
X156366879Y-138721659D01*
X156511866Y-138750500D01*
X156511869Y-138750500D01*
X156511870Y-138750500D01*
X156630864Y-138750500D01*
X156697903Y-138770185D01*
X156734672Y-138806677D01*
X156811836Y-138924785D01*
X156980256Y-139107738D01*
X157176491Y-139260474D01*
X157395190Y-139378828D01*
X157630386Y-139459571D01*
X157875665Y-139500500D01*
X158124335Y-139500500D01*
X158369614Y-139459571D01*
X158604810Y-139378828D01*
X158823509Y-139260474D01*
X159019744Y-139107738D01*
X159188164Y-138924785D01*
X159324173Y-138716607D01*
X159424063Y-138488881D01*
X159485108Y-138247821D01*
X159499877Y-138069586D01*
X159505643Y-138000005D01*
X159505643Y-137999994D01*
X159485109Y-137752187D01*
X159485107Y-137752175D01*
X159424063Y-137511118D01*
X159324173Y-137283393D01*
X159188166Y-137075217D01*
X159166557Y-137051744D01*
X159019744Y-136892262D01*
X158823509Y-136739526D01*
X158823507Y-136739525D01*
X158823506Y-136739524D01*
X158604811Y-136621172D01*
X158604802Y-136621169D01*
X158369616Y-136540429D01*
X158124335Y-136499500D01*
X157875665Y-136499500D01*
X157630383Y-136540429D01*
X157395197Y-136621169D01*
X157395188Y-136621172D01*
X157176493Y-136739524D01*
X156980255Y-136892262D01*
X156980252Y-136892265D01*
X156856480Y-137026717D01*
X156796593Y-137062708D01*
X156726755Y-137060607D01*
X156677570Y-137030415D01*
X153359336Y-133712181D01*
X153325851Y-133650858D01*
X153330835Y-133581166D01*
X153372707Y-133525233D01*
X153438171Y-133500816D01*
X153447017Y-133500500D01*
X153624335Y-133500500D01*
X153869614Y-133459571D01*
X154104810Y-133378828D01*
X154323509Y-133260474D01*
X154519744Y-133107738D01*
X154688164Y-132924785D01*
X154824173Y-132716607D01*
X154924063Y-132488881D01*
X154985108Y-132247821D01*
X154999062Y-132079420D01*
X155005643Y-132000005D01*
X155005643Y-131999994D01*
X154985109Y-131752187D01*
X154985107Y-131752175D01*
X154924063Y-131511118D01*
X154824173Y-131283393D01*
X154688166Y-131075217D01*
X154633442Y-131015771D01*
X154519744Y-130892262D01*
X154323509Y-130739526D01*
X154315477Y-130735179D01*
X154265891Y-130685961D01*
X154250500Y-130626128D01*
X154250500Y-124920036D01*
X154270185Y-124852997D01*
X154308528Y-124815042D01*
X154330742Y-124801085D01*
X154412319Y-124719508D01*
X154473642Y-124686023D01*
X154543334Y-124691007D01*
X154587681Y-124719508D01*
X154669258Y-124801085D01*
X154691471Y-124815042D01*
X154737762Y-124867375D01*
X154749500Y-124920036D01*
X154749500Y-129573918D01*
X154749500Y-129573920D01*
X154749499Y-129573920D01*
X154778340Y-129718907D01*
X154778343Y-129718917D01*
X154834913Y-129855491D01*
X154837059Y-129858702D01*
X154837061Y-129858708D01*
X154837062Y-129858708D01*
X154917046Y-129978414D01*
X154917052Y-129978421D01*
X156500618Y-131561986D01*
X156534103Y-131623309D01*
X156533143Y-131680107D01*
X156514891Y-131752182D01*
X156494357Y-131999994D01*
X156494357Y-132000005D01*
X156514890Y-132247812D01*
X156514892Y-132247824D01*
X156575936Y-132488881D01*
X156675826Y-132716606D01*
X156811833Y-132924782D01*
X156811836Y-132924785D01*
X156980256Y-133107738D01*
X157176491Y-133260474D01*
X157395190Y-133378828D01*
X157630386Y-133459571D01*
X157875665Y-133500500D01*
X158124335Y-133500500D01*
X158369614Y-133459571D01*
X158604810Y-133378828D01*
X158823509Y-133260474D01*
X159019744Y-133107738D01*
X159188164Y-132924785D01*
X159324173Y-132716607D01*
X159424063Y-132488881D01*
X159485108Y-132247821D01*
X159499062Y-132079420D01*
X159505643Y-132000005D01*
X159505643Y-131999994D01*
X159485109Y-131752187D01*
X159485107Y-131752175D01*
X159424063Y-131511118D01*
X159324173Y-131283393D01*
X159188166Y-131075217D01*
X159133442Y-131015771D01*
X159019744Y-130892262D01*
X158823509Y-130739526D01*
X158823507Y-130739525D01*
X158823506Y-130739524D01*
X158604811Y-130621172D01*
X158604802Y-130621169D01*
X158369616Y-130540429D01*
X158124335Y-130499500D01*
X157875665Y-130499500D01*
X157668841Y-130534011D01*
X157599476Y-130525629D01*
X157560751Y-130499383D01*
X156286819Y-129225451D01*
X156253334Y-129164128D01*
X156250500Y-129137770D01*
X156250500Y-124920036D01*
X156270185Y-124852997D01*
X156308528Y-124815042D01*
X156330742Y-124801085D01*
X156412319Y-124719508D01*
X156473642Y-124686023D01*
X156543334Y-124691007D01*
X156587681Y-124719508D01*
X156669258Y-124801085D01*
X156691471Y-124815042D01*
X156737762Y-124867375D01*
X156749500Y-124920036D01*
X156749500Y-127073918D01*
X156749500Y-127073920D01*
X156749499Y-127073920D01*
X156778340Y-127218907D01*
X156778343Y-127218917D01*
X156826463Y-127335088D01*
X156834916Y-127355495D01*
X156851166Y-127379815D01*
X156861122Y-127394716D01*
X156917049Y-127478418D01*
X156917052Y-127478421D01*
X161000618Y-131561986D01*
X161034103Y-131623309D01*
X161033143Y-131680107D01*
X161014891Y-131752182D01*
X160994357Y-131999994D01*
X160994357Y-132000005D01*
X161014890Y-132247812D01*
X161014892Y-132247824D01*
X161075936Y-132488881D01*
X161175826Y-132716606D01*
X161311833Y-132924782D01*
X161311836Y-132924785D01*
X161480256Y-133107738D01*
X161676491Y-133260474D01*
X161895190Y-133378828D01*
X162130386Y-133459571D01*
X162375665Y-133500500D01*
X162624335Y-133500500D01*
X162869614Y-133459571D01*
X163104810Y-133378828D01*
X163323509Y-133260474D01*
X163519744Y-133107738D01*
X163688164Y-132924785D01*
X163824173Y-132716607D01*
X163924063Y-132488881D01*
X163985108Y-132247821D01*
X163999062Y-132079420D01*
X164005643Y-132000005D01*
X164005643Y-131999994D01*
X163985109Y-131752187D01*
X163985107Y-131752175D01*
X163924063Y-131511118D01*
X163824173Y-131283393D01*
X163688166Y-131075217D01*
X163633442Y-131015771D01*
X163519744Y-130892262D01*
X163323509Y-130739526D01*
X163323507Y-130739525D01*
X163323506Y-130739524D01*
X163104811Y-130621172D01*
X163104802Y-130621169D01*
X162869616Y-130540429D01*
X162624335Y-130499500D01*
X162375665Y-130499500D01*
X162168841Y-130534011D01*
X162099476Y-130525629D01*
X162060751Y-130499383D01*
X160512908Y-128951540D01*
X172357280Y-128951540D01*
X172377761Y-129093996D01*
X172437548Y-129224911D01*
X172442006Y-129230443D01*
X172475168Y-129271595D01*
X172475171Y-129271598D01*
X172475176Y-129271604D01*
X174724186Y-131520611D01*
X175165106Y-131961531D01*
X175165110Y-131961534D01*
X175165112Y-131961536D01*
X175211787Y-131999151D01*
X175277246Y-132029045D01*
X175342704Y-132058939D01*
X175342703Y-132058939D01*
X175363185Y-132061883D01*
X175485161Y-132079421D01*
X175627619Y-132058939D01*
X175758535Y-131999151D01*
X175805217Y-131961533D01*
X176573378Y-131193370D01*
X176610998Y-131146688D01*
X176670786Y-131015772D01*
X176691268Y-130873314D01*
X176670786Y-130730857D01*
X176656701Y-130700015D01*
X176610999Y-130599942D01*
X176603097Y-130590136D01*
X176573380Y-130553259D01*
X176573375Y-130553254D01*
X176573371Y-130553249D01*
X175311093Y-129290971D01*
X175277608Y-129229648D01*
X175274774Y-129203290D01*
X175274774Y-128200353D01*
X175245933Y-128055366D01*
X175245932Y-128055365D01*
X175245932Y-128055361D01*
X175242829Y-128047869D01*
X175189361Y-127918785D01*
X175189354Y-127918772D01*
X175107226Y-127795859D01*
X175062284Y-127750917D01*
X175002690Y-127691323D01*
X174253308Y-126941940D01*
X174230643Y-126905870D01*
X174228812Y-126906753D01*
X174225792Y-126900483D01*
X174131237Y-126750000D01*
X174129816Y-126747738D01*
X174002262Y-126620184D01*
X173927771Y-126573378D01*
X173849523Y-126524211D01*
X173679254Y-126464631D01*
X173679249Y-126464630D01*
X173500004Y-126444435D01*
X173499996Y-126444435D01*
X173320750Y-126464630D01*
X173320745Y-126464631D01*
X173150476Y-126524211D01*
X172997737Y-126620184D01*
X172870184Y-126747737D01*
X172774211Y-126900476D01*
X172714631Y-127070745D01*
X172714630Y-127070750D01*
X172694435Y-127249996D01*
X172694435Y-127250003D01*
X172714630Y-127429249D01*
X172714631Y-127429254D01*
X172774211Y-127599523D01*
X172854768Y-127727728D01*
X172870184Y-127752262D01*
X172997738Y-127879816D01*
X173006772Y-127885493D01*
X173053064Y-127937826D01*
X173063714Y-128006879D01*
X173035340Y-128070728D01*
X173028483Y-128078168D01*
X172475173Y-128631480D01*
X172475164Y-128631490D01*
X172437549Y-128678165D01*
X172377761Y-128809082D01*
X172357280Y-128951540D01*
X160512908Y-128951540D01*
X158286819Y-126725451D01*
X158253334Y-126664128D01*
X158250500Y-126637770D01*
X158250500Y-125749996D01*
X174194435Y-125749996D01*
X174194435Y-125750000D01*
X174214630Y-125929249D01*
X174214631Y-125929254D01*
X174274211Y-126099523D01*
X174335713Y-126197402D01*
X174370184Y-126252262D01*
X174497738Y-126379816D01*
X174650478Y-126475789D01*
X174650480Y-126475789D01*
X174650484Y-126475792D01*
X174656756Y-126478813D01*
X174655869Y-126480653D01*
X174691939Y-126503307D01*
X176683260Y-128494628D01*
X176716745Y-128555951D01*
X176711761Y-128625643D01*
X176683261Y-128669988D01*
X176486782Y-128866470D01*
X176394515Y-128958737D01*
X176394514Y-128958738D01*
X176356899Y-129005413D01*
X176297111Y-129136330D01*
X176276630Y-129278788D01*
X176297111Y-129421244D01*
X176356898Y-129552159D01*
X176369762Y-129568123D01*
X176394518Y-129598843D01*
X176394521Y-129598846D01*
X176394526Y-129598852D01*
X178757201Y-131961524D01*
X179084456Y-132288779D01*
X179084460Y-132288782D01*
X179084462Y-132288784D01*
X179131137Y-132326399D01*
X179196596Y-132356293D01*
X179262054Y-132386187D01*
X179262053Y-132386187D01*
X179282535Y-132389131D01*
X179404511Y-132406669D01*
X179546969Y-132386187D01*
X179677885Y-132326399D01*
X179724567Y-132288781D01*
X180492728Y-131520618D01*
X180530348Y-131473936D01*
X180590136Y-131343020D01*
X180610618Y-131200562D01*
X180590136Y-131058105D01*
X180570803Y-131015772D01*
X180530349Y-130927190D01*
X180523916Y-130919207D01*
X180492730Y-130880507D01*
X180492725Y-130880502D01*
X180492721Y-130880497D01*
X179230443Y-129618219D01*
X179196958Y-129556896D01*
X179194124Y-129530538D01*
X179194124Y-129119703D01*
X179165283Y-128974716D01*
X179165282Y-128974715D01*
X179165282Y-128974711D01*
X179108708Y-128838129D01*
X179068760Y-128778342D01*
X179068760Y-128778341D01*
X179026574Y-128715205D01*
X179008870Y-128697501D01*
X178975385Y-128636178D01*
X178980369Y-128566486D01*
X179022241Y-128510553D01*
X179078901Y-128487083D01*
X179219721Y-128466837D01*
X179350637Y-128407049D01*
X179397319Y-128369431D01*
X180165480Y-127601268D01*
X180203100Y-127554586D01*
X180262888Y-127423670D01*
X180283370Y-127281212D01*
X180262888Y-127138755D01*
X180244971Y-127099522D01*
X180203101Y-127007840D01*
X180195614Y-126998549D01*
X180165482Y-126961157D01*
X180165477Y-126961152D01*
X180165473Y-126961147D01*
X178903195Y-125698869D01*
X178869710Y-125637546D01*
X178866876Y-125611188D01*
X178866876Y-124792455D01*
X178838035Y-124647468D01*
X178838034Y-124647467D01*
X178838034Y-124647463D01*
X178781460Y-124510881D01*
X178727717Y-124430448D01*
X178727717Y-124430447D01*
X178699326Y-124387957D01*
X178699323Y-124387954D01*
X177753307Y-123441939D01*
X177730653Y-123405869D01*
X177728813Y-123406756D01*
X177725792Y-123400484D01*
X177725789Y-123400480D01*
X177725789Y-123400478D01*
X177629816Y-123247738D01*
X177502262Y-123120184D01*
X177428971Y-123074132D01*
X177349523Y-123024211D01*
X177179254Y-122964631D01*
X177179249Y-122964630D01*
X177000004Y-122944435D01*
X176999996Y-122944435D01*
X176820750Y-122964630D01*
X176820745Y-122964631D01*
X176650476Y-123024211D01*
X176497737Y-123120184D01*
X176370184Y-123247737D01*
X176274211Y-123400476D01*
X176214631Y-123570745D01*
X176214630Y-123570750D01*
X176194435Y-123749996D01*
X176194435Y-123750003D01*
X176214630Y-123929249D01*
X176214631Y-123929254D01*
X176274211Y-124099523D01*
X176300057Y-124140656D01*
X176370184Y-124252262D01*
X176497738Y-124379816D01*
X176506772Y-124385493D01*
X176553064Y-124437826D01*
X176563714Y-124506879D01*
X176535340Y-124570728D01*
X176528484Y-124578168D01*
X176067267Y-125039387D01*
X176067266Y-125039388D01*
X176029651Y-125086063D01*
X175969863Y-125216980D01*
X175951005Y-125348149D01*
X175921980Y-125411705D01*
X175863202Y-125449479D01*
X175793332Y-125449479D01*
X175734554Y-125411705D01*
X175723273Y-125396474D01*
X175709152Y-125374000D01*
X175629816Y-125247738D01*
X175502262Y-125120184D01*
X175481643Y-125107228D01*
X175349523Y-125024211D01*
X175179254Y-124964631D01*
X175179249Y-124964630D01*
X175000004Y-124944435D01*
X174999996Y-124944435D01*
X174820750Y-124964630D01*
X174820745Y-124964631D01*
X174650476Y-125024211D01*
X174497737Y-125120184D01*
X174370184Y-125247737D01*
X174274211Y-125400476D01*
X174214631Y-125570745D01*
X174214630Y-125570750D01*
X174194435Y-125749996D01*
X158250500Y-125749996D01*
X158250500Y-124920036D01*
X158270185Y-124852997D01*
X158308528Y-124815042D01*
X158330742Y-124801085D01*
X158461085Y-124670742D01*
X158559156Y-124514663D01*
X158620037Y-124340674D01*
X158620037Y-124340673D01*
X158620038Y-124340671D01*
X158629999Y-124252262D01*
X158635500Y-124203438D01*
X158635500Y-121910442D01*
X158655185Y-121843403D01*
X158707989Y-121797648D01*
X158777147Y-121787704D01*
X158840703Y-121816729D01*
X158847181Y-121822761D01*
X160607366Y-123582947D01*
X160607369Y-123582949D01*
X160607372Y-123582952D01*
X160631348Y-123598972D01*
X160631349Y-123598973D01*
X160730295Y-123665086D01*
X160777238Y-123684530D01*
X160777239Y-123684530D01*
X160866875Y-123721659D01*
X160979021Y-123743966D01*
X161000919Y-123748322D01*
X161011868Y-123750500D01*
X161011869Y-123750500D01*
X161011870Y-123750500D01*
X161130864Y-123750500D01*
X161197903Y-123770185D01*
X161234672Y-123806677D01*
X161311836Y-123924785D01*
X161480256Y-124107738D01*
X161676491Y-124260474D01*
X161895190Y-124378828D01*
X162130386Y-124459571D01*
X162375665Y-124500500D01*
X162624335Y-124500500D01*
X162869614Y-124459571D01*
X163104810Y-124378828D01*
X163323509Y-124260474D01*
X163519744Y-124107738D01*
X163688164Y-123924785D01*
X163824173Y-123716607D01*
X163924063Y-123488881D01*
X163985108Y-123247821D01*
X163985115Y-123247737D01*
X164005643Y-123000005D01*
X164005643Y-122999994D01*
X163985109Y-122752187D01*
X163985107Y-122752175D01*
X163924063Y-122511118D01*
X163824173Y-122283393D01*
X163688166Y-122075217D01*
X163553798Y-121929255D01*
X163519744Y-121892262D01*
X163336961Y-121749996D01*
X178194435Y-121749996D01*
X178194435Y-121750003D01*
X178214630Y-121929249D01*
X178214631Y-121929254D01*
X178274211Y-122099523D01*
X178292939Y-122129328D01*
X178370184Y-122252262D01*
X178497738Y-122379816D01*
X178650478Y-122475789D01*
X178650480Y-122475789D01*
X178650484Y-122475792D01*
X178656756Y-122478813D01*
X178655869Y-122480653D01*
X178691939Y-122503307D01*
X180683260Y-124494628D01*
X180716745Y-124555951D01*
X180711761Y-124625643D01*
X180683260Y-124669990D01*
X179986625Y-125366626D01*
X179986616Y-125366636D01*
X179949001Y-125413311D01*
X179889213Y-125544228D01*
X179868732Y-125686686D01*
X179889213Y-125829142D01*
X179949000Y-125960057D01*
X179956902Y-125969863D01*
X179986620Y-126006741D01*
X179986623Y-126006744D01*
X179986628Y-126006750D01*
X182229877Y-128249996D01*
X182676558Y-128696677D01*
X182676562Y-128696680D01*
X182676564Y-128696682D01*
X182723239Y-128734297D01*
X182770942Y-128756082D01*
X182854156Y-128794085D01*
X182854155Y-128794085D01*
X182874637Y-128797029D01*
X182996613Y-128814567D01*
X183139071Y-128794085D01*
X183269987Y-128734297D01*
X183316669Y-128696679D01*
X184084830Y-127928516D01*
X184122450Y-127881834D01*
X184182238Y-127750918D01*
X184202720Y-127608460D01*
X184182238Y-127466003D01*
X184162905Y-127423670D01*
X184122451Y-127335088D01*
X184116018Y-127327105D01*
X184084832Y-127288405D01*
X184084827Y-127288400D01*
X184084823Y-127288395D01*
X182822545Y-126026117D01*
X182789060Y-125964794D01*
X182786226Y-125938436D01*
X182786226Y-124711805D01*
X182757385Y-124566818D01*
X182757384Y-124566817D01*
X182757384Y-124566813D01*
X182700810Y-124430231D01*
X182655685Y-124362696D01*
X182655685Y-124362695D01*
X182618676Y-124307307D01*
X182618673Y-124307304D01*
X179753307Y-121441939D01*
X179730653Y-121405869D01*
X179728813Y-121406756D01*
X179725792Y-121400484D01*
X179725789Y-121400480D01*
X179725789Y-121400478D01*
X179629816Y-121247738D01*
X179502262Y-121120184D01*
X179471481Y-121100843D01*
X179349523Y-121024211D01*
X179179254Y-120964631D01*
X179179249Y-120964630D01*
X179000004Y-120944435D01*
X178999996Y-120944435D01*
X178820750Y-120964630D01*
X178820745Y-120964631D01*
X178650476Y-121024211D01*
X178497737Y-121120184D01*
X178370184Y-121247737D01*
X178274211Y-121400476D01*
X178214631Y-121570745D01*
X178214630Y-121570750D01*
X178194435Y-121749996D01*
X163336961Y-121749996D01*
X163323509Y-121739526D01*
X163323507Y-121739525D01*
X163323506Y-121739524D01*
X163104811Y-121621172D01*
X163104802Y-121621169D01*
X162869616Y-121540429D01*
X162624335Y-121499500D01*
X162375665Y-121499500D01*
X162130383Y-121540429D01*
X161895197Y-121621169D01*
X161895188Y-121621172D01*
X161676493Y-121739524D01*
X161480255Y-121892262D01*
X161480252Y-121892265D01*
X161356480Y-122026717D01*
X161296593Y-122062708D01*
X161226755Y-122060607D01*
X161177570Y-122030415D01*
X153090938Y-113943783D01*
X153057453Y-113882460D01*
X153062437Y-113812768D01*
X153104309Y-113756835D01*
X153154427Y-113734485D01*
X153218913Y-113721658D01*
X153324547Y-113677902D01*
X153355488Y-113665087D01*
X153355488Y-113665086D01*
X153355495Y-113665084D01*
X153421214Y-113621172D01*
X153478416Y-113582952D01*
X157059405Y-110001961D01*
X157120726Y-109968478D01*
X157190418Y-109973462D01*
X157199628Y-109977619D01*
X157238367Y-109993665D01*
X157317548Y-110026463D01*
X157438283Y-110050478D01*
X157438389Y-110050499D01*
X157438393Y-110050500D01*
X157438394Y-110050500D01*
X157561607Y-110050500D01*
X157561608Y-110050499D01*
X157682452Y-110026463D01*
X157746353Y-109999994D01*
X159994357Y-109999994D01*
X159994357Y-110000005D01*
X160014890Y-110247812D01*
X160014892Y-110247824D01*
X160075936Y-110488881D01*
X160175826Y-110716606D01*
X160311833Y-110924782D01*
X160311836Y-110924785D01*
X160480256Y-111107738D01*
X160676491Y-111260474D01*
X160676493Y-111260475D01*
X160894332Y-111378364D01*
X160895190Y-111378828D01*
X160991986Y-111412058D01*
X161128964Y-111459083D01*
X161130386Y-111459571D01*
X161375665Y-111500500D01*
X161624335Y-111500500D01*
X161869614Y-111459571D01*
X162104810Y-111378828D01*
X162323509Y-111260474D01*
X162519744Y-111107738D01*
X162688164Y-110924785D01*
X162824173Y-110716607D01*
X162924063Y-110488881D01*
X162985108Y-110247821D01*
X163000906Y-110057168D01*
X163005643Y-110000005D01*
X163005643Y-109999994D01*
X162985109Y-109752187D01*
X162985107Y-109752175D01*
X162924063Y-109511118D01*
X162824173Y-109283393D01*
X162688166Y-109075217D01*
X162666557Y-109051744D01*
X162519744Y-108892262D01*
X162323509Y-108739526D01*
X162315477Y-108735179D01*
X162265891Y-108685961D01*
X162250500Y-108626128D01*
X162250500Y-105112228D01*
X162270185Y-105045189D01*
X162286814Y-105024552D01*
X166610271Y-100701094D01*
X166671592Y-100667611D01*
X166741284Y-100672595D01*
X166797217Y-100714467D01*
X166821634Y-100779931D01*
X166806782Y-100848204D01*
X166802945Y-100854747D01*
X166774212Y-100900475D01*
X166771188Y-100906756D01*
X166769362Y-100905876D01*
X166746693Y-100941937D01*
X164417049Y-103271581D01*
X164376957Y-103331583D01*
X164376958Y-103331584D01*
X164334914Y-103394508D01*
X164278343Y-103531082D01*
X164278340Y-103531092D01*
X164249500Y-103676079D01*
X164249500Y-108626128D01*
X164229815Y-108693167D01*
X164184522Y-108735179D01*
X164176491Y-108739526D01*
X164128243Y-108777079D01*
X163980257Y-108892261D01*
X163811833Y-109075217D01*
X163675826Y-109283393D01*
X163575936Y-109511118D01*
X163514892Y-109752175D01*
X163514890Y-109752187D01*
X163494357Y-109999994D01*
X163494357Y-110000005D01*
X163514890Y-110247812D01*
X163514892Y-110247824D01*
X163575936Y-110488881D01*
X163675826Y-110716606D01*
X163811833Y-110924782D01*
X163811836Y-110924785D01*
X163980256Y-111107738D01*
X164176491Y-111260474D01*
X164176494Y-111260476D01*
X164176496Y-111260477D01*
X164239847Y-111294760D01*
X164365647Y-111362840D01*
X164415237Y-111412058D01*
X164430345Y-111480275D01*
X164406175Y-111545831D01*
X164394310Y-111559575D01*
X162318067Y-113635818D01*
X162256744Y-113669303D01*
X162187052Y-113664319D01*
X162171375Y-113657195D01*
X162104810Y-113621172D01*
X162104802Y-113621169D01*
X161869616Y-113540429D01*
X161624335Y-113499500D01*
X161375665Y-113499500D01*
X161130383Y-113540429D01*
X160895197Y-113621169D01*
X160895188Y-113621172D01*
X160676493Y-113739524D01*
X160480257Y-113892261D01*
X160311833Y-114075217D01*
X160175826Y-114283393D01*
X160075936Y-114511118D01*
X160014892Y-114752175D01*
X160014890Y-114752187D01*
X159994357Y-114999994D01*
X159994357Y-115000005D01*
X160014890Y-115247812D01*
X160014892Y-115247824D01*
X160075936Y-115488881D01*
X160175826Y-115716606D01*
X160311833Y-115924782D01*
X160311836Y-115924785D01*
X160480256Y-116107738D01*
X160676491Y-116260474D01*
X160895190Y-116378828D01*
X161130386Y-116459571D01*
X161375665Y-116500500D01*
X161624335Y-116500500D01*
X161869614Y-116459571D01*
X162104810Y-116378828D01*
X162323509Y-116260474D01*
X162519744Y-116107738D01*
X162688164Y-115924785D01*
X162824173Y-115716607D01*
X162924063Y-115488881D01*
X162985108Y-115247821D01*
X162995476Y-115122687D01*
X163020628Y-115057507D01*
X163031363Y-115045258D01*
X163292909Y-114783712D01*
X163354230Y-114750229D01*
X163423922Y-114755213D01*
X163479855Y-114797085D01*
X163504272Y-114862549D01*
X163504164Y-114881634D01*
X163494358Y-114999994D01*
X163494357Y-115000004D01*
X163494357Y-115000005D01*
X163514890Y-115247812D01*
X163514892Y-115247824D01*
X163575936Y-115488881D01*
X163675826Y-115716606D01*
X163811833Y-115924782D01*
X163811836Y-115924785D01*
X163980256Y-116107738D01*
X164176491Y-116260474D01*
X164184513Y-116264815D01*
X164234106Y-116314032D01*
X164249500Y-116373872D01*
X164249500Y-117200028D01*
X164242542Y-117240982D01*
X164214631Y-117320747D01*
X164194435Y-117499996D01*
X164194435Y-117500003D01*
X164214630Y-117679249D01*
X164214631Y-117679254D01*
X164274211Y-117849523D01*
X164370184Y-118002262D01*
X164497738Y-118129816D01*
X164650478Y-118225789D01*
X164808496Y-118281082D01*
X164820745Y-118285368D01*
X164820750Y-118285369D01*
X164999996Y-118305565D01*
X165000000Y-118305565D01*
X165000004Y-118305565D01*
X165179249Y-118285369D01*
X165179252Y-118285368D01*
X165179255Y-118285368D01*
X165349522Y-118225789D01*
X165502262Y-118129816D01*
X165629816Y-118002262D01*
X165725789Y-117849522D01*
X165785368Y-117679255D01*
X165805565Y-117500000D01*
X165785368Y-117320745D01*
X165757458Y-117240982D01*
X165750500Y-117200028D01*
X165750500Y-116373872D01*
X165770185Y-116306833D01*
X165815487Y-116264815D01*
X165823509Y-116260474D01*
X166019744Y-116107738D01*
X166188164Y-115924785D01*
X166324173Y-115716607D01*
X166424063Y-115488881D01*
X166485108Y-115247821D01*
X166485109Y-115247812D01*
X166505643Y-115000005D01*
X166505643Y-114999994D01*
X166485109Y-114752187D01*
X166485107Y-114752175D01*
X166424063Y-114511118D01*
X166324173Y-114283393D01*
X166188166Y-114075217D01*
X166135930Y-114018474D01*
X166019744Y-113892262D01*
X165823509Y-113739526D01*
X165823507Y-113739525D01*
X165823506Y-113739524D01*
X165604811Y-113621172D01*
X165604802Y-113621169D01*
X165369616Y-113540429D01*
X165124335Y-113499500D01*
X164876484Y-113499500D01*
X164809445Y-113479815D01*
X164763690Y-113427011D01*
X164753746Y-113357853D01*
X164782771Y-113294297D01*
X164788803Y-113287819D01*
X166076628Y-111999994D01*
X168082952Y-109993671D01*
X168104234Y-109961819D01*
X168138832Y-109910039D01*
X168138833Y-109910037D01*
X168146948Y-109897892D01*
X168165084Y-109870750D01*
X168221658Y-109734168D01*
X168239107Y-109646447D01*
X168250500Y-109589175D01*
X168250500Y-104624500D01*
X168270185Y-104557461D01*
X168322989Y-104511706D01*
X168374500Y-104500500D01*
X186103253Y-104500500D01*
X186170292Y-104520185D01*
X186202519Y-104550189D01*
X186286853Y-104662844D01*
X186286856Y-104662847D01*
X186402065Y-104749093D01*
X186402072Y-104749097D01*
X186536918Y-104799391D01*
X186536917Y-104799391D01*
X186543845Y-104800135D01*
X186596528Y-104805800D01*
X190400673Y-104805799D01*
X190460284Y-104799391D01*
X190595132Y-104749096D01*
X190710347Y-104662846D01*
X190796597Y-104547631D01*
X190846892Y-104412783D01*
X190853301Y-104353173D01*
X190853300Y-103266828D01*
X190846892Y-103207217D01*
X190839064Y-103186230D01*
X190796598Y-103072371D01*
X190796594Y-103072364D01*
X190710348Y-102957155D01*
X190710345Y-102957152D01*
X190595136Y-102870906D01*
X190595129Y-102870902D01*
X190460283Y-102820608D01*
X190460284Y-102820608D01*
X190400684Y-102814201D01*
X190400682Y-102814200D01*
X190400674Y-102814200D01*
X190400665Y-102814200D01*
X186596530Y-102814200D01*
X186596524Y-102814201D01*
X186536917Y-102820608D01*
X186402072Y-102870902D01*
X186402070Y-102870904D01*
X186286857Y-102957152D01*
X186280832Y-102963178D01*
X186219510Y-102996665D01*
X186193147Y-102999500D01*
X167799972Y-102999500D01*
X167759017Y-102992542D01*
X167679254Y-102964631D01*
X167679249Y-102964630D01*
X167500004Y-102944435D01*
X167499996Y-102944435D01*
X167320750Y-102964630D01*
X167320745Y-102964631D01*
X167150474Y-103024212D01*
X167104755Y-103052939D01*
X167037518Y-103071939D01*
X166970683Y-103051571D01*
X166925470Y-102998302D01*
X166916233Y-102929046D01*
X166945905Y-102865790D01*
X166951087Y-102860280D01*
X167754549Y-102056819D01*
X167815872Y-102023334D01*
X167842230Y-102020500D01*
X189150967Y-102020500D01*
X189218006Y-102040185D01*
X189250233Y-102070188D01*
X189289654Y-102122847D01*
X189404863Y-102209093D01*
X189404870Y-102209097D01*
X189539716Y-102259391D01*
X189539715Y-102259391D01*
X189546643Y-102260135D01*
X189599326Y-102265800D01*
X193403471Y-102265799D01*
X193463082Y-102259391D01*
X193597930Y-102209096D01*
X193713145Y-102122846D01*
X193799395Y-102007631D01*
X193849690Y-101872783D01*
X193856099Y-101813173D01*
X193856098Y-100726828D01*
X193849690Y-100667217D01*
X193848716Y-100664606D01*
X193799396Y-100532371D01*
X193799392Y-100532364D01*
X193713146Y-100417155D01*
X193713143Y-100417152D01*
X193597934Y-100330906D01*
X193597927Y-100330902D01*
X193463081Y-100280608D01*
X193463082Y-100280608D01*
X193403482Y-100274201D01*
X193403480Y-100274200D01*
X193403472Y-100274200D01*
X193403463Y-100274200D01*
X189599328Y-100274200D01*
X189599322Y-100274201D01*
X189539715Y-100280608D01*
X189404870Y-100330902D01*
X189404863Y-100330906D01*
X189289654Y-100417152D01*
X189250233Y-100469812D01*
X189194299Y-100511682D01*
X189150967Y-100519500D01*
X167857129Y-100519500D01*
X167816174Y-100512542D01*
X167679254Y-100464631D01*
X167679249Y-100464630D01*
X167500004Y-100444435D01*
X167499996Y-100444435D01*
X167320750Y-100464630D01*
X167320745Y-100464631D01*
X167150477Y-100524211D01*
X167104750Y-100552943D01*
X167037513Y-100571942D01*
X166970678Y-100551573D01*
X166925464Y-100498305D01*
X166916228Y-100429048D01*
X166945900Y-100365793D01*
X166951079Y-100360286D01*
X167794547Y-99516818D01*
X167855870Y-99483334D01*
X167882228Y-99480500D01*
X186148169Y-99480500D01*
X186215208Y-99500185D01*
X186247435Y-99530188D01*
X186286856Y-99582847D01*
X186402065Y-99669093D01*
X186402072Y-99669097D01*
X186536918Y-99719391D01*
X186536917Y-99719391D01*
X186542582Y-99720000D01*
X186596528Y-99725800D01*
X190400673Y-99725799D01*
X190460284Y-99719391D01*
X190595132Y-99669096D01*
X190710347Y-99582846D01*
X190796597Y-99467631D01*
X190846892Y-99332783D01*
X190853301Y-99273173D01*
X190853300Y-98186828D01*
X190846892Y-98127217D01*
X190836562Y-98099522D01*
X190796598Y-97992371D01*
X190796594Y-97992364D01*
X190710348Y-97877155D01*
X190710345Y-97877152D01*
X190595136Y-97790906D01*
X190595129Y-97790902D01*
X190460283Y-97740608D01*
X190460284Y-97740608D01*
X190400684Y-97734201D01*
X190400682Y-97734200D01*
X190400674Y-97734200D01*
X190400665Y-97734200D01*
X186596530Y-97734200D01*
X186596524Y-97734201D01*
X186536917Y-97740608D01*
X186402072Y-97790902D01*
X186402065Y-97790906D01*
X186286856Y-97877152D01*
X186247435Y-97929812D01*
X186191501Y-97971682D01*
X186148169Y-97979500D01*
X167742812Y-97979500D01*
X167701857Y-97972541D01*
X167699402Y-97971682D01*
X167694711Y-97970040D01*
X167679256Y-97964632D01*
X167679246Y-97964630D01*
X167500004Y-97944435D01*
X167499996Y-97944435D01*
X167320750Y-97964630D01*
X167320745Y-97964631D01*
X167150476Y-98024211D01*
X166997737Y-98120184D01*
X166870184Y-98247737D01*
X166774208Y-98400483D01*
X166771186Y-98406758D01*
X166769361Y-98405878D01*
X166746692Y-98441939D01*
X160917047Y-104271584D01*
X160885028Y-104319504D01*
X160885029Y-104319505D01*
X160834913Y-104394508D01*
X160778343Y-104531082D01*
X160778340Y-104531092D01*
X160749500Y-104676079D01*
X160749500Y-108626128D01*
X160729815Y-108693167D01*
X160684522Y-108735179D01*
X160676491Y-108739526D01*
X160628243Y-108777079D01*
X160480257Y-108892261D01*
X160311833Y-109075217D01*
X160175826Y-109283393D01*
X160075936Y-109511118D01*
X160014892Y-109752175D01*
X160014890Y-109752187D01*
X159994357Y-109999994D01*
X157746353Y-109999994D01*
X157796286Y-109979311D01*
X157854474Y-109940429D01*
X157909478Y-109920312D01*
X158000674Y-109910037D01*
X158174663Y-109849156D01*
X158330742Y-109751085D01*
X158461085Y-109620742D01*
X158559156Y-109464663D01*
X158620037Y-109290674D01*
X158620037Y-109290673D01*
X158620038Y-109290671D01*
X158632190Y-109182815D01*
X158635500Y-109153438D01*
X158635500Y-106746562D01*
X158629925Y-106697090D01*
X158620038Y-106609328D01*
X158590799Y-106525769D01*
X158559156Y-106435337D01*
X158461085Y-106279258D01*
X158330742Y-106148915D01*
X158322906Y-106143991D01*
X158174665Y-106050845D01*
X158174664Y-106050844D01*
X158174663Y-106050844D01*
X158111956Y-106028902D01*
X158000671Y-105989961D01*
X157863442Y-105974500D01*
X157863438Y-105974500D01*
X157136562Y-105974500D01*
X157136558Y-105974500D01*
X156999328Y-105989961D01*
X156825334Y-106050845D01*
X156699164Y-106130123D01*
X156631927Y-106149123D01*
X156565092Y-106128755D01*
X156519878Y-106075487D01*
X156510641Y-106006231D01*
X156516151Y-105984173D01*
X156520528Y-105971666D01*
X156535368Y-105929255D01*
X156539283Y-105894507D01*
X156555565Y-105750003D01*
X156555565Y-105749996D01*
X156536593Y-105581616D01*
X156535368Y-105570745D01*
X156507458Y-105490982D01*
X156500500Y-105450028D01*
X156500500Y-103176079D01*
X156471659Y-103031092D01*
X156471658Y-103031091D01*
X156471658Y-103031087D01*
X156415084Y-102894505D01*
X156373229Y-102831864D01*
X156373229Y-102831863D01*
X156332950Y-102771581D01*
X156332947Y-102771578D01*
X153611818Y-100050450D01*
X153578333Y-99989127D01*
X153575499Y-99962778D01*
X153575499Y-98699498D01*
X153595184Y-98632460D01*
X153647988Y-98586705D01*
X153699499Y-98575499D01*
X154997871Y-98575499D01*
X154997872Y-98575499D01*
X155057483Y-98569091D01*
X155086367Y-98558317D01*
X155129700Y-98550500D01*
X155626083Y-98550500D01*
X155698085Y-98550500D01*
X155711969Y-98551280D01*
X155749998Y-98555565D01*
X155750000Y-98555565D01*
X155750004Y-98555565D01*
X155929249Y-98535369D01*
X155929252Y-98535368D01*
X155929255Y-98535368D01*
X156099522Y-98475789D01*
X156252262Y-98379816D01*
X156379816Y-98252262D01*
X156475789Y-98099522D01*
X156535368Y-97929255D01*
X156541239Y-97877154D01*
X156555565Y-97750000D01*
X156555565Y-97749997D01*
X156542650Y-97635373D01*
X156554704Y-97566551D01*
X156602054Y-97515171D01*
X156669664Y-97497547D01*
X156678447Y-97498129D01*
X156701655Y-97500500D01*
X157298344Y-97500499D01*
X157298352Y-97500498D01*
X157298355Y-97500498D01*
X157352760Y-97494940D01*
X157397708Y-97490349D01*
X157558697Y-97437003D01*
X157598717Y-97412318D01*
X157684903Y-97359158D01*
X157752295Y-97340717D01*
X157815097Y-97359158D01*
X157941294Y-97436998D01*
X157941297Y-97436999D01*
X157941303Y-97437003D01*
X158102292Y-97490349D01*
X158201655Y-97500500D01*
X158337768Y-97500499D01*
X158404808Y-97520183D01*
X158425450Y-97536818D01*
X160490514Y-99601882D01*
X160523999Y-99663205D01*
X160523040Y-99720000D01*
X160514891Y-99752182D01*
X160494357Y-99999994D01*
X160494357Y-100000005D01*
X160514890Y-100247812D01*
X160514892Y-100247824D01*
X160575936Y-100488881D01*
X160675826Y-100716606D01*
X160811833Y-100924782D01*
X160844245Y-100959991D01*
X160980256Y-101107738D01*
X161176491Y-101260474D01*
X161395190Y-101378828D01*
X161630386Y-101459571D01*
X161875665Y-101500500D01*
X162124335Y-101500500D01*
X162369614Y-101459571D01*
X162604810Y-101378828D01*
X162823509Y-101260474D01*
X163019744Y-101107738D01*
X163188164Y-100924785D01*
X163324173Y-100716607D01*
X163424063Y-100488881D01*
X163485108Y-100247821D01*
X163497663Y-100096309D01*
X163505643Y-100000005D01*
X163505643Y-99999994D01*
X163485109Y-99752187D01*
X163485107Y-99752175D01*
X163424063Y-99511118D01*
X163324173Y-99283393D01*
X163188166Y-99075217D01*
X163145068Y-99028400D01*
X163019744Y-98892262D01*
X162823509Y-98739526D01*
X162823507Y-98739525D01*
X162823506Y-98739524D01*
X162604811Y-98621172D01*
X162604802Y-98621169D01*
X162369616Y-98540429D01*
X162124335Y-98499500D01*
X161875665Y-98499500D01*
X161625992Y-98541162D01*
X161556627Y-98532780D01*
X161517902Y-98506534D01*
X160364952Y-97353584D01*
X160331467Y-97292261D01*
X160336451Y-97222569D01*
X160378323Y-97166636D01*
X160383744Y-97162800D01*
X160428413Y-97132954D01*
X160428412Y-97132954D01*
X160428416Y-97132952D01*
X161311372Y-96249996D01*
X166694435Y-96249996D01*
X166694435Y-96250003D01*
X166714630Y-96429249D01*
X166714631Y-96429254D01*
X166774211Y-96599523D01*
X166858191Y-96733176D01*
X166870184Y-96752262D01*
X166997738Y-96879816D01*
X167150478Y-96975789D01*
X167320745Y-97035368D01*
X167320750Y-97035369D01*
X167499996Y-97055565D01*
X167500000Y-97055565D01*
X167500004Y-97055565D01*
X167679249Y-97035369D01*
X167679252Y-97035368D01*
X167679255Y-97035368D01*
X167759017Y-97007457D01*
X167799972Y-97000500D01*
X189195945Y-97000500D01*
X189262984Y-97020185D01*
X189283630Y-97036822D01*
X189289650Y-97042842D01*
X189289653Y-97042846D01*
X189404868Y-97129096D01*
X189404869Y-97129096D01*
X189404870Y-97129097D01*
X189539716Y-97179391D01*
X189539715Y-97179391D01*
X189546643Y-97180135D01*
X189599326Y-97185800D01*
X193403471Y-97185799D01*
X193463082Y-97179391D01*
X193597930Y-97129096D01*
X193713145Y-97042846D01*
X193799395Y-96927631D01*
X193849690Y-96792783D01*
X193856099Y-96733173D01*
X193856098Y-95646828D01*
X193849690Y-95587217D01*
X193826953Y-95526257D01*
X193799396Y-95452371D01*
X193799392Y-95452364D01*
X193713146Y-95337155D01*
X193713143Y-95337152D01*
X193597934Y-95250906D01*
X193597927Y-95250902D01*
X193463081Y-95200608D01*
X193463082Y-95200608D01*
X193403482Y-95194201D01*
X193403480Y-95194200D01*
X193403472Y-95194200D01*
X193403463Y-95194200D01*
X189599328Y-95194200D01*
X189599322Y-95194201D01*
X189539715Y-95200608D01*
X189404870Y-95250902D01*
X189404863Y-95250906D01*
X189289654Y-95337152D01*
X189289651Y-95337155D01*
X189205317Y-95449811D01*
X189149383Y-95491682D01*
X189106051Y-95499500D01*
X167799972Y-95499500D01*
X167759017Y-95492542D01*
X167679254Y-95464631D01*
X167679249Y-95464630D01*
X167500004Y-95444435D01*
X167499996Y-95444435D01*
X167320750Y-95464630D01*
X167320745Y-95464631D01*
X167150476Y-95524211D01*
X166997737Y-95620184D01*
X166870184Y-95747737D01*
X166774211Y-95900476D01*
X166714631Y-96070745D01*
X166714630Y-96070750D01*
X166694435Y-96249996D01*
X161311372Y-96249996D01*
X180380669Y-77180697D01*
X180441992Y-77147213D01*
X180511684Y-77152197D01*
X180556031Y-77180698D01*
X181713181Y-78337848D01*
X181746666Y-78399171D01*
X181749500Y-78425529D01*
X181749500Y-81126128D01*
X181729815Y-81193167D01*
X181684522Y-81235179D01*
X181676491Y-81239526D01*
X181545667Y-81341350D01*
X181480257Y-81392261D01*
X181311833Y-81575217D01*
X181175826Y-81783393D01*
X181075936Y-82011118D01*
X181014892Y-82252175D01*
X181014890Y-82252187D01*
X180994357Y-82499994D01*
X180994357Y-82500005D01*
X181014890Y-82747812D01*
X181014892Y-82747824D01*
X181075936Y-82988881D01*
X181175826Y-83216606D01*
X181311833Y-83424782D01*
X181328533Y-83442923D01*
X181480256Y-83607738D01*
X181676491Y-83760474D01*
X181895190Y-83878828D01*
X182130386Y-83959571D01*
X182375665Y-84000500D01*
X182624335Y-84000500D01*
X182869614Y-83959571D01*
X183104810Y-83878828D01*
X183323509Y-83760474D01*
X183519744Y-83607738D01*
X183688164Y-83424785D01*
X183824173Y-83216607D01*
X183924063Y-82988881D01*
X183985108Y-82747821D01*
X183985109Y-82747812D01*
X184005643Y-82500005D01*
X184005643Y-82499994D01*
X183985109Y-82252187D01*
X183985107Y-82252175D01*
X183924063Y-82011118D01*
X183824173Y-81783393D01*
X183688166Y-81575217D01*
X183618463Y-81499500D01*
X183519744Y-81392262D01*
X183323509Y-81239526D01*
X183315477Y-81235179D01*
X183265891Y-81185961D01*
X183250500Y-81126128D01*
X183250500Y-77989378D01*
X183221659Y-77844391D01*
X183221658Y-77844390D01*
X183221658Y-77844386D01*
X183165084Y-77707804D01*
X183132186Y-77658569D01*
X183132185Y-77658567D01*
X183082956Y-77584888D01*
X183082952Y-77584883D01*
X181234928Y-75736859D01*
X181201443Y-75675536D01*
X181206427Y-75605844D01*
X181234928Y-75561497D01*
X181394898Y-75401527D01*
X181961531Y-74834894D01*
X181999151Y-74788212D01*
X182058939Y-74657296D01*
X182079421Y-74514839D01*
X182058939Y-74372381D01*
X182031963Y-74313312D01*
X181999152Y-74241466D01*
X181992719Y-74233483D01*
X181961533Y-74194783D01*
X181961528Y-74194778D01*
X181961524Y-74194773D01*
X181193373Y-73426625D01*
X181193363Y-73426616D01*
X181146688Y-73389001D01*
X181062663Y-73350628D01*
X181009859Y-73304873D01*
X180990175Y-73237834D01*
X180990175Y-72265510D01*
X181009860Y-72198471D01*
X181026494Y-72177829D01*
X181611374Y-71592949D01*
X182288779Y-70915544D01*
X182326399Y-70868862D01*
X182386187Y-70737946D01*
X182406669Y-70595489D01*
X182386187Y-70453031D01*
X182362492Y-70401147D01*
X182326400Y-70322116D01*
X182319967Y-70314133D01*
X182288781Y-70275433D01*
X182288776Y-70275428D01*
X182288772Y-70275423D01*
X181520621Y-69507275D01*
X181520615Y-69507270D01*
X181520611Y-69507266D01*
X181473936Y-69469651D01*
X181343019Y-69409863D01*
X181221043Y-69392326D01*
X181200562Y-69389382D01*
X181200561Y-69389382D01*
X181058105Y-69409863D01*
X180927190Y-69469650D01*
X180880497Y-69507278D01*
X178190574Y-72197204D01*
X178190565Y-72197214D01*
X178152950Y-72243889D01*
X178093162Y-72374806D01*
X178072681Y-72517263D01*
X178093162Y-72659720D01*
X178152949Y-72790635D01*
X178152951Y-72790637D01*
X178190569Y-72837319D01*
X178190572Y-72837322D01*
X178190577Y-72837328D01*
X178958728Y-73605476D01*
X178958738Y-73605485D01*
X179005413Y-73643100D01*
X179136330Y-73702888D01*
X179278788Y-73723370D01*
X179347530Y-73713486D01*
X179416686Y-73723429D01*
X179469490Y-73769184D01*
X179489175Y-73836223D01*
X179489175Y-74439342D01*
X179469490Y-74506381D01*
X179452856Y-74527023D01*
X177863326Y-76116554D01*
X177863317Y-76116564D01*
X177825702Y-76163239D01*
X177765914Y-76294156D01*
X177745433Y-76436612D01*
X177765914Y-76579070D01*
X177825701Y-76709985D01*
X177825703Y-76709987D01*
X177863321Y-76756669D01*
X177863324Y-76756672D01*
X177863329Y-76756678D01*
X178184960Y-77078308D01*
X178218445Y-77139631D01*
X178213461Y-77209322D01*
X178184960Y-77253670D01*
X177282506Y-78156125D01*
X177221183Y-78189610D01*
X177151492Y-78184626D01*
X177095558Y-78142754D01*
X177071141Y-78077290D01*
X177070825Y-78068444D01*
X177070825Y-72592758D01*
X177090510Y-72525719D01*
X177107144Y-72505077D01*
X177705384Y-71906837D01*
X178369429Y-71242792D01*
X178407049Y-71196110D01*
X178466837Y-71065194D01*
X178487319Y-70922737D01*
X178466837Y-70780279D01*
X178447504Y-70737946D01*
X178407050Y-70649364D01*
X178400617Y-70641381D01*
X178369431Y-70602681D01*
X178369426Y-70602676D01*
X178369422Y-70602671D01*
X177601271Y-69834523D01*
X177601261Y-69834514D01*
X177554586Y-69796899D01*
X177470561Y-69758526D01*
X177417757Y-69712771D01*
X177398073Y-69645732D01*
X177398073Y-68673408D01*
X177417758Y-68606369D01*
X177434392Y-68585727D01*
X178019272Y-68000847D01*
X178696677Y-67323442D01*
X178734297Y-67276760D01*
X178794085Y-67145844D01*
X178814567Y-67003387D01*
X178794085Y-66860929D01*
X178753282Y-66771584D01*
X178734298Y-66730014D01*
X178727865Y-66722031D01*
X178696679Y-66683331D01*
X178696674Y-66683326D01*
X178696670Y-66683321D01*
X177928519Y-65915173D01*
X177928513Y-65915168D01*
X177928509Y-65915164D01*
X177881834Y-65877549D01*
X177750917Y-65817761D01*
X177628941Y-65800224D01*
X177608460Y-65797280D01*
X177608459Y-65797280D01*
X177466003Y-65817761D01*
X177335088Y-65877548D01*
X177288395Y-65915176D01*
X174598472Y-68605102D01*
X174598463Y-68605112D01*
X174560848Y-68651787D01*
X174501060Y-68782704D01*
X174480579Y-68925161D01*
X174501060Y-69067618D01*
X174560847Y-69198533D01*
X174560849Y-69198535D01*
X174598467Y-69245217D01*
X174598470Y-69245220D01*
X174598475Y-69245226D01*
X175366626Y-70013374D01*
X175366636Y-70013383D01*
X175413311Y-70050998D01*
X175544228Y-70110786D01*
X175686686Y-70131268D01*
X175755428Y-70121384D01*
X175824584Y-70131327D01*
X175877388Y-70177082D01*
X175897073Y-70244121D01*
X175897073Y-70847240D01*
X175877388Y-70914279D01*
X175860754Y-70934921D01*
X174271224Y-72524452D01*
X174271215Y-72524462D01*
X174233600Y-72571137D01*
X174173812Y-72702054D01*
X174153331Y-72844510D01*
X174173812Y-72986968D01*
X174233599Y-73117883D01*
X174233601Y-73117885D01*
X174271219Y-73164567D01*
X174271222Y-73164570D01*
X174271227Y-73164576D01*
X175039378Y-73932724D01*
X175039388Y-73932733D01*
X175086063Y-73970348D01*
X175150992Y-74000000D01*
X175216980Y-74030136D01*
X175359438Y-74050618D01*
X175428180Y-74040734D01*
X175497336Y-74050677D01*
X175550140Y-74096432D01*
X175569825Y-74163471D01*
X175569825Y-78317445D01*
X175550140Y-78384484D01*
X175533506Y-78405126D01*
X161450451Y-92488181D01*
X161389128Y-92521666D01*
X161362770Y-92524500D01*
X158336230Y-92524500D01*
X158269191Y-92504815D01*
X158223436Y-92452011D01*
X158213492Y-92382853D01*
X158242517Y-92319297D01*
X158248549Y-92312819D01*
X158658328Y-91903040D01*
X160110268Y-90451099D01*
X160171588Y-90417616D01*
X160241279Y-90422600D01*
X160297213Y-90464472D01*
X160321630Y-90529936D01*
X160306778Y-90598209D01*
X160302941Y-90604753D01*
X160274211Y-90650477D01*
X160214631Y-90820745D01*
X160214630Y-90820750D01*
X160194435Y-90999996D01*
X160194435Y-91000003D01*
X160214630Y-91179249D01*
X160214631Y-91179254D01*
X160274211Y-91349523D01*
X160350028Y-91470184D01*
X160370184Y-91502262D01*
X160497738Y-91629816D01*
X160650478Y-91725789D01*
X160744515Y-91758694D01*
X160820745Y-91785368D01*
X160820750Y-91785369D01*
X160999996Y-91805565D01*
X161000000Y-91805565D01*
X161000004Y-91805565D01*
X161179249Y-91785369D01*
X161179252Y-91785368D01*
X161179255Y-91785368D01*
X161349522Y-91725789D01*
X161502262Y-91629816D01*
X161629816Y-91502262D01*
X161725789Y-91349522D01*
X161725792Y-91349510D01*
X161728810Y-91343248D01*
X161730650Y-91344134D01*
X161753305Y-91308061D01*
X165582951Y-87478416D01*
X165665084Y-87355495D01*
X165721658Y-87218913D01*
X165750500Y-87073918D01*
X165750500Y-86926083D01*
X165750500Y-86926082D01*
X165750500Y-86373872D01*
X165770185Y-86306833D01*
X165815487Y-86264815D01*
X165823509Y-86260474D01*
X166019744Y-86107738D01*
X166188164Y-85924785D01*
X166324173Y-85716607D01*
X166424063Y-85488881D01*
X166485108Y-85247821D01*
X166486600Y-85229815D01*
X166505643Y-85000005D01*
X166505643Y-84999994D01*
X166485109Y-84752187D01*
X166485107Y-84752175D01*
X166424063Y-84511118D01*
X166324173Y-84283393D01*
X166188166Y-84075217D01*
X166081705Y-83959570D01*
X166019744Y-83892262D01*
X165823509Y-83739526D01*
X165823507Y-83739525D01*
X165823506Y-83739524D01*
X165604811Y-83621172D01*
X165604802Y-83621169D01*
X165369616Y-83540429D01*
X165124335Y-83499500D01*
X164875665Y-83499500D01*
X164630383Y-83540429D01*
X164395197Y-83621169D01*
X164395188Y-83621172D01*
X164176493Y-83739524D01*
X163980257Y-83892261D01*
X163811833Y-84075217D01*
X163675826Y-84283393D01*
X163575936Y-84511118D01*
X163514892Y-84752175D01*
X163514890Y-84752187D01*
X163494357Y-84999994D01*
X163494357Y-85000005D01*
X163514890Y-85247812D01*
X163514892Y-85247824D01*
X163575936Y-85488881D01*
X163675826Y-85716606D01*
X163811833Y-85924782D01*
X163811836Y-85924785D01*
X163980256Y-86107738D01*
X164070942Y-86178322D01*
X164162391Y-86249500D01*
X164176491Y-86260474D01*
X164184513Y-86264815D01*
X164234106Y-86314032D01*
X164249500Y-86373872D01*
X164249500Y-86637769D01*
X164229815Y-86704808D01*
X164213181Y-86725450D01*
X160691937Y-90246693D01*
X160655873Y-90269370D01*
X160656750Y-90271191D01*
X160650476Y-90274212D01*
X160604752Y-90302942D01*
X160537515Y-90321941D01*
X160470680Y-90301572D01*
X160425466Y-90248304D01*
X160416230Y-90179047D01*
X160445902Y-90115791D01*
X160451077Y-90110289D01*
X162082952Y-88478415D01*
X162110205Y-88437627D01*
X162165084Y-88355495D01*
X162217557Y-88228814D01*
X162221659Y-88218912D01*
X162244763Y-88102759D01*
X162250500Y-88073918D01*
X162250500Y-86373872D01*
X162270185Y-86306833D01*
X162315487Y-86264815D01*
X162323509Y-86260474D01*
X162519744Y-86107738D01*
X162688164Y-85924785D01*
X162824173Y-85716607D01*
X162924063Y-85488881D01*
X162985108Y-85247821D01*
X162986600Y-85229815D01*
X163005643Y-85000005D01*
X163005643Y-84999994D01*
X162985109Y-84752187D01*
X162985107Y-84752175D01*
X162924063Y-84511118D01*
X162824173Y-84283393D01*
X162688166Y-84075217D01*
X162581705Y-83959570D01*
X162519744Y-83892262D01*
X162323509Y-83739526D01*
X162323507Y-83739525D01*
X162323506Y-83739524D01*
X162104811Y-83621172D01*
X162104802Y-83621169D01*
X161864763Y-83538763D01*
X161865277Y-83537263D01*
X161811244Y-83505343D01*
X161779851Y-83442923D01*
X161787188Y-83373440D01*
X161814155Y-83332997D01*
X163677571Y-81469581D01*
X163738892Y-81436098D01*
X163808584Y-81441082D01*
X163856479Y-81473280D01*
X163980256Y-81607738D01*
X164176491Y-81760474D01*
X164395190Y-81878828D01*
X164630386Y-81959571D01*
X164875665Y-82000500D01*
X165124335Y-82000500D01*
X165369614Y-81959571D01*
X165604810Y-81878828D01*
X165823509Y-81760474D01*
X166019744Y-81607738D01*
X166188164Y-81424785D01*
X166324173Y-81216607D01*
X166424063Y-80988881D01*
X166485108Y-80747821D01*
X166491801Y-80667048D01*
X166505643Y-80500005D01*
X166505643Y-80499994D01*
X166485109Y-80252187D01*
X166485107Y-80252175D01*
X166424063Y-80011118D01*
X166324173Y-79783393D01*
X166188166Y-79575217D01*
X166166557Y-79551744D01*
X166019744Y-79392262D01*
X165823509Y-79239526D01*
X165823507Y-79239525D01*
X165823506Y-79239524D01*
X165604811Y-79121172D01*
X165604802Y-79121169D01*
X165369616Y-79040429D01*
X165124335Y-78999500D01*
X164875665Y-78999500D01*
X164630383Y-79040429D01*
X164395197Y-79121169D01*
X164395188Y-79121172D01*
X164176493Y-79239524D01*
X163980257Y-79392261D01*
X163811836Y-79575215D01*
X163734673Y-79693322D01*
X163681526Y-79738678D01*
X163630864Y-79749500D01*
X163511867Y-79749500D01*
X163366879Y-79778340D01*
X163366869Y-79778343D01*
X163230298Y-79834912D01*
X163230285Y-79834919D01*
X163107371Y-79917048D01*
X163079603Y-79944816D01*
X163018279Y-79978300D01*
X162948588Y-79973314D01*
X162892655Y-79931442D01*
X162878367Y-79906943D01*
X162824173Y-79783393D01*
X162688166Y-79575217D01*
X162666557Y-79551744D01*
X162519744Y-79392262D01*
X162323509Y-79239526D01*
X162323507Y-79239525D01*
X162323506Y-79239524D01*
X162104811Y-79121172D01*
X162104802Y-79121169D01*
X161869616Y-79040429D01*
X161624335Y-78999500D01*
X161375665Y-78999500D01*
X161130383Y-79040429D01*
X160895197Y-79121169D01*
X160895188Y-79121172D01*
X160676493Y-79239524D01*
X160480257Y-79392261D01*
X160311833Y-79575217D01*
X160175826Y-79783393D01*
X160075936Y-80011118D01*
X160014892Y-80252175D01*
X160014890Y-80252187D01*
X159994357Y-80499994D01*
X159994357Y-80500005D01*
X160014891Y-80747817D01*
X160033143Y-80819892D01*
X160030518Y-80889712D01*
X160000618Y-80938013D01*
X158242050Y-82696580D01*
X158242044Y-82696588D01*
X158192812Y-82770268D01*
X158192813Y-82770269D01*
X158159921Y-82819496D01*
X158159914Y-82819508D01*
X158103342Y-82956086D01*
X158103340Y-82956092D01*
X158074500Y-83101079D01*
X158074500Y-87886663D01*
X158054815Y-87953702D01*
X158038181Y-87974344D01*
X155404065Y-90608459D01*
X155368004Y-90631128D01*
X155368884Y-90632954D01*
X155362606Y-90635977D01*
X155233244Y-90717260D01*
X155167274Y-90736266D01*
X154976627Y-90736266D01*
X154949784Y-90741605D01*
X154949783Y-90741604D01*
X154855788Y-90760301D01*
X154855775Y-90760305D01*
X154823496Y-90773675D01*
X154808631Y-90779833D01*
X154786403Y-90789040D01*
X154741947Y-90807454D01*
X154731791Y-90814241D01*
X154731683Y-90814313D01*
X154639502Y-90875906D01*
X154595939Y-90919469D01*
X154552376Y-90963033D01*
X154127228Y-91388181D01*
X154065905Y-91421666D01*
X154039547Y-91424500D01*
X153699499Y-91424500D01*
X153632460Y-91404815D01*
X153586705Y-91352011D01*
X153575499Y-91300500D01*
X153575499Y-90537230D01*
X153595184Y-90470191D01*
X153611818Y-90449549D01*
X155582951Y-88478417D01*
X157582952Y-86478416D01*
X157649493Y-86378828D01*
X157665084Y-86355495D01*
X157721658Y-86218913D01*
X157731620Y-86168834D01*
X157750500Y-86073920D01*
X157750500Y-67176079D01*
X157721659Y-67031092D01*
X157721658Y-67031091D01*
X157721658Y-67031087D01*
X157710184Y-67003386D01*
X157665087Y-66894511D01*
X157665080Y-66894498D01*
X157582952Y-66771585D01*
X157541380Y-66730013D01*
X157478416Y-66667049D01*
X154679600Y-63868232D01*
X154646115Y-63806909D01*
X154651099Y-63737217D01*
X154668012Y-63706243D01*
X154749096Y-63597930D01*
X154799391Y-63463082D01*
X154805800Y-63403472D01*
X154805799Y-59599327D01*
X154799391Y-59539716D01*
X154749096Y-59404868D01*
X154749095Y-59404867D01*
X154749093Y-59404863D01*
X154662847Y-59289654D01*
X154662844Y-59289651D01*
X154547635Y-59203405D01*
X154547628Y-59203401D01*
X154412782Y-59153107D01*
X154412783Y-59153107D01*
X154353183Y-59146700D01*
X154353181Y-59146699D01*
X154353173Y-59146699D01*
X154353164Y-59146699D01*
X153266829Y-59146699D01*
X153266823Y-59146700D01*
X153207216Y-59153107D01*
X153072371Y-59203401D01*
X153072364Y-59203405D01*
X152957155Y-59289651D01*
X152915534Y-59345250D01*
X152859600Y-59387120D01*
X152789909Y-59392104D01*
X152728587Y-59358619D01*
X152523076Y-59153108D01*
X152302118Y-58932149D01*
X152268633Y-58870826D01*
X152265799Y-58844468D01*
X152265799Y-56596530D01*
X152265798Y-56596524D01*
X152265797Y-56596517D01*
X152259391Y-56536918D01*
X152209096Y-56402070D01*
X152209095Y-56402069D01*
X152209093Y-56402065D01*
X152122847Y-56286856D01*
X152122844Y-56286853D01*
X152007635Y-56200607D01*
X152007628Y-56200603D01*
X151872782Y-56150309D01*
X151872783Y-56150309D01*
X151813183Y-56143902D01*
X151813181Y-56143901D01*
X151813173Y-56143901D01*
X151813164Y-56143901D01*
X150726829Y-56143901D01*
X150726823Y-56143902D01*
X150667216Y-56150309D01*
X150532371Y-56200603D01*
X150532364Y-56200607D01*
X150417155Y-56286853D01*
X150417152Y-56286856D01*
X150330906Y-56402065D01*
X150330902Y-56402072D01*
X150280608Y-56536918D01*
X150274201Y-56596517D01*
X150274201Y-56596524D01*
X150274200Y-56596536D01*
X150274200Y-60400671D01*
X150274201Y-60400677D01*
X150280608Y-60460284D01*
X150334003Y-60603442D01*
X150332503Y-60604001D01*
X150345205Y-60662405D01*
X150320784Y-60727868D01*
X150264848Y-60769736D01*
X150197329Y-60775169D01*
X150075319Y-60750899D01*
X150075317Y-60750899D01*
X149849799Y-60750899D01*
X149782760Y-60731214D01*
X149737005Y-60678410D01*
X149725799Y-60626899D01*
X149725799Y-59599328D01*
X149725798Y-59599322D01*
X149719391Y-59539715D01*
X149669097Y-59404870D01*
X149669093Y-59404863D01*
X149582847Y-59289654D01*
X149582844Y-59289651D01*
X149467635Y-59203405D01*
X149467628Y-59203401D01*
X149332782Y-59153107D01*
X149332783Y-59153107D01*
X149273183Y-59146700D01*
X149273181Y-59146699D01*
X149273173Y-59146699D01*
X149273164Y-59146699D01*
X148186829Y-59146699D01*
X148186823Y-59146700D01*
X148127216Y-59153107D01*
X147992371Y-59203401D01*
X147992364Y-59203405D01*
X147877155Y-59289651D01*
X147835534Y-59345250D01*
X147779600Y-59387120D01*
X147709909Y-59392104D01*
X147648587Y-59358619D01*
X147443076Y-59153108D01*
X147222118Y-58932149D01*
X147188633Y-58870826D01*
X147185799Y-58844468D01*
X147185799Y-56596530D01*
X147185798Y-56596524D01*
X147185797Y-56596517D01*
X147179391Y-56536918D01*
X147129096Y-56402070D01*
X147129095Y-56402069D01*
X147129093Y-56402065D01*
X147042847Y-56286856D01*
X147042844Y-56286853D01*
X146927635Y-56200607D01*
X146927628Y-56200603D01*
X146792782Y-56150309D01*
X146792783Y-56150309D01*
X146733183Y-56143902D01*
X146733181Y-56143901D01*
X146733173Y-56143901D01*
X146733164Y-56143901D01*
X145646829Y-56143901D01*
X145646823Y-56143902D01*
X145587216Y-56150309D01*
X145452371Y-56200603D01*
X145452364Y-56200607D01*
X145337155Y-56286853D01*
X145337152Y-56286856D01*
X145250906Y-56402065D01*
X145250902Y-56402072D01*
X145200608Y-56536918D01*
X145194201Y-56596517D01*
X145194201Y-56596524D01*
X145194200Y-56596536D01*
X145194200Y-60400671D01*
X145194201Y-60400677D01*
X145200608Y-60460284D01*
X145250902Y-60595129D01*
X145250906Y-60595136D01*
X145337152Y-60710345D01*
X145337155Y-60710348D01*
X145452364Y-60796594D01*
X145452371Y-60796598D01*
X145587217Y-60846892D01*
X145587216Y-60846892D01*
X145594144Y-60847636D01*
X145646827Y-60853301D01*
X146733172Y-60853300D01*
X146792783Y-60846892D01*
X146879333Y-60814610D01*
X146949022Y-60809627D01*
X147010342Y-60843109D01*
X147010345Y-60843111D01*
X147010345Y-60843112D01*
X147697881Y-61530647D01*
X147731366Y-61591970D01*
X147734200Y-61618328D01*
X147734200Y-63403469D01*
X147734201Y-63403475D01*
X147740608Y-63463082D01*
X147790902Y-63597927D01*
X147790906Y-63597934D01*
X147877152Y-63713143D01*
X147877155Y-63713146D01*
X147992364Y-63799392D01*
X147992371Y-63799396D01*
X148127217Y-63849690D01*
X148127216Y-63849690D01*
X148134144Y-63850434D01*
X148186827Y-63856099D01*
X149273172Y-63856098D01*
X149332783Y-63849690D01*
X149467631Y-63799395D01*
X149582846Y-63713145D01*
X149669096Y-63597930D01*
X149719391Y-63463082D01*
X149725800Y-63403472D01*
X149725799Y-62586528D01*
X149745483Y-62519490D01*
X149798287Y-62473735D01*
X149867446Y-62463791D01*
X149931002Y-62492816D01*
X149937480Y-62498848D01*
X155463181Y-68024548D01*
X155496666Y-68085871D01*
X155499500Y-68112229D01*
X155499500Y-84750270D01*
X155479815Y-84817309D01*
X155463181Y-84837951D01*
X152162181Y-88138951D01*
X152100858Y-88172436D01*
X152031166Y-88167452D01*
X151975233Y-88125580D01*
X151950816Y-88060116D01*
X151950500Y-88051270D01*
X151950500Y-83376079D01*
X151921659Y-83231092D01*
X151921658Y-83231091D01*
X151921658Y-83231087D01*
X151915660Y-83216606D01*
X151865086Y-83094509D01*
X151865085Y-83094507D01*
X151832186Y-83045270D01*
X151832185Y-83045268D01*
X151782956Y-82971589D01*
X151782952Y-82971584D01*
X149478421Y-80667052D01*
X149478414Y-80667046D01*
X149404729Y-80617812D01*
X149404729Y-80617813D01*
X149355491Y-80584913D01*
X149218917Y-80528343D01*
X149218907Y-80528340D01*
X149073920Y-80499500D01*
X149073918Y-80499500D01*
X137000382Y-80499500D01*
X136933343Y-80479815D01*
X136912701Y-80463181D01*
X130173129Y-73723609D01*
X136629942Y-73723609D01*
X136676768Y-73760055D01*
X136676770Y-73760056D01*
X136895385Y-73878364D01*
X136895396Y-73878369D01*
X137130506Y-73959083D01*
X137375707Y-74000000D01*
X137624293Y-74000000D01*
X137869493Y-73959083D01*
X138104603Y-73878369D01*
X138104614Y-73878364D01*
X138323228Y-73760057D01*
X138323231Y-73760055D01*
X138370056Y-73723609D01*
X137500000Y-72853553D01*
X136629942Y-73723609D01*
X130173129Y-73723609D01*
X128949514Y-72499994D01*
X135994859Y-72499994D01*
X135994859Y-72500005D01*
X136015385Y-72747729D01*
X136015387Y-72747738D01*
X136076412Y-72988717D01*
X136176266Y-73216364D01*
X136276564Y-73369882D01*
X137146447Y-72500000D01*
X137146447Y-72499999D01*
X137853553Y-72499999D01*
X137853553Y-72500001D01*
X138723434Y-73369882D01*
X138823731Y-73216369D01*
X138923587Y-72988717D01*
X138984612Y-72747738D01*
X138984614Y-72747729D01*
X139005141Y-72500005D01*
X139005141Y-72499994D01*
X138984614Y-72252270D01*
X138984612Y-72252261D01*
X138923587Y-72011282D01*
X138823731Y-71783630D01*
X138723434Y-71630116D01*
X137853553Y-72499999D01*
X137146447Y-72499999D01*
X136276564Y-71630116D01*
X136176267Y-71783632D01*
X136076412Y-72011282D01*
X136015387Y-72252261D01*
X136015385Y-72252270D01*
X135994859Y-72499994D01*
X128949514Y-72499994D01*
X127725908Y-71276388D01*
X136629942Y-71276388D01*
X136629942Y-71276390D01*
X137500000Y-72146447D01*
X137500001Y-72146447D01*
X138370057Y-71276390D01*
X138370056Y-71276389D01*
X138323229Y-71239943D01*
X138104614Y-71121635D01*
X138104603Y-71121630D01*
X137869493Y-71040916D01*
X137624293Y-71000000D01*
X137375707Y-71000000D01*
X137130506Y-71040916D01*
X136895396Y-71121630D01*
X136895390Y-71121632D01*
X136676761Y-71239949D01*
X136629942Y-71276388D01*
X127725908Y-71276388D01*
X127668415Y-71218895D01*
X127634930Y-71157572D01*
X127633358Y-71113570D01*
X127642720Y-71048460D01*
X127622238Y-70906003D01*
X127587676Y-70830323D01*
X127562451Y-70775088D01*
X127532520Y-70737946D01*
X127524832Y-70728405D01*
X127524827Y-70728400D01*
X127524823Y-70728395D01*
X124834897Y-68038472D01*
X124834891Y-68038467D01*
X124817620Y-68024548D01*
X124788212Y-68000848D01*
X124657294Y-67941060D01*
X124657296Y-67941060D01*
X124514839Y-67920579D01*
X124372381Y-67941060D01*
X124241466Y-68000847D01*
X124194773Y-68038475D01*
X123426625Y-68806626D01*
X123426616Y-68806636D01*
X123389001Y-68853311D01*
X123329213Y-68984228D01*
X123308732Y-69126686D01*
X123329213Y-69269142D01*
X123389000Y-69400057D01*
X123389002Y-69400059D01*
X123426620Y-69446741D01*
X123426623Y-69446744D01*
X123426628Y-69446750D01*
X126116554Y-72136673D01*
X126116564Y-72136682D01*
X126163239Y-72174297D01*
X126294156Y-72234085D01*
X126436613Y-72254567D01*
X126501721Y-72245205D01*
X126570877Y-72255148D01*
X126607048Y-72280262D01*
X135614605Y-81287819D01*
X135648090Y-81349142D01*
X135643106Y-81418834D01*
X135601234Y-81474767D01*
X135535770Y-81499184D01*
X135526924Y-81499500D01*
X134408281Y-81499500D01*
X134341242Y-81479815D01*
X134320600Y-81463181D01*
X123749065Y-70891646D01*
X123715580Y-70830323D01*
X123714008Y-70786322D01*
X123723370Y-70721212D01*
X123702888Y-70578755D01*
X123643101Y-70447840D01*
X123636668Y-70439857D01*
X123605482Y-70401157D01*
X123605477Y-70401152D01*
X123605473Y-70401147D01*
X120915547Y-67711224D01*
X120915541Y-67711219D01*
X120915537Y-67711215D01*
X120868862Y-67673600D01*
X120737944Y-67613812D01*
X120737946Y-67613812D01*
X120595489Y-67593331D01*
X120453031Y-67613812D01*
X120322116Y-67673599D01*
X120275423Y-67711227D01*
X119507275Y-68479378D01*
X119507266Y-68479388D01*
X119469651Y-68526063D01*
X119409863Y-68656980D01*
X119389382Y-68799438D01*
X119409863Y-68941894D01*
X119469650Y-69072809D01*
X119469652Y-69072811D01*
X119507270Y-69119493D01*
X119507273Y-69119496D01*
X119507278Y-69119502D01*
X122197204Y-71809425D01*
X122197214Y-71809434D01*
X122243889Y-71847049D01*
X122374806Y-71906837D01*
X122517263Y-71927319D01*
X122582370Y-71917957D01*
X122651526Y-71927900D01*
X122687697Y-71953014D01*
X133567635Y-82832952D01*
X133618666Y-82867049D01*
X133690556Y-82915084D01*
X133827138Y-82971658D01*
X133827142Y-82971658D01*
X133827143Y-82971659D01*
X133972130Y-83000500D01*
X133972133Y-83000500D01*
X133972134Y-83000500D01*
X134119969Y-83000500D01*
X148387770Y-83000500D01*
X148454809Y-83020185D01*
X148475451Y-83036819D01*
X148805950Y-83367318D01*
X148839435Y-83428641D01*
X148834451Y-83498333D01*
X148792579Y-83554266D01*
X148757275Y-83572704D01*
X148741309Y-83577994D01*
X148741294Y-83578001D01*
X148596959Y-83667029D01*
X148596953Y-83667033D01*
X148587324Y-83676663D01*
X148526000Y-83710146D01*
X148456308Y-83705159D01*
X148411965Y-83676660D01*
X148402732Y-83667427D01*
X148402728Y-83667424D01*
X148258492Y-83578457D01*
X148258481Y-83578452D01*
X148097606Y-83525144D01*
X147998322Y-83515000D01*
X147975000Y-83515000D01*
X147975000Y-84616000D01*
X147955315Y-84683039D01*
X147902511Y-84728794D01*
X147851000Y-84740000D01*
X146775001Y-84740000D01*
X146775001Y-84788322D01*
X146785144Y-84887607D01*
X146838452Y-85048481D01*
X146838454Y-85048486D01*
X146913326Y-85169871D01*
X146931766Y-85237263D01*
X146913904Y-85299118D01*
X146831522Y-85435393D01*
X146780913Y-85597807D01*
X146774500Y-85668385D01*
X146774450Y-85669487D01*
X146774382Y-85669684D01*
X146774246Y-85671182D01*
X146773878Y-85671148D01*
X146751737Y-85735562D01*
X146696907Y-85778868D01*
X146627367Y-85785656D01*
X146565197Y-85753771D01*
X146562897Y-85751529D01*
X146228421Y-85417052D01*
X146228414Y-85417046D01*
X146154729Y-85367812D01*
X146154729Y-85367813D01*
X146105491Y-85334913D01*
X145968917Y-85278343D01*
X145968907Y-85278340D01*
X145823920Y-85249500D01*
X145823918Y-85249500D01*
X134566179Y-85249500D01*
X134499140Y-85229815D01*
X134478498Y-85213181D01*
X133456994Y-84191677D01*
X146775000Y-84191677D01*
X146775000Y-84240000D01*
X147475000Y-84240000D01*
X147475000Y-83514999D01*
X147451693Y-83515000D01*
X147451674Y-83515001D01*
X147352392Y-83525144D01*
X147191518Y-83578452D01*
X147191507Y-83578457D01*
X147047271Y-83667424D01*
X147047267Y-83667427D01*
X146927427Y-83787267D01*
X146927424Y-83787271D01*
X146838457Y-83931507D01*
X146838452Y-83931518D01*
X146785144Y-84092393D01*
X146775000Y-84191677D01*
X133456994Y-84191677D01*
X124076313Y-74810996D01*
X124042828Y-74749673D01*
X124041256Y-74705672D01*
X124050618Y-74640562D01*
X124030136Y-74498105D01*
X123995574Y-74422425D01*
X123970349Y-74367190D01*
X123947968Y-74339417D01*
X123932730Y-74320507D01*
X123932725Y-74320502D01*
X123932721Y-74320497D01*
X121242795Y-71630574D01*
X121242789Y-71630569D01*
X121242785Y-71630565D01*
X121196110Y-71592950D01*
X121065192Y-71533162D01*
X121065194Y-71533162D01*
X120922737Y-71512681D01*
X120780279Y-71533162D01*
X120649364Y-71592949D01*
X120602671Y-71630577D01*
X119834523Y-72398728D01*
X119834514Y-72398738D01*
X119796899Y-72445413D01*
X119737111Y-72576330D01*
X119716630Y-72718788D01*
X119737111Y-72861244D01*
X119796898Y-72992159D01*
X119796900Y-72992161D01*
X119834518Y-73038843D01*
X119834521Y-73038846D01*
X119834526Y-73038852D01*
X122524452Y-75728775D01*
X122524462Y-75728784D01*
X122571137Y-75766399D01*
X122702054Y-75826187D01*
X122844511Y-75846669D01*
X122909618Y-75837307D01*
X122978774Y-75847250D01*
X123014945Y-75872364D01*
X133180400Y-86037819D01*
X133213885Y-86099142D01*
X133208901Y-86168834D01*
X133167029Y-86224767D01*
X133101565Y-86249184D01*
X133092719Y-86249500D01*
X131974077Y-86249500D01*
X131907038Y-86229815D01*
X131886396Y-86213181D01*
X120156963Y-74483748D01*
X120123478Y-74422425D01*
X120121906Y-74378424D01*
X120131268Y-74313314D01*
X120110786Y-74170857D01*
X120076797Y-74096432D01*
X120050999Y-74039942D01*
X120043097Y-74030136D01*
X120013380Y-73993259D01*
X120013375Y-73993254D01*
X120013371Y-73993249D01*
X117323445Y-71303326D01*
X117323439Y-71303321D01*
X117323435Y-71303317D01*
X117276760Y-71265702D01*
X117145842Y-71205914D01*
X117145844Y-71205914D01*
X117003387Y-71185433D01*
X116860929Y-71205914D01*
X116730014Y-71265701D01*
X116683321Y-71303329D01*
X115915173Y-72071480D01*
X115915164Y-72071490D01*
X115877549Y-72118165D01*
X115817761Y-72249082D01*
X115797280Y-72391540D01*
X115817761Y-72533996D01*
X115877548Y-72664911D01*
X115877550Y-72664913D01*
X115915168Y-72711595D01*
X115915171Y-72711598D01*
X115915176Y-72711604D01*
X118605102Y-75401527D01*
X118605112Y-75401536D01*
X118651787Y-75439151D01*
X118782704Y-75498939D01*
X118925161Y-75519421D01*
X118990268Y-75510059D01*
X119059424Y-75520002D01*
X119095595Y-75545116D01*
X130588298Y-87037819D01*
X130621783Y-87099142D01*
X130616799Y-87168834D01*
X130574927Y-87224767D01*
X130509463Y-87249184D01*
X130500617Y-87249500D01*
X119617479Y-87249500D01*
X119472491Y-87278340D01*
X119472485Y-87278342D01*
X119335907Y-87334914D01*
X119335895Y-87334921D01*
X119286668Y-87367813D01*
X119212987Y-87417044D01*
X119212979Y-87417050D01*
X111472148Y-95157881D01*
X111410825Y-95191366D01*
X111384467Y-95194200D01*
X109599328Y-95194200D01*
X109599322Y-95194201D01*
X109539715Y-95200608D01*
X109404870Y-95250902D01*
X109404863Y-95250906D01*
X109289654Y-95337152D01*
X109289651Y-95337155D01*
X109203405Y-95452364D01*
X109203401Y-95452371D01*
X109153107Y-95587217D01*
X109146700Y-95646816D01*
X109146700Y-95646823D01*
X109146699Y-95646835D01*
X100694259Y-95646835D01*
X100817201Y-94409796D01*
X100817582Y-94406433D01*
X100995094Y-93020212D01*
X100995574Y-93016848D01*
X101212238Y-91636239D01*
X101212819Y-91632852D01*
X101468461Y-90258959D01*
X101469148Y-90255541D01*
X101499267Y-90115791D01*
X101763556Y-88889482D01*
X101764341Y-88886079D01*
X101772670Y-88852127D01*
X102097299Y-87528856D01*
X102098148Y-87525595D01*
X102469403Y-86178259D01*
X102470346Y-86175014D01*
X102879582Y-84838717D01*
X102880607Y-84835531D01*
X103327484Y-83511387D01*
X103328644Y-83508105D01*
X103332253Y-83498333D01*
X103812805Y-82197155D01*
X103814029Y-82193983D01*
X104335083Y-80897290D01*
X104336398Y-80894147D01*
X104893954Y-79612681D01*
X104895396Y-79609493D01*
X104997317Y-79392262D01*
X105488959Y-78344390D01*
X105490464Y-78341297D01*
X106119625Y-77093431D01*
X106121196Y-77090422D01*
X106785447Y-75860806D01*
X106787079Y-75857886D01*
X107485828Y-74647617D01*
X107487594Y-74644655D01*
X108220343Y-73454595D01*
X108222144Y-73451762D01*
X108988236Y-72282978D01*
X108990163Y-72280126D01*
X109789012Y-71133504D01*
X109791024Y-71130701D01*
X110622058Y-70007069D01*
X110624105Y-70004384D01*
X111486577Y-68904751D01*
X111488693Y-68902131D01*
X112381959Y-67827323D01*
X112384155Y-67824755D01*
X113307449Y-66775688D01*
X113309761Y-66773135D01*
X114262389Y-65750600D01*
X114264725Y-65748163D01*
X115245921Y-64752983D01*
X115248307Y-64750630D01*
X116257262Y-63783625D01*
X116259758Y-63781300D01*
X117295694Y-62843216D01*
X117298243Y-62840974D01*
X118360275Y-61932612D01*
X118362870Y-61930456D01*
X119450190Y-61052507D01*
X119452861Y-61050411D01*
X120564598Y-60203576D01*
X120567346Y-60201545D01*
X121702599Y-59386514D01*
X121705350Y-59384597D01*
X122863219Y-58602013D01*
X122866077Y-58600139D01*
X124045647Y-57850625D01*
X124048501Y-57848868D01*
X125248778Y-57133053D01*
X125251723Y-57131352D01*
X126471753Y-56449802D01*
X126474795Y-56448159D01*
X127713629Y-55801404D01*
X127716678Y-55799867D01*
X128973326Y-55188426D01*
X128976442Y-55186965D01*
X130249844Y-54611350D01*
X130253012Y-54609972D01*
X131542205Y-54070620D01*
X131545381Y-54069343D01*
X132849352Y-53566677D01*
X132852552Y-53565495D01*
X134170216Y-53099935D01*
X134173499Y-53098827D01*
X135503743Y-52670764D01*
X135507074Y-52669743D01*
X136848995Y-52279467D01*
X136852251Y-52278570D01*
X138204663Y-51926430D01*
X138207990Y-51925613D01*
X139569832Y-51611883D01*
X139573168Y-51611165D01*
X140943334Y-51336102D01*
X140946664Y-51335483D01*
X142324047Y-51099306D01*
X142327498Y-51098765D01*
X143710986Y-50901665D01*
X143714364Y-50901232D01*
X145102895Y-50743361D01*
X145106379Y-50743015D01*
X146498797Y-50624503D01*
X146502227Y-50624260D01*
X147897458Y-50545198D01*
X147900902Y-50545052D01*
X149297774Y-50505506D01*
X149301283Y-50505456D01*
X150698717Y-50505456D01*
X150702226Y-50505506D01*
G37*
G04 #@! TD.AperFunction*
M02*
