G04 #@! TF.GenerationSoftware,KiCad,Pcbnew,8.0.4*
G04 #@! TF.CreationDate,2024-09-30T00:02:48+08:00*
G04 #@! TF.ProjectId,Transformer_Monitor_V1,5472616e-7366-46f7-926d-65725f4d6f6e,rev?*
G04 #@! TF.SameCoordinates,Original*
G04 #@! TF.FileFunction,Legend,Bot*
G04 #@! TF.FilePolarity,Positive*
%FSLAX46Y46*%
G04 Gerber Fmt 4.6, Leading zero omitted, Abs format (unit mm)*
G04 Created by KiCad (PCBNEW 8.0.4) date 2024-09-30 00:02:48*
%MOMM*%
%LPD*%
G01*
G04 APERTURE LIST*
G04 Aperture macros list*
%AMRoundRect*
0 Rectangle with rounded corners*
0 $1 Rounding radius*
0 $2 $3 $4 $5 $6 $7 $8 $9 X,Y pos of 4 corners*
0 Add a 4 corners polygon primitive as box body*
4,1,4,$2,$3,$4,$5,$6,$7,$8,$9,$2,$3,0*
0 Add four circle primitives for the rounded corners*
1,1,$1+$1,$2,$3*
1,1,$1+$1,$4,$5*
1,1,$1+$1,$6,$7*
1,1,$1+$1,$8,$9*
0 Add four rect primitives between the rounded corners*
20,1,$1+$1,$2,$3,$4,$5,0*
20,1,$1+$1,$4,$5,$6,$7,0*
20,1,$1+$1,$6,$7,$8,$9,0*
20,1,$1+$1,$8,$9,$2,$3,0*%
G04 Aperture macros list end*
%ADD10C,0.150000*%
%ADD11C,0.120000*%
%ADD12C,0.050000*%
%ADD13C,2.000000*%
%ADD14R,0.300000X0.925000*%
%ADD15R,0.800000X0.300000*%
%ADD16RoundRect,0.225000X-0.250000X0.225000X-0.250000X-0.225000X0.250000X-0.225000X0.250000X0.225000X0*%
%ADD17RoundRect,0.200000X-0.275000X0.200000X-0.275000X-0.200000X0.275000X-0.200000X0.275000X0.200000X0*%
%ADD18RoundRect,0.225000X0.225000X0.250000X-0.225000X0.250000X-0.225000X-0.250000X0.225000X-0.250000X0*%
G04 APERTURE END LIST*
D10*
X152238094Y-84456819D02*
X151666666Y-84456819D01*
X151952380Y-85456819D02*
X151952380Y-84456819D01*
X151333332Y-85456819D02*
X151333332Y-84456819D01*
X151333332Y-84456819D02*
X150952380Y-84456819D01*
X150952380Y-84456819D02*
X150857142Y-84504438D01*
X150857142Y-84504438D02*
X150809523Y-84552057D01*
X150809523Y-84552057D02*
X150761904Y-84647295D01*
X150761904Y-84647295D02*
X150761904Y-84790152D01*
X150761904Y-84790152D02*
X150809523Y-84885390D01*
X150809523Y-84885390D02*
X150857142Y-84933009D01*
X150857142Y-84933009D02*
X150952380Y-84980628D01*
X150952380Y-84980628D02*
X151333332Y-84980628D01*
X150380951Y-84552057D02*
X150333332Y-84504438D01*
X150333332Y-84504438D02*
X150238094Y-84456819D01*
X150238094Y-84456819D02*
X149999999Y-84456819D01*
X149999999Y-84456819D02*
X149904761Y-84504438D01*
X149904761Y-84504438D02*
X149857142Y-84552057D01*
X149857142Y-84552057D02*
X149809523Y-84647295D01*
X149809523Y-84647295D02*
X149809523Y-84742533D01*
X149809523Y-84742533D02*
X149857142Y-84885390D01*
X149857142Y-84885390D02*
X150428570Y-85456819D01*
X150428570Y-85456819D02*
X149809523Y-85456819D01*
X148904761Y-84456819D02*
X149380951Y-84456819D01*
X149380951Y-84456819D02*
X149428570Y-84933009D01*
X149428570Y-84933009D02*
X149380951Y-84885390D01*
X149380951Y-84885390D02*
X149285713Y-84837771D01*
X149285713Y-84837771D02*
X149047618Y-84837771D01*
X149047618Y-84837771D02*
X148952380Y-84885390D01*
X148952380Y-84885390D02*
X148904761Y-84933009D01*
X148904761Y-84933009D02*
X148857142Y-85028247D01*
X148857142Y-85028247D02*
X148857142Y-85266342D01*
X148857142Y-85266342D02*
X148904761Y-85361580D01*
X148904761Y-85361580D02*
X148952380Y-85409200D01*
X148952380Y-85409200D02*
X149047618Y-85456819D01*
X149047618Y-85456819D02*
X149285713Y-85456819D01*
X149285713Y-85456819D02*
X149380951Y-85409200D01*
X149380951Y-85409200D02*
X149428570Y-85361580D01*
X142738094Y-98454819D02*
X142166666Y-98454819D01*
X142452380Y-99454819D02*
X142452380Y-98454819D01*
X141833332Y-99454819D02*
X141833332Y-98454819D01*
X141833332Y-98454819D02*
X141452380Y-98454819D01*
X141452380Y-98454819D02*
X141357142Y-98502438D01*
X141357142Y-98502438D02*
X141309523Y-98550057D01*
X141309523Y-98550057D02*
X141261904Y-98645295D01*
X141261904Y-98645295D02*
X141261904Y-98788152D01*
X141261904Y-98788152D02*
X141309523Y-98883390D01*
X141309523Y-98883390D02*
X141357142Y-98931009D01*
X141357142Y-98931009D02*
X141452380Y-98978628D01*
X141452380Y-98978628D02*
X141833332Y-98978628D01*
X140880951Y-98550057D02*
X140833332Y-98502438D01*
X140833332Y-98502438D02*
X140738094Y-98454819D01*
X140738094Y-98454819D02*
X140499999Y-98454819D01*
X140499999Y-98454819D02*
X140404761Y-98502438D01*
X140404761Y-98502438D02*
X140357142Y-98550057D01*
X140357142Y-98550057D02*
X140309523Y-98645295D01*
X140309523Y-98645295D02*
X140309523Y-98740533D01*
X140309523Y-98740533D02*
X140357142Y-98883390D01*
X140357142Y-98883390D02*
X140928570Y-99454819D01*
X140928570Y-99454819D02*
X140309523Y-99454819D01*
X139928570Y-98550057D02*
X139880951Y-98502438D01*
X139880951Y-98502438D02*
X139785713Y-98454819D01*
X139785713Y-98454819D02*
X139547618Y-98454819D01*
X139547618Y-98454819D02*
X139452380Y-98502438D01*
X139452380Y-98502438D02*
X139404761Y-98550057D01*
X139404761Y-98550057D02*
X139357142Y-98645295D01*
X139357142Y-98645295D02*
X139357142Y-98740533D01*
X139357142Y-98740533D02*
X139404761Y-98883390D01*
X139404761Y-98883390D02*
X139976189Y-99454819D01*
X139976189Y-99454819D02*
X139357142Y-99454819D01*
X152454819Y-94238095D02*
X153264342Y-94238095D01*
X153264342Y-94238095D02*
X153359580Y-94285714D01*
X153359580Y-94285714D02*
X153407200Y-94333333D01*
X153407200Y-94333333D02*
X153454819Y-94428571D01*
X153454819Y-94428571D02*
X153454819Y-94619047D01*
X153454819Y-94619047D02*
X153407200Y-94714285D01*
X153407200Y-94714285D02*
X153359580Y-94761904D01*
X153359580Y-94761904D02*
X153264342Y-94809523D01*
X153264342Y-94809523D02*
X152454819Y-94809523D01*
X152454819Y-95190476D02*
X152454819Y-95809523D01*
X152454819Y-95809523D02*
X152835771Y-95476190D01*
X152835771Y-95476190D02*
X152835771Y-95619047D01*
X152835771Y-95619047D02*
X152883390Y-95714285D01*
X152883390Y-95714285D02*
X152931009Y-95761904D01*
X152931009Y-95761904D02*
X153026247Y-95809523D01*
X153026247Y-95809523D02*
X153264342Y-95809523D01*
X153264342Y-95809523D02*
X153359580Y-95761904D01*
X153359580Y-95761904D02*
X153407200Y-95714285D01*
X153407200Y-95714285D02*
X153454819Y-95619047D01*
X153454819Y-95619047D02*
X153454819Y-95333333D01*
X153454819Y-95333333D02*
X153407200Y-95238095D01*
X153407200Y-95238095D02*
X153359580Y-95190476D01*
X145910583Y-97392507D02*
X145958202Y-97440127D01*
X145958202Y-97440127D02*
X146101059Y-97487746D01*
X146101059Y-97487746D02*
X146196297Y-97487746D01*
X146196297Y-97487746D02*
X146339154Y-97440127D01*
X146339154Y-97440127D02*
X146434392Y-97344888D01*
X146434392Y-97344888D02*
X146482011Y-97249650D01*
X146482011Y-97249650D02*
X146529630Y-97059174D01*
X146529630Y-97059174D02*
X146529630Y-96916317D01*
X146529630Y-96916317D02*
X146482011Y-96725841D01*
X146482011Y-96725841D02*
X146434392Y-96630603D01*
X146434392Y-96630603D02*
X146339154Y-96535365D01*
X146339154Y-96535365D02*
X146196297Y-96487746D01*
X146196297Y-96487746D02*
X146101059Y-96487746D01*
X146101059Y-96487746D02*
X145958202Y-96535365D01*
X145958202Y-96535365D02*
X145910583Y-96582984D01*
X145577249Y-96487746D02*
X144910583Y-96487746D01*
X144910583Y-96487746D02*
X145339154Y-97487746D01*
X148774819Y-98833333D02*
X148298628Y-98500000D01*
X148774819Y-98261905D02*
X147774819Y-98261905D01*
X147774819Y-98261905D02*
X147774819Y-98642857D01*
X147774819Y-98642857D02*
X147822438Y-98738095D01*
X147822438Y-98738095D02*
X147870057Y-98785714D01*
X147870057Y-98785714D02*
X147965295Y-98833333D01*
X147965295Y-98833333D02*
X148108152Y-98833333D01*
X148108152Y-98833333D02*
X148203390Y-98785714D01*
X148203390Y-98785714D02*
X148251009Y-98738095D01*
X148251009Y-98738095D02*
X148298628Y-98642857D01*
X148298628Y-98642857D02*
X148298628Y-98261905D01*
X147870057Y-99214286D02*
X147822438Y-99261905D01*
X147822438Y-99261905D02*
X147774819Y-99357143D01*
X147774819Y-99357143D02*
X147774819Y-99595238D01*
X147774819Y-99595238D02*
X147822438Y-99690476D01*
X147822438Y-99690476D02*
X147870057Y-99738095D01*
X147870057Y-99738095D02*
X147965295Y-99785714D01*
X147965295Y-99785714D02*
X148060533Y-99785714D01*
X148060533Y-99785714D02*
X148203390Y-99738095D01*
X148203390Y-99738095D02*
X148774819Y-99166667D01*
X148774819Y-99166667D02*
X148774819Y-99785714D01*
X153642857Y-92359580D02*
X153690476Y-92407200D01*
X153690476Y-92407200D02*
X153833333Y-92454819D01*
X153833333Y-92454819D02*
X153928571Y-92454819D01*
X153928571Y-92454819D02*
X154071428Y-92407200D01*
X154071428Y-92407200D02*
X154166666Y-92311961D01*
X154166666Y-92311961D02*
X154214285Y-92216723D01*
X154214285Y-92216723D02*
X154261904Y-92026247D01*
X154261904Y-92026247D02*
X154261904Y-91883390D01*
X154261904Y-91883390D02*
X154214285Y-91692914D01*
X154214285Y-91692914D02*
X154166666Y-91597676D01*
X154166666Y-91597676D02*
X154071428Y-91502438D01*
X154071428Y-91502438D02*
X153928571Y-91454819D01*
X153928571Y-91454819D02*
X153833333Y-91454819D01*
X153833333Y-91454819D02*
X153690476Y-91502438D01*
X153690476Y-91502438D02*
X153642857Y-91550057D01*
X152690476Y-92454819D02*
X153261904Y-92454819D01*
X152976190Y-92454819D02*
X152976190Y-91454819D01*
X152976190Y-91454819D02*
X153071428Y-91597676D01*
X153071428Y-91597676D02*
X153166666Y-91692914D01*
X153166666Y-91692914D02*
X153261904Y-91740533D01*
X152071428Y-91454819D02*
X151976190Y-91454819D01*
X151976190Y-91454819D02*
X151880952Y-91502438D01*
X151880952Y-91502438D02*
X151833333Y-91550057D01*
X151833333Y-91550057D02*
X151785714Y-91645295D01*
X151785714Y-91645295D02*
X151738095Y-91835771D01*
X151738095Y-91835771D02*
X151738095Y-92073866D01*
X151738095Y-92073866D02*
X151785714Y-92264342D01*
X151785714Y-92264342D02*
X151833333Y-92359580D01*
X151833333Y-92359580D02*
X151880952Y-92407200D01*
X151880952Y-92407200D02*
X151976190Y-92454819D01*
X151976190Y-92454819D02*
X152071428Y-92454819D01*
X152071428Y-92454819D02*
X152166666Y-92407200D01*
X152166666Y-92407200D02*
X152214285Y-92359580D01*
X152214285Y-92359580D02*
X152261904Y-92264342D01*
X152261904Y-92264342D02*
X152309523Y-92073866D01*
X152309523Y-92073866D02*
X152309523Y-91835771D01*
X152309523Y-91835771D02*
X152261904Y-91645295D01*
X152261904Y-91645295D02*
X152214285Y-91550057D01*
X152214285Y-91550057D02*
X152166666Y-91502438D01*
X152166666Y-91502438D02*
X152071428Y-91454819D01*
X152666666Y-90859580D02*
X152714285Y-90907200D01*
X152714285Y-90907200D02*
X152857142Y-90954819D01*
X152857142Y-90954819D02*
X152952380Y-90954819D01*
X152952380Y-90954819D02*
X153095237Y-90907200D01*
X153095237Y-90907200D02*
X153190475Y-90811961D01*
X153190475Y-90811961D02*
X153238094Y-90716723D01*
X153238094Y-90716723D02*
X153285713Y-90526247D01*
X153285713Y-90526247D02*
X153285713Y-90383390D01*
X153285713Y-90383390D02*
X153238094Y-90192914D01*
X153238094Y-90192914D02*
X153190475Y-90097676D01*
X153190475Y-90097676D02*
X153095237Y-90002438D01*
X153095237Y-90002438D02*
X152952380Y-89954819D01*
X152952380Y-89954819D02*
X152857142Y-89954819D01*
X152857142Y-89954819D02*
X152714285Y-90002438D01*
X152714285Y-90002438D02*
X152666666Y-90050057D01*
X152190475Y-90954819D02*
X151999999Y-90954819D01*
X151999999Y-90954819D02*
X151904761Y-90907200D01*
X151904761Y-90907200D02*
X151857142Y-90859580D01*
X151857142Y-90859580D02*
X151761904Y-90716723D01*
X151761904Y-90716723D02*
X151714285Y-90526247D01*
X151714285Y-90526247D02*
X151714285Y-90145295D01*
X151714285Y-90145295D02*
X151761904Y-90050057D01*
X151761904Y-90050057D02*
X151809523Y-90002438D01*
X151809523Y-90002438D02*
X151904761Y-89954819D01*
X151904761Y-89954819D02*
X152095237Y-89954819D01*
X152095237Y-89954819D02*
X152190475Y-90002438D01*
X152190475Y-90002438D02*
X152238094Y-90050057D01*
X152238094Y-90050057D02*
X152285713Y-90145295D01*
X152285713Y-90145295D02*
X152285713Y-90383390D01*
X152285713Y-90383390D02*
X152238094Y-90478628D01*
X152238094Y-90478628D02*
X152190475Y-90526247D01*
X152190475Y-90526247D02*
X152095237Y-90573866D01*
X152095237Y-90573866D02*
X151904761Y-90573866D01*
X151904761Y-90573866D02*
X151809523Y-90526247D01*
X151809523Y-90526247D02*
X151761904Y-90478628D01*
X151761904Y-90478628D02*
X151714285Y-90383390D01*
X153204819Y-98833333D02*
X152728628Y-98500000D01*
X153204819Y-98261905D02*
X152204819Y-98261905D01*
X152204819Y-98261905D02*
X152204819Y-98642857D01*
X152204819Y-98642857D02*
X152252438Y-98738095D01*
X152252438Y-98738095D02*
X152300057Y-98785714D01*
X152300057Y-98785714D02*
X152395295Y-98833333D01*
X152395295Y-98833333D02*
X152538152Y-98833333D01*
X152538152Y-98833333D02*
X152633390Y-98785714D01*
X152633390Y-98785714D02*
X152681009Y-98738095D01*
X152681009Y-98738095D02*
X152728628Y-98642857D01*
X152728628Y-98642857D02*
X152728628Y-98261905D01*
X152204819Y-99166667D02*
X152204819Y-99785714D01*
X152204819Y-99785714D02*
X152585771Y-99452381D01*
X152585771Y-99452381D02*
X152585771Y-99595238D01*
X152585771Y-99595238D02*
X152633390Y-99690476D01*
X152633390Y-99690476D02*
X152681009Y-99738095D01*
X152681009Y-99738095D02*
X152776247Y-99785714D01*
X152776247Y-99785714D02*
X153014342Y-99785714D01*
X153014342Y-99785714D02*
X153109580Y-99738095D01*
X153109580Y-99738095D02*
X153157200Y-99690476D01*
X153157200Y-99690476D02*
X153204819Y-99595238D01*
X153204819Y-99595238D02*
X153204819Y-99309524D01*
X153204819Y-99309524D02*
X153157200Y-99214286D01*
X153157200Y-99214286D02*
X153109580Y-99166667D01*
X146916666Y-92859580D02*
X146964285Y-92907200D01*
X146964285Y-92907200D02*
X147107142Y-92954819D01*
X147107142Y-92954819D02*
X147202380Y-92954819D01*
X147202380Y-92954819D02*
X147345237Y-92907200D01*
X147345237Y-92907200D02*
X147440475Y-92811961D01*
X147440475Y-92811961D02*
X147488094Y-92716723D01*
X147488094Y-92716723D02*
X147535713Y-92526247D01*
X147535713Y-92526247D02*
X147535713Y-92383390D01*
X147535713Y-92383390D02*
X147488094Y-92192914D01*
X147488094Y-92192914D02*
X147440475Y-92097676D01*
X147440475Y-92097676D02*
X147345237Y-92002438D01*
X147345237Y-92002438D02*
X147202380Y-91954819D01*
X147202380Y-91954819D02*
X147107142Y-91954819D01*
X147107142Y-91954819D02*
X146964285Y-92002438D01*
X146964285Y-92002438D02*
X146916666Y-92050057D01*
X146535713Y-92050057D02*
X146488094Y-92002438D01*
X146488094Y-92002438D02*
X146392856Y-91954819D01*
X146392856Y-91954819D02*
X146154761Y-91954819D01*
X146154761Y-91954819D02*
X146059523Y-92002438D01*
X146059523Y-92002438D02*
X146011904Y-92050057D01*
X146011904Y-92050057D02*
X145964285Y-92145295D01*
X145964285Y-92145295D02*
X145964285Y-92240533D01*
X145964285Y-92240533D02*
X146011904Y-92383390D01*
X146011904Y-92383390D02*
X146583332Y-92954819D01*
X146583332Y-92954819D02*
X145964285Y-92954819D01*
D11*
X151700000Y-87000000D02*
G75*
G02*
X149300000Y-87000000I-1200000J0D01*
G01*
X149300000Y-87000000D02*
G75*
G02*
X151700000Y-87000000I1200000J0D01*
G01*
X145700000Y-99000000D02*
G75*
G02*
X143300000Y-99000000I-1200000J0D01*
G01*
X143300000Y-99000000D02*
G75*
G02*
X145700000Y-99000000I1200000J0D01*
G01*
D12*
X148450000Y-93600000D02*
X148450000Y-94100000D01*
X148450000Y-96700000D02*
X148450000Y-96300000D01*
X148750000Y-93300000D02*
X148450000Y-93600000D01*
X148750000Y-96700000D02*
X148450000Y-96700000D01*
X148800000Y-93200000D02*
X148800000Y-93300000D01*
X148800000Y-93300000D02*
X148750000Y-93300000D01*
X151550000Y-93300000D02*
X151300000Y-93300000D01*
X151550000Y-93800000D02*
X151550000Y-93300000D01*
X151550000Y-96250000D02*
X151550000Y-96700000D01*
X151550000Y-96700000D02*
X151250000Y-96700000D01*
D11*
X144990000Y-94915580D02*
X144990000Y-94634420D01*
X146010000Y-94915580D02*
X146010000Y-94634420D01*
X149227500Y-99237258D02*
X149227500Y-98762742D01*
X150272500Y-99237258D02*
X150272500Y-98762742D01*
X149859420Y-91490000D02*
X150140580Y-91490000D01*
X149859420Y-92510000D02*
X150140580Y-92510000D01*
X149859420Y-89990000D02*
X150140580Y-89990000D01*
X149859420Y-91010000D02*
X150140580Y-91010000D01*
X150727500Y-99237258D02*
X150727500Y-98762742D01*
X151772500Y-99237258D02*
X151772500Y-98762742D01*
X146740000Y-94915580D02*
X146740000Y-94634420D01*
X147760000Y-94915580D02*
X147760000Y-94634420D01*
%LPC*%
D13*
X150500000Y-87000000D03*
X144500000Y-99000000D03*
D14*
X149000000Y-93712500D03*
X149500000Y-93712500D03*
X150000000Y-93712500D03*
X150500000Y-93712500D03*
X151000000Y-93712500D03*
D15*
X151275000Y-94500000D03*
X151275000Y-95000000D03*
X151275000Y-95500000D03*
D14*
X151000000Y-96287500D03*
X150500000Y-96287500D03*
X150000000Y-96287500D03*
X149500000Y-96287500D03*
X149000000Y-96287500D03*
D15*
X148725000Y-95500000D03*
X148725000Y-95000000D03*
X148725000Y-94500000D03*
D16*
X145500000Y-94000000D03*
X145500000Y-95550000D03*
D17*
X149750000Y-98175000D03*
X149750000Y-99825000D03*
D18*
X150775000Y-92000000D03*
X149225000Y-92000000D03*
X150775000Y-90500000D03*
X149225000Y-90500000D03*
D17*
X151250000Y-98175000D03*
X151250000Y-99825000D03*
D16*
X147250000Y-94000000D03*
X147250000Y-95550000D03*
%LPD*%
M02*
