G04 #@! TF.GenerationSoftware,KiCad,Pcbnew,8.0.4*
G04 #@! TF.CreationDate,2024-09-30T00:02:48+08:00*
G04 #@! TF.ProjectId,Transformer_Monitor_V1,5472616e-7366-46f7-926d-65725f4d6f6e,rev?*
G04 #@! TF.SameCoordinates,Original*
G04 #@! TF.FileFunction,Copper,L2,Bot*
G04 #@! TF.FilePolarity,Positive*
%FSLAX46Y46*%
G04 Gerber Fmt 4.6, Leading zero omitted, Abs format (unit mm)*
G04 Created by KiCad (PCBNEW 8.0.4) date 2024-09-30 00:02:48*
%MOMM*%
%LPD*%
G01*
G04 APERTURE LIST*
G04 Aperture macros list*
%AMRoundRect*
0 Rectangle with rounded corners*
0 $1 Rounding radius*
0 $2 $3 $4 $5 $6 $7 $8 $9 X,Y pos of 4 corners*
0 Add a 4 corners polygon primitive as box body*
4,1,4,$2,$3,$4,$5,$6,$7,$8,$9,$2,$3,0*
0 Add four circle primitives for the rounded corners*
1,1,$1+$1,$2,$3*
1,1,$1+$1,$4,$5*
1,1,$1+$1,$6,$7*
1,1,$1+$1,$8,$9*
0 Add four rect primitives between the rounded corners*
20,1,$1+$1,$2,$3,$4,$5,0*
20,1,$1+$1,$4,$5,$6,$7,0*
20,1,$1+$1,$6,$7,$8,$9,0*
20,1,$1+$1,$8,$9,$2,$3,0*%
G04 Aperture macros list end*
G04 #@! TA.AperFunction,SMDPad,CuDef*
%ADD10C,2.000000*%
G04 #@! TD*
G04 #@! TA.AperFunction,SMDPad,CuDef*
%ADD11R,0.300000X0.925000*%
G04 #@! TD*
G04 #@! TA.AperFunction,SMDPad,CuDef*
%ADD12R,0.800000X0.300000*%
G04 #@! TD*
G04 #@! TA.AperFunction,SMDPad,CuDef*
%ADD13RoundRect,0.225000X-0.250000X0.225000X-0.250000X-0.225000X0.250000X-0.225000X0.250000X0.225000X0*%
G04 #@! TD*
G04 #@! TA.AperFunction,SMDPad,CuDef*
%ADD14RoundRect,0.200000X-0.275000X0.200000X-0.275000X-0.200000X0.275000X-0.200000X0.275000X0.200000X0*%
G04 #@! TD*
G04 #@! TA.AperFunction,SMDPad,CuDef*
%ADD15RoundRect,0.225000X0.225000X0.250000X-0.225000X0.250000X-0.225000X-0.250000X0.225000X-0.250000X0*%
G04 #@! TD*
G04 #@! TA.AperFunction,ViaPad*
%ADD16C,0.600000*%
G04 #@! TD*
G04 #@! TA.AperFunction,Conductor*
%ADD17C,0.500000*%
G04 #@! TD*
G04 #@! TA.AperFunction,Conductor*
%ADD18C,0.250000*%
G04 #@! TD*
G04 APERTURE END LIST*
D10*
X150500000Y-87000000D03*
X144500000Y-99000000D03*
D11*
X149000000Y-93712500D03*
X149500000Y-93712500D03*
X150000000Y-93712500D03*
X150500000Y-93712500D03*
X151000000Y-93712500D03*
D12*
X151275000Y-94500000D03*
X151275000Y-95000000D03*
X151275000Y-95500000D03*
D11*
X151000000Y-96287500D03*
X150500000Y-96287500D03*
X150000000Y-96287500D03*
X149500000Y-96287500D03*
X149000000Y-96287500D03*
D12*
X148725000Y-95500000D03*
X148725000Y-95000000D03*
X148725000Y-94500000D03*
D13*
X145500000Y-94000000D03*
X145500000Y-95550000D03*
D14*
X149750000Y-98175000D03*
X149750000Y-99825000D03*
D15*
X150775000Y-92000000D03*
X149225000Y-92000000D03*
X150775000Y-90500000D03*
X149225000Y-90500000D03*
D14*
X151250000Y-98175000D03*
X151250000Y-99825000D03*
D13*
X147250000Y-94000000D03*
X147250000Y-95550000D03*
D16*
X147744337Y-118333682D03*
X160000000Y-120000000D03*
X165000000Y-120000000D03*
X190000000Y-125000000D03*
X175000000Y-135000000D03*
X175000000Y-140000000D03*
X140000000Y-140000000D03*
X139974225Y-134875449D03*
X140000000Y-120000000D03*
X135000000Y-125000000D03*
X105000000Y-110000000D03*
X115000000Y-105000000D03*
X105007321Y-84971227D03*
X125000000Y-85000000D03*
X170000000Y-90000000D03*
X170000000Y-80000000D03*
X155000000Y-80000000D03*
X110000000Y-75000000D03*
X115000000Y-75000000D03*
X120000000Y-90000000D03*
X125000000Y-90000000D03*
X125000000Y-95000000D03*
X130000000Y-95000000D03*
X120000000Y-105000000D03*
X125000000Y-105000000D03*
X115000000Y-110000000D03*
X120000000Y-110000000D03*
X110000000Y-120000000D03*
X115000000Y-120000000D03*
X110000000Y-125000000D03*
X115000000Y-125000000D03*
X125000000Y-135000000D03*
X130000000Y-135000000D03*
X125000000Y-140000000D03*
X130000000Y-140000000D03*
X135000000Y-145000000D03*
X140000000Y-145000000D03*
X160000000Y-145000000D03*
X165000000Y-145000000D03*
X165000000Y-130000000D03*
X170000000Y-130000000D03*
X160000000Y-125000000D03*
X165000000Y-125000000D03*
X185000000Y-120000000D03*
X190000000Y-120000000D03*
X170000000Y-95000000D03*
X175000000Y-95000000D03*
X180000000Y-95000000D03*
X185000000Y-95000000D03*
X190000000Y-90000000D03*
X195000000Y-90000000D03*
X190000000Y-85000000D03*
X195000000Y-85000000D03*
X185000000Y-75000000D03*
X190000000Y-75000000D03*
X180000000Y-80000000D03*
X185000000Y-80000000D03*
X190000000Y-80000000D03*
X175000000Y-85000000D03*
X180000000Y-85000000D03*
X185000000Y-85000000D03*
X175000000Y-90000000D03*
X180000000Y-90000000D03*
X185000000Y-90000000D03*
X185000000Y-115000000D03*
X190000000Y-115000000D03*
X195000000Y-115000000D03*
X185000000Y-110000000D03*
X190000000Y-110000000D03*
X195000000Y-110000000D03*
X160000000Y-135000000D03*
X165000000Y-135000000D03*
X170000000Y-135000000D03*
X160000000Y-140000000D03*
X165000000Y-140000000D03*
X170000000Y-140000000D03*
X105000000Y-115000000D03*
X110000000Y-115000000D03*
X115000000Y-115000000D03*
X120000000Y-100000000D03*
X125000000Y-100000000D03*
X130000000Y-100000000D03*
X105000000Y-90000000D03*
X110000000Y-90000000D03*
X115000000Y-90000000D03*
X110000000Y-85000000D03*
X115000000Y-85000000D03*
X120000000Y-85000000D03*
X110000000Y-80000000D03*
X115000000Y-80000000D03*
X120000000Y-80000000D03*
X140000000Y-80000000D03*
X145000000Y-80000000D03*
X150000000Y-80000000D03*
X160000000Y-70000000D03*
X165000000Y-70000000D03*
X170000000Y-70000000D03*
X160000000Y-75000000D03*
X165000000Y-75000000D03*
X170000000Y-75000000D03*
X135000000Y-75000000D03*
X140000000Y-75000000D03*
X145000000Y-75000000D03*
X130000000Y-70000000D03*
X135000000Y-70000000D03*
X140000000Y-70000000D03*
X125000000Y-65000000D03*
X130000000Y-65000000D03*
X135000000Y-65000000D03*
X140000000Y-65000000D03*
X145000000Y-65000000D03*
X160000000Y-65000000D03*
X165000000Y-65000000D03*
X170000000Y-65000000D03*
X175000000Y-60000000D03*
X170000000Y-60000000D03*
X140000000Y-60000000D03*
X135000000Y-60000000D03*
X129921968Y-59922525D03*
X125000000Y-60000000D03*
X165000000Y-55000000D03*
X160000000Y-55000000D03*
X155000000Y-55000000D03*
X150000000Y-55000000D03*
X145000000Y-55000000D03*
X140000000Y-55000000D03*
X135000000Y-55000000D03*
X154069211Y-90154572D03*
X155480914Y-88665058D03*
X149000000Y-125500000D03*
X152500000Y-93500000D03*
X134000000Y-107750000D03*
X147750000Y-83250000D03*
X150500000Y-97250000D03*
X140500000Y-95750000D03*
X159250000Y-94000000D03*
X144400000Y-91250000D03*
X150850000Y-102500000D03*
X152500000Y-96500000D03*
X147250000Y-96750000D03*
X124250000Y-125000000D03*
X140500000Y-94250000D03*
X148500000Y-87250000D03*
X128000000Y-128750000D03*
X151500000Y-128250000D03*
X126000000Y-126750000D03*
X122500000Y-123250000D03*
X145250000Y-100750000D03*
X144400000Y-93800000D03*
X137500000Y-105500000D03*
X155750000Y-93500000D03*
X114250000Y-101250000D03*
X144400000Y-93000000D03*
X144384076Y-96243320D03*
X145534859Y-105700318D03*
X155750000Y-105750000D03*
X175000000Y-125750000D03*
X167500000Y-101250000D03*
X144400000Y-92100000D03*
X114250000Y-98750000D03*
X149614850Y-89422008D03*
X167500000Y-96250000D03*
X179000000Y-121750000D03*
X173500000Y-127250000D03*
X167500000Y-103750000D03*
X153750000Y-105750000D03*
X147250000Y-121000000D03*
X146250000Y-100750000D03*
X177000000Y-123750000D03*
X152000000Y-105750000D03*
X167500000Y-98750000D03*
X155750000Y-97750000D03*
X155250000Y-121000000D03*
X149250000Y-100750000D03*
X149250000Y-121000000D03*
X147250000Y-100750000D03*
X150250000Y-100750000D03*
X157250000Y-121000000D03*
X148250000Y-100750000D03*
X153250000Y-121000000D03*
X155750000Y-92561766D03*
X155712128Y-91361766D03*
X155750000Y-95810380D03*
X161000000Y-91000000D03*
X150500000Y-105750000D03*
X165000000Y-117500000D03*
X147750000Y-102500000D03*
D17*
X146287500Y-99000000D02*
X149000000Y-96287500D01*
X144500000Y-99000000D02*
X146287500Y-99000000D01*
X144500000Y-99000000D02*
X144500000Y-100000000D01*
X144500000Y-100000000D02*
X145250000Y-100750000D01*
X142500000Y-100000000D02*
X142500000Y-98127396D01*
X142500000Y-98127396D02*
X144384076Y-96243320D01*
X145534859Y-101475000D02*
X143975000Y-101475000D01*
X145534859Y-105700318D02*
X145534859Y-101475000D01*
X143975000Y-101475000D02*
X142500000Y-100000000D01*
X144000000Y-99000000D02*
X144000000Y-99500000D01*
X144377673Y-95122327D02*
X144377673Y-93817038D01*
X137500000Y-102000000D02*
X144377673Y-95122327D01*
X137500000Y-105500000D02*
X137500000Y-102000000D01*
X167500000Y-96625000D02*
X167500000Y-96250000D01*
X183000000Y-117750000D02*
X183000000Y-112125000D01*
X183000000Y-112125000D02*
X167500000Y-96625000D01*
X179000000Y-121750000D02*
X183000000Y-117750000D01*
D18*
X149000000Y-101000000D02*
X149250000Y-100750000D01*
X151650000Y-120400000D02*
X149000000Y-117750000D01*
X153900000Y-120400000D02*
X151650000Y-120400000D01*
X154500000Y-121000000D02*
X153900000Y-120400000D01*
X149000000Y-117750000D02*
X149000000Y-101000000D01*
X155250000Y-121000000D02*
X154500000Y-121000000D01*
X155850000Y-120850000D02*
X156000000Y-121000000D01*
X155850000Y-120550736D02*
X155850000Y-120850000D01*
X155274264Y-119975000D02*
X155850000Y-120550736D01*
X156000000Y-121000000D02*
X157250000Y-121000000D01*
X152475000Y-119975000D02*
X155274264Y-119975000D01*
X149500000Y-117000000D02*
X152475000Y-119975000D01*
X150250000Y-100750000D02*
X149500000Y-101500000D01*
X149500000Y-101500000D02*
X149500000Y-117000000D01*
D17*
X125250000Y-123250000D02*
X122500000Y-123250000D01*
X131750000Y-116750000D02*
X125250000Y-123250000D01*
X131750000Y-115000000D02*
X131750000Y-116750000D01*
X114250000Y-101250000D02*
X114250000Y-100250000D01*
X114250000Y-100250000D02*
X121500000Y-93000000D01*
X121500000Y-93000000D02*
X144400000Y-93000000D01*
X154475000Y-106475000D02*
X153750000Y-105750000D01*
X156525000Y-106475000D02*
X154475000Y-106475000D01*
X161000000Y-102000000D02*
X156525000Y-106475000D01*
X167500000Y-102500000D02*
X167000000Y-102000000D01*
X167500000Y-103750000D02*
X167500000Y-102500000D01*
X167000000Y-102000000D02*
X161000000Y-102000000D01*
X150500000Y-87000000D02*
X148750000Y-87000000D01*
X148750000Y-87000000D02*
X148500000Y-87250000D01*
X154069211Y-90154572D02*
X152620428Y-90154572D01*
D18*
X159250000Y-94000000D02*
X157211766Y-91961766D01*
X151250000Y-99825000D02*
X149750000Y-99825000D01*
D17*
X134000000Y-102250000D02*
X140500000Y-95750000D01*
D18*
X150850000Y-102500000D02*
X150850000Y-102000000D01*
D17*
X147000000Y-94000000D02*
X145500000Y-94000000D01*
X150065856Y-83250000D02*
X147750000Y-83250000D01*
D18*
X150500000Y-95575000D02*
X150500000Y-96287500D01*
X145500000Y-92350000D02*
X145500000Y-94000000D01*
X150850000Y-102000000D02*
X151250000Y-101600000D01*
D17*
X147750000Y-87900000D02*
X147750000Y-83250000D01*
D18*
X150000000Y-93712500D02*
X150000000Y-92775000D01*
D17*
X144400000Y-91250000D02*
X147750000Y-87900000D01*
D18*
X150000000Y-92775000D02*
X150775000Y-92000000D01*
X151212500Y-93500000D02*
X152500000Y-93500000D01*
D17*
X150775000Y-92000000D02*
X150775000Y-90500000D01*
D18*
X155501472Y-91961766D02*
X153963238Y-93500000D01*
X157211766Y-91961766D02*
X155501472Y-91961766D01*
X159250000Y-94000000D02*
X156011766Y-90761766D01*
D17*
X142500000Y-125500000D02*
X134000000Y-117000000D01*
D18*
X156011766Y-90761766D02*
X152013234Y-90761766D01*
X152013234Y-90761766D02*
X150775000Y-92000000D01*
D17*
X134000000Y-117000000D02*
X134000000Y-107750000D01*
D18*
X144400000Y-91250000D02*
X145500000Y-92350000D01*
X150000000Y-95075000D02*
X150500000Y-95575000D01*
D17*
X152500000Y-96500000D02*
X152500000Y-98575000D01*
D18*
X151250000Y-101600000D02*
X151250000Y-99825000D01*
X150500000Y-97250000D02*
X150500000Y-96287500D01*
X153462017Y-90761766D02*
X152013234Y-90761766D01*
X150000000Y-93712500D02*
X150000000Y-95075000D01*
X153963238Y-93500000D02*
X152500000Y-93500000D01*
D17*
X134000000Y-107750000D02*
X134000000Y-102250000D01*
D18*
X151000000Y-93712500D02*
X151212500Y-93500000D01*
D17*
X149000000Y-125500000D02*
X142500000Y-125500000D01*
X155480914Y-88665058D02*
X150065856Y-83250000D01*
X152620428Y-90154572D02*
X150775000Y-92000000D01*
X152500000Y-98575000D02*
X151250000Y-99825000D01*
X125000000Y-125000000D02*
X131750000Y-118250000D01*
X131750000Y-115000000D02*
X131750000Y-117250000D01*
D18*
X148025000Y-94975000D02*
X148025000Y-94050000D01*
D17*
X131750000Y-121000000D02*
X131750000Y-125000000D01*
X132500000Y-102250000D02*
X132500000Y-114250000D01*
D18*
X147250000Y-95550000D02*
X147250000Y-96750000D01*
D17*
X127000000Y-126750000D02*
X126000000Y-126750000D01*
X149225000Y-92000000D02*
X149225000Y-90500000D01*
X131750000Y-117250000D02*
X131750000Y-121000000D01*
D18*
X148362500Y-93712500D02*
X149000000Y-93712500D01*
D17*
X131750000Y-121000000D02*
X131750000Y-122000000D01*
D18*
X147250000Y-95550000D02*
X147300000Y-95500000D01*
D17*
X148500000Y-89775000D02*
X149225000Y-90500000D01*
D18*
X147300000Y-95500000D02*
X148725000Y-95500000D01*
D17*
X131750000Y-118250000D02*
X131750000Y-117250000D01*
D18*
X148025000Y-94050000D02*
X148362500Y-93712500D01*
D17*
X151500000Y-128250000D02*
X128500000Y-128250000D01*
X132500000Y-114250000D02*
X131750000Y-115000000D01*
X140500000Y-94250000D02*
X132500000Y-102250000D01*
D18*
X149000000Y-92225000D02*
X149000000Y-93712500D01*
D17*
X128500000Y-128250000D02*
X128000000Y-128750000D01*
X124250000Y-125000000D02*
X125000000Y-125000000D01*
X131750000Y-122000000D02*
X127000000Y-126750000D01*
X148500000Y-87250000D02*
X148500000Y-89775000D01*
D18*
X147250000Y-95550000D02*
X147450000Y-95550000D01*
D17*
X131750000Y-125000000D02*
X128000000Y-128750000D01*
D18*
X147450000Y-95550000D02*
X148025000Y-94975000D01*
D17*
X145500000Y-95550000D02*
X147250000Y-95550000D01*
D18*
X149225000Y-92000000D02*
X149000000Y-92225000D01*
X149500000Y-96287500D02*
X149000000Y-96287500D01*
X148725000Y-94500000D02*
X149375000Y-94500000D01*
X149500000Y-94625000D02*
X149500000Y-96287500D01*
X149375000Y-94500000D02*
X149500000Y-94625000D01*
X150000000Y-96901471D02*
X149750000Y-97151471D01*
X149750000Y-97151471D02*
X149750000Y-98175000D01*
X150000000Y-96287500D02*
X150000000Y-96901471D01*
X151500000Y-97925000D02*
X151250000Y-98175000D01*
X151500000Y-96787500D02*
X151500000Y-97925000D01*
X151000000Y-96287500D02*
X151500000Y-96787500D01*
X155750000Y-93500000D02*
X154750000Y-94500000D01*
X154750000Y-94500000D02*
X151275000Y-94500000D01*
D17*
X167500000Y-101250000D02*
X170000000Y-103750000D01*
X174750000Y-125750000D02*
X175000000Y-125750000D01*
X170000000Y-103750000D02*
X170000000Y-121000000D01*
X160250000Y-101250000D02*
X155750000Y-105750000D01*
X160250000Y-101250000D02*
X167500000Y-101250000D01*
X170000000Y-121000000D02*
X174750000Y-125750000D01*
X120900000Y-92100000D02*
X144400000Y-92100000D01*
X114250000Y-98750000D02*
X120900000Y-92100000D01*
X160672008Y-89422008D02*
X149614850Y-89422008D01*
X167500000Y-96250000D02*
X160672008Y-89422008D01*
X167500000Y-103750000D02*
X167500000Y-121250000D01*
X167500000Y-121250000D02*
X173500000Y-127250000D01*
D18*
X146250000Y-120000000D02*
X146250000Y-100750000D01*
X147250000Y-121000000D02*
X146250000Y-120000000D01*
D17*
X155750000Y-97750000D02*
X155750000Y-102000000D01*
X155750000Y-102000000D02*
X152000000Y-105750000D01*
X177000000Y-122250000D02*
X177000000Y-123750000D01*
X155750000Y-97750000D02*
X159250000Y-97750000D01*
X167750000Y-98750000D02*
X182000000Y-113000000D01*
X167500000Y-98750000D02*
X167750000Y-98750000D01*
X182000000Y-113000000D02*
X182000000Y-117250000D01*
X159250000Y-97750000D02*
X160250000Y-98750000D01*
X160250000Y-98750000D02*
X167500000Y-98750000D01*
X182000000Y-117250000D02*
X177000000Y-122250000D01*
D18*
X147000000Y-101000000D02*
X147000000Y-118750000D01*
X147000000Y-118750000D02*
X149250000Y-121000000D01*
X147250000Y-100750000D02*
X147000000Y-101000000D01*
X148250000Y-100750000D02*
X148500000Y-101000000D01*
X150750000Y-121000000D02*
X153250000Y-121000000D01*
X148500000Y-118750000D02*
X150750000Y-121000000D01*
X148500000Y-101000000D02*
X148500000Y-118750000D01*
X151275000Y-95000000D02*
X155098529Y-95000000D01*
X156350000Y-93748529D02*
X156350000Y-93161766D01*
X156350000Y-93161766D02*
X155750000Y-92561766D01*
X155098529Y-95000000D02*
X156350000Y-93748529D01*
X153200000Y-91750000D02*
X152000000Y-92950000D01*
X152000000Y-92950000D02*
X150550000Y-92950000D01*
X155112197Y-91750000D02*
X153200000Y-91750000D01*
X155500431Y-91361766D02*
X155112197Y-91750000D01*
X150550000Y-92950000D02*
X150500000Y-93000000D01*
X150500000Y-93000000D02*
X150500000Y-93712500D01*
X155712128Y-91361766D02*
X155500431Y-91361766D01*
X155750000Y-95810380D02*
X155439620Y-95500000D01*
D17*
X161000000Y-94000000D02*
X159189620Y-95810380D01*
X161000000Y-91000000D02*
X161000000Y-94000000D01*
X159189620Y-95810380D02*
X155750000Y-95810380D01*
D18*
X155439620Y-95500000D02*
X151275000Y-95500000D01*
D17*
X162250000Y-117500000D02*
X165000000Y-117500000D01*
X150500000Y-105750000D02*
X162250000Y-117500000D01*
G04 #@! TA.AperFunction,Conductor*
G36*
X147815944Y-101422672D02*
G01*
X147816447Y-101422988D01*
X147862750Y-101475310D01*
X147874500Y-101527997D01*
X147874500Y-118440547D01*
X147854815Y-118507586D01*
X147802011Y-118553341D01*
X147732853Y-118563285D01*
X147669297Y-118534260D01*
X147662819Y-118528228D01*
X147661819Y-118527228D01*
X147628334Y-118465905D01*
X147625500Y-118439547D01*
X147625500Y-101527997D01*
X147645185Y-101460958D01*
X147683552Y-101422988D01*
X147684054Y-101422672D01*
X147751295Y-101403690D01*
X147815944Y-101422672D01*
G37*
G04 #@! TD.AperFunction*
G04 #@! TA.AperFunction,Conductor*
G36*
X161955703Y-91767517D02*
G01*
X161962181Y-91773549D01*
X166713181Y-96524549D01*
X166746666Y-96585872D01*
X166749500Y-96612230D01*
X166749500Y-96698918D01*
X166749500Y-96698920D01*
X166749499Y-96698920D01*
X166778340Y-96843907D01*
X166778343Y-96843917D01*
X166834912Y-96980487D01*
X166834916Y-96980496D01*
X166842822Y-96992326D01*
X166842823Y-96992331D01*
X166842825Y-96992331D01*
X166917051Y-97103420D01*
X166917052Y-97103421D01*
X167549862Y-97736230D01*
X167583347Y-97797553D01*
X167578363Y-97867244D01*
X167536492Y-97923178D01*
X167476065Y-97947131D01*
X167320749Y-97964630D01*
X167320745Y-97964631D01*
X167240983Y-97992542D01*
X167200028Y-97999500D01*
X160612229Y-97999500D01*
X160545190Y-97979815D01*
X160524548Y-97963181D01*
X159728421Y-97167052D01*
X159728420Y-97167051D01*
X159728416Y-97167048D01*
X159627354Y-97099522D01*
X159627352Y-97099519D01*
X159605495Y-97084916D01*
X159605490Y-97084913D01*
X159468917Y-97028343D01*
X159468907Y-97028340D01*
X159323920Y-96999500D01*
X159323918Y-96999500D01*
X156049972Y-96999500D01*
X156009017Y-96992542D01*
X155929254Y-96964631D01*
X155929249Y-96964630D01*
X155750004Y-96944435D01*
X155749996Y-96944435D01*
X155570750Y-96964630D01*
X155570745Y-96964631D01*
X155400476Y-97024211D01*
X155247737Y-97120184D01*
X155120184Y-97247737D01*
X155024211Y-97400476D01*
X154964631Y-97570745D01*
X154964630Y-97570750D01*
X154944435Y-97749996D01*
X154944435Y-97750003D01*
X154964630Y-97929249D01*
X154964631Y-97929254D01*
X154992542Y-98009017D01*
X154999500Y-98049972D01*
X154999500Y-101637769D01*
X154979815Y-101704808D01*
X154963181Y-101725450D01*
X151691937Y-104996693D01*
X151655876Y-105019362D01*
X151656756Y-105021188D01*
X151650478Y-105024211D01*
X151497737Y-105120184D01*
X151370184Y-105247737D01*
X151370183Y-105247739D01*
X151354991Y-105271916D01*
X151302655Y-105318206D01*
X151233601Y-105328852D01*
X151169754Y-105300475D01*
X151145007Y-105271914D01*
X151129816Y-105247738D01*
X151002262Y-105120184D01*
X150849523Y-105024211D01*
X150679254Y-104964631D01*
X150679249Y-104964630D01*
X150500004Y-104944435D01*
X150499996Y-104944435D01*
X150320750Y-104964630D01*
X150320735Y-104964634D01*
X150290452Y-104975230D01*
X150220673Y-104978791D01*
X150160047Y-104944060D01*
X150127821Y-104882066D01*
X150125500Y-104858188D01*
X150125500Y-101810451D01*
X150145185Y-101743412D01*
X150161810Y-101722779D01*
X150308380Y-101576208D01*
X150369699Y-101542726D01*
X150382156Y-101540674D01*
X150429255Y-101535368D01*
X150599522Y-101475789D01*
X150752262Y-101379816D01*
X150879816Y-101252262D01*
X150975789Y-101099522D01*
X151035368Y-100929255D01*
X151038610Y-100900484D01*
X151055565Y-100750003D01*
X151055565Y-100749996D01*
X151052749Y-100724999D01*
X151500000Y-100724999D01*
X151581581Y-100724999D01*
X151652102Y-100718591D01*
X151652107Y-100718590D01*
X151814396Y-100668018D01*
X151959877Y-100580072D01*
X152080072Y-100459877D01*
X152168019Y-100314395D01*
X152218590Y-100152106D01*
X152225000Y-100081572D01*
X152225000Y-100075000D01*
X151500000Y-100075000D01*
X151500000Y-100724999D01*
X151052749Y-100724999D01*
X151035369Y-100570750D01*
X151035367Y-100570742D01*
X151006958Y-100489552D01*
X151000000Y-100448598D01*
X151000000Y-100075000D01*
X150716076Y-100075000D01*
X150650103Y-100055993D01*
X150599524Y-100024211D01*
X150429254Y-99964631D01*
X150429249Y-99964630D01*
X150250004Y-99944435D01*
X150249996Y-99944435D01*
X150070750Y-99964630D01*
X150070737Y-99964633D01*
X149900479Y-100024209D01*
X149849894Y-100055994D01*
X149783923Y-100075000D01*
X149716077Y-100075000D01*
X149650106Y-100055994D01*
X149599520Y-100024209D01*
X149429262Y-99964633D01*
X149429249Y-99964630D01*
X149250004Y-99944435D01*
X149249996Y-99944435D01*
X149070750Y-99964630D01*
X149070737Y-99964633D01*
X148900479Y-100024209D01*
X148849894Y-100055994D01*
X148783923Y-100075000D01*
X148747220Y-100075000D01*
X148747057Y-100075089D01*
X148745816Y-100075000D01*
X148723639Y-100075000D01*
X148723639Y-100073409D01*
X148677367Y-100070092D01*
X148654751Y-100058913D01*
X148599522Y-100024211D01*
X148599520Y-100024210D01*
X148599518Y-100024209D01*
X148429262Y-99964633D01*
X148429249Y-99964630D01*
X148250004Y-99944435D01*
X148249996Y-99944435D01*
X148070750Y-99964630D01*
X148070737Y-99964633D01*
X147900479Y-100024209D01*
X147815971Y-100077309D01*
X147748734Y-100096309D01*
X147684029Y-100077309D01*
X147599520Y-100024209D01*
X147429262Y-99964633D01*
X147429249Y-99964630D01*
X147250004Y-99944435D01*
X147249996Y-99944435D01*
X147070750Y-99964630D01*
X147070737Y-99964633D01*
X146900479Y-100024209D01*
X146815971Y-100077309D01*
X146748734Y-100096309D01*
X146684029Y-100077309D01*
X146599520Y-100024209D01*
X146599521Y-100024209D01*
X146443282Y-99969539D01*
X146386506Y-99928818D01*
X146360759Y-99863865D01*
X146374215Y-99795303D01*
X146422603Y-99744900D01*
X146460041Y-99730882D01*
X146506413Y-99721658D01*
X146642995Y-99665084D01*
X146692229Y-99632186D01*
X146765916Y-99582952D01*
X148566722Y-97782144D01*
X148628044Y-97748660D01*
X148697735Y-97753644D01*
X148753669Y-97795516D01*
X148778086Y-97860980D01*
X148777893Y-97881048D01*
X148774500Y-97918386D01*
X148774500Y-98431613D01*
X148780913Y-98502192D01*
X148780913Y-98502194D01*
X148780914Y-98502196D01*
X148791703Y-98536819D01*
X148831522Y-98664606D01*
X148919530Y-98810188D01*
X149022015Y-98912673D01*
X149055500Y-98973996D01*
X149050516Y-99043688D01*
X149022015Y-99088035D01*
X148919928Y-99190121D01*
X148919927Y-99190122D01*
X148831980Y-99335604D01*
X148781409Y-99497893D01*
X148775000Y-99568427D01*
X148775000Y-99575000D01*
X152224999Y-99575000D01*
X152224999Y-99568417D01*
X152218591Y-99497897D01*
X152218590Y-99497892D01*
X152168018Y-99335603D01*
X152080072Y-99190122D01*
X151977984Y-99088034D01*
X151944499Y-99026711D01*
X151949483Y-98957019D01*
X151977983Y-98912673D01*
X152080472Y-98810185D01*
X152168478Y-98664606D01*
X152219086Y-98502196D01*
X152225500Y-98431616D01*
X152225500Y-97918384D01*
X152219086Y-97847804D01*
X152168478Y-97685394D01*
X152162433Y-97675394D01*
X152143383Y-97643881D01*
X152125500Y-97579732D01*
X152125500Y-96725894D01*
X152120134Y-96698920D01*
X152117272Y-96684530D01*
X152101463Y-96605049D01*
X152098880Y-96598814D01*
X152097610Y-96595749D01*
X152079110Y-96551084D01*
X152079110Y-96551083D01*
X152054312Y-96491215D01*
X152054308Y-96491210D01*
X152054308Y-96491208D01*
X152023752Y-96445480D01*
X152023751Y-96445478D01*
X151985856Y-96388764D01*
X151934273Y-96337181D01*
X151900788Y-96275858D01*
X151905772Y-96206166D01*
X151947644Y-96150233D01*
X152013108Y-96125816D01*
X152021954Y-96125500D01*
X154934062Y-96125500D01*
X155001101Y-96145185D01*
X155039056Y-96183528D01*
X155080821Y-96249997D01*
X155120184Y-96312642D01*
X155247738Y-96440196D01*
X155303867Y-96475464D01*
X155393903Y-96532038D01*
X155400478Y-96536169D01*
X155443100Y-96551083D01*
X155570745Y-96595748D01*
X155570750Y-96595749D01*
X155749996Y-96615945D01*
X155750000Y-96615945D01*
X155750004Y-96615945D01*
X155929249Y-96595749D01*
X155929252Y-96595748D01*
X155929255Y-96595748D01*
X156009017Y-96567837D01*
X156049972Y-96560880D01*
X159263540Y-96560880D01*
X159361082Y-96541476D01*
X159408533Y-96532038D01*
X159545115Y-96475464D01*
X159614272Y-96429255D01*
X159668036Y-96393332D01*
X161582952Y-94478416D01*
X161615800Y-94429255D01*
X161652696Y-94374036D01*
X161652700Y-94374029D01*
X161665084Y-94355495D01*
X161721658Y-94218913D01*
X161735911Y-94147260D01*
X161750500Y-94073920D01*
X161750500Y-91861230D01*
X161770185Y-91794191D01*
X161822989Y-91748436D01*
X161892147Y-91738492D01*
X161955703Y-91767517D01*
G37*
G04 #@! TD.AperFunction*
G04 #@! TA.AperFunction,Conductor*
G36*
X150264062Y-94671407D02*
G01*
X150328592Y-94698188D01*
X150368401Y-94755608D01*
X150374209Y-94798807D01*
X150374500Y-94798807D01*
X150374500Y-94800971D01*
X150374544Y-94801299D01*
X150374500Y-94802122D01*
X150374500Y-95197887D01*
X150374553Y-95198863D01*
X150374500Y-95199082D01*
X150374501Y-95201192D01*
X150374002Y-95201192D01*
X150358467Y-95266856D01*
X150308175Y-95315358D01*
X150239644Y-95328971D01*
X150237487Y-95328758D01*
X150236258Y-95328626D01*
X150171704Y-95301895D01*
X150131850Y-95244507D01*
X150125500Y-95205335D01*
X150125500Y-94794555D01*
X150145185Y-94727516D01*
X150197989Y-94681761D01*
X150262831Y-94671275D01*
X150264062Y-94671407D01*
G37*
G04 #@! TD.AperFunction*
G04 #@! TA.AperFunction,Conductor*
G36*
X160376817Y-90192193D02*
G01*
X160397459Y-90208827D01*
X160440596Y-90251964D01*
X160474081Y-90313287D01*
X160469097Y-90382979D01*
X160440596Y-90427326D01*
X160370184Y-90497737D01*
X160274211Y-90650476D01*
X160214631Y-90820745D01*
X160214630Y-90820750D01*
X160194435Y-90999996D01*
X160194435Y-91000003D01*
X160214630Y-91179249D01*
X160214631Y-91179254D01*
X160242542Y-91259017D01*
X160249500Y-91299972D01*
X160249500Y-93637770D01*
X160229815Y-93704809D01*
X160213181Y-93725451D01*
X158915071Y-95023561D01*
X158853748Y-95057046D01*
X158827390Y-95059880D01*
X156222600Y-95059880D01*
X156155561Y-95040195D01*
X156109806Y-94987391D01*
X156099862Y-94918233D01*
X156128887Y-94854677D01*
X156134919Y-94848199D01*
X156383618Y-94599500D01*
X156748729Y-94234389D01*
X156748733Y-94234387D01*
X156835858Y-94147262D01*
X156904311Y-94044815D01*
X156951463Y-93930981D01*
X156975500Y-93810135D01*
X156975500Y-93100160D01*
X156975500Y-93100155D01*
X156972883Y-93087002D01*
X156972881Y-93086996D01*
X156972163Y-93083388D01*
X156957103Y-93007669D01*
X156951463Y-92979314D01*
X156947155Y-92968914D01*
X156929414Y-92926082D01*
X156904314Y-92865485D01*
X156904312Y-92865480D01*
X156864704Y-92806204D01*
X156835858Y-92763033D01*
X156835856Y-92763030D01*
X156745637Y-92672811D01*
X156745606Y-92672782D01*
X156576211Y-92503387D01*
X156542726Y-92442064D01*
X156540673Y-92429604D01*
X156535368Y-92382511D01*
X156475789Y-92212244D01*
X156379816Y-92059504D01*
X156350377Y-92030065D01*
X156316892Y-91968742D01*
X156321876Y-91899050D01*
X156338332Y-91869982D01*
X156338239Y-91869924D01*
X156339516Y-91867891D01*
X156341118Y-91865062D01*
X156341935Y-91864036D01*
X156341944Y-91864028D01*
X156437917Y-91711288D01*
X156497496Y-91541021D01*
X156500197Y-91517048D01*
X156517693Y-91361769D01*
X156517693Y-91361762D01*
X156497497Y-91182516D01*
X156497496Y-91182511D01*
X156476205Y-91121666D01*
X156437917Y-91012244D01*
X156430225Y-91000003D01*
X156365949Y-90897708D01*
X156341944Y-90859504D01*
X156214390Y-90731950D01*
X156061651Y-90635977D01*
X155891382Y-90576397D01*
X155891377Y-90576396D01*
X155712132Y-90556201D01*
X155712124Y-90556201D01*
X155532878Y-90576396D01*
X155532873Y-90576397D01*
X155362604Y-90635977D01*
X155209865Y-90731950D01*
X155082310Y-90859505D01*
X155082309Y-90859507D01*
X155029233Y-90943976D01*
X155011922Y-90965684D01*
X154889426Y-91088181D01*
X154828103Y-91121666D01*
X154801744Y-91124500D01*
X153138389Y-91124500D01*
X153077971Y-91136518D01*
X153034743Y-91145116D01*
X153017546Y-91148537D01*
X152903716Y-91195687D01*
X152903707Y-91195692D01*
X152801268Y-91264140D01*
X152770974Y-91294435D01*
X152714142Y-91351267D01*
X152714139Y-91351270D01*
X152271219Y-91794191D01*
X151851729Y-92213681D01*
X151790406Y-92247166D01*
X151764048Y-92250000D01*
X150649000Y-92250000D01*
X150581961Y-92230315D01*
X150536206Y-92177511D01*
X150525000Y-92126000D01*
X150525000Y-91750000D01*
X151025000Y-91750000D01*
X151724999Y-91750000D01*
X151724999Y-91701692D01*
X151724998Y-91701677D01*
X151714855Y-91602392D01*
X151661547Y-91441518D01*
X151661544Y-91441511D01*
X151583570Y-91315098D01*
X151565129Y-91247705D01*
X151583570Y-91184902D01*
X151661544Y-91058488D01*
X151661547Y-91058481D01*
X151714855Y-90897606D01*
X151724999Y-90798322D01*
X151725000Y-90798309D01*
X151725000Y-90750000D01*
X151025000Y-90750000D01*
X151025000Y-91750000D01*
X150525000Y-91750000D01*
X150525000Y-90374000D01*
X150544685Y-90306961D01*
X150597489Y-90261206D01*
X150649000Y-90250000D01*
X151724999Y-90250000D01*
X151744332Y-90230666D01*
X151744684Y-90229469D01*
X151751021Y-90223977D01*
X151761318Y-90213681D01*
X151762054Y-90214417D01*
X151797488Y-90183714D01*
X151848999Y-90172508D01*
X160309778Y-90172508D01*
X160376817Y-90192193D01*
G37*
G04 #@! TD.AperFunction*
G04 #@! TA.AperFunction,Conductor*
G36*
X154893705Y-92395185D02*
G01*
X154939460Y-92447989D01*
X154949886Y-92513384D01*
X154944435Y-92561763D01*
X154944435Y-92561769D01*
X154964630Y-92741015D01*
X154964633Y-92741028D01*
X155024208Y-92911283D01*
X155057905Y-92964912D01*
X155076904Y-93032149D01*
X155057905Y-93096854D01*
X155024210Y-93150480D01*
X154964630Y-93320750D01*
X154959326Y-93367825D01*
X154932258Y-93432238D01*
X154923788Y-93441620D01*
X154527227Y-93838182D01*
X154465907Y-93871666D01*
X154439548Y-93874500D01*
X151854700Y-93874500D01*
X151811367Y-93866682D01*
X151795095Y-93860613D01*
X151782481Y-93855908D01*
X151722883Y-93849501D01*
X151722881Y-93849500D01*
X151722873Y-93849500D01*
X151722865Y-93849500D01*
X151274499Y-93849500D01*
X151207460Y-93829815D01*
X151161705Y-93777011D01*
X151150499Y-93725500D01*
X151150499Y-93699500D01*
X151170184Y-93632461D01*
X151222988Y-93586706D01*
X151274499Y-93575500D01*
X152061608Y-93575500D01*
X152061608Y-93575499D01*
X152131458Y-93561606D01*
X152131459Y-93561606D01*
X152157308Y-93556464D01*
X152182452Y-93551463D01*
X152238271Y-93528342D01*
X152296286Y-93504312D01*
X152347509Y-93470084D01*
X152398733Y-93435858D01*
X152485858Y-93348733D01*
X152485859Y-93348731D01*
X152492925Y-93341665D01*
X152492927Y-93341661D01*
X153422771Y-92411819D01*
X153484094Y-92378334D01*
X153510452Y-92375500D01*
X154826666Y-92375500D01*
X154893705Y-92395185D01*
G37*
G04 #@! TD.AperFunction*
G04 #@! TA.AperFunction,Conductor*
G36*
X150702226Y-50505506D02*
G01*
X152099094Y-50545052D01*
X152102544Y-50545198D01*
X153497767Y-50624260D01*
X153501207Y-50624503D01*
X154799262Y-50734984D01*
X154893616Y-50743015D01*
X154897111Y-50743362D01*
X156285626Y-50901231D01*
X156289021Y-50901666D01*
X157600668Y-51088531D01*
X157672493Y-51098764D01*
X157675963Y-51099308D01*
X159053323Y-51335480D01*
X159056677Y-51336105D01*
X160426816Y-51611162D01*
X160430181Y-51611887D01*
X161791992Y-51925610D01*
X161795353Y-51926434D01*
X163147730Y-52278565D01*
X163151022Y-52279472D01*
X164307811Y-52615905D01*
X164492913Y-52669740D01*
X164496268Y-52670768D01*
X165826479Y-53098821D01*
X165829805Y-53099943D01*
X167147424Y-53565487D01*
X167150670Y-53566686D01*
X168454594Y-54069334D01*
X168457819Y-54070630D01*
X169721324Y-54599236D01*
X169746962Y-54609962D01*
X169750180Y-54611362D01*
X171023526Y-55186951D01*
X171026700Y-55188439D01*
X172283292Y-55799853D01*
X172286412Y-55801426D01*
X173525181Y-56448147D01*
X173528268Y-56449815D01*
X174748245Y-57131335D01*
X174751252Y-57133071D01*
X175951466Y-57848849D01*
X175954384Y-57850645D01*
X177133883Y-58600115D01*
X177136812Y-58602035D01*
X178294615Y-59384574D01*
X178297433Y-59386537D01*
X179432616Y-60201518D01*
X179435438Y-60203605D01*
X180547093Y-61050377D01*
X180549843Y-61052535D01*
X181637094Y-61930427D01*
X181639759Y-61932641D01*
X182701712Y-62840936D01*
X182704347Y-62843254D01*
X183740205Y-63781267D01*
X183742772Y-63783659D01*
X184751656Y-64750596D01*
X184754113Y-64753018D01*
X185296267Y-65302899D01*
X185735227Y-65748115D01*
X185737656Y-65750649D01*
X186690216Y-66773112D01*
X186692571Y-66775713D01*
X187615801Y-67824706D01*
X187618082Y-67827373D01*
X188511261Y-68902076D01*
X188513466Y-68904807D01*
X189375853Y-70004331D01*
X189377980Y-70007122D01*
X190208958Y-71130678D01*
X190211004Y-71133529D01*
X191009817Y-72280099D01*
X191011782Y-72283007D01*
X191777813Y-73451697D01*
X191779696Y-73454659D01*
X192512389Y-74644630D01*
X192514186Y-74647644D01*
X192927341Y-75363248D01*
X193046450Y-75569552D01*
X193212879Y-75857814D01*
X193214591Y-75860878D01*
X193878776Y-77090372D01*
X193880400Y-77093483D01*
X194509519Y-78341266D01*
X194511054Y-78344421D01*
X195104603Y-79609493D01*
X195106049Y-79612691D01*
X195663581Y-80894100D01*
X195664935Y-80897338D01*
X196185949Y-82193931D01*
X196187212Y-82197205D01*
X196671355Y-83508105D01*
X196672524Y-83511414D01*
X197119366Y-84835454D01*
X197120441Y-84838795D01*
X197529634Y-86174952D01*
X197530614Y-86178322D01*
X197901833Y-87525528D01*
X197902717Y-87528924D01*
X198235658Y-88886079D01*
X198236446Y-88889499D01*
X198530851Y-90255541D01*
X198531542Y-90258982D01*
X198787173Y-91632816D01*
X198787766Y-91636274D01*
X199004417Y-93016793D01*
X199004912Y-93020268D01*
X199182409Y-94406372D01*
X199182805Y-94409859D01*
X199321001Y-95800387D01*
X199321299Y-95803883D01*
X199420096Y-97197832D01*
X199420294Y-97201336D01*
X199479600Y-98597443D01*
X199479700Y-98600951D01*
X199499475Y-99998245D01*
X199499475Y-100001755D01*
X199479700Y-101399048D01*
X199479600Y-101402556D01*
X199420294Y-102798663D01*
X199420096Y-102802167D01*
X199321299Y-104196116D01*
X199321001Y-104199612D01*
X199182805Y-105590140D01*
X199182409Y-105593627D01*
X199004912Y-106979731D01*
X199004417Y-106983206D01*
X198787766Y-108363725D01*
X198787173Y-108367183D01*
X198531542Y-109741017D01*
X198530851Y-109744458D01*
X198236446Y-111110500D01*
X198235658Y-111113920D01*
X197902717Y-112471075D01*
X197901833Y-112474471D01*
X197530614Y-113821677D01*
X197529634Y-113825047D01*
X197120441Y-115161204D01*
X197119366Y-115164545D01*
X196672524Y-116488585D01*
X196671355Y-116491894D01*
X196187212Y-117802794D01*
X196185949Y-117806068D01*
X195664935Y-119102661D01*
X195663581Y-119105899D01*
X195106049Y-120387308D01*
X195104603Y-120390506D01*
X194511054Y-121655578D01*
X194509519Y-121658733D01*
X193880400Y-122906516D01*
X193878776Y-122909627D01*
X193214591Y-124139121D01*
X193212879Y-124142185D01*
X192514186Y-125352355D01*
X192512389Y-125355369D01*
X191779696Y-126545340D01*
X191777813Y-126548302D01*
X191011782Y-127716992D01*
X191009817Y-127719900D01*
X190211004Y-128866470D01*
X190208958Y-128869321D01*
X189377980Y-129992877D01*
X189375853Y-129995668D01*
X188513466Y-131095192D01*
X188511261Y-131097923D01*
X187618082Y-132172626D01*
X187615801Y-132175293D01*
X186692571Y-133224286D01*
X186690216Y-133226887D01*
X185737656Y-134249350D01*
X185735227Y-134251884D01*
X184754134Y-135246960D01*
X184751635Y-135249424D01*
X183742772Y-136216340D01*
X183740205Y-136218732D01*
X182704347Y-137156745D01*
X182701712Y-137159063D01*
X181639776Y-138067343D01*
X181637077Y-138069586D01*
X180549854Y-138947456D01*
X180547093Y-138949622D01*
X179435438Y-139796394D01*
X179432616Y-139798481D01*
X178297464Y-140613440D01*
X178294585Y-140615446D01*
X177136818Y-141397960D01*
X177133883Y-141399884D01*
X175954419Y-142149332D01*
X175951430Y-142151172D01*
X174751268Y-142866918D01*
X174748229Y-142868673D01*
X173528268Y-143550184D01*
X173525181Y-143551852D01*
X172286412Y-144198573D01*
X172283278Y-144200153D01*
X171026703Y-144811558D01*
X171023526Y-144813048D01*
X169750180Y-145388637D01*
X169746962Y-145390037D01*
X168457835Y-145929362D01*
X168454578Y-145930671D01*
X167150693Y-146433304D01*
X167147401Y-146434520D01*
X165829804Y-146900056D01*
X165826479Y-146901178D01*
X164496268Y-147329231D01*
X164492913Y-147330259D01*
X163151067Y-147720514D01*
X163147683Y-147721446D01*
X161795376Y-148073559D01*
X161791968Y-148074395D01*
X160430214Y-148388105D01*
X160426783Y-148388844D01*
X159056725Y-148663885D01*
X159053275Y-148664527D01*
X157675960Y-148900691D01*
X157672493Y-148901235D01*
X156289064Y-149098327D01*
X156285583Y-149098773D01*
X154897108Y-149256637D01*
X154893616Y-149256984D01*
X153501238Y-149375493D01*
X153497737Y-149375741D01*
X152102572Y-149454799D01*
X152099066Y-149454948D01*
X150702226Y-149494494D01*
X150698717Y-149494544D01*
X149301283Y-149494544D01*
X149297774Y-149494494D01*
X147900933Y-149454948D01*
X147897427Y-149454799D01*
X146502262Y-149375741D01*
X146498761Y-149375493D01*
X145106383Y-149256984D01*
X145102891Y-149256637D01*
X143714416Y-149098773D01*
X143710935Y-149098327D01*
X142327506Y-148901235D01*
X142324039Y-148900691D01*
X140946724Y-148664527D01*
X140943274Y-148663885D01*
X139573216Y-148388844D01*
X139569785Y-148388105D01*
X138208031Y-148074395D01*
X138204623Y-148073559D01*
X136852316Y-147721446D01*
X136848932Y-147720514D01*
X135507086Y-147330259D01*
X135503731Y-147329231D01*
X134173520Y-146901178D01*
X134170195Y-146900056D01*
X132852598Y-146434520D01*
X132849306Y-146433304D01*
X131545421Y-145930671D01*
X131542164Y-145929362D01*
X130253037Y-145390037D01*
X130249819Y-145388637D01*
X128976473Y-144813048D01*
X128973296Y-144811558D01*
X127716721Y-144200153D01*
X127713587Y-144198573D01*
X126474818Y-143551852D01*
X126471731Y-143550184D01*
X125251770Y-142868673D01*
X125248731Y-142866918D01*
X124933524Y-142678936D01*
X124048553Y-142151162D01*
X124045596Y-142149342D01*
X122866116Y-141399884D01*
X122863181Y-141397960D01*
X121705414Y-140615446D01*
X121702535Y-140613440D01*
X120567383Y-139798481D01*
X120564561Y-139796394D01*
X119452906Y-138949622D01*
X119450145Y-138947456D01*
X118362922Y-138069586D01*
X118360223Y-138067343D01*
X117298287Y-137159063D01*
X117295652Y-137156745D01*
X116259794Y-136218732D01*
X116257227Y-136216340D01*
X116168621Y-136131418D01*
X115248343Y-135249404D01*
X115245886Y-135246980D01*
X114264759Y-134251871D01*
X114262343Y-134249350D01*
X113309783Y-133226887D01*
X113307428Y-133224286D01*
X112384198Y-132175293D01*
X112381917Y-132172626D01*
X111488738Y-131097923D01*
X111486533Y-131095192D01*
X110624146Y-129995668D01*
X110622019Y-129992877D01*
X109791041Y-128869321D01*
X109788995Y-128866470D01*
X108990182Y-127719900D01*
X108988217Y-127716992D01*
X108822804Y-127464631D01*
X108222165Y-126548269D01*
X108220323Y-126545372D01*
X107511707Y-125394505D01*
X107487610Y-125355369D01*
X107485813Y-125352355D01*
X107282382Y-125000003D01*
X106787096Y-124142143D01*
X106785431Y-124139162D01*
X106121211Y-122909605D01*
X106119599Y-122906516D01*
X106039544Y-122747737D01*
X105490478Y-121658730D01*
X105488945Y-121655578D01*
X105476857Y-121629815D01*
X105348150Y-121355491D01*
X104895396Y-120390506D01*
X104893950Y-120387308D01*
X104503164Y-119489142D01*
X104336409Y-119105877D01*
X104335064Y-119102661D01*
X103814039Y-117806040D01*
X103812787Y-117802794D01*
X103767161Y-117679255D01*
X103328642Y-116491890D01*
X103327475Y-116488585D01*
X102880614Y-115164488D01*
X102879576Y-115161261D01*
X102470352Y-113825004D01*
X102469397Y-113821721D01*
X102098153Y-112474422D01*
X102097295Y-112471125D01*
X101764340Y-111113919D01*
X101763553Y-111110500D01*
X101469148Y-109744458D01*
X101468457Y-109741017D01*
X101212826Y-108367183D01*
X101212233Y-108363725D01*
X100995575Y-106983160D01*
X100995093Y-106979777D01*
X100817583Y-105593574D01*
X100817200Y-105590195D01*
X100678997Y-104199610D01*
X100678700Y-104196116D01*
X100659786Y-103929249D01*
X100579900Y-102802124D01*
X100579707Y-102798708D01*
X100520398Y-101402521D01*
X100520299Y-101399083D01*
X100500524Y-100001695D01*
X100500524Y-99998304D01*
X100518190Y-98749996D01*
X113444435Y-98749996D01*
X113444435Y-98750003D01*
X113464630Y-98929249D01*
X113464631Y-98929254D01*
X113524211Y-99099523D01*
X113581138Y-99190121D01*
X113620184Y-99252262D01*
X113747738Y-99379816D01*
X113807120Y-99417128D01*
X113853410Y-99469461D01*
X113864059Y-99538515D01*
X113835684Y-99602363D01*
X113828829Y-99609802D01*
X113667049Y-99771582D01*
X113617812Y-99845271D01*
X113584921Y-99894496D01*
X113584914Y-99894508D01*
X113528342Y-100031086D01*
X113528340Y-100031092D01*
X113499500Y-100176079D01*
X113499500Y-100950028D01*
X113492542Y-100990982D01*
X113464631Y-101070747D01*
X113444435Y-101249996D01*
X113444435Y-101250003D01*
X113464630Y-101429249D01*
X113464631Y-101429254D01*
X113524211Y-101599523D01*
X113601653Y-101722770D01*
X113620184Y-101752262D01*
X113747738Y-101879816D01*
X113900478Y-101975789D01*
X114058496Y-102031082D01*
X114070745Y-102035368D01*
X114070750Y-102035369D01*
X114249996Y-102055565D01*
X114250000Y-102055565D01*
X114250004Y-102055565D01*
X114429249Y-102035369D01*
X114429252Y-102035368D01*
X114429255Y-102035368D01*
X114599522Y-101975789D01*
X114752262Y-101879816D01*
X114879816Y-101752262D01*
X114975789Y-101599522D01*
X115035368Y-101429255D01*
X115035369Y-101429249D01*
X115055565Y-101250003D01*
X115055565Y-101249996D01*
X115035368Y-101070747D01*
X115035368Y-101070745D01*
X115007458Y-100990982D01*
X115000500Y-100950028D01*
X115000500Y-100612229D01*
X115020185Y-100545190D01*
X115036819Y-100524548D01*
X121774548Y-93786819D01*
X121835871Y-93753334D01*
X121862229Y-93750500D01*
X139638770Y-93750500D01*
X139705809Y-93770185D01*
X139751564Y-93822989D01*
X139761508Y-93892147D01*
X139732483Y-93955703D01*
X139726451Y-93962181D01*
X131917048Y-101771583D01*
X131910698Y-101781087D01*
X131877686Y-101830495D01*
X131834919Y-101894499D01*
X131834912Y-101894511D01*
X131778343Y-102031082D01*
X131778340Y-102031092D01*
X131749500Y-102176079D01*
X131749500Y-113887769D01*
X131729815Y-113954808D01*
X131713181Y-113975450D01*
X131167050Y-114521580D01*
X131167044Y-114521588D01*
X131117812Y-114595268D01*
X131117813Y-114595269D01*
X131084921Y-114644496D01*
X131084914Y-114644508D01*
X131028342Y-114781086D01*
X131028340Y-114781092D01*
X130999500Y-114926079D01*
X130999500Y-116387770D01*
X130979815Y-116454809D01*
X130963181Y-116475451D01*
X124975451Y-122463181D01*
X124914128Y-122496666D01*
X124887770Y-122499500D01*
X122799972Y-122499500D01*
X122759017Y-122492542D01*
X122679254Y-122464631D01*
X122679249Y-122464630D01*
X122500004Y-122444435D01*
X122499996Y-122444435D01*
X122320750Y-122464630D01*
X122320745Y-122464631D01*
X122150476Y-122524211D01*
X121997737Y-122620184D01*
X121870184Y-122747737D01*
X121774211Y-122900476D01*
X121714631Y-123070745D01*
X121714630Y-123070750D01*
X121694435Y-123249996D01*
X121694435Y-123250003D01*
X121714630Y-123429249D01*
X121714631Y-123429254D01*
X121774211Y-123599523D01*
X121868760Y-123749996D01*
X121870184Y-123752262D01*
X121997738Y-123879816D01*
X122150478Y-123975789D01*
X122320745Y-124035368D01*
X122320750Y-124035369D01*
X122499996Y-124055565D01*
X122500000Y-124055565D01*
X122500004Y-124055565D01*
X122679249Y-124035369D01*
X122679252Y-124035368D01*
X122679255Y-124035368D01*
X122759017Y-124007457D01*
X122799972Y-124000500D01*
X123952886Y-124000500D01*
X124019925Y-124020185D01*
X124065680Y-124072989D01*
X124075624Y-124142147D01*
X124046599Y-124205703D01*
X123993840Y-124241542D01*
X123900478Y-124274210D01*
X123747737Y-124370184D01*
X123620184Y-124497737D01*
X123524211Y-124650476D01*
X123464631Y-124820745D01*
X123464630Y-124820750D01*
X123444435Y-124999996D01*
X123444435Y-125000003D01*
X123464630Y-125179249D01*
X123464631Y-125179254D01*
X123524211Y-125349523D01*
X123620184Y-125502262D01*
X123747738Y-125629816D01*
X123838080Y-125686582D01*
X123893903Y-125721658D01*
X123900478Y-125725789D01*
X123969678Y-125750003D01*
X124070745Y-125785368D01*
X124070750Y-125785369D01*
X124249996Y-125805565D01*
X124250000Y-125805565D01*
X124250004Y-125805565D01*
X124429249Y-125785369D01*
X124429252Y-125785368D01*
X124429255Y-125785368D01*
X124509017Y-125757457D01*
X124549972Y-125750500D01*
X125073920Y-125750500D01*
X125171462Y-125731096D01*
X125218913Y-125721658D01*
X125355495Y-125665084D01*
X125408277Y-125629816D01*
X125478416Y-125582952D01*
X130787819Y-120273547D01*
X130849142Y-120240063D01*
X130918834Y-120245047D01*
X130974767Y-120286919D01*
X130999184Y-120352383D01*
X130999500Y-120361229D01*
X130999500Y-121637770D01*
X130979815Y-121704809D01*
X130963181Y-121725451D01*
X126725451Y-125963181D01*
X126664128Y-125996666D01*
X126637770Y-125999500D01*
X126299972Y-125999500D01*
X126259017Y-125992542D01*
X126179254Y-125964631D01*
X126179249Y-125964630D01*
X126000004Y-125944435D01*
X125999996Y-125944435D01*
X125820750Y-125964630D01*
X125820745Y-125964631D01*
X125650476Y-126024211D01*
X125497737Y-126120184D01*
X125370184Y-126247737D01*
X125274211Y-126400476D01*
X125214631Y-126570745D01*
X125214630Y-126570750D01*
X125194435Y-126749996D01*
X125194435Y-126750003D01*
X125214630Y-126929249D01*
X125214631Y-126929254D01*
X125274211Y-127099523D01*
X125368760Y-127249996D01*
X125370184Y-127252262D01*
X125497738Y-127379816D01*
X125572848Y-127427011D01*
X125643903Y-127471658D01*
X125650478Y-127475789D01*
X125721098Y-127500500D01*
X125820745Y-127535368D01*
X125820750Y-127535369D01*
X125999996Y-127555565D01*
X126000000Y-127555565D01*
X126000004Y-127555565D01*
X126179249Y-127535369D01*
X126179252Y-127535368D01*
X126179255Y-127535368D01*
X126259017Y-127507457D01*
X126299972Y-127500500D01*
X127073920Y-127500500D01*
X127177906Y-127479815D01*
X127218913Y-127471658D01*
X127355495Y-127415084D01*
X127408277Y-127379816D01*
X127478416Y-127332952D01*
X130787819Y-124023547D01*
X130849142Y-123990063D01*
X130918834Y-123995047D01*
X130974767Y-124036919D01*
X130999184Y-124102383D01*
X130999500Y-124111229D01*
X130999500Y-124637769D01*
X130979815Y-124704808D01*
X130963181Y-124725450D01*
X127691937Y-127996693D01*
X127655876Y-128019362D01*
X127656756Y-128021188D01*
X127650478Y-128024211D01*
X127497737Y-128120184D01*
X127370184Y-128247737D01*
X127274211Y-128400476D01*
X127214631Y-128570745D01*
X127214630Y-128570750D01*
X127194435Y-128749996D01*
X127194435Y-128750003D01*
X127214630Y-128929249D01*
X127214631Y-128929254D01*
X127274211Y-129099523D01*
X127353723Y-129226064D01*
X127370184Y-129252262D01*
X127497738Y-129379816D01*
X127650478Y-129475789D01*
X127820745Y-129535368D01*
X127820750Y-129535369D01*
X127999996Y-129555565D01*
X128000000Y-129555565D01*
X128000004Y-129555565D01*
X128179249Y-129535369D01*
X128179252Y-129535368D01*
X128179255Y-129535368D01*
X128349522Y-129475789D01*
X128502262Y-129379816D01*
X128629816Y-129252262D01*
X128725789Y-129099522D01*
X128725790Y-129099518D01*
X128728811Y-129093246D01*
X128730647Y-129094130D01*
X128753309Y-129058059D01*
X128774552Y-129036817D01*
X128835876Y-129003333D01*
X128862231Y-129000500D01*
X151200028Y-129000500D01*
X151240983Y-129007458D01*
X151320745Y-129035368D01*
X151320750Y-129035369D01*
X151499996Y-129055565D01*
X151500000Y-129055565D01*
X151500004Y-129055565D01*
X151679249Y-129035369D01*
X151679252Y-129035368D01*
X151679255Y-129035368D01*
X151849522Y-128975789D01*
X152002262Y-128879816D01*
X152129816Y-128752262D01*
X152225789Y-128599522D01*
X152285368Y-128429255D01*
X152285369Y-128429249D01*
X152305565Y-128250003D01*
X152305565Y-128249996D01*
X152285369Y-128070750D01*
X152285368Y-128070745D01*
X152225788Y-127900476D01*
X152186582Y-127838080D01*
X152129816Y-127747738D01*
X152002262Y-127620184D01*
X151969377Y-127599521D01*
X151849523Y-127524211D01*
X151679254Y-127464631D01*
X151679249Y-127464630D01*
X151500004Y-127444435D01*
X151499996Y-127444435D01*
X151320750Y-127464630D01*
X151320745Y-127464631D01*
X151240983Y-127492542D01*
X151200028Y-127499500D01*
X130611230Y-127499500D01*
X130544191Y-127479815D01*
X130498436Y-127427011D01*
X130488492Y-127357853D01*
X130517517Y-127294297D01*
X130523549Y-127287819D01*
X131410892Y-126400476D01*
X132332952Y-125478416D01*
X132385027Y-125400478D01*
X132389017Y-125394507D01*
X132389018Y-125394505D01*
X132415084Y-125355495D01*
X132471658Y-125218913D01*
X132500500Y-125073918D01*
X132500500Y-120926082D01*
X132500500Y-117176082D01*
X132500500Y-115362229D01*
X132520185Y-115295190D01*
X132536819Y-115274548D01*
X133082948Y-114728419D01*
X133082951Y-114728416D01*
X133165084Y-114605495D01*
X133221658Y-114468913D01*
X133250500Y-114323918D01*
X133250500Y-114176083D01*
X133250500Y-102612228D01*
X133270185Y-102545189D01*
X133286814Y-102524552D01*
X140808059Y-95003306D01*
X140844132Y-94980657D01*
X140843244Y-94978813D01*
X140849515Y-94975792D01*
X140849516Y-94975790D01*
X140849522Y-94975789D01*
X141002262Y-94879816D01*
X141129816Y-94752262D01*
X141225789Y-94599522D01*
X141285368Y-94429255D01*
X141287554Y-94409859D01*
X141305565Y-94250000D01*
X141305565Y-94249996D01*
X141285369Y-94070750D01*
X141285367Y-94070742D01*
X141231030Y-93915454D01*
X141227469Y-93845676D01*
X141262198Y-93785048D01*
X141324191Y-93752821D01*
X141348072Y-93750500D01*
X143478044Y-93750500D01*
X143545083Y-93770185D01*
X143590838Y-93822989D01*
X143601264Y-93860616D01*
X143614630Y-93979247D01*
X143614632Y-93979256D01*
X143620214Y-93995207D01*
X143627173Y-94036162D01*
X143627173Y-94760097D01*
X143607488Y-94827136D01*
X143590854Y-94847778D01*
X136917047Y-101521584D01*
X136917043Y-101521589D01*
X136874733Y-101584914D01*
X136874732Y-101584916D01*
X136834919Y-101644499D01*
X136834912Y-101644511D01*
X136778343Y-101781082D01*
X136778340Y-101781092D01*
X136749500Y-101926079D01*
X136749500Y-105200028D01*
X136742542Y-105240982D01*
X136714631Y-105320747D01*
X136694435Y-105499996D01*
X136694435Y-105500003D01*
X136714630Y-105679249D01*
X136714631Y-105679254D01*
X136774211Y-105849523D01*
X136852541Y-105974184D01*
X136870184Y-106002262D01*
X136997738Y-106129816D01*
X137150478Y-106225789D01*
X137320745Y-106285368D01*
X137320750Y-106285369D01*
X137499996Y-106305565D01*
X137500000Y-106305565D01*
X137500004Y-106305565D01*
X137679249Y-106285369D01*
X137679252Y-106285368D01*
X137679255Y-106285368D01*
X137849522Y-106225789D01*
X138002262Y-106129816D01*
X138129816Y-106002262D01*
X138225789Y-105849522D01*
X138285368Y-105679255D01*
X138285494Y-105678136D01*
X138305565Y-105500003D01*
X138305565Y-105499996D01*
X138285368Y-105320747D01*
X138285368Y-105320745D01*
X138257458Y-105240982D01*
X138250500Y-105200028D01*
X138250500Y-102362229D01*
X138270185Y-102295190D01*
X138286819Y-102274548D01*
X141537819Y-99023548D01*
X141599142Y-98990063D01*
X141668834Y-98995047D01*
X141724767Y-99036919D01*
X141749184Y-99102383D01*
X141749500Y-99111229D01*
X141749500Y-100073918D01*
X141749500Y-100073920D01*
X141749499Y-100073920D01*
X141778340Y-100218907D01*
X141778343Y-100218917D01*
X141834913Y-100355489D01*
X141834914Y-100355491D01*
X141834916Y-100355495D01*
X141847559Y-100374417D01*
X141847617Y-100374503D01*
X141847616Y-100374503D01*
X141917046Y-100478414D01*
X141917052Y-100478421D01*
X143496581Y-102057950D01*
X143496584Y-102057952D01*
X143561704Y-102101463D01*
X143619505Y-102140084D01*
X143756087Y-102196658D01*
X143756091Y-102196658D01*
X143756092Y-102196659D01*
X143901079Y-102225500D01*
X143901082Y-102225500D01*
X143901083Y-102225500D01*
X144048917Y-102225500D01*
X144660359Y-102225500D01*
X144727398Y-102245185D01*
X144773153Y-102297989D01*
X144784359Y-102349500D01*
X144784359Y-105400346D01*
X144777401Y-105441300D01*
X144749490Y-105521065D01*
X144729294Y-105700314D01*
X144729294Y-105700321D01*
X144749489Y-105879567D01*
X144749490Y-105879572D01*
X144809070Y-106049841D01*
X144859322Y-106129816D01*
X144905043Y-106202580D01*
X145032597Y-106330134D01*
X145185337Y-106426107D01*
X145327320Y-106475789D01*
X145355604Y-106485686D01*
X145355609Y-106485687D01*
X145514383Y-106503576D01*
X145578797Y-106530642D01*
X145618352Y-106588237D01*
X145624500Y-106626796D01*
X145624500Y-120061611D01*
X145648535Y-120182444D01*
X145648540Y-120182461D01*
X145695685Y-120296281D01*
X145695687Y-120296284D01*
X145721501Y-120334916D01*
X145721502Y-120334918D01*
X145764140Y-120398731D01*
X145764141Y-120398732D01*
X145764142Y-120398733D01*
X145851267Y-120485858D01*
X145851268Y-120485858D01*
X145858335Y-120492925D01*
X145858334Y-120492925D01*
X145858338Y-120492928D01*
X146423787Y-121058378D01*
X146457272Y-121119701D01*
X146459326Y-121132174D01*
X146464630Y-121179249D01*
X146524210Y-121349521D01*
X146605202Y-121478418D01*
X146620184Y-121502262D01*
X146747738Y-121629816D01*
X146760397Y-121637770D01*
X146867088Y-121704809D01*
X146900478Y-121725789D01*
X147031344Y-121771581D01*
X147070745Y-121785368D01*
X147070750Y-121785369D01*
X147249996Y-121805565D01*
X147250000Y-121805565D01*
X147250004Y-121805565D01*
X147429249Y-121785369D01*
X147429252Y-121785368D01*
X147429255Y-121785368D01*
X147599522Y-121725789D01*
X147752262Y-121629816D01*
X147879816Y-121502262D01*
X147975789Y-121349522D01*
X148035368Y-121179255D01*
X148035369Y-121179249D01*
X148055565Y-121000003D01*
X148055565Y-120993036D01*
X148057637Y-120993036D01*
X148067949Y-120934140D01*
X148115295Y-120882757D01*
X148182904Y-120865129D01*
X148249311Y-120886851D01*
X148266799Y-120901390D01*
X148423787Y-121058378D01*
X148457272Y-121119701D01*
X148459326Y-121132174D01*
X148464630Y-121179249D01*
X148524210Y-121349521D01*
X148605202Y-121478418D01*
X148620184Y-121502262D01*
X148747738Y-121629816D01*
X148760397Y-121637770D01*
X148867088Y-121704809D01*
X148900478Y-121725789D01*
X149031344Y-121771581D01*
X149070745Y-121785368D01*
X149070750Y-121785369D01*
X149249996Y-121805565D01*
X149250000Y-121805565D01*
X149250004Y-121805565D01*
X149429249Y-121785369D01*
X149429252Y-121785368D01*
X149429255Y-121785368D01*
X149599522Y-121725789D01*
X149752262Y-121629816D01*
X149879816Y-121502262D01*
X149975789Y-121349522D01*
X149975790Y-121349520D01*
X149977692Y-121345571D01*
X150024512Y-121293709D01*
X150091938Y-121275394D01*
X150158563Y-121296439D01*
X150177095Y-121311687D01*
X150351263Y-121485855D01*
X150351267Y-121485858D01*
X150453710Y-121554309D01*
X150453711Y-121554309D01*
X150453715Y-121554312D01*
X150520396Y-121581931D01*
X150520398Y-121581933D01*
X150567543Y-121601461D01*
X150567548Y-121601463D01*
X150587597Y-121605451D01*
X150600231Y-121607964D01*
X150688392Y-121625501D01*
X150688394Y-121625501D01*
X150817721Y-121625501D01*
X150817741Y-121625500D01*
X152705145Y-121625500D01*
X152771117Y-121644506D01*
X152867088Y-121704809D01*
X152900478Y-121725789D01*
X153031344Y-121771581D01*
X153070745Y-121785368D01*
X153070750Y-121785369D01*
X153249996Y-121805565D01*
X153250000Y-121805565D01*
X153250004Y-121805565D01*
X153429249Y-121785369D01*
X153429252Y-121785368D01*
X153429255Y-121785368D01*
X153599522Y-121725789D01*
X153752262Y-121629816D01*
X153879816Y-121502262D01*
X153888872Y-121487848D01*
X153941204Y-121441558D01*
X154010258Y-121430908D01*
X154074107Y-121459282D01*
X154081547Y-121466139D01*
X154101264Y-121485856D01*
X154101267Y-121485858D01*
X154152490Y-121520084D01*
X154203714Y-121554312D01*
X154272856Y-121582951D01*
X154317548Y-121601463D01*
X154350232Y-121607964D01*
X154373980Y-121612688D01*
X154374000Y-121612691D01*
X154374022Y-121612696D01*
X154438391Y-121625499D01*
X154438392Y-121625500D01*
X154438393Y-121625500D01*
X154438394Y-121625500D01*
X154705145Y-121625500D01*
X154771117Y-121644506D01*
X154867088Y-121704809D01*
X154900478Y-121725789D01*
X155031344Y-121771581D01*
X155070745Y-121785368D01*
X155070750Y-121785369D01*
X155249996Y-121805565D01*
X155250000Y-121805565D01*
X155250004Y-121805565D01*
X155429249Y-121785369D01*
X155429252Y-121785368D01*
X155429255Y-121785368D01*
X155599522Y-121725789D01*
X155706241Y-121658733D01*
X155758159Y-121626111D01*
X155759498Y-121628243D01*
X155813382Y-121606229D01*
X155850230Y-121607963D01*
X155874022Y-121612696D01*
X155938391Y-121625499D01*
X155938392Y-121625500D01*
X155938393Y-121625500D01*
X155938394Y-121625500D01*
X156705145Y-121625500D01*
X156771117Y-121644506D01*
X156867088Y-121704809D01*
X156900478Y-121725789D01*
X157031344Y-121771581D01*
X157070745Y-121785368D01*
X157070750Y-121785369D01*
X157249996Y-121805565D01*
X157250000Y-121805565D01*
X157250004Y-121805565D01*
X157429249Y-121785369D01*
X157429252Y-121785368D01*
X157429255Y-121785368D01*
X157599522Y-121725789D01*
X157752262Y-121629816D01*
X157879816Y-121502262D01*
X157975789Y-121349522D01*
X158035368Y-121179255D01*
X158035369Y-121179249D01*
X158055565Y-121000003D01*
X158055565Y-120999996D01*
X158035369Y-120820750D01*
X158035368Y-120820745D01*
X158002023Y-120725451D01*
X157975789Y-120650478D01*
X157879816Y-120497738D01*
X157752262Y-120370184D01*
X157728883Y-120355494D01*
X157599523Y-120274211D01*
X157429254Y-120214631D01*
X157429249Y-120214630D01*
X157250004Y-120194435D01*
X157249996Y-120194435D01*
X157070750Y-120214630D01*
X157070745Y-120214631D01*
X156900476Y-120274211D01*
X156771117Y-120355494D01*
X156705145Y-120374500D01*
X156536891Y-120374500D01*
X156469852Y-120354815D01*
X156424097Y-120302011D01*
X156422338Y-120297972D01*
X156421647Y-120296304D01*
X156421645Y-120296285D01*
X156421641Y-120296287D01*
X156412222Y-120273548D01*
X156404312Y-120254451D01*
X156335858Y-120152003D01*
X156335855Y-120151999D01*
X155767192Y-119583338D01*
X155767189Y-119583334D01*
X155767189Y-119583335D01*
X155760122Y-119576268D01*
X155760122Y-119576267D01*
X155672997Y-119489142D01*
X155672996Y-119489141D01*
X155672995Y-119489140D01*
X155607964Y-119445688D01*
X155570550Y-119420688D01*
X155570551Y-119420688D01*
X155570549Y-119420687D01*
X155530303Y-119404017D01*
X155490056Y-119387347D01*
X155456717Y-119373537D01*
X155446691Y-119371543D01*
X155396293Y-119361518D01*
X155335874Y-119349500D01*
X155335871Y-119349500D01*
X155335870Y-119349500D01*
X152785453Y-119349500D01*
X152718414Y-119329815D01*
X152697772Y-119313181D01*
X150161819Y-116777228D01*
X150128334Y-116715905D01*
X150125500Y-116689547D01*
X150125500Y-106736229D01*
X150145185Y-106669190D01*
X150197989Y-106623435D01*
X150267147Y-106613491D01*
X150330703Y-106642516D01*
X150337181Y-106648548D01*
X161771580Y-118082948D01*
X161771584Y-118082951D01*
X161894498Y-118165080D01*
X161894511Y-118165087D01*
X162031082Y-118221656D01*
X162031087Y-118221658D01*
X162031091Y-118221658D01*
X162031092Y-118221659D01*
X162176079Y-118250500D01*
X162176082Y-118250500D01*
X162323917Y-118250500D01*
X164700028Y-118250500D01*
X164740983Y-118257458D01*
X164820745Y-118285368D01*
X164820750Y-118285369D01*
X164999996Y-118305565D01*
X165000000Y-118305565D01*
X165000004Y-118305565D01*
X165179249Y-118285369D01*
X165179252Y-118285368D01*
X165179255Y-118285368D01*
X165349522Y-118225789D01*
X165502262Y-118129816D01*
X165629816Y-118002262D01*
X165725789Y-117849522D01*
X165785368Y-117679255D01*
X165785369Y-117679249D01*
X165805565Y-117500003D01*
X165805565Y-117499996D01*
X165785369Y-117320750D01*
X165785368Y-117320745D01*
X165725788Y-117150476D01*
X165629815Y-116997737D01*
X165502262Y-116870184D01*
X165349523Y-116774211D01*
X165179254Y-116714631D01*
X165179249Y-116714630D01*
X165000004Y-116694435D01*
X164999996Y-116694435D01*
X164820750Y-116714630D01*
X164820745Y-116714631D01*
X164740983Y-116742542D01*
X164700028Y-116749500D01*
X162612229Y-116749500D01*
X162545190Y-116729815D01*
X162524548Y-116713181D01*
X152421170Y-106609802D01*
X152387685Y-106548479D01*
X152392669Y-106478787D01*
X152434541Y-106422854D01*
X152442853Y-106417144D01*
X152502262Y-106379816D01*
X152629816Y-106252262D01*
X152725789Y-106099522D01*
X152725790Y-106099518D01*
X152728811Y-106093246D01*
X152730655Y-106094134D01*
X152753305Y-106058061D01*
X152803699Y-106007667D01*
X152865020Y-105974184D01*
X152934712Y-105979168D01*
X152990645Y-106021040D01*
X153008419Y-106054395D01*
X153024208Y-106099519D01*
X153103549Y-106225788D01*
X153120184Y-106252262D01*
X153247738Y-106379816D01*
X153400478Y-106475789D01*
X153400480Y-106475789D01*
X153400484Y-106475792D01*
X153406756Y-106478813D01*
X153405869Y-106480653D01*
X153441939Y-106503307D01*
X153996586Y-107057954D01*
X154026058Y-107077645D01*
X154070270Y-107107186D01*
X154119505Y-107140084D01*
X154119506Y-107140084D01*
X154119507Y-107140085D01*
X154119509Y-107140086D01*
X154256082Y-107196656D01*
X154256087Y-107196658D01*
X154256091Y-107196658D01*
X154256092Y-107196659D01*
X154401079Y-107225500D01*
X154401082Y-107225500D01*
X156598920Y-107225500D01*
X156696462Y-107206096D01*
X156743913Y-107196658D01*
X156880495Y-107140084D01*
X156929729Y-107107186D01*
X156929734Y-107107183D01*
X156954071Y-107090921D01*
X157003416Y-107057952D01*
X161274549Y-102786819D01*
X161335872Y-102753334D01*
X161362230Y-102750500D01*
X166625500Y-102750500D01*
X166692539Y-102770185D01*
X166738294Y-102822989D01*
X166749500Y-102874500D01*
X166749500Y-103450028D01*
X166742542Y-103490982D01*
X166714631Y-103570747D01*
X166694435Y-103749996D01*
X166694435Y-103750003D01*
X166714630Y-103929249D01*
X166714631Y-103929254D01*
X166742542Y-104009017D01*
X166749500Y-104049972D01*
X166749500Y-121323918D01*
X166749500Y-121323920D01*
X166749499Y-121323920D01*
X166778340Y-121468907D01*
X166778342Y-121468913D01*
X166834916Y-121605495D01*
X166839722Y-121612687D01*
X166839725Y-121612697D01*
X166839728Y-121612696D01*
X166917051Y-121728420D01*
X166917052Y-121728421D01*
X172746692Y-127558059D01*
X172769358Y-127594125D01*
X172771188Y-127593244D01*
X172774209Y-127599518D01*
X172774211Y-127599522D01*
X172870184Y-127752262D01*
X172997738Y-127879816D01*
X173150478Y-127975789D01*
X173280221Y-128021188D01*
X173320745Y-128035368D01*
X173320750Y-128035369D01*
X173499996Y-128055565D01*
X173500000Y-128055565D01*
X173500004Y-128055565D01*
X173679249Y-128035369D01*
X173679252Y-128035368D01*
X173679255Y-128035368D01*
X173849522Y-127975789D01*
X174002262Y-127879816D01*
X174129816Y-127752262D01*
X174225789Y-127599522D01*
X174285368Y-127429255D01*
X174285621Y-127427011D01*
X174305565Y-127250003D01*
X174305565Y-127249996D01*
X174285369Y-127070750D01*
X174285368Y-127070745D01*
X174225789Y-126900478D01*
X174129816Y-126747738D01*
X174002262Y-126620184D01*
X173849522Y-126524211D01*
X173849518Y-126524209D01*
X173843244Y-126521188D01*
X173844125Y-126519358D01*
X173808059Y-126496692D01*
X168286819Y-120975451D01*
X168253334Y-120914128D01*
X168250500Y-120887770D01*
X168250500Y-104049972D01*
X168257458Y-104009017D01*
X168285368Y-103929254D01*
X168285369Y-103929249D01*
X168305565Y-103750003D01*
X168305565Y-103749996D01*
X168285368Y-103570747D01*
X168285368Y-103570745D01*
X168257458Y-103490982D01*
X168250500Y-103450028D01*
X168250500Y-103361230D01*
X168270185Y-103294191D01*
X168322989Y-103248436D01*
X168392147Y-103238492D01*
X168455703Y-103267517D01*
X168462181Y-103273549D01*
X169213181Y-104024549D01*
X169246666Y-104085872D01*
X169249500Y-104112230D01*
X169249500Y-121073918D01*
X169249500Y-121073920D01*
X169249499Y-121073920D01*
X169278340Y-121218907D01*
X169278343Y-121218917D01*
X169301737Y-121275394D01*
X169334916Y-121355495D01*
X169335380Y-121356189D01*
X169360981Y-121394505D01*
X169417049Y-121478418D01*
X169417052Y-121478421D01*
X174271580Y-126332948D01*
X174271584Y-126332951D01*
X174394498Y-126415080D01*
X174394511Y-126415087D01*
X174531082Y-126471656D01*
X174531087Y-126471658D01*
X174531091Y-126471658D01*
X174531092Y-126471659D01*
X174676079Y-126500500D01*
X174676082Y-126500500D01*
X174700028Y-126500500D01*
X174740983Y-126507458D01*
X174820745Y-126535368D01*
X174820750Y-126535369D01*
X174999996Y-126555565D01*
X175000000Y-126555565D01*
X175000004Y-126555565D01*
X175179249Y-126535369D01*
X175179252Y-126535368D01*
X175179255Y-126535368D01*
X175349522Y-126475789D01*
X175502262Y-126379816D01*
X175629816Y-126252262D01*
X175725789Y-126099522D01*
X175785368Y-125929255D01*
X175785369Y-125929249D01*
X175805565Y-125750003D01*
X175805565Y-125749996D01*
X175785369Y-125570750D01*
X175785368Y-125570745D01*
X175753060Y-125478415D01*
X175725789Y-125400478D01*
X175629816Y-125247738D01*
X175502262Y-125120184D01*
X175349521Y-125024210D01*
X175179249Y-124964630D01*
X175049653Y-124950028D01*
X174985239Y-124922961D01*
X174975856Y-124914489D01*
X170786819Y-120725451D01*
X170753334Y-120664128D01*
X170750500Y-120637770D01*
X170750500Y-103676079D01*
X170721659Y-103531092D01*
X170721658Y-103531091D01*
X170721658Y-103531087D01*
X170665084Y-103394505D01*
X170612275Y-103315470D01*
X170612275Y-103315469D01*
X170597613Y-103293527D01*
X170582952Y-103271584D01*
X168253307Y-100941939D01*
X168230653Y-100905869D01*
X168228813Y-100906756D01*
X168225792Y-100900484D01*
X168225789Y-100900480D01*
X168225789Y-100900478D01*
X168129816Y-100747738D01*
X168002262Y-100620184D01*
X167972154Y-100601266D01*
X167849523Y-100524211D01*
X167679254Y-100464631D01*
X167679249Y-100464630D01*
X167500004Y-100444435D01*
X167499996Y-100444435D01*
X167320750Y-100464630D01*
X167320745Y-100464631D01*
X167240983Y-100492542D01*
X167200028Y-100499500D01*
X160176080Y-100499500D01*
X160031092Y-100528340D01*
X160031082Y-100528343D01*
X159894511Y-100584912D01*
X159894504Y-100584916D01*
X159878228Y-100595791D01*
X159870035Y-100601266D01*
X159870034Y-100601266D01*
X159771585Y-100667046D01*
X159771578Y-100667052D01*
X155441937Y-104996693D01*
X155405876Y-105019362D01*
X155406756Y-105021188D01*
X155400478Y-105024211D01*
X155247737Y-105120184D01*
X155120184Y-105247737D01*
X155024210Y-105400478D01*
X154964631Y-105570747D01*
X154964630Y-105570753D01*
X154959789Y-105613722D01*
X154932723Y-105678136D01*
X154875128Y-105717692D01*
X154805291Y-105719829D01*
X154748888Y-105687520D01*
X154503307Y-105441939D01*
X154480653Y-105405869D01*
X154478813Y-105406756D01*
X154475792Y-105400484D01*
X154475789Y-105400480D01*
X154475789Y-105400478D01*
X154379816Y-105247738D01*
X154252262Y-105120184D01*
X154099519Y-105024208D01*
X154054395Y-105008419D01*
X153997619Y-104967697D01*
X153971872Y-104902744D01*
X153985329Y-104834183D01*
X154007666Y-104803700D01*
X156332952Y-102478416D01*
X156382186Y-102404729D01*
X156415084Y-102355495D01*
X156471658Y-102218913D01*
X156487338Y-102140085D01*
X156500500Y-102073920D01*
X156500500Y-98624500D01*
X156520185Y-98557461D01*
X156572989Y-98511706D01*
X156624500Y-98500500D01*
X158887770Y-98500500D01*
X158954809Y-98520185D01*
X158975451Y-98536819D01*
X159771585Y-99332952D01*
X159771590Y-99332956D01*
X159812372Y-99360205D01*
X159812375Y-99360206D01*
X159894505Y-99415084D01*
X159899247Y-99417048D01*
X160031088Y-99471659D01*
X160147241Y-99494763D01*
X160166468Y-99498587D01*
X160176081Y-99500500D01*
X160176082Y-99500500D01*
X160176083Y-99500500D01*
X160323918Y-99500500D01*
X167200028Y-99500500D01*
X167240983Y-99507458D01*
X167320745Y-99535368D01*
X167320750Y-99535369D01*
X167450343Y-99549970D01*
X167514757Y-99577036D01*
X167524141Y-99585509D01*
X181213181Y-113274548D01*
X181246666Y-113335871D01*
X181249500Y-113362229D01*
X181249500Y-116887769D01*
X181229815Y-116954808D01*
X181213181Y-116975450D01*
X176417052Y-121771578D01*
X176417049Y-121771581D01*
X176382080Y-121823916D01*
X176382081Y-121823917D01*
X176334913Y-121894508D01*
X176278343Y-122031082D01*
X176278340Y-122031092D01*
X176249500Y-122176079D01*
X176249500Y-123450028D01*
X176242542Y-123490982D01*
X176214631Y-123570747D01*
X176194435Y-123749996D01*
X176194435Y-123750003D01*
X176214630Y-123929249D01*
X176214631Y-123929254D01*
X176274211Y-124099523D01*
X176300057Y-124140656D01*
X176370184Y-124252262D01*
X176497738Y-124379816D01*
X176650478Y-124475789D01*
X176713202Y-124497737D01*
X176820745Y-124535368D01*
X176820750Y-124535369D01*
X176999996Y-124555565D01*
X177000000Y-124555565D01*
X177000004Y-124555565D01*
X177179249Y-124535369D01*
X177179252Y-124535368D01*
X177179255Y-124535368D01*
X177349522Y-124475789D01*
X177502262Y-124379816D01*
X177629816Y-124252262D01*
X177725789Y-124099522D01*
X177785368Y-123929255D01*
X177785369Y-123929249D01*
X177805565Y-123750003D01*
X177805565Y-123749996D01*
X177785368Y-123570747D01*
X177785368Y-123570745D01*
X177757458Y-123490982D01*
X177750500Y-123450028D01*
X177750500Y-122612229D01*
X177770185Y-122545190D01*
X177786815Y-122524552D01*
X178140198Y-122171168D01*
X178201519Y-122137685D01*
X178271210Y-122142669D01*
X178327144Y-122184540D01*
X178332870Y-122192878D01*
X178370182Y-122252260D01*
X178370184Y-122252262D01*
X178497738Y-122379816D01*
X178588080Y-122436582D01*
X178632721Y-122464632D01*
X178650478Y-122475789D01*
X178788860Y-122524211D01*
X178820745Y-122535368D01*
X178820750Y-122535369D01*
X178999996Y-122555565D01*
X179000000Y-122555565D01*
X179000004Y-122555565D01*
X179179249Y-122535369D01*
X179179252Y-122535368D01*
X179179255Y-122535368D01*
X179349522Y-122475789D01*
X179502262Y-122379816D01*
X179629816Y-122252262D01*
X179725789Y-122099522D01*
X179725792Y-122099510D01*
X179728810Y-122093248D01*
X179730650Y-122094134D01*
X179753305Y-122058061D01*
X183582951Y-118228416D01*
X183665084Y-118105495D01*
X183721658Y-117968913D01*
X183750500Y-117823918D01*
X183750500Y-117676083D01*
X183750500Y-112051082D01*
X183750500Y-112051079D01*
X183721659Y-111906092D01*
X183721658Y-111906091D01*
X183721658Y-111906087D01*
X183721656Y-111906082D01*
X183665087Y-111769511D01*
X183665080Y-111769498D01*
X183582952Y-111646585D01*
X183582951Y-111646584D01*
X183478416Y-111542049D01*
X168335719Y-96399351D01*
X168302234Y-96338028D01*
X168300180Y-96297788D01*
X168305565Y-96250000D01*
X168305565Y-96249997D01*
X168285369Y-96070750D01*
X168285368Y-96070745D01*
X168225788Y-95900476D01*
X168164005Y-95802149D01*
X168129816Y-95747738D01*
X168002262Y-95620184D01*
X167849522Y-95524211D01*
X167849516Y-95524207D01*
X167843247Y-95521188D01*
X167844129Y-95519356D01*
X167808060Y-95496692D01*
X161150429Y-88839060D01*
X161150422Y-88839054D01*
X161076737Y-88789820D01*
X161076737Y-88789821D01*
X161027499Y-88756921D01*
X160890925Y-88700351D01*
X160890915Y-88700348D01*
X160745928Y-88671508D01*
X160745926Y-88671508D01*
X150995355Y-88671508D01*
X150928316Y-88651823D01*
X150882561Y-88599019D01*
X150872617Y-88529861D01*
X150901642Y-88466305D01*
X150955092Y-88430227D01*
X151026180Y-88405821D01*
X151104810Y-88378828D01*
X151323509Y-88260474D01*
X151519744Y-88107738D01*
X151688164Y-87924785D01*
X151824173Y-87716607D01*
X151924063Y-87488881D01*
X151985108Y-87247821D01*
X151985109Y-87247812D01*
X152005643Y-87000005D01*
X152005643Y-86999994D01*
X151985109Y-86752187D01*
X151985107Y-86752175D01*
X151924063Y-86511118D01*
X151824173Y-86283393D01*
X151688166Y-86075217D01*
X151666557Y-86051744D01*
X151519744Y-85892262D01*
X151323509Y-85739526D01*
X151323507Y-85739525D01*
X151323506Y-85739524D01*
X151104811Y-85621172D01*
X151104802Y-85621169D01*
X150869616Y-85540429D01*
X150624335Y-85499500D01*
X150375665Y-85499500D01*
X150130383Y-85540429D01*
X149895197Y-85621169D01*
X149895188Y-85621172D01*
X149676493Y-85739524D01*
X149480257Y-85892261D01*
X149311836Y-86075215D01*
X149234673Y-86193322D01*
X149181526Y-86238678D01*
X149130864Y-86249500D01*
X148676080Y-86249500D01*
X148531092Y-86278340D01*
X148531082Y-86278343D01*
X148394511Y-86334912D01*
X148394498Y-86334919D01*
X148271587Y-86417046D01*
X148191937Y-86496694D01*
X148155881Y-86519365D01*
X148156758Y-86521186D01*
X148150483Y-86524208D01*
X147997737Y-86620184D01*
X147870184Y-86747737D01*
X147774211Y-86900476D01*
X147714631Y-87070745D01*
X147714630Y-87070750D01*
X147694435Y-87249996D01*
X147694435Y-87250003D01*
X147714630Y-87429249D01*
X147714631Y-87429254D01*
X147742542Y-87509017D01*
X147749500Y-87549972D01*
X147749500Y-89848918D01*
X147749500Y-89848920D01*
X147749499Y-89848920D01*
X147778340Y-89993907D01*
X147778343Y-89993917D01*
X147834913Y-90130490D01*
X147834914Y-90130491D01*
X147834916Y-90130495D01*
X147844278Y-90144506D01*
X147901047Y-90229469D01*
X147917051Y-90253420D01*
X147917052Y-90253421D01*
X148238181Y-90574549D01*
X148271666Y-90635872D01*
X148274500Y-90662229D01*
X148274500Y-90798336D01*
X148274501Y-90798355D01*
X148284650Y-90897707D01*
X148284651Y-90897710D01*
X148337996Y-91058694D01*
X148337998Y-91058699D01*
X148415842Y-91184903D01*
X148434282Y-91252296D01*
X148415842Y-91315097D01*
X148337998Y-91441300D01*
X148337996Y-91441305D01*
X148284651Y-91602290D01*
X148274500Y-91701647D01*
X148274500Y-92298337D01*
X148274501Y-92298355D01*
X148284650Y-92397707D01*
X148284651Y-92397710D01*
X148337996Y-92558694D01*
X148337999Y-92558701D01*
X148356038Y-92587945D01*
X148374500Y-92653043D01*
X148374500Y-92970594D01*
X148354815Y-93037633D01*
X148302011Y-93083388D01*
X148274692Y-93092211D01*
X148251710Y-93096782D01*
X148240471Y-93099018D01*
X148180048Y-93111037D01*
X148180046Y-93111037D01*
X148180045Y-93111038D01*
X148180043Y-93111038D01*
X148151096Y-93123029D01*
X148066218Y-93158185D01*
X148066214Y-93158187D01*
X148043528Y-93173347D01*
X147976850Y-93194226D01*
X147909538Y-93175784D01*
X147808492Y-93113457D01*
X147808481Y-93113452D01*
X147647606Y-93060144D01*
X147548322Y-93050000D01*
X147500000Y-93050000D01*
X147500000Y-93672230D01*
X147480315Y-93739269D01*
X147479103Y-93741119D01*
X147470693Y-93753705D01*
X147470684Y-93753721D01*
X147439166Y-93829815D01*
X147437347Y-93834207D01*
X147431823Y-93847543D01*
X147423537Y-93867545D01*
X147423535Y-93867553D01*
X147399500Y-93988389D01*
X147399500Y-94126000D01*
X147379815Y-94193039D01*
X147327011Y-94238794D01*
X147275500Y-94250000D01*
X145374000Y-94250000D01*
X145306961Y-94230315D01*
X145261206Y-94177511D01*
X145250000Y-94126000D01*
X145250000Y-93050000D01*
X145750000Y-93050000D01*
X145750000Y-93750000D01*
X147000000Y-93750000D01*
X147000000Y-93050000D01*
X146999999Y-93049999D01*
X146951693Y-93050000D01*
X146951675Y-93050001D01*
X146852392Y-93060144D01*
X146691518Y-93113452D01*
X146691507Y-93113457D01*
X146547271Y-93202424D01*
X146462681Y-93287014D01*
X146401357Y-93320498D01*
X146331666Y-93315514D01*
X146287319Y-93287014D01*
X146202728Y-93202424D01*
X146058492Y-93113457D01*
X146058481Y-93113452D01*
X145897606Y-93060144D01*
X145798322Y-93050000D01*
X145750000Y-93050000D01*
X145250000Y-93050000D01*
X145250000Y-93049999D01*
X145236953Y-93036953D01*
X145203467Y-92975630D01*
X145201413Y-92963154D01*
X145197236Y-92926083D01*
X145190409Y-92865485D01*
X145185369Y-92820749D01*
X145185368Y-92820745D01*
X145125788Y-92650475D01*
X145104108Y-92615973D01*
X145085107Y-92548737D01*
X145104108Y-92484027D01*
X145125788Y-92449524D01*
X145127130Y-92445689D01*
X145185368Y-92279255D01*
X145185369Y-92279249D01*
X145205565Y-92100003D01*
X145205565Y-92099996D01*
X145185369Y-91920750D01*
X145185368Y-91920745D01*
X145167585Y-91869924D01*
X145125789Y-91750478D01*
X145095111Y-91701655D01*
X145029815Y-91597737D01*
X144902262Y-91470184D01*
X144749523Y-91374211D01*
X144579254Y-91314631D01*
X144579249Y-91314630D01*
X144400004Y-91294435D01*
X144399996Y-91294435D01*
X144220750Y-91314630D01*
X144220745Y-91314631D01*
X144140983Y-91342542D01*
X144100028Y-91349500D01*
X120826080Y-91349500D01*
X120681092Y-91378340D01*
X120681082Y-91378343D01*
X120544511Y-91434912D01*
X120544498Y-91434919D01*
X120421584Y-91517048D01*
X120421580Y-91517051D01*
X113941939Y-97996692D01*
X113905872Y-98019359D01*
X113906753Y-98021188D01*
X113900483Y-98024207D01*
X113747737Y-98120184D01*
X113620184Y-98247737D01*
X113524211Y-98400476D01*
X113464631Y-98570745D01*
X113464630Y-98570750D01*
X113444435Y-98749996D01*
X100518190Y-98749996D01*
X100520300Y-98600914D01*
X100520397Y-98597480D01*
X100579707Y-97201287D01*
X100579900Y-97197879D01*
X100678700Y-95803875D01*
X100678998Y-95800387D01*
X100683510Y-95754989D01*
X100817201Y-94409796D01*
X100817582Y-94406433D01*
X100995094Y-93020212D01*
X100995574Y-93016848D01*
X101212238Y-91636239D01*
X101212819Y-91632852D01*
X101468461Y-90258959D01*
X101469148Y-90255541D01*
X101470343Y-90250000D01*
X101763556Y-88889482D01*
X101764341Y-88886079D01*
X101775877Y-88839056D01*
X102097299Y-87528856D01*
X102098148Y-87525595D01*
X102469403Y-86178259D01*
X102470346Y-86175014D01*
X102879582Y-84838717D01*
X102880607Y-84835531D01*
X103327484Y-83511387D01*
X103328644Y-83508105D01*
X103398447Y-83319102D01*
X103812805Y-82197155D01*
X103814029Y-82193983D01*
X104335083Y-80897290D01*
X104336398Y-80894147D01*
X104893954Y-79612681D01*
X104895396Y-79609493D01*
X105007137Y-79371332D01*
X105488959Y-78344390D01*
X105490464Y-78341297D01*
X106119625Y-77093431D01*
X106121196Y-77090422D01*
X106785447Y-75860806D01*
X106787079Y-75857886D01*
X107485828Y-74647617D01*
X107487594Y-74644655D01*
X108220343Y-73454595D01*
X108222144Y-73451762D01*
X108988236Y-72282978D01*
X108990163Y-72280126D01*
X109789012Y-71133504D01*
X109791024Y-71130701D01*
X110622058Y-70007069D01*
X110624105Y-70004384D01*
X111486577Y-68904751D01*
X111488693Y-68902131D01*
X112381959Y-67827323D01*
X112384155Y-67824755D01*
X113307449Y-66775688D01*
X113309761Y-66773135D01*
X114262389Y-65750600D01*
X114264725Y-65748163D01*
X115245921Y-64752983D01*
X115248307Y-64750630D01*
X116257262Y-63783625D01*
X116259758Y-63781300D01*
X117295694Y-62843216D01*
X117298243Y-62840974D01*
X118360275Y-61932612D01*
X118362870Y-61930456D01*
X119450190Y-61052507D01*
X119452861Y-61050411D01*
X120564598Y-60203576D01*
X120567346Y-60201545D01*
X121702599Y-59386514D01*
X121705350Y-59384597D01*
X122863219Y-58602013D01*
X122866077Y-58600139D01*
X124045647Y-57850625D01*
X124048501Y-57848868D01*
X125248778Y-57133053D01*
X125251723Y-57131352D01*
X126471753Y-56449802D01*
X126474795Y-56448159D01*
X127713629Y-55801404D01*
X127716678Y-55799867D01*
X128973326Y-55188426D01*
X128976442Y-55186965D01*
X130249844Y-54611350D01*
X130253012Y-54609972D01*
X131542205Y-54070620D01*
X131545381Y-54069343D01*
X132849352Y-53566677D01*
X132852552Y-53565495D01*
X134170216Y-53099935D01*
X134173499Y-53098827D01*
X135503743Y-52670764D01*
X135507074Y-52669743D01*
X136848995Y-52279467D01*
X136852251Y-52278570D01*
X138204663Y-51926430D01*
X138207990Y-51925613D01*
X139569832Y-51611883D01*
X139573168Y-51611165D01*
X140943334Y-51336102D01*
X140946664Y-51335483D01*
X142324047Y-51099306D01*
X142327498Y-51098765D01*
X143710986Y-50901665D01*
X143714364Y-50901232D01*
X145102895Y-50743361D01*
X145106379Y-50743015D01*
X146498797Y-50624503D01*
X146502227Y-50624260D01*
X147897458Y-50545198D01*
X147900902Y-50545052D01*
X149297774Y-50505506D01*
X149301283Y-50505456D01*
X150698717Y-50505456D01*
X150702226Y-50505506D01*
G37*
G04 #@! TD.AperFunction*
M02*
