%TF.GenerationSoftware,KiCad,Pcbnew,8.0.4*%
%TF.CreationDate,2024-09-30T00:03:33+08:00*%
%TF.ProjectId,Transformer_Monitor_V1,5472616e-7366-46f7-926d-65725f4d6f6e,rev?*%
%TF.SameCoordinates,Original*%
%TF.FileFunction,Drillmap*%
%TF.FilePolarity,Positive*%
%FSLAX45Y45*%
G04 Gerber Fmt 4.5, Leading zero omitted, Abs format (unit mm)*
G04 Created by KiCad (PCBNEW 8.0.4) date 2024-09-30 00:03:33*
%MOMM*%
%LPD*%
G01*
G04 APERTURE LIST*
%ADD10C,0.050000*%
%ADD11C,0.200000*%
%ADD12C,0.100000*%
G04 APERTURE END LIST*
D10*
X20000000Y-10000000D02*
G75*
G02*
X10000000Y-10000000I-5000000J0D01*
G01*
X10000000Y-10000000D02*
G75*
G02*
X20000000Y-10000000I5000000J0D01*
G01*
D11*
D12*
X10485000Y-8985000D02*
X10515000Y-9015000D01*
X10515000Y-8985000D02*
X10485000Y-9015000D01*
X10485000Y-10985000D02*
X10515000Y-11015000D01*
X10515000Y-10985000D02*
X10485000Y-11015000D01*
X10485000Y-11485000D02*
X10515000Y-11515000D01*
X10515000Y-11485000D02*
X10485000Y-11515000D01*
X10485732Y-8482123D02*
X10515732Y-8512123D01*
X10515732Y-8482123D02*
X10485732Y-8512123D01*
X10985000Y-7485000D02*
X11015000Y-7515000D01*
X11015000Y-7485000D02*
X10985000Y-7515000D01*
X10985000Y-7985000D02*
X11015000Y-8015000D01*
X11015000Y-7985000D02*
X10985000Y-8015000D01*
X10985000Y-8485000D02*
X11015000Y-8515000D01*
X11015000Y-8485000D02*
X10985000Y-8515000D01*
X10985000Y-8985000D02*
X11015000Y-9015000D01*
X11015000Y-8985000D02*
X10985000Y-9015000D01*
X10985000Y-11485000D02*
X11015000Y-11515000D01*
X11015000Y-11485000D02*
X10985000Y-11515000D01*
X10985000Y-11985000D02*
X11015000Y-12015000D01*
X11015000Y-11985000D02*
X10985000Y-12015000D01*
X10985000Y-12485000D02*
X11015000Y-12515000D01*
X11015000Y-12485000D02*
X10985000Y-12515000D01*
X11410000Y-9860000D02*
X11440000Y-9890000D01*
X11440000Y-9860000D02*
X11410000Y-9890000D01*
X11410000Y-10110000D02*
X11440000Y-10140000D01*
X11440000Y-10110000D02*
X11410000Y-10140000D01*
X11485000Y-7485000D02*
X11515000Y-7515000D01*
X11515000Y-7485000D02*
X11485000Y-7515000D01*
X11485000Y-7985000D02*
X11515000Y-8015000D01*
X11515000Y-7985000D02*
X11485000Y-8015000D01*
X11485000Y-8485000D02*
X11515000Y-8515000D01*
X11515000Y-8485000D02*
X11485000Y-8515000D01*
X11485000Y-8985000D02*
X11515000Y-9015000D01*
X11515000Y-8985000D02*
X11485000Y-9015000D01*
X11485000Y-10485000D02*
X11515000Y-10515000D01*
X11515000Y-10485000D02*
X11485000Y-10515000D01*
X11485000Y-10985000D02*
X11515000Y-11015000D01*
X11515000Y-10985000D02*
X11485000Y-11015000D01*
X11485000Y-11485000D02*
X11515000Y-11515000D01*
X11515000Y-11485000D02*
X11485000Y-11515000D01*
X11485000Y-11985000D02*
X11515000Y-12015000D01*
X11515000Y-11985000D02*
X11485000Y-12015000D01*
X11485000Y-12485000D02*
X11515000Y-12515000D01*
X11515000Y-12485000D02*
X11485000Y-12515000D01*
X11985000Y-7985000D02*
X12015000Y-8015000D01*
X12015000Y-7985000D02*
X11985000Y-8015000D01*
X11985000Y-8485000D02*
X12015000Y-8515000D01*
X12015000Y-8485000D02*
X11985000Y-8515000D01*
X11985000Y-8985000D02*
X12015000Y-9015000D01*
X12015000Y-8985000D02*
X11985000Y-9015000D01*
X11985000Y-9985000D02*
X12015000Y-10015000D01*
X12015000Y-9985000D02*
X11985000Y-10015000D01*
X11985000Y-10485000D02*
X12015000Y-10515000D01*
X12015000Y-10485000D02*
X11985000Y-10515000D01*
X11985000Y-10985000D02*
X12015000Y-11015000D01*
X12015000Y-10985000D02*
X11985000Y-11015000D01*
X12235000Y-12310000D02*
X12265000Y-12340000D01*
X12265000Y-12310000D02*
X12235000Y-12340000D01*
X12410000Y-12485000D02*
X12440000Y-12515000D01*
X12440000Y-12485000D02*
X12410000Y-12515000D01*
X12485000Y-5985000D02*
X12515000Y-6015000D01*
X12515000Y-5985000D02*
X12485000Y-6015000D01*
X12485000Y-6485000D02*
X12515000Y-6515000D01*
X12515000Y-6485000D02*
X12485000Y-6515000D01*
X12485000Y-8485000D02*
X12515000Y-8515000D01*
X12515000Y-8485000D02*
X12485000Y-8515000D01*
X12485000Y-8985000D02*
X12515000Y-9015000D01*
X12515000Y-8985000D02*
X12485000Y-9015000D01*
X12485000Y-9485000D02*
X12515000Y-9515000D01*
X12515000Y-9485000D02*
X12485000Y-9515000D01*
X12485000Y-9985000D02*
X12515000Y-10015000D01*
X12515000Y-9985000D02*
X12485000Y-10015000D01*
X12485000Y-10485000D02*
X12515000Y-10515000D01*
X12515000Y-10485000D02*
X12485000Y-10515000D01*
X12485000Y-13485000D02*
X12515000Y-13515000D01*
X12515000Y-13485000D02*
X12485000Y-13515000D01*
X12485000Y-13985000D02*
X12515000Y-14015000D01*
X12515000Y-13985000D02*
X12485000Y-14015000D01*
X12585000Y-12660000D02*
X12615000Y-12690000D01*
X12615000Y-12660000D02*
X12585000Y-12690000D01*
X12785000Y-12860000D02*
X12815000Y-12890000D01*
X12815000Y-12860000D02*
X12785000Y-12890000D01*
X12977197Y-5977252D02*
X13007197Y-6007252D01*
X13007197Y-5977252D02*
X12977197Y-6007252D01*
X12985000Y-6485000D02*
X13015000Y-6515000D01*
X13015000Y-6485000D02*
X12985000Y-6515000D01*
X12985000Y-6985000D02*
X13015000Y-7015000D01*
X13015000Y-6985000D02*
X12985000Y-7015000D01*
X12985000Y-9485000D02*
X13015000Y-9515000D01*
X13015000Y-9485000D02*
X12985000Y-9515000D01*
X12985000Y-9985000D02*
X13015000Y-10015000D01*
X13015000Y-9985000D02*
X12985000Y-10015000D01*
X12985000Y-13485000D02*
X13015000Y-13515000D01*
X13015000Y-13485000D02*
X12985000Y-13515000D01*
X12985000Y-13985000D02*
X13015000Y-14015000D01*
X13015000Y-13985000D02*
X12985000Y-14015000D01*
X13385000Y-10760000D02*
X13415000Y-10790000D01*
X13415000Y-10760000D02*
X13385000Y-10790000D01*
X13485000Y-5485000D02*
X13515000Y-5515000D01*
X13515000Y-5485000D02*
X13485000Y-5515000D01*
X13485000Y-5985000D02*
X13515000Y-6015000D01*
X13515000Y-5985000D02*
X13485000Y-6015000D01*
X13485000Y-6485000D02*
X13515000Y-6515000D01*
X13515000Y-6485000D02*
X13485000Y-6515000D01*
X13485000Y-6985000D02*
X13515000Y-7015000D01*
X13515000Y-6985000D02*
X13485000Y-7015000D01*
X13485000Y-7485000D02*
X13515000Y-7515000D01*
X13515000Y-7485000D02*
X13485000Y-7515000D01*
X13485000Y-12485000D02*
X13515000Y-12515000D01*
X13515000Y-12485000D02*
X13485000Y-12515000D01*
X13485000Y-14485000D02*
X13515000Y-14515000D01*
X13515000Y-14485000D02*
X13485000Y-14515000D01*
X13735000Y-10535000D02*
X13765000Y-10565000D01*
X13765000Y-10535000D02*
X13735000Y-10565000D01*
X13982422Y-13472545D02*
X14012422Y-13502545D01*
X14012422Y-13472545D02*
X13982422Y-13502545D01*
X13985000Y-5485000D02*
X14015000Y-5515000D01*
X14015000Y-5485000D02*
X13985000Y-5515000D01*
X13985000Y-5985000D02*
X14015000Y-6015000D01*
X14015000Y-5985000D02*
X13985000Y-6015000D01*
X13985000Y-6485000D02*
X14015000Y-6515000D01*
X14015000Y-6485000D02*
X13985000Y-6515000D01*
X13985000Y-6985000D02*
X14015000Y-7015000D01*
X14015000Y-6985000D02*
X13985000Y-7015000D01*
X13985000Y-7485000D02*
X14015000Y-7515000D01*
X14015000Y-7485000D02*
X13985000Y-7515000D01*
X13985000Y-7985000D02*
X14015000Y-8015000D01*
X14015000Y-7985000D02*
X13985000Y-8015000D01*
X13985000Y-11985000D02*
X14015000Y-12015000D01*
X14015000Y-11985000D02*
X13985000Y-12015000D01*
X13985000Y-13985000D02*
X14015000Y-14015000D01*
X14015000Y-13985000D02*
X13985000Y-14015000D01*
X13985000Y-14485000D02*
X14015000Y-14515000D01*
X14015000Y-14485000D02*
X13985000Y-14515000D01*
X14035000Y-9410000D02*
X14065000Y-9440000D01*
X14065000Y-9410000D02*
X14035000Y-9440000D01*
X14035000Y-9560000D02*
X14065000Y-9590000D01*
X14065000Y-9560000D02*
X14035000Y-9590000D01*
X14423408Y-9609332D02*
X14453408Y-9639332D01*
X14453408Y-9609332D02*
X14423408Y-9639332D01*
X14425000Y-9110000D02*
X14455000Y-9140000D01*
X14455000Y-9110000D02*
X14425000Y-9140000D01*
X14425000Y-9195000D02*
X14455000Y-9225000D01*
X14455000Y-9195000D02*
X14425000Y-9225000D01*
X14425000Y-9285000D02*
X14455000Y-9315000D01*
X14455000Y-9285000D02*
X14425000Y-9315000D01*
X14425000Y-9365000D02*
X14455000Y-9395000D01*
X14455000Y-9365000D02*
X14425000Y-9395000D01*
X14485000Y-5485000D02*
X14515000Y-5515000D01*
X14515000Y-5485000D02*
X14485000Y-5515000D01*
X14485000Y-6485000D02*
X14515000Y-6515000D01*
X14515000Y-6485000D02*
X14485000Y-6515000D01*
X14485000Y-7485000D02*
X14515000Y-7515000D01*
X14515000Y-7485000D02*
X14485000Y-7515000D01*
X14485000Y-7985000D02*
X14515000Y-8015000D01*
X14515000Y-7985000D02*
X14485000Y-8015000D01*
X14510000Y-10060000D02*
X14540000Y-10090000D01*
X14540000Y-10060000D02*
X14510000Y-10090000D01*
X14538486Y-10555032D02*
X14568486Y-10585032D01*
X14568486Y-10555032D02*
X14538486Y-10585032D01*
X14610000Y-10060000D02*
X14640000Y-10090000D01*
X14640000Y-10060000D02*
X14610000Y-10090000D01*
X14710000Y-9660000D02*
X14740000Y-9690000D01*
X14740000Y-9660000D02*
X14710000Y-9690000D01*
X14710000Y-10060000D02*
X14740000Y-10090000D01*
X14740000Y-10060000D02*
X14710000Y-10090000D01*
X14710000Y-12085000D02*
X14740000Y-12115000D01*
X14740000Y-12085000D02*
X14710000Y-12115000D01*
X14759434Y-11818368D02*
X14789434Y-11848368D01*
X14789434Y-11818368D02*
X14759434Y-11848368D01*
X14760000Y-8310000D02*
X14790000Y-8340000D01*
X14790000Y-8310000D02*
X14760000Y-8340000D01*
X14760000Y-10235000D02*
X14790000Y-10265000D01*
X14790000Y-10235000D02*
X14760000Y-10265000D01*
X14810000Y-10060000D02*
X14840000Y-10090000D01*
X14840000Y-10060000D02*
X14810000Y-10090000D01*
X14835000Y-8710000D02*
X14865000Y-8740000D01*
X14865000Y-8710000D02*
X14835000Y-8740000D01*
X14885000Y-12535000D02*
X14915000Y-12565000D01*
X14915000Y-12535000D02*
X14885000Y-12565000D01*
X14910000Y-10060000D02*
X14940000Y-10090000D01*
X14940000Y-10060000D02*
X14910000Y-10090000D01*
X14910000Y-12085000D02*
X14940000Y-12115000D01*
X14940000Y-12085000D02*
X14910000Y-12115000D01*
X14946485Y-8927201D02*
X14976485Y-8957201D01*
X14976485Y-8927201D02*
X14946485Y-8957201D01*
X14985000Y-5485000D02*
X15015000Y-5515000D01*
X15015000Y-5485000D02*
X14985000Y-5515000D01*
X14985000Y-7985000D02*
X15015000Y-8015000D01*
X15015000Y-7985000D02*
X14985000Y-8015000D01*
X15010000Y-10060000D02*
X15040000Y-10090000D01*
X15040000Y-10060000D02*
X15010000Y-10090000D01*
X15035000Y-9710000D02*
X15065000Y-9740000D01*
X15065000Y-9710000D02*
X15035000Y-9740000D01*
X15035000Y-10560000D02*
X15065000Y-10590000D01*
X15065000Y-10560000D02*
X15035000Y-10590000D01*
X15070000Y-10235000D02*
X15100000Y-10265000D01*
X15100000Y-10235000D02*
X15070000Y-10265000D01*
X15135000Y-12810000D02*
X15165000Y-12840000D01*
X15165000Y-12810000D02*
X15135000Y-12840000D01*
X15185000Y-10560000D02*
X15215000Y-10590000D01*
X15215000Y-10560000D02*
X15185000Y-10590000D01*
X15235000Y-9335000D02*
X15265000Y-9365000D01*
X15265000Y-9335000D02*
X15235000Y-9365000D01*
X15235000Y-9635000D02*
X15265000Y-9665000D01*
X15265000Y-9635000D02*
X15235000Y-9665000D01*
X15310000Y-12085000D02*
X15340000Y-12115000D01*
X15340000Y-12085000D02*
X15310000Y-12115000D01*
X15360000Y-10560000D02*
X15390000Y-10590000D01*
X15390000Y-10560000D02*
X15360000Y-10590000D01*
X15391921Y-9000457D02*
X15421921Y-9030457D01*
X15421921Y-9000457D02*
X15391921Y-9030457D01*
X15485000Y-5485000D02*
X15515000Y-5515000D01*
X15515000Y-5485000D02*
X15485000Y-5515000D01*
X15485000Y-7985000D02*
X15515000Y-8015000D01*
X15515000Y-7985000D02*
X15485000Y-8015000D01*
X15510000Y-12085000D02*
X15540000Y-12115000D01*
X15540000Y-12085000D02*
X15510000Y-12115000D01*
X15533091Y-8851506D02*
X15563091Y-8881506D01*
X15563091Y-8851506D02*
X15533091Y-8881506D01*
X15556213Y-9121177D02*
X15586213Y-9151177D01*
X15586213Y-9121177D02*
X15556213Y-9151177D01*
X15560000Y-9241177D02*
X15590000Y-9271177D01*
X15590000Y-9241177D02*
X15560000Y-9271177D01*
X15560000Y-9335000D02*
X15590000Y-9365000D01*
X15590000Y-9335000D02*
X15560000Y-9365000D01*
X15560000Y-9566038D02*
X15590000Y-9596038D01*
X15590000Y-9566038D02*
X15560000Y-9596038D01*
X15560000Y-9760000D02*
X15590000Y-9790000D01*
X15590000Y-9760000D02*
X15560000Y-9790000D01*
X15560000Y-10560000D02*
X15590000Y-10590000D01*
X15590000Y-10560000D02*
X15560000Y-10590000D01*
X15710000Y-12085000D02*
X15740000Y-12115000D01*
X15740000Y-12085000D02*
X15710000Y-12115000D01*
X15910000Y-9385000D02*
X15940000Y-9415000D01*
X15940000Y-9385000D02*
X15910000Y-9415000D01*
X15985000Y-5485000D02*
X16015000Y-5515000D01*
X16015000Y-5485000D02*
X15985000Y-5515000D01*
X15985000Y-6485000D02*
X16015000Y-6515000D01*
X16015000Y-6485000D02*
X15985000Y-6515000D01*
X15985000Y-6985000D02*
X16015000Y-7015000D01*
X16015000Y-6985000D02*
X15985000Y-7015000D01*
X15985000Y-7485000D02*
X16015000Y-7515000D01*
X16015000Y-7485000D02*
X15985000Y-7515000D01*
X15985000Y-11985000D02*
X16015000Y-12015000D01*
X16015000Y-11985000D02*
X15985000Y-12015000D01*
X15985000Y-12485000D02*
X16015000Y-12515000D01*
X16015000Y-12485000D02*
X15985000Y-12515000D01*
X15985000Y-13485000D02*
X16015000Y-13515000D01*
X16015000Y-13485000D02*
X15985000Y-13515000D01*
X15985000Y-13985000D02*
X16015000Y-14015000D01*
X16015000Y-13985000D02*
X15985000Y-14015000D01*
X15985000Y-14485000D02*
X16015000Y-14515000D01*
X16015000Y-14485000D02*
X15985000Y-14515000D01*
X16085000Y-9085000D02*
X16115000Y-9115000D01*
X16115000Y-9085000D02*
X16085000Y-9115000D01*
X16485000Y-5485000D02*
X16515000Y-5515000D01*
X16515000Y-5485000D02*
X16485000Y-5515000D01*
X16485000Y-6485000D02*
X16515000Y-6515000D01*
X16515000Y-6485000D02*
X16485000Y-6515000D01*
X16485000Y-6985000D02*
X16515000Y-7015000D01*
X16515000Y-6985000D02*
X16485000Y-7015000D01*
X16485000Y-7485000D02*
X16515000Y-7515000D01*
X16515000Y-7485000D02*
X16485000Y-7515000D01*
X16485000Y-11735000D02*
X16515000Y-11765000D01*
X16515000Y-11735000D02*
X16485000Y-11765000D01*
X16485000Y-11985000D02*
X16515000Y-12015000D01*
X16515000Y-11985000D02*
X16485000Y-12015000D01*
X16485000Y-12485000D02*
X16515000Y-12515000D01*
X16515000Y-12485000D02*
X16485000Y-12515000D01*
X16485000Y-12985000D02*
X16515000Y-13015000D01*
X16515000Y-12985000D02*
X16485000Y-13015000D01*
X16485000Y-13485000D02*
X16515000Y-13515000D01*
X16515000Y-13485000D02*
X16485000Y-13515000D01*
X16485000Y-13985000D02*
X16515000Y-14015000D01*
X16515000Y-13985000D02*
X16485000Y-14015000D01*
X16485000Y-14485000D02*
X16515000Y-14515000D01*
X16515000Y-14485000D02*
X16485000Y-14515000D01*
X16735000Y-9610000D02*
X16765000Y-9640000D01*
X16765000Y-9610000D02*
X16735000Y-9640000D01*
X16735000Y-9860000D02*
X16765000Y-9890000D01*
X16765000Y-9860000D02*
X16735000Y-9890000D01*
X16735000Y-10110000D02*
X16765000Y-10140000D01*
X16765000Y-10110000D02*
X16735000Y-10140000D01*
X16735000Y-10360000D02*
X16765000Y-10390000D01*
X16765000Y-10360000D02*
X16735000Y-10390000D01*
X16985000Y-5985000D02*
X17015000Y-6015000D01*
X17015000Y-5985000D02*
X16985000Y-6015000D01*
X16985000Y-6485000D02*
X17015000Y-6515000D01*
X17015000Y-6485000D02*
X16985000Y-6515000D01*
X16985000Y-6985000D02*
X17015000Y-7015000D01*
X17015000Y-6985000D02*
X16985000Y-7015000D01*
X16985000Y-7485000D02*
X17015000Y-7515000D01*
X17015000Y-7485000D02*
X16985000Y-7515000D01*
X16985000Y-7985000D02*
X17015000Y-8015000D01*
X17015000Y-7985000D02*
X16985000Y-8015000D01*
X16985000Y-8985000D02*
X17015000Y-9015000D01*
X17015000Y-8985000D02*
X16985000Y-9015000D01*
X16985000Y-9485000D02*
X17015000Y-9515000D01*
X17015000Y-9485000D02*
X16985000Y-9515000D01*
X16985000Y-12985000D02*
X17015000Y-13015000D01*
X17015000Y-12985000D02*
X16985000Y-13015000D01*
X16985000Y-13485000D02*
X17015000Y-13515000D01*
X17015000Y-13485000D02*
X16985000Y-13515000D01*
X16985000Y-13985000D02*
X17015000Y-14015000D01*
X17015000Y-13985000D02*
X16985000Y-14015000D01*
X17335000Y-12710000D02*
X17365000Y-12740000D01*
X17365000Y-12710000D02*
X17335000Y-12740000D01*
X17485000Y-5985000D02*
X17515000Y-6015000D01*
X17515000Y-5985000D02*
X17485000Y-6015000D01*
X17485000Y-8485000D02*
X17515000Y-8515000D01*
X17515000Y-8485000D02*
X17485000Y-8515000D01*
X17485000Y-8985000D02*
X17515000Y-9015000D01*
X17515000Y-8985000D02*
X17485000Y-9015000D01*
X17485000Y-9485000D02*
X17515000Y-9515000D01*
X17515000Y-9485000D02*
X17485000Y-9515000D01*
X17485000Y-12560000D02*
X17515000Y-12590000D01*
X17515000Y-12560000D02*
X17485000Y-12590000D01*
X17485000Y-13485000D02*
X17515000Y-13515000D01*
X17515000Y-13485000D02*
X17485000Y-13515000D01*
X17485000Y-13985000D02*
X17515000Y-14015000D01*
X17515000Y-13985000D02*
X17485000Y-14015000D01*
X17685000Y-12360000D02*
X17715000Y-12390000D01*
X17715000Y-12360000D02*
X17685000Y-12390000D01*
X17885000Y-12160000D02*
X17915000Y-12190000D01*
X17915000Y-12160000D02*
X17885000Y-12190000D01*
X17985000Y-7985000D02*
X18015000Y-8015000D01*
X18015000Y-7985000D02*
X17985000Y-8015000D01*
X17985000Y-8485000D02*
X18015000Y-8515000D01*
X18015000Y-8485000D02*
X17985000Y-8515000D01*
X17985000Y-8985000D02*
X18015000Y-9015000D01*
X18015000Y-8985000D02*
X17985000Y-9015000D01*
X17985000Y-9485000D02*
X18015000Y-9515000D01*
X18015000Y-9485000D02*
X17985000Y-9515000D01*
X18485000Y-7485000D02*
X18515000Y-7515000D01*
X18515000Y-7485000D02*
X18485000Y-7515000D01*
X18485000Y-7985000D02*
X18515000Y-8015000D01*
X18515000Y-7985000D02*
X18485000Y-8015000D01*
X18485000Y-8485000D02*
X18515000Y-8515000D01*
X18515000Y-8485000D02*
X18485000Y-8515000D01*
X18485000Y-8985000D02*
X18515000Y-9015000D01*
X18515000Y-8985000D02*
X18485000Y-9015000D01*
X18485000Y-9485000D02*
X18515000Y-9515000D01*
X18515000Y-9485000D02*
X18485000Y-9515000D01*
X18485000Y-10985000D02*
X18515000Y-11015000D01*
X18515000Y-10985000D02*
X18485000Y-11015000D01*
X18485000Y-11485000D02*
X18515000Y-11515000D01*
X18515000Y-11485000D02*
X18485000Y-11515000D01*
X18485000Y-11985000D02*
X18515000Y-12015000D01*
X18515000Y-11985000D02*
X18485000Y-12015000D01*
X18985000Y-7485000D02*
X19015000Y-7515000D01*
X19015000Y-7485000D02*
X18985000Y-7515000D01*
X18985000Y-7985000D02*
X19015000Y-8015000D01*
X19015000Y-7985000D02*
X18985000Y-8015000D01*
X18985000Y-8485000D02*
X19015000Y-8515000D01*
X19015000Y-8485000D02*
X18985000Y-8515000D01*
X18985000Y-8985000D02*
X19015000Y-9015000D01*
X19015000Y-8985000D02*
X18985000Y-9015000D01*
X18985000Y-10985000D02*
X19015000Y-11015000D01*
X19015000Y-10985000D02*
X18985000Y-11015000D01*
X18985000Y-11485000D02*
X19015000Y-11515000D01*
X19015000Y-11485000D02*
X18985000Y-11515000D01*
X18985000Y-11985000D02*
X19015000Y-12015000D01*
X19015000Y-11985000D02*
X18985000Y-12015000D01*
X18985000Y-12485000D02*
X19015000Y-12515000D01*
X19015000Y-12485000D02*
X18985000Y-12515000D01*
X19485000Y-8485000D02*
X19515000Y-8515000D01*
X19515000Y-8485000D02*
X19485000Y-8515000D01*
X19485000Y-8985000D02*
X19515000Y-9015000D01*
X19515000Y-8985000D02*
X19485000Y-9015000D01*
X19485000Y-10985000D02*
X19515000Y-11015000D01*
X19515000Y-10985000D02*
X19485000Y-11015000D01*
X19485000Y-11485000D02*
X19515000Y-11515000D01*
X19515000Y-11485000D02*
X19485000Y-11515000D01*
D11*
X10258277Y-15313984D02*
X10258277Y-15113984D01*
X10258277Y-15113984D02*
X10305896Y-15113984D01*
X10305896Y-15113984D02*
X10334467Y-15123508D01*
X10334467Y-15123508D02*
X10353515Y-15142555D01*
X10353515Y-15142555D02*
X10363039Y-15161603D01*
X10363039Y-15161603D02*
X10372563Y-15199698D01*
X10372563Y-15199698D02*
X10372563Y-15228269D01*
X10372563Y-15228269D02*
X10363039Y-15266365D01*
X10363039Y-15266365D02*
X10353515Y-15285412D01*
X10353515Y-15285412D02*
X10334467Y-15304460D01*
X10334467Y-15304460D02*
X10305896Y-15313984D01*
X10305896Y-15313984D02*
X10258277Y-15313984D01*
X10458277Y-15313984D02*
X10458277Y-15180650D01*
X10458277Y-15218746D02*
X10467801Y-15199698D01*
X10467801Y-15199698D02*
X10477324Y-15190174D01*
X10477324Y-15190174D02*
X10496372Y-15180650D01*
X10496372Y-15180650D02*
X10515420Y-15180650D01*
X10582086Y-15313984D02*
X10582086Y-15180650D01*
X10582086Y-15113984D02*
X10572563Y-15123508D01*
X10572563Y-15123508D02*
X10582086Y-15133031D01*
X10582086Y-15133031D02*
X10591610Y-15123508D01*
X10591610Y-15123508D02*
X10582086Y-15113984D01*
X10582086Y-15113984D02*
X10582086Y-15133031D01*
X10705896Y-15313984D02*
X10686848Y-15304460D01*
X10686848Y-15304460D02*
X10677324Y-15285412D01*
X10677324Y-15285412D02*
X10677324Y-15113984D01*
X10810658Y-15313984D02*
X10791610Y-15304460D01*
X10791610Y-15304460D02*
X10782086Y-15285412D01*
X10782086Y-15285412D02*
X10782086Y-15113984D01*
X11039229Y-15313984D02*
X11039229Y-15113984D01*
X11039229Y-15113984D02*
X11105896Y-15256841D01*
X11105896Y-15256841D02*
X11172563Y-15113984D01*
X11172563Y-15113984D02*
X11172563Y-15313984D01*
X11353515Y-15313984D02*
X11353515Y-15209222D01*
X11353515Y-15209222D02*
X11343991Y-15190174D01*
X11343991Y-15190174D02*
X11324943Y-15180650D01*
X11324943Y-15180650D02*
X11286848Y-15180650D01*
X11286848Y-15180650D02*
X11267801Y-15190174D01*
X11353515Y-15304460D02*
X11334467Y-15313984D01*
X11334467Y-15313984D02*
X11286848Y-15313984D01*
X11286848Y-15313984D02*
X11267801Y-15304460D01*
X11267801Y-15304460D02*
X11258277Y-15285412D01*
X11258277Y-15285412D02*
X11258277Y-15266365D01*
X11258277Y-15266365D02*
X11267801Y-15247317D01*
X11267801Y-15247317D02*
X11286848Y-15237793D01*
X11286848Y-15237793D02*
X11334467Y-15237793D01*
X11334467Y-15237793D02*
X11353515Y-15228269D01*
X11448753Y-15180650D02*
X11448753Y-15380650D01*
X11448753Y-15190174D02*
X11467801Y-15180650D01*
X11467801Y-15180650D02*
X11505896Y-15180650D01*
X11505896Y-15180650D02*
X11524943Y-15190174D01*
X11524943Y-15190174D02*
X11534467Y-15199698D01*
X11534467Y-15199698D02*
X11543991Y-15218746D01*
X11543991Y-15218746D02*
X11543991Y-15275888D01*
X11543991Y-15275888D02*
X11534467Y-15294936D01*
X11534467Y-15294936D02*
X11524943Y-15304460D01*
X11524943Y-15304460D02*
X11505896Y-15313984D01*
X11505896Y-15313984D02*
X11467801Y-15313984D01*
X11467801Y-15313984D02*
X11448753Y-15304460D01*
X11629705Y-15294936D02*
X11639229Y-15304460D01*
X11639229Y-15304460D02*
X11629705Y-15313984D01*
X11629705Y-15313984D02*
X11620182Y-15304460D01*
X11620182Y-15304460D02*
X11629705Y-15294936D01*
X11629705Y-15294936D02*
X11629705Y-15313984D01*
X11629705Y-15190174D02*
X11639229Y-15199698D01*
X11639229Y-15199698D02*
X11629705Y-15209222D01*
X11629705Y-15209222D02*
X11620182Y-15199698D01*
X11620182Y-15199698D02*
X11629705Y-15190174D01*
X11629705Y-15190174D02*
X11629705Y-15209222D01*
D12*
X9967500Y-15627500D02*
X9997500Y-15657500D01*
X9997500Y-15627500D02*
X9967500Y-15657500D01*
D11*
X10296372Y-15533984D02*
X10315420Y-15533984D01*
X10315420Y-15533984D02*
X10334467Y-15543508D01*
X10334467Y-15543508D02*
X10343991Y-15553031D01*
X10343991Y-15553031D02*
X10353515Y-15572079D01*
X10353515Y-15572079D02*
X10363039Y-15610174D01*
X10363039Y-15610174D02*
X10363039Y-15657793D01*
X10363039Y-15657793D02*
X10353515Y-15695888D01*
X10353515Y-15695888D02*
X10343991Y-15714936D01*
X10343991Y-15714936D02*
X10334467Y-15724460D01*
X10334467Y-15724460D02*
X10315420Y-15733984D01*
X10315420Y-15733984D02*
X10296372Y-15733984D01*
X10296372Y-15733984D02*
X10277324Y-15724460D01*
X10277324Y-15724460D02*
X10267801Y-15714936D01*
X10267801Y-15714936D02*
X10258277Y-15695888D01*
X10258277Y-15695888D02*
X10248753Y-15657793D01*
X10248753Y-15657793D02*
X10248753Y-15610174D01*
X10248753Y-15610174D02*
X10258277Y-15572079D01*
X10258277Y-15572079D02*
X10267801Y-15553031D01*
X10267801Y-15553031D02*
X10277324Y-15543508D01*
X10277324Y-15543508D02*
X10296372Y-15533984D01*
X10448753Y-15714936D02*
X10458277Y-15724460D01*
X10458277Y-15724460D02*
X10448753Y-15733984D01*
X10448753Y-15733984D02*
X10439229Y-15724460D01*
X10439229Y-15724460D02*
X10448753Y-15714936D01*
X10448753Y-15714936D02*
X10448753Y-15733984D01*
X10524944Y-15533984D02*
X10648753Y-15533984D01*
X10648753Y-15533984D02*
X10582086Y-15610174D01*
X10582086Y-15610174D02*
X10610658Y-15610174D01*
X10610658Y-15610174D02*
X10629705Y-15619698D01*
X10629705Y-15619698D02*
X10639229Y-15629222D01*
X10639229Y-15629222D02*
X10648753Y-15648269D01*
X10648753Y-15648269D02*
X10648753Y-15695888D01*
X10648753Y-15695888D02*
X10639229Y-15714936D01*
X10639229Y-15714936D02*
X10629705Y-15724460D01*
X10629705Y-15724460D02*
X10610658Y-15733984D01*
X10610658Y-15733984D02*
X10553515Y-15733984D01*
X10553515Y-15733984D02*
X10534467Y-15724460D01*
X10534467Y-15724460D02*
X10524944Y-15714936D01*
X10772563Y-15533984D02*
X10791610Y-15533984D01*
X10791610Y-15533984D02*
X10810658Y-15543508D01*
X10810658Y-15543508D02*
X10820182Y-15553031D01*
X10820182Y-15553031D02*
X10829705Y-15572079D01*
X10829705Y-15572079D02*
X10839229Y-15610174D01*
X10839229Y-15610174D02*
X10839229Y-15657793D01*
X10839229Y-15657793D02*
X10829705Y-15695888D01*
X10829705Y-15695888D02*
X10820182Y-15714936D01*
X10820182Y-15714936D02*
X10810658Y-15724460D01*
X10810658Y-15724460D02*
X10791610Y-15733984D01*
X10791610Y-15733984D02*
X10772563Y-15733984D01*
X10772563Y-15733984D02*
X10753515Y-15724460D01*
X10753515Y-15724460D02*
X10743991Y-15714936D01*
X10743991Y-15714936D02*
X10734467Y-15695888D01*
X10734467Y-15695888D02*
X10724944Y-15657793D01*
X10724944Y-15657793D02*
X10724944Y-15610174D01*
X10724944Y-15610174D02*
X10734467Y-15572079D01*
X10734467Y-15572079D02*
X10743991Y-15553031D01*
X10743991Y-15553031D02*
X10753515Y-15543508D01*
X10753515Y-15543508D02*
X10772563Y-15533984D01*
X10963039Y-15533984D02*
X10982086Y-15533984D01*
X10982086Y-15533984D02*
X11001134Y-15543508D01*
X11001134Y-15543508D02*
X11010658Y-15553031D01*
X11010658Y-15553031D02*
X11020182Y-15572079D01*
X11020182Y-15572079D02*
X11029705Y-15610174D01*
X11029705Y-15610174D02*
X11029705Y-15657793D01*
X11029705Y-15657793D02*
X11020182Y-15695888D01*
X11020182Y-15695888D02*
X11010658Y-15714936D01*
X11010658Y-15714936D02*
X11001134Y-15724460D01*
X11001134Y-15724460D02*
X10982086Y-15733984D01*
X10982086Y-15733984D02*
X10963039Y-15733984D01*
X10963039Y-15733984D02*
X10943991Y-15724460D01*
X10943991Y-15724460D02*
X10934467Y-15714936D01*
X10934467Y-15714936D02*
X10924944Y-15695888D01*
X10924944Y-15695888D02*
X10915420Y-15657793D01*
X10915420Y-15657793D02*
X10915420Y-15610174D01*
X10915420Y-15610174D02*
X10924944Y-15572079D01*
X10924944Y-15572079D02*
X10934467Y-15553031D01*
X10934467Y-15553031D02*
X10943991Y-15543508D01*
X10943991Y-15543508D02*
X10963039Y-15533984D01*
X11115420Y-15733984D02*
X11115420Y-15600650D01*
X11115420Y-15619698D02*
X11124944Y-15610174D01*
X11124944Y-15610174D02*
X11143991Y-15600650D01*
X11143991Y-15600650D02*
X11172563Y-15600650D01*
X11172563Y-15600650D02*
X11191610Y-15610174D01*
X11191610Y-15610174D02*
X11201134Y-15629222D01*
X11201134Y-15629222D02*
X11201134Y-15733984D01*
X11201134Y-15629222D02*
X11210658Y-15610174D01*
X11210658Y-15610174D02*
X11229705Y-15600650D01*
X11229705Y-15600650D02*
X11258277Y-15600650D01*
X11258277Y-15600650D02*
X11277324Y-15610174D01*
X11277324Y-15610174D02*
X11286848Y-15629222D01*
X11286848Y-15629222D02*
X11286848Y-15733984D01*
X11382086Y-15733984D02*
X11382086Y-15600650D01*
X11382086Y-15619698D02*
X11391610Y-15610174D01*
X11391610Y-15610174D02*
X11410658Y-15600650D01*
X11410658Y-15600650D02*
X11439229Y-15600650D01*
X11439229Y-15600650D02*
X11458277Y-15610174D01*
X11458277Y-15610174D02*
X11467801Y-15629222D01*
X11467801Y-15629222D02*
X11467801Y-15733984D01*
X11467801Y-15629222D02*
X11477324Y-15610174D01*
X11477324Y-15610174D02*
X11496372Y-15600650D01*
X11496372Y-15600650D02*
X11524943Y-15600650D01*
X11524943Y-15600650D02*
X11543991Y-15610174D01*
X11543991Y-15610174D02*
X11553515Y-15629222D01*
X11553515Y-15629222D02*
X11553515Y-15733984D01*
X11943991Y-15524460D02*
X11772563Y-15781603D01*
X12201134Y-15533984D02*
X12220182Y-15533984D01*
X12220182Y-15533984D02*
X12239229Y-15543508D01*
X12239229Y-15543508D02*
X12248753Y-15553031D01*
X12248753Y-15553031D02*
X12258277Y-15572079D01*
X12258277Y-15572079D02*
X12267801Y-15610174D01*
X12267801Y-15610174D02*
X12267801Y-15657793D01*
X12267801Y-15657793D02*
X12258277Y-15695888D01*
X12258277Y-15695888D02*
X12248753Y-15714936D01*
X12248753Y-15714936D02*
X12239229Y-15724460D01*
X12239229Y-15724460D02*
X12220182Y-15733984D01*
X12220182Y-15733984D02*
X12201134Y-15733984D01*
X12201134Y-15733984D02*
X12182086Y-15724460D01*
X12182086Y-15724460D02*
X12172563Y-15714936D01*
X12172563Y-15714936D02*
X12163039Y-15695888D01*
X12163039Y-15695888D02*
X12153515Y-15657793D01*
X12153515Y-15657793D02*
X12153515Y-15610174D01*
X12153515Y-15610174D02*
X12163039Y-15572079D01*
X12163039Y-15572079D02*
X12172563Y-15553031D01*
X12172563Y-15553031D02*
X12182086Y-15543508D01*
X12182086Y-15543508D02*
X12201134Y-15533984D01*
X12353515Y-15714936D02*
X12363039Y-15724460D01*
X12363039Y-15724460D02*
X12353515Y-15733984D01*
X12353515Y-15733984D02*
X12343991Y-15724460D01*
X12343991Y-15724460D02*
X12353515Y-15714936D01*
X12353515Y-15714936D02*
X12353515Y-15733984D01*
X12486848Y-15533984D02*
X12505896Y-15533984D01*
X12505896Y-15533984D02*
X12524944Y-15543508D01*
X12524944Y-15543508D02*
X12534467Y-15553031D01*
X12534467Y-15553031D02*
X12543991Y-15572079D01*
X12543991Y-15572079D02*
X12553515Y-15610174D01*
X12553515Y-15610174D02*
X12553515Y-15657793D01*
X12553515Y-15657793D02*
X12543991Y-15695888D01*
X12543991Y-15695888D02*
X12534467Y-15714936D01*
X12534467Y-15714936D02*
X12524944Y-15724460D01*
X12524944Y-15724460D02*
X12505896Y-15733984D01*
X12505896Y-15733984D02*
X12486848Y-15733984D01*
X12486848Y-15733984D02*
X12467801Y-15724460D01*
X12467801Y-15724460D02*
X12458277Y-15714936D01*
X12458277Y-15714936D02*
X12448753Y-15695888D01*
X12448753Y-15695888D02*
X12439229Y-15657793D01*
X12439229Y-15657793D02*
X12439229Y-15610174D01*
X12439229Y-15610174D02*
X12448753Y-15572079D01*
X12448753Y-15572079D02*
X12458277Y-15553031D01*
X12458277Y-15553031D02*
X12467801Y-15543508D01*
X12467801Y-15543508D02*
X12486848Y-15533984D01*
X12743991Y-15733984D02*
X12629706Y-15733984D01*
X12686848Y-15733984D02*
X12686848Y-15533984D01*
X12686848Y-15533984D02*
X12667801Y-15562555D01*
X12667801Y-15562555D02*
X12648753Y-15581603D01*
X12648753Y-15581603D02*
X12629706Y-15591127D01*
X12934467Y-15733984D02*
X12820182Y-15733984D01*
X12877325Y-15733984D02*
X12877325Y-15533984D01*
X12877325Y-15533984D02*
X12858277Y-15562555D01*
X12858277Y-15562555D02*
X12839229Y-15581603D01*
X12839229Y-15581603D02*
X12820182Y-15591127D01*
X13048753Y-15619698D02*
X13029706Y-15610174D01*
X13029706Y-15610174D02*
X13020182Y-15600650D01*
X13020182Y-15600650D02*
X13010658Y-15581603D01*
X13010658Y-15581603D02*
X13010658Y-15572079D01*
X13010658Y-15572079D02*
X13020182Y-15553031D01*
X13020182Y-15553031D02*
X13029706Y-15543508D01*
X13029706Y-15543508D02*
X13048753Y-15533984D01*
X13048753Y-15533984D02*
X13086848Y-15533984D01*
X13086848Y-15533984D02*
X13105896Y-15543508D01*
X13105896Y-15543508D02*
X13115420Y-15553031D01*
X13115420Y-15553031D02*
X13124944Y-15572079D01*
X13124944Y-15572079D02*
X13124944Y-15581603D01*
X13124944Y-15581603D02*
X13115420Y-15600650D01*
X13115420Y-15600650D02*
X13105896Y-15610174D01*
X13105896Y-15610174D02*
X13086848Y-15619698D01*
X13086848Y-15619698D02*
X13048753Y-15619698D01*
X13048753Y-15619698D02*
X13029706Y-15629222D01*
X13029706Y-15629222D02*
X13020182Y-15638746D01*
X13020182Y-15638746D02*
X13010658Y-15657793D01*
X13010658Y-15657793D02*
X13010658Y-15695888D01*
X13010658Y-15695888D02*
X13020182Y-15714936D01*
X13020182Y-15714936D02*
X13029706Y-15724460D01*
X13029706Y-15724460D02*
X13048753Y-15733984D01*
X13048753Y-15733984D02*
X13086848Y-15733984D01*
X13086848Y-15733984D02*
X13105896Y-15724460D01*
X13105896Y-15724460D02*
X13115420Y-15714936D01*
X13115420Y-15714936D02*
X13124944Y-15695888D01*
X13124944Y-15695888D02*
X13124944Y-15657793D01*
X13124944Y-15657793D02*
X13115420Y-15638746D01*
X13115420Y-15638746D02*
X13105896Y-15629222D01*
X13105896Y-15629222D02*
X13086848Y-15619698D01*
X13201134Y-15533984D02*
X13201134Y-15572079D01*
X13277325Y-15533984D02*
X13277325Y-15572079D01*
X13572563Y-15810174D02*
X13563039Y-15800650D01*
X13563039Y-15800650D02*
X13543991Y-15772079D01*
X13543991Y-15772079D02*
X13534468Y-15753031D01*
X13534468Y-15753031D02*
X13524944Y-15724460D01*
X13524944Y-15724460D02*
X13515420Y-15676841D01*
X13515420Y-15676841D02*
X13515420Y-15638746D01*
X13515420Y-15638746D02*
X13524944Y-15591127D01*
X13524944Y-15591127D02*
X13534468Y-15562555D01*
X13534468Y-15562555D02*
X13543991Y-15543508D01*
X13543991Y-15543508D02*
X13563039Y-15514936D01*
X13563039Y-15514936D02*
X13572563Y-15505412D01*
X13753515Y-15733984D02*
X13639229Y-15733984D01*
X13696372Y-15733984D02*
X13696372Y-15533984D01*
X13696372Y-15533984D02*
X13677325Y-15562555D01*
X13677325Y-15562555D02*
X13658277Y-15581603D01*
X13658277Y-15581603D02*
X13639229Y-15591127D01*
X13867801Y-15619698D02*
X13848753Y-15610174D01*
X13848753Y-15610174D02*
X13839229Y-15600650D01*
X13839229Y-15600650D02*
X13829706Y-15581603D01*
X13829706Y-15581603D02*
X13829706Y-15572079D01*
X13829706Y-15572079D02*
X13839229Y-15553031D01*
X13839229Y-15553031D02*
X13848753Y-15543508D01*
X13848753Y-15543508D02*
X13867801Y-15533984D01*
X13867801Y-15533984D02*
X13905896Y-15533984D01*
X13905896Y-15533984D02*
X13924944Y-15543508D01*
X13924944Y-15543508D02*
X13934468Y-15553031D01*
X13934468Y-15553031D02*
X13943991Y-15572079D01*
X13943991Y-15572079D02*
X13943991Y-15581603D01*
X13943991Y-15581603D02*
X13934468Y-15600650D01*
X13934468Y-15600650D02*
X13924944Y-15610174D01*
X13924944Y-15610174D02*
X13905896Y-15619698D01*
X13905896Y-15619698D02*
X13867801Y-15619698D01*
X13867801Y-15619698D02*
X13848753Y-15629222D01*
X13848753Y-15629222D02*
X13839229Y-15638746D01*
X13839229Y-15638746D02*
X13829706Y-15657793D01*
X13829706Y-15657793D02*
X13829706Y-15695888D01*
X13829706Y-15695888D02*
X13839229Y-15714936D01*
X13839229Y-15714936D02*
X13848753Y-15724460D01*
X13848753Y-15724460D02*
X13867801Y-15733984D01*
X13867801Y-15733984D02*
X13905896Y-15733984D01*
X13905896Y-15733984D02*
X13924944Y-15724460D01*
X13924944Y-15724460D02*
X13934468Y-15714936D01*
X13934468Y-15714936D02*
X13943991Y-15695888D01*
X13943991Y-15695888D02*
X13943991Y-15657793D01*
X13943991Y-15657793D02*
X13934468Y-15638746D01*
X13934468Y-15638746D02*
X13924944Y-15629222D01*
X13924944Y-15629222D02*
X13905896Y-15619698D01*
X14010658Y-15533984D02*
X14143991Y-15533984D01*
X14143991Y-15533984D02*
X14058277Y-15733984D01*
X14372563Y-15733984D02*
X14372563Y-15533984D01*
X14458277Y-15733984D02*
X14458277Y-15629222D01*
X14458277Y-15629222D02*
X14448753Y-15610174D01*
X14448753Y-15610174D02*
X14429706Y-15600650D01*
X14429706Y-15600650D02*
X14401134Y-15600650D01*
X14401134Y-15600650D02*
X14382087Y-15610174D01*
X14382087Y-15610174D02*
X14372563Y-15619698D01*
X14582087Y-15733984D02*
X14563039Y-15724460D01*
X14563039Y-15724460D02*
X14553515Y-15714936D01*
X14553515Y-15714936D02*
X14543991Y-15695888D01*
X14543991Y-15695888D02*
X14543991Y-15638746D01*
X14543991Y-15638746D02*
X14553515Y-15619698D01*
X14553515Y-15619698D02*
X14563039Y-15610174D01*
X14563039Y-15610174D02*
X14582087Y-15600650D01*
X14582087Y-15600650D02*
X14610658Y-15600650D01*
X14610658Y-15600650D02*
X14629706Y-15610174D01*
X14629706Y-15610174D02*
X14639230Y-15619698D01*
X14639230Y-15619698D02*
X14648753Y-15638746D01*
X14648753Y-15638746D02*
X14648753Y-15695888D01*
X14648753Y-15695888D02*
X14639230Y-15714936D01*
X14639230Y-15714936D02*
X14629706Y-15724460D01*
X14629706Y-15724460D02*
X14610658Y-15733984D01*
X14610658Y-15733984D02*
X14582087Y-15733984D01*
X14763039Y-15733984D02*
X14743991Y-15724460D01*
X14743991Y-15724460D02*
X14734468Y-15705412D01*
X14734468Y-15705412D02*
X14734468Y-15533984D01*
X14915420Y-15724460D02*
X14896372Y-15733984D01*
X14896372Y-15733984D02*
X14858277Y-15733984D01*
X14858277Y-15733984D02*
X14839230Y-15724460D01*
X14839230Y-15724460D02*
X14829706Y-15705412D01*
X14829706Y-15705412D02*
X14829706Y-15629222D01*
X14829706Y-15629222D02*
X14839230Y-15610174D01*
X14839230Y-15610174D02*
X14858277Y-15600650D01*
X14858277Y-15600650D02*
X14896372Y-15600650D01*
X14896372Y-15600650D02*
X14915420Y-15610174D01*
X14915420Y-15610174D02*
X14924944Y-15629222D01*
X14924944Y-15629222D02*
X14924944Y-15648269D01*
X14924944Y-15648269D02*
X14829706Y-15667317D01*
X15001134Y-15724460D02*
X15020182Y-15733984D01*
X15020182Y-15733984D02*
X15058277Y-15733984D01*
X15058277Y-15733984D02*
X15077325Y-15724460D01*
X15077325Y-15724460D02*
X15086849Y-15705412D01*
X15086849Y-15705412D02*
X15086849Y-15695888D01*
X15086849Y-15695888D02*
X15077325Y-15676841D01*
X15077325Y-15676841D02*
X15058277Y-15667317D01*
X15058277Y-15667317D02*
X15029706Y-15667317D01*
X15029706Y-15667317D02*
X15010658Y-15657793D01*
X15010658Y-15657793D02*
X15001134Y-15638746D01*
X15001134Y-15638746D02*
X15001134Y-15629222D01*
X15001134Y-15629222D02*
X15010658Y-15610174D01*
X15010658Y-15610174D02*
X15029706Y-15600650D01*
X15029706Y-15600650D02*
X15058277Y-15600650D01*
X15058277Y-15600650D02*
X15077325Y-15610174D01*
X15153515Y-15810174D02*
X15163039Y-15800650D01*
X15163039Y-15800650D02*
X15182087Y-15772079D01*
X15182087Y-15772079D02*
X15191611Y-15753031D01*
X15191611Y-15753031D02*
X15201134Y-15724460D01*
X15201134Y-15724460D02*
X15210658Y-15676841D01*
X15210658Y-15676841D02*
X15210658Y-15638746D01*
X15210658Y-15638746D02*
X15201134Y-15591127D01*
X15201134Y-15591127D02*
X15191611Y-15562555D01*
X15191611Y-15562555D02*
X15182087Y-15543508D01*
X15182087Y-15543508D02*
X15163039Y-15514936D01*
X15163039Y-15514936D02*
X15153515Y-15505412D01*
M02*
