G04 #@! TF.GenerationSoftware,KiCad,Pcbnew,8.0.4*
G04 #@! TF.CreationDate,2024-09-30T00:02:48+08:00*
G04 #@! TF.ProjectId,Transformer_Monitor_V1,5472616e-7366-46f7-926d-65725f4d6f6e,rev?*
G04 #@! TF.SameCoordinates,Original*
G04 #@! TF.FileFunction,Legend,Top*
G04 #@! TF.FilePolarity,Positive*
%FSLAX46Y46*%
G04 Gerber Fmt 4.6, Leading zero omitted, Abs format (unit mm)*
G04 Created by KiCad (PCBNEW 8.0.4) date 2024-09-30 00:02:48*
%MOMM*%
%LPD*%
G01*
G04 APERTURE LIST*
G04 Aperture macros list*
%AMRoundRect*
0 Rectangle with rounded corners*
0 $1 Rounding radius*
0 $2 $3 $4 $5 $6 $7 $8 $9 X,Y pos of 4 corners*
0 Add a 4 corners polygon primitive as box body*
4,1,4,$2,$3,$4,$5,$6,$7,$8,$9,$2,$3,0*
0 Add four circle primitives for the rounded corners*
1,1,$1+$1,$2,$3*
1,1,$1+$1,$4,$5*
1,1,$1+$1,$6,$7*
1,1,$1+$1,$8,$9*
0 Add four rect primitives between the rounded corners*
20,1,$1+$1,$2,$3,$4,$5,0*
20,1,$1+$1,$4,$5,$6,$7,0*
20,1,$1+$1,$6,$7,$8,$9,0*
20,1,$1+$1,$8,$9,$2,$3,0*%
%AMRotRect*
0 Rectangle, with rotation*
0 The origin of the aperture is its center*
0 $1 length*
0 $2 width*
0 $3 Rotation angle, in degrees counterclockwise*
0 Add horizontal line*
21,1,$1,$2,0,0,$3*%
G04 Aperture macros list end*
%ADD10C,0.100000*%
%ADD11C,0.150000*%
%ADD12C,0.300000*%
%ADD13C,0.120000*%
%ADD14C,0.152400*%
%ADD15C,2.000000*%
%ADD16RotRect,0.990600X3.708400X45.000000*%
%ADD17RotRect,0.990600X3.708400X315.000000*%
%ADD18RoundRect,0.200000X-0.275000X0.200000X-0.275000X-0.200000X0.275000X-0.200000X0.275000X0.200000X0*%
%ADD19RoundRect,0.225000X0.250000X-0.225000X0.250000X0.225000X-0.250000X0.225000X-0.250000X-0.225000X0*%
%ADD20RoundRect,0.225000X-0.225000X-0.250000X0.225000X-0.250000X0.225000X0.250000X-0.225000X0.250000X0*%
%ADD21RoundRect,0.225000X-0.250000X0.225000X-0.250000X-0.225000X0.250000X-0.225000X0.250000X0.225000X0*%
%ADD22RoundRect,0.225000X0.225000X0.250000X-0.225000X0.250000X-0.225000X-0.250000X0.225000X-0.250000X0*%
%ADD23R,0.990600X3.708400*%
%ADD24RoundRect,0.200000X-0.200000X-0.275000X0.200000X-0.275000X0.200000X0.275000X-0.200000X0.275000X0*%
%ADD25RoundRect,0.317500X-0.317500X1.157500X-0.317500X-1.157500X0.317500X-1.157500X0.317500X1.157500X0*%
%ADD26R,3.708400X0.990600*%
%ADD27R,1.500000X0.550000*%
%ADD28R,0.550000X1.500000*%
%ADD29R,1.050000X2.200000*%
%ADD30R,1.000000X1.050000*%
%ADD31RotRect,0.990600X3.708400X135.000000*%
%ADD32R,0.762000X4.394200*%
%ADD33RotRect,0.990600X3.708400X225.000000*%
%ADD34RoundRect,0.200000X0.275000X-0.200000X0.275000X0.200000X-0.275000X0.200000X-0.275000X-0.200000X0*%
%ADD35R,1.270000X0.558800*%
G04 APERTURE END LIST*
D10*
X129000000Y-115000000D02*
G75*
G02*
X119000000Y-115000000I-5000000J0D01*
G01*
X119000000Y-115000000D02*
G75*
G02*
X129000000Y-115000000I5000000J0D01*
G01*
X155000000Y-70000000D02*
G75*
G02*
X145000000Y-70000000I-5000000J0D01*
G01*
X145000000Y-70000000D02*
G75*
G02*
X155000000Y-70000000I5000000J0D01*
G01*
X180980000Y-115000000D02*
G75*
G02*
X170980000Y-115000000I-5000000J0D01*
G01*
X170980000Y-115000000D02*
G75*
G02*
X180980000Y-115000000I5000000J0D01*
G01*
D11*
X151025862Y-52554794D02*
X151025862Y-53030984D01*
X150740147Y-52459556D02*
X151740147Y-52792889D01*
X151740147Y-52792889D02*
X150740147Y-53126222D01*
X150740147Y-53459556D02*
X151740147Y-53459556D01*
X151740147Y-53459556D02*
X151740147Y-53697651D01*
X151740147Y-53697651D02*
X151692528Y-53840508D01*
X151692528Y-53840508D02*
X151597290Y-53935746D01*
X151597290Y-53935746D02*
X151502052Y-53983365D01*
X151502052Y-53983365D02*
X151311576Y-54030984D01*
X151311576Y-54030984D02*
X151168719Y-54030984D01*
X151168719Y-54030984D02*
X150978243Y-53983365D01*
X150978243Y-53983365D02*
X150883005Y-53935746D01*
X150883005Y-53935746D02*
X150787767Y-53840508D01*
X150787767Y-53840508D02*
X150740147Y-53697651D01*
X150740147Y-53697651D02*
X150740147Y-53459556D01*
X150835386Y-55030984D02*
X150787767Y-54983365D01*
X150787767Y-54983365D02*
X150740147Y-54840508D01*
X150740147Y-54840508D02*
X150740147Y-54745270D01*
X150740147Y-54745270D02*
X150787767Y-54602413D01*
X150787767Y-54602413D02*
X150883005Y-54507175D01*
X150883005Y-54507175D02*
X150978243Y-54459556D01*
X150978243Y-54459556D02*
X151168719Y-54411937D01*
X151168719Y-54411937D02*
X151311576Y-54411937D01*
X151311576Y-54411937D02*
X151502052Y-54459556D01*
X151502052Y-54459556D02*
X151597290Y-54507175D01*
X151597290Y-54507175D02*
X151692528Y-54602413D01*
X151692528Y-54602413D02*
X151740147Y-54745270D01*
X151740147Y-54745270D02*
X151740147Y-54840508D01*
X151740147Y-54840508D02*
X151692528Y-54983365D01*
X151692528Y-54983365D02*
X151644909Y-55030984D01*
X151740147Y-55650032D02*
X151740147Y-55745270D01*
X151740147Y-55745270D02*
X151692528Y-55840508D01*
X151692528Y-55840508D02*
X151644909Y-55888127D01*
X151644909Y-55888127D02*
X151549671Y-55935746D01*
X151549671Y-55935746D02*
X151359195Y-55983365D01*
X151359195Y-55983365D02*
X151121100Y-55983365D01*
X151121100Y-55983365D02*
X150930624Y-55935746D01*
X150930624Y-55935746D02*
X150835386Y-55888127D01*
X150835386Y-55888127D02*
X150787767Y-55840508D01*
X150787767Y-55840508D02*
X150740147Y-55745270D01*
X150740147Y-55745270D02*
X150740147Y-55650032D01*
X150740147Y-55650032D02*
X150787767Y-55554794D01*
X150787767Y-55554794D02*
X150835386Y-55507175D01*
X150835386Y-55507175D02*
X150930624Y-55459556D01*
X150930624Y-55459556D02*
X151121100Y-55411937D01*
X151121100Y-55411937D02*
X151359195Y-55411937D01*
X151359195Y-55411937D02*
X151549671Y-55459556D01*
X151549671Y-55459556D02*
X151644909Y-55507175D01*
X151644909Y-55507175D02*
X151692528Y-55554794D01*
X151692528Y-55554794D02*
X151740147Y-55650032D01*
X145417438Y-146389411D02*
X145369819Y-146484649D01*
X145369819Y-146484649D02*
X145369819Y-146627506D01*
X145369819Y-146627506D02*
X145417438Y-146770363D01*
X145417438Y-146770363D02*
X145512676Y-146865601D01*
X145512676Y-146865601D02*
X145607914Y-146913220D01*
X145607914Y-146913220D02*
X145798390Y-146960839D01*
X145798390Y-146960839D02*
X145941247Y-146960839D01*
X145941247Y-146960839D02*
X146131723Y-146913220D01*
X146131723Y-146913220D02*
X146226961Y-146865601D01*
X146226961Y-146865601D02*
X146322200Y-146770363D01*
X146322200Y-146770363D02*
X146369819Y-146627506D01*
X146369819Y-146627506D02*
X146369819Y-146532268D01*
X146369819Y-146532268D02*
X146322200Y-146389411D01*
X146322200Y-146389411D02*
X146274580Y-146341792D01*
X146274580Y-146341792D02*
X145941247Y-146341792D01*
X145941247Y-146341792D02*
X145941247Y-146532268D01*
X146369819Y-145913220D02*
X145369819Y-145913220D01*
X145369819Y-145913220D02*
X146369819Y-145341792D01*
X146369819Y-145341792D02*
X145369819Y-145341792D01*
X146369819Y-144865601D02*
X145369819Y-144865601D01*
X145369819Y-144865601D02*
X145369819Y-144627506D01*
X145369819Y-144627506D02*
X145417438Y-144484649D01*
X145417438Y-144484649D02*
X145512676Y-144389411D01*
X145512676Y-144389411D02*
X145607914Y-144341792D01*
X145607914Y-144341792D02*
X145798390Y-144294173D01*
X145798390Y-144294173D02*
X145941247Y-144294173D01*
X145941247Y-144294173D02*
X146131723Y-144341792D01*
X146131723Y-144341792D02*
X146226961Y-144389411D01*
X146226961Y-144389411D02*
X146322200Y-144484649D01*
X146322200Y-144484649D02*
X146369819Y-144627506D01*
X146369819Y-144627506D02*
X146369819Y-144865601D01*
X119580190Y-64646087D02*
X120287297Y-63938980D01*
X120287297Y-63938980D02*
X120556671Y-64208354D01*
X120556671Y-64208354D02*
X120590343Y-64309369D01*
X120590343Y-64309369D02*
X120590343Y-64376713D01*
X120590343Y-64376713D02*
X120556671Y-64477728D01*
X120556671Y-64477728D02*
X120455656Y-64578743D01*
X120455656Y-64578743D02*
X120354641Y-64612415D01*
X120354641Y-64612415D02*
X120287297Y-64612415D01*
X120287297Y-64612415D02*
X120186282Y-64578743D01*
X120186282Y-64578743D02*
X119916908Y-64309369D01*
X120758702Y-65689911D02*
X120691358Y-65689911D01*
X120691358Y-65689911D02*
X120556671Y-65622567D01*
X120556671Y-65622567D02*
X120489328Y-65555224D01*
X120489328Y-65555224D02*
X120421984Y-65420537D01*
X120421984Y-65420537D02*
X120421984Y-65285850D01*
X120421984Y-65285850D02*
X120455656Y-65184835D01*
X120455656Y-65184835D02*
X120556671Y-65016476D01*
X120556671Y-65016476D02*
X120657686Y-64915461D01*
X120657686Y-64915461D02*
X120826045Y-64814445D01*
X120826045Y-64814445D02*
X120927060Y-64780774D01*
X120927060Y-64780774D02*
X121061747Y-64780774D01*
X121061747Y-64780774D02*
X121196434Y-64848117D01*
X121196434Y-64848117D02*
X121263778Y-64915461D01*
X121263778Y-64915461D02*
X121331121Y-65050148D01*
X121331121Y-65050148D02*
X121331121Y-65117491D01*
X121768854Y-65891941D02*
X121297450Y-66363346D01*
X121869869Y-65454209D02*
X121196434Y-65790926D01*
X121196434Y-65790926D02*
X121634167Y-66228659D01*
X178910384Y-66001450D02*
X179247102Y-65664733D01*
X179045071Y-66270824D02*
X178573667Y-65328015D01*
X178573667Y-65328015D02*
X179516476Y-65799420D01*
X180156239Y-65159656D02*
X179583819Y-65058641D01*
X179752178Y-65563717D02*
X179045071Y-64856610D01*
X179045071Y-64856610D02*
X179314445Y-64587236D01*
X179314445Y-64587236D02*
X179415461Y-64553565D01*
X179415461Y-64553565D02*
X179482804Y-64553565D01*
X179482804Y-64553565D02*
X179583819Y-64587236D01*
X179583819Y-64587236D02*
X179684835Y-64688252D01*
X179684835Y-64688252D02*
X179718506Y-64789267D01*
X179718506Y-64789267D02*
X179718506Y-64856610D01*
X179718506Y-64856610D02*
X179684835Y-64957626D01*
X179684835Y-64957626D02*
X179415461Y-65227000D01*
X180088896Y-64486221D02*
X180324598Y-64250519D01*
X180796002Y-64519893D02*
X180459285Y-64856610D01*
X180459285Y-64856610D02*
X179752178Y-64149504D01*
X179752178Y-64149504D02*
X180088896Y-63812786D01*
X180964361Y-63610756D02*
X180728659Y-63846458D01*
X181099048Y-64216847D02*
X180391942Y-63509740D01*
X180391942Y-63509740D02*
X180728659Y-63173023D01*
X103086779Y-96619819D02*
X103086779Y-95619819D01*
X103086779Y-95619819D02*
X103467731Y-95619819D01*
X103467731Y-95619819D02*
X103562969Y-95667438D01*
X103562969Y-95667438D02*
X103610588Y-95715057D01*
X103610588Y-95715057D02*
X103658207Y-95810295D01*
X103658207Y-95810295D02*
X103658207Y-95953152D01*
X103658207Y-95953152D02*
X103610588Y-96048390D01*
X103610588Y-96048390D02*
X103562969Y-96096009D01*
X103562969Y-96096009D02*
X103467731Y-96143628D01*
X103467731Y-96143628D02*
X103086779Y-96143628D01*
X104086779Y-96619819D02*
X104086779Y-95619819D01*
X104086779Y-95619819D02*
X104324874Y-95619819D01*
X104324874Y-95619819D02*
X104467731Y-95667438D01*
X104467731Y-95667438D02*
X104562969Y-95762676D01*
X104562969Y-95762676D02*
X104610588Y-95857914D01*
X104610588Y-95857914D02*
X104658207Y-96048390D01*
X104658207Y-96048390D02*
X104658207Y-96191247D01*
X104658207Y-96191247D02*
X104610588Y-96381723D01*
X104610588Y-96381723D02*
X104562969Y-96476961D01*
X104562969Y-96476961D02*
X104467731Y-96572200D01*
X104467731Y-96572200D02*
X104324874Y-96619819D01*
X104324874Y-96619819D02*
X104086779Y-96619819D01*
X105039160Y-95715057D02*
X105086779Y-95667438D01*
X105086779Y-95667438D02*
X105182017Y-95619819D01*
X105182017Y-95619819D02*
X105420112Y-95619819D01*
X105420112Y-95619819D02*
X105515350Y-95667438D01*
X105515350Y-95667438D02*
X105562969Y-95715057D01*
X105562969Y-95715057D02*
X105610588Y-95810295D01*
X105610588Y-95810295D02*
X105610588Y-95905533D01*
X105610588Y-95905533D02*
X105562969Y-96048390D01*
X105562969Y-96048390D02*
X104991541Y-96619819D01*
X104991541Y-96619819D02*
X105610588Y-96619819D01*
X150667438Y-146389411D02*
X150619819Y-146484649D01*
X150619819Y-146484649D02*
X150619819Y-146627506D01*
X150619819Y-146627506D02*
X150667438Y-146770363D01*
X150667438Y-146770363D02*
X150762676Y-146865601D01*
X150762676Y-146865601D02*
X150857914Y-146913220D01*
X150857914Y-146913220D02*
X151048390Y-146960839D01*
X151048390Y-146960839D02*
X151191247Y-146960839D01*
X151191247Y-146960839D02*
X151381723Y-146913220D01*
X151381723Y-146913220D02*
X151476961Y-146865601D01*
X151476961Y-146865601D02*
X151572200Y-146770363D01*
X151572200Y-146770363D02*
X151619819Y-146627506D01*
X151619819Y-146627506D02*
X151619819Y-146532268D01*
X151619819Y-146532268D02*
X151572200Y-146389411D01*
X151572200Y-146389411D02*
X151524580Y-146341792D01*
X151524580Y-146341792D02*
X151191247Y-146341792D01*
X151191247Y-146341792D02*
X151191247Y-146532268D01*
X151619819Y-145913220D02*
X150619819Y-145913220D01*
X150619819Y-145913220D02*
X151619819Y-145341792D01*
X151619819Y-145341792D02*
X150619819Y-145341792D01*
X151619819Y-144865601D02*
X150619819Y-144865601D01*
X150619819Y-144865601D02*
X150619819Y-144627506D01*
X150619819Y-144627506D02*
X150667438Y-144484649D01*
X150667438Y-144484649D02*
X150762676Y-144389411D01*
X150762676Y-144389411D02*
X150857914Y-144341792D01*
X150857914Y-144341792D02*
X151048390Y-144294173D01*
X151048390Y-144294173D02*
X151191247Y-144294173D01*
X151191247Y-144294173D02*
X151381723Y-144341792D01*
X151381723Y-144341792D02*
X151476961Y-144389411D01*
X151476961Y-144389411D02*
X151572200Y-144484649D01*
X151572200Y-144484649D02*
X151619819Y-144627506D01*
X151619819Y-144627506D02*
X151619819Y-144865601D01*
X117621636Y-133780046D02*
X118059369Y-133342313D01*
X118059369Y-133342313D02*
X118093041Y-133847389D01*
X118093041Y-133847389D02*
X118194056Y-133746374D01*
X118194056Y-133746374D02*
X118295071Y-133712702D01*
X118295071Y-133712702D02*
X118362415Y-133712702D01*
X118362415Y-133712702D02*
X118463430Y-133746374D01*
X118463430Y-133746374D02*
X118631789Y-133914733D01*
X118631789Y-133914733D02*
X118665461Y-134015748D01*
X118665461Y-134015748D02*
X118665461Y-134083091D01*
X118665461Y-134083091D02*
X118631789Y-134184107D01*
X118631789Y-134184107D02*
X118429758Y-134386137D01*
X118429758Y-134386137D02*
X118328743Y-134419809D01*
X118328743Y-134419809D02*
X118261400Y-134419809D01*
X118261400Y-133140282D02*
X119204209Y-133611687D01*
X119204209Y-133611687D02*
X118732804Y-132668878D01*
X118901163Y-132500519D02*
X119338896Y-132062786D01*
X119338896Y-132062786D02*
X119372567Y-132567862D01*
X119372567Y-132567862D02*
X119473583Y-132466847D01*
X119473583Y-132466847D02*
X119574598Y-132433175D01*
X119574598Y-132433175D02*
X119641941Y-132433175D01*
X119641941Y-132433175D02*
X119742957Y-132466847D01*
X119742957Y-132466847D02*
X119911316Y-132635206D01*
X119911316Y-132635206D02*
X119944987Y-132736221D01*
X119944987Y-132736221D02*
X119944987Y-132803565D01*
X119944987Y-132803565D02*
X119911316Y-132904580D01*
X119911316Y-132904580D02*
X119709285Y-133106610D01*
X119709285Y-133106610D02*
X119608270Y-133140282D01*
X119608270Y-133140282D02*
X119540926Y-133140282D01*
X180330190Y-132396087D02*
X181037297Y-131688980D01*
X181037297Y-131688980D02*
X180767923Y-132429758D01*
X180767923Y-132429758D02*
X181508702Y-132160384D01*
X181508702Y-132160384D02*
X180801595Y-132867491D01*
X181138312Y-133204208D02*
X181845419Y-132497102D01*
X181475029Y-133473582D02*
X181542373Y-133608269D01*
X181542373Y-133608269D02*
X181710732Y-133776628D01*
X181710732Y-133776628D02*
X181811747Y-133810300D01*
X181811747Y-133810300D02*
X181879090Y-133810300D01*
X181879090Y-133810300D02*
X181980106Y-133776628D01*
X181980106Y-133776628D02*
X182047449Y-133709284D01*
X182047449Y-133709284D02*
X182081121Y-133608269D01*
X182081121Y-133608269D02*
X182081121Y-133540926D01*
X182081121Y-133540926D02*
X182047449Y-133439910D01*
X182047449Y-133439910D02*
X181946434Y-133271552D01*
X181946434Y-133271552D02*
X181912762Y-133170536D01*
X181912762Y-133170536D02*
X181912762Y-133103193D01*
X181912762Y-133103193D02*
X181946434Y-133002178D01*
X181946434Y-133002178D02*
X182013777Y-132934834D01*
X182013777Y-132934834D02*
X182114793Y-132901162D01*
X182114793Y-132901162D02*
X182182136Y-132901162D01*
X182182136Y-132901162D02*
X182283151Y-132934834D01*
X182283151Y-132934834D02*
X182451510Y-133103193D01*
X182451510Y-133103193D02*
X182518854Y-133237880D01*
X182990258Y-133641941D02*
X183124945Y-133776628D01*
X183124945Y-133776628D02*
X183158617Y-133877643D01*
X183158617Y-133877643D02*
X183158617Y-134012330D01*
X183158617Y-134012330D02*
X183057602Y-134180689D01*
X183057602Y-134180689D02*
X182821899Y-134416391D01*
X182821899Y-134416391D02*
X182653541Y-134517406D01*
X182653541Y-134517406D02*
X182518854Y-134517406D01*
X182518854Y-134517406D02*
X182417838Y-134483735D01*
X182417838Y-134483735D02*
X182283151Y-134349048D01*
X182283151Y-134349048D02*
X182249480Y-134248032D01*
X182249480Y-134248032D02*
X182249480Y-134113345D01*
X182249480Y-134113345D02*
X182350495Y-133944987D01*
X182350495Y-133944987D02*
X182586197Y-133709284D01*
X182586197Y-133709284D02*
X182754556Y-133608269D01*
X182754556Y-133608269D02*
X182889243Y-133608269D01*
X182889243Y-133608269D02*
X182990258Y-133641941D01*
X183731037Y-134382719D02*
X183798380Y-134450063D01*
X183798380Y-134450063D02*
X183832052Y-134551078D01*
X183832052Y-134551078D02*
X183832052Y-134618422D01*
X183832052Y-134618422D02*
X183798380Y-134719437D01*
X183798380Y-134719437D02*
X183697365Y-134887796D01*
X183697365Y-134887796D02*
X183529006Y-135056154D01*
X183529006Y-135056154D02*
X183360647Y-135157170D01*
X183360647Y-135157170D02*
X183259632Y-135190841D01*
X183259632Y-135190841D02*
X183192289Y-135190841D01*
X183192289Y-135190841D02*
X183091273Y-135157170D01*
X183091273Y-135157170D02*
X183023930Y-135089826D01*
X183023930Y-135089826D02*
X182990258Y-134988811D01*
X182990258Y-134988811D02*
X182990258Y-134921467D01*
X182990258Y-134921467D02*
X183023930Y-134820452D01*
X183023930Y-134820452D02*
X183124945Y-134652093D01*
X183124945Y-134652093D02*
X183293304Y-134483735D01*
X183293304Y-134483735D02*
X183461663Y-134382719D01*
X183461663Y-134382719D02*
X183562678Y-134349048D01*
X183562678Y-134349048D02*
X183630021Y-134349048D01*
X183630021Y-134349048D02*
X183731037Y-134382719D01*
X103086779Y-99119819D02*
X103086779Y-98119819D01*
X103086779Y-98119819D02*
X103467731Y-98119819D01*
X103467731Y-98119819D02*
X103562969Y-98167438D01*
X103562969Y-98167438D02*
X103610588Y-98215057D01*
X103610588Y-98215057D02*
X103658207Y-98310295D01*
X103658207Y-98310295D02*
X103658207Y-98453152D01*
X103658207Y-98453152D02*
X103610588Y-98548390D01*
X103610588Y-98548390D02*
X103562969Y-98596009D01*
X103562969Y-98596009D02*
X103467731Y-98643628D01*
X103467731Y-98643628D02*
X103086779Y-98643628D01*
X104086779Y-99119819D02*
X104086779Y-98119819D01*
X104086779Y-98119819D02*
X104324874Y-98119819D01*
X104324874Y-98119819D02*
X104467731Y-98167438D01*
X104467731Y-98167438D02*
X104562969Y-98262676D01*
X104562969Y-98262676D02*
X104610588Y-98357914D01*
X104610588Y-98357914D02*
X104658207Y-98548390D01*
X104658207Y-98548390D02*
X104658207Y-98691247D01*
X104658207Y-98691247D02*
X104610588Y-98881723D01*
X104610588Y-98881723D02*
X104562969Y-98976961D01*
X104562969Y-98976961D02*
X104467731Y-99072200D01*
X104467731Y-99072200D02*
X104324874Y-99119819D01*
X104324874Y-99119819D02*
X104086779Y-99119819D01*
X104991541Y-98119819D02*
X105610588Y-98119819D01*
X105610588Y-98119819D02*
X105277255Y-98500771D01*
X105277255Y-98500771D02*
X105420112Y-98500771D01*
X105420112Y-98500771D02*
X105515350Y-98548390D01*
X105515350Y-98548390D02*
X105562969Y-98596009D01*
X105562969Y-98596009D02*
X105610588Y-98691247D01*
X105610588Y-98691247D02*
X105610588Y-98929342D01*
X105610588Y-98929342D02*
X105562969Y-99024580D01*
X105562969Y-99024580D02*
X105515350Y-99072200D01*
X105515350Y-99072200D02*
X105420112Y-99119819D01*
X105420112Y-99119819D02*
X105134398Y-99119819D01*
X105134398Y-99119819D02*
X105039160Y-99072200D01*
X105039160Y-99072200D02*
X104991541Y-99024580D01*
X194908207Y-96869819D02*
X194574874Y-96393628D01*
X194336779Y-96869819D02*
X194336779Y-95869819D01*
X194336779Y-95869819D02*
X194717731Y-95869819D01*
X194717731Y-95869819D02*
X194812969Y-95917438D01*
X194812969Y-95917438D02*
X194860588Y-95965057D01*
X194860588Y-95965057D02*
X194908207Y-96060295D01*
X194908207Y-96060295D02*
X194908207Y-96203152D01*
X194908207Y-96203152D02*
X194860588Y-96298390D01*
X194860588Y-96298390D02*
X194812969Y-96346009D01*
X194812969Y-96346009D02*
X194717731Y-96393628D01*
X194717731Y-96393628D02*
X194336779Y-96393628D01*
X195336779Y-96346009D02*
X195670112Y-96346009D01*
X195812969Y-96869819D02*
X195336779Y-96869819D01*
X195336779Y-96869819D02*
X195336779Y-95869819D01*
X195336779Y-95869819D02*
X195812969Y-95869819D01*
X196193922Y-96822200D02*
X196336779Y-96869819D01*
X196336779Y-96869819D02*
X196574874Y-96869819D01*
X196574874Y-96869819D02*
X196670112Y-96822200D01*
X196670112Y-96822200D02*
X196717731Y-96774580D01*
X196717731Y-96774580D02*
X196765350Y-96679342D01*
X196765350Y-96679342D02*
X196765350Y-96584104D01*
X196765350Y-96584104D02*
X196717731Y-96488866D01*
X196717731Y-96488866D02*
X196670112Y-96441247D01*
X196670112Y-96441247D02*
X196574874Y-96393628D01*
X196574874Y-96393628D02*
X196384398Y-96346009D01*
X196384398Y-96346009D02*
X196289160Y-96298390D01*
X196289160Y-96298390D02*
X196241541Y-96250771D01*
X196241541Y-96250771D02*
X196193922Y-96155533D01*
X196193922Y-96155533D02*
X196193922Y-96060295D01*
X196193922Y-96060295D02*
X196241541Y-95965057D01*
X196241541Y-95965057D02*
X196289160Y-95917438D01*
X196289160Y-95917438D02*
X196384398Y-95869819D01*
X196384398Y-95869819D02*
X196622493Y-95869819D01*
X196622493Y-95869819D02*
X196765350Y-95917438D01*
X197193922Y-96346009D02*
X197527255Y-96346009D01*
X197670112Y-96869819D02*
X197193922Y-96869819D01*
X197193922Y-96869819D02*
X197193922Y-95869819D01*
X197193922Y-95869819D02*
X197670112Y-95869819D01*
X197955827Y-95869819D02*
X198527255Y-95869819D01*
X198241541Y-96869819D02*
X198241541Y-95869819D01*
X194198684Y-95592200D02*
X198522494Y-95592200D01*
X115621636Y-131780046D02*
X116059369Y-131342313D01*
X116059369Y-131342313D02*
X116093041Y-131847389D01*
X116093041Y-131847389D02*
X116194056Y-131746374D01*
X116194056Y-131746374D02*
X116295071Y-131712702D01*
X116295071Y-131712702D02*
X116362415Y-131712702D01*
X116362415Y-131712702D02*
X116463430Y-131746374D01*
X116463430Y-131746374D02*
X116631789Y-131914733D01*
X116631789Y-131914733D02*
X116665461Y-132015748D01*
X116665461Y-132015748D02*
X116665461Y-132083091D01*
X116665461Y-132083091D02*
X116631789Y-132184107D01*
X116631789Y-132184107D02*
X116429758Y-132386137D01*
X116429758Y-132386137D02*
X116328743Y-132419809D01*
X116328743Y-132419809D02*
X116261400Y-132419809D01*
X116261400Y-131140282D02*
X117204209Y-131611687D01*
X117204209Y-131611687D02*
X116732804Y-130668878D01*
X116901163Y-130500519D02*
X117338896Y-130062786D01*
X117338896Y-130062786D02*
X117372567Y-130567862D01*
X117372567Y-130567862D02*
X117473583Y-130466847D01*
X117473583Y-130466847D02*
X117574598Y-130433175D01*
X117574598Y-130433175D02*
X117641941Y-130433175D01*
X117641941Y-130433175D02*
X117742957Y-130466847D01*
X117742957Y-130466847D02*
X117911316Y-130635206D01*
X117911316Y-130635206D02*
X117944987Y-130736221D01*
X117944987Y-130736221D02*
X117944987Y-130803565D01*
X117944987Y-130803565D02*
X117911316Y-130904580D01*
X117911316Y-130904580D02*
X117709285Y-131106610D01*
X117709285Y-131106610D02*
X117608270Y-131140282D01*
X117608270Y-131140282D02*
X117540926Y-131140282D01*
X180410384Y-67501450D02*
X180747102Y-67164733D01*
X180545071Y-67770824D02*
X180073667Y-66828015D01*
X180073667Y-66828015D02*
X181016476Y-67299420D01*
X181656239Y-66659656D02*
X181083819Y-66558641D01*
X181252178Y-67063717D02*
X180545071Y-66356610D01*
X180545071Y-66356610D02*
X180814445Y-66087236D01*
X180814445Y-66087236D02*
X180915461Y-66053565D01*
X180915461Y-66053565D02*
X180982804Y-66053565D01*
X180982804Y-66053565D02*
X181083819Y-66087236D01*
X181083819Y-66087236D02*
X181184835Y-66188252D01*
X181184835Y-66188252D02*
X181218506Y-66289267D01*
X181218506Y-66289267D02*
X181218506Y-66356610D01*
X181218506Y-66356610D02*
X181184835Y-66457626D01*
X181184835Y-66457626D02*
X180915461Y-66727000D01*
X181588896Y-65986221D02*
X181824598Y-65750519D01*
X182296002Y-66019893D02*
X181959285Y-66356610D01*
X181959285Y-66356610D02*
X181252178Y-65649504D01*
X181252178Y-65649504D02*
X181588896Y-65312786D01*
X182464361Y-65110756D02*
X182228659Y-65346458D01*
X182599048Y-65716847D02*
X181891942Y-65009740D01*
X181891942Y-65009740D02*
X182228659Y-64673023D01*
X148558621Y-52554794D02*
X148558621Y-53030984D01*
X148272906Y-52459556D02*
X149272906Y-52792889D01*
X149272906Y-52792889D02*
X148272906Y-53126222D01*
X148272906Y-53459556D02*
X149272906Y-53459556D01*
X149272906Y-53459556D02*
X149272906Y-53697651D01*
X149272906Y-53697651D02*
X149225287Y-53840508D01*
X149225287Y-53840508D02*
X149130049Y-53935746D01*
X149130049Y-53935746D02*
X149034811Y-53983365D01*
X149034811Y-53983365D02*
X148844335Y-54030984D01*
X148844335Y-54030984D02*
X148701478Y-54030984D01*
X148701478Y-54030984D02*
X148511002Y-53983365D01*
X148511002Y-53983365D02*
X148415764Y-53935746D01*
X148415764Y-53935746D02*
X148320526Y-53840508D01*
X148320526Y-53840508D02*
X148272906Y-53697651D01*
X148272906Y-53697651D02*
X148272906Y-53459556D01*
X148368145Y-55030984D02*
X148320526Y-54983365D01*
X148320526Y-54983365D02*
X148272906Y-54840508D01*
X148272906Y-54840508D02*
X148272906Y-54745270D01*
X148272906Y-54745270D02*
X148320526Y-54602413D01*
X148320526Y-54602413D02*
X148415764Y-54507175D01*
X148415764Y-54507175D02*
X148511002Y-54459556D01*
X148511002Y-54459556D02*
X148701478Y-54411937D01*
X148701478Y-54411937D02*
X148844335Y-54411937D01*
X148844335Y-54411937D02*
X149034811Y-54459556D01*
X149034811Y-54459556D02*
X149130049Y-54507175D01*
X149130049Y-54507175D02*
X149225287Y-54602413D01*
X149225287Y-54602413D02*
X149272906Y-54745270D01*
X149272906Y-54745270D02*
X149272906Y-54840508D01*
X149272906Y-54840508D02*
X149225287Y-54983365D01*
X149225287Y-54983365D02*
X149177668Y-55030984D01*
X148272906Y-55983365D02*
X148272906Y-55411937D01*
X148272906Y-55697651D02*
X149272906Y-55697651D01*
X149272906Y-55697651D02*
X149130049Y-55602413D01*
X149130049Y-55602413D02*
X149034811Y-55507175D01*
X149034811Y-55507175D02*
X148987192Y-55411937D01*
X148167438Y-146389411D02*
X148119819Y-146484649D01*
X148119819Y-146484649D02*
X148119819Y-146627506D01*
X148119819Y-146627506D02*
X148167438Y-146770363D01*
X148167438Y-146770363D02*
X148262676Y-146865601D01*
X148262676Y-146865601D02*
X148357914Y-146913220D01*
X148357914Y-146913220D02*
X148548390Y-146960839D01*
X148548390Y-146960839D02*
X148691247Y-146960839D01*
X148691247Y-146960839D02*
X148881723Y-146913220D01*
X148881723Y-146913220D02*
X148976961Y-146865601D01*
X148976961Y-146865601D02*
X149072200Y-146770363D01*
X149072200Y-146770363D02*
X149119819Y-146627506D01*
X149119819Y-146627506D02*
X149119819Y-146532268D01*
X149119819Y-146532268D02*
X149072200Y-146389411D01*
X149072200Y-146389411D02*
X149024580Y-146341792D01*
X149024580Y-146341792D02*
X148691247Y-146341792D01*
X148691247Y-146341792D02*
X148691247Y-146532268D01*
X149119819Y-145913220D02*
X148119819Y-145913220D01*
X148119819Y-145913220D02*
X149119819Y-145341792D01*
X149119819Y-145341792D02*
X148119819Y-145341792D01*
X149119819Y-144865601D02*
X148119819Y-144865601D01*
X148119819Y-144865601D02*
X148119819Y-144627506D01*
X148119819Y-144627506D02*
X148167438Y-144484649D01*
X148167438Y-144484649D02*
X148262676Y-144389411D01*
X148262676Y-144389411D02*
X148357914Y-144341792D01*
X148357914Y-144341792D02*
X148548390Y-144294173D01*
X148548390Y-144294173D02*
X148691247Y-144294173D01*
X148691247Y-144294173D02*
X148881723Y-144341792D01*
X148881723Y-144341792D02*
X148976961Y-144389411D01*
X148976961Y-144389411D02*
X149072200Y-144484649D01*
X149072200Y-144484649D02*
X149119819Y-144627506D01*
X149119819Y-144627506D02*
X149119819Y-144865601D01*
X119371636Y-135280046D02*
X119809369Y-134842313D01*
X119809369Y-134842313D02*
X119843041Y-135347389D01*
X119843041Y-135347389D02*
X119944056Y-135246374D01*
X119944056Y-135246374D02*
X120045071Y-135212702D01*
X120045071Y-135212702D02*
X120112415Y-135212702D01*
X120112415Y-135212702D02*
X120213430Y-135246374D01*
X120213430Y-135246374D02*
X120381789Y-135414733D01*
X120381789Y-135414733D02*
X120415461Y-135515748D01*
X120415461Y-135515748D02*
X120415461Y-135583091D01*
X120415461Y-135583091D02*
X120381789Y-135684107D01*
X120381789Y-135684107D02*
X120179758Y-135886137D01*
X120179758Y-135886137D02*
X120078743Y-135919809D01*
X120078743Y-135919809D02*
X120011400Y-135919809D01*
X120011400Y-134640282D02*
X120954209Y-135111687D01*
X120954209Y-135111687D02*
X120482804Y-134168878D01*
X120651163Y-134000519D02*
X121088896Y-133562786D01*
X121088896Y-133562786D02*
X121122567Y-134067862D01*
X121122567Y-134067862D02*
X121223583Y-133966847D01*
X121223583Y-133966847D02*
X121324598Y-133933175D01*
X121324598Y-133933175D02*
X121391941Y-133933175D01*
X121391941Y-133933175D02*
X121492957Y-133966847D01*
X121492957Y-133966847D02*
X121661316Y-134135206D01*
X121661316Y-134135206D02*
X121694987Y-134236221D01*
X121694987Y-134236221D02*
X121694987Y-134303565D01*
X121694987Y-134303565D02*
X121661316Y-134404580D01*
X121661316Y-134404580D02*
X121459285Y-134606610D01*
X121459285Y-134606610D02*
X121358270Y-134640282D01*
X121358270Y-134640282D02*
X121290926Y-134640282D01*
D12*
X189054510Y-93885912D02*
X189054510Y-92385912D01*
X190625939Y-93743055D02*
X190554511Y-93814484D01*
X190554511Y-93814484D02*
X190340225Y-93885912D01*
X190340225Y-93885912D02*
X190197368Y-93885912D01*
X190197368Y-93885912D02*
X189983082Y-93814484D01*
X189983082Y-93814484D02*
X189840225Y-93671626D01*
X189840225Y-93671626D02*
X189768796Y-93528769D01*
X189768796Y-93528769D02*
X189697368Y-93243055D01*
X189697368Y-93243055D02*
X189697368Y-93028769D01*
X189697368Y-93028769D02*
X189768796Y-92743055D01*
X189768796Y-92743055D02*
X189840225Y-92600198D01*
X189840225Y-92600198D02*
X189983082Y-92457341D01*
X189983082Y-92457341D02*
X190197368Y-92385912D01*
X190197368Y-92385912D02*
X190340225Y-92385912D01*
X190340225Y-92385912D02*
X190554511Y-92457341D01*
X190554511Y-92457341D02*
X190625939Y-92528769D01*
X191197368Y-93814484D02*
X191411654Y-93885912D01*
X191411654Y-93885912D02*
X191768796Y-93885912D01*
X191768796Y-93885912D02*
X191911654Y-93814484D01*
X191911654Y-93814484D02*
X191983082Y-93743055D01*
X191983082Y-93743055D02*
X192054511Y-93600198D01*
X192054511Y-93600198D02*
X192054511Y-93457341D01*
X192054511Y-93457341D02*
X191983082Y-93314484D01*
X191983082Y-93314484D02*
X191911654Y-93243055D01*
X191911654Y-93243055D02*
X191768796Y-93171626D01*
X191768796Y-93171626D02*
X191483082Y-93100198D01*
X191483082Y-93100198D02*
X191340225Y-93028769D01*
X191340225Y-93028769D02*
X191268796Y-92957341D01*
X191268796Y-92957341D02*
X191197368Y-92814484D01*
X191197368Y-92814484D02*
X191197368Y-92671626D01*
X191197368Y-92671626D02*
X191268796Y-92528769D01*
X191268796Y-92528769D02*
X191340225Y-92457341D01*
X191340225Y-92457341D02*
X191483082Y-92385912D01*
X191483082Y-92385912D02*
X191840225Y-92385912D01*
X191840225Y-92385912D02*
X192054511Y-92457341D01*
X192697367Y-93885912D02*
X192697367Y-92385912D01*
X192697367Y-92385912D02*
X193268796Y-92385912D01*
X193268796Y-92385912D02*
X193411653Y-92457341D01*
X193411653Y-92457341D02*
X193483082Y-92528769D01*
X193483082Y-92528769D02*
X193554510Y-92671626D01*
X193554510Y-92671626D02*
X193554510Y-92885912D01*
X193554510Y-92885912D02*
X193483082Y-93028769D01*
X193483082Y-93028769D02*
X193411653Y-93100198D01*
X193411653Y-93100198D02*
X193268796Y-93171626D01*
X193268796Y-93171626D02*
X192697367Y-93171626D01*
X158928570Y-59635912D02*
X158928570Y-58135912D01*
X158928570Y-58135912D02*
X159785713Y-59635912D01*
X159785713Y-59635912D02*
X159785713Y-58135912D01*
X161142857Y-59635912D02*
X161142857Y-58850198D01*
X161142857Y-58850198D02*
X161071428Y-58707341D01*
X161071428Y-58707341D02*
X160928571Y-58635912D01*
X160928571Y-58635912D02*
X160642857Y-58635912D01*
X160642857Y-58635912D02*
X160499999Y-58707341D01*
X161142857Y-59564484D02*
X160999999Y-59635912D01*
X160999999Y-59635912D02*
X160642857Y-59635912D01*
X160642857Y-59635912D02*
X160499999Y-59564484D01*
X160499999Y-59564484D02*
X160428571Y-59421626D01*
X160428571Y-59421626D02*
X160428571Y-59278769D01*
X160428571Y-59278769D02*
X160499999Y-59135912D01*
X160499999Y-59135912D02*
X160642857Y-59064484D01*
X160642857Y-59064484D02*
X160999999Y-59064484D01*
X160999999Y-59064484D02*
X161142857Y-58993055D01*
X161642857Y-58635912D02*
X162214285Y-58635912D01*
X161857142Y-58135912D02*
X161857142Y-59421626D01*
X161857142Y-59421626D02*
X161928571Y-59564484D01*
X161928571Y-59564484D02*
X162071428Y-59635912D01*
X162071428Y-59635912D02*
X162214285Y-59635912D01*
X162714285Y-59635912D02*
X162714285Y-58135912D01*
X163357143Y-59635912D02*
X163357143Y-58850198D01*
X163357143Y-58850198D02*
X163285714Y-58707341D01*
X163285714Y-58707341D02*
X163142857Y-58635912D01*
X163142857Y-58635912D02*
X162928571Y-58635912D01*
X162928571Y-58635912D02*
X162785714Y-58707341D01*
X162785714Y-58707341D02*
X162714285Y-58778769D01*
X164714286Y-59635912D02*
X164714286Y-58850198D01*
X164714286Y-58850198D02*
X164642857Y-58707341D01*
X164642857Y-58707341D02*
X164500000Y-58635912D01*
X164500000Y-58635912D02*
X164214286Y-58635912D01*
X164214286Y-58635912D02*
X164071428Y-58707341D01*
X164714286Y-59564484D02*
X164571428Y-59635912D01*
X164571428Y-59635912D02*
X164214286Y-59635912D01*
X164214286Y-59635912D02*
X164071428Y-59564484D01*
X164071428Y-59564484D02*
X164000000Y-59421626D01*
X164000000Y-59421626D02*
X164000000Y-59278769D01*
X164000000Y-59278769D02*
X164071428Y-59135912D01*
X164071428Y-59135912D02*
X164214286Y-59064484D01*
X164214286Y-59064484D02*
X164571428Y-59064484D01*
X164571428Y-59064484D02*
X164714286Y-58993055D01*
X165428571Y-58635912D02*
X165428571Y-59635912D01*
X165428571Y-58778769D02*
X165500000Y-58707341D01*
X165500000Y-58707341D02*
X165642857Y-58635912D01*
X165642857Y-58635912D02*
X165857143Y-58635912D01*
X165857143Y-58635912D02*
X166000000Y-58707341D01*
X166000000Y-58707341D02*
X166071429Y-58850198D01*
X166071429Y-58850198D02*
X166071429Y-59635912D01*
X158821428Y-62050828D02*
X158821428Y-60550828D01*
X158821428Y-60550828D02*
X159678571Y-62050828D01*
X159678571Y-62050828D02*
X159678571Y-60550828D01*
X161035715Y-61050828D02*
X161035715Y-62265114D01*
X161035715Y-62265114D02*
X160964286Y-62407971D01*
X160964286Y-62407971D02*
X160892857Y-62479400D01*
X160892857Y-62479400D02*
X160750000Y-62550828D01*
X160750000Y-62550828D02*
X160535715Y-62550828D01*
X160535715Y-62550828D02*
X160392857Y-62479400D01*
X161035715Y-61979400D02*
X160892857Y-62050828D01*
X160892857Y-62050828D02*
X160607143Y-62050828D01*
X160607143Y-62050828D02*
X160464286Y-61979400D01*
X160464286Y-61979400D02*
X160392857Y-61907971D01*
X160392857Y-61907971D02*
X160321429Y-61765114D01*
X160321429Y-61765114D02*
X160321429Y-61336542D01*
X160321429Y-61336542D02*
X160392857Y-61193685D01*
X160392857Y-61193685D02*
X160464286Y-61122257D01*
X160464286Y-61122257D02*
X160607143Y-61050828D01*
X160607143Y-61050828D02*
X160892857Y-61050828D01*
X160892857Y-61050828D02*
X161035715Y-61122257D01*
X162392858Y-61050828D02*
X162392858Y-62050828D01*
X161750000Y-61050828D02*
X161750000Y-61836542D01*
X161750000Y-61836542D02*
X161821429Y-61979400D01*
X161821429Y-61979400D02*
X161964286Y-62050828D01*
X161964286Y-62050828D02*
X162178572Y-62050828D01*
X162178572Y-62050828D02*
X162321429Y-61979400D01*
X162321429Y-61979400D02*
X162392858Y-61907971D01*
X162964286Y-61050828D02*
X163321429Y-62050828D01*
X163678572Y-61050828D02*
X163321429Y-62050828D01*
X163321429Y-62050828D02*
X163178572Y-62407971D01*
X163178572Y-62407971D02*
X163107143Y-62479400D01*
X163107143Y-62479400D02*
X162964286Y-62550828D01*
X164821429Y-61979400D02*
X164678572Y-62050828D01*
X164678572Y-62050828D02*
X164392858Y-62050828D01*
X164392858Y-62050828D02*
X164250000Y-61979400D01*
X164250000Y-61979400D02*
X164178572Y-61836542D01*
X164178572Y-61836542D02*
X164178572Y-61265114D01*
X164178572Y-61265114D02*
X164250000Y-61122257D01*
X164250000Y-61122257D02*
X164392858Y-61050828D01*
X164392858Y-61050828D02*
X164678572Y-61050828D01*
X164678572Y-61050828D02*
X164821429Y-61122257D01*
X164821429Y-61122257D02*
X164892858Y-61265114D01*
X164892858Y-61265114D02*
X164892858Y-61407971D01*
X164892858Y-61407971D02*
X164178572Y-61550828D01*
X165535714Y-61050828D02*
X165535714Y-62050828D01*
X165535714Y-61193685D02*
X165607143Y-61122257D01*
X165607143Y-61122257D02*
X165750000Y-61050828D01*
X165750000Y-61050828D02*
X165964286Y-61050828D01*
X165964286Y-61050828D02*
X166107143Y-61122257D01*
X166107143Y-61122257D02*
X166178572Y-61265114D01*
X166178572Y-61265114D02*
X166178572Y-62050828D01*
D11*
X103610588Y-103167438D02*
X103515350Y-103119819D01*
X103515350Y-103119819D02*
X103372493Y-103119819D01*
X103372493Y-103119819D02*
X103229636Y-103167438D01*
X103229636Y-103167438D02*
X103134398Y-103262676D01*
X103134398Y-103262676D02*
X103086779Y-103357914D01*
X103086779Y-103357914D02*
X103039160Y-103548390D01*
X103039160Y-103548390D02*
X103039160Y-103691247D01*
X103039160Y-103691247D02*
X103086779Y-103881723D01*
X103086779Y-103881723D02*
X103134398Y-103976961D01*
X103134398Y-103976961D02*
X103229636Y-104072200D01*
X103229636Y-104072200D02*
X103372493Y-104119819D01*
X103372493Y-104119819D02*
X103467731Y-104119819D01*
X103467731Y-104119819D02*
X103610588Y-104072200D01*
X103610588Y-104072200D02*
X103658207Y-104024580D01*
X103658207Y-104024580D02*
X103658207Y-103691247D01*
X103658207Y-103691247D02*
X103467731Y-103691247D01*
X104086779Y-104119819D02*
X104086779Y-103119819D01*
X104086779Y-103119819D02*
X104658207Y-104119819D01*
X104658207Y-104119819D02*
X104658207Y-103119819D01*
X105134398Y-104119819D02*
X105134398Y-103119819D01*
X105134398Y-103119819D02*
X105372493Y-103119819D01*
X105372493Y-103119819D02*
X105515350Y-103167438D01*
X105515350Y-103167438D02*
X105610588Y-103262676D01*
X105610588Y-103262676D02*
X105658207Y-103357914D01*
X105658207Y-103357914D02*
X105705826Y-103548390D01*
X105705826Y-103548390D02*
X105705826Y-103691247D01*
X105705826Y-103691247D02*
X105658207Y-103881723D01*
X105658207Y-103881723D02*
X105610588Y-103976961D01*
X105610588Y-103976961D02*
X105515350Y-104072200D01*
X105515350Y-104072200D02*
X105372493Y-104119819D01*
X105372493Y-104119819D02*
X105134398Y-104119819D01*
X114080190Y-70146087D02*
X114787297Y-69438980D01*
X114787297Y-69438980D02*
X115056671Y-69708354D01*
X115056671Y-69708354D02*
X115090343Y-69809369D01*
X115090343Y-69809369D02*
X115090343Y-69876713D01*
X115090343Y-69876713D02*
X115056671Y-69977728D01*
X115056671Y-69977728D02*
X114955656Y-70078743D01*
X114955656Y-70078743D02*
X114854641Y-70112415D01*
X114854641Y-70112415D02*
X114787297Y-70112415D01*
X114787297Y-70112415D02*
X114686282Y-70078743D01*
X114686282Y-70078743D02*
X114416908Y-69809369D01*
X114787297Y-70853193D02*
X115494404Y-70146087D01*
X115494404Y-70146087D02*
X115662763Y-70314445D01*
X115662763Y-70314445D02*
X115730106Y-70449132D01*
X115730106Y-70449132D02*
X115730106Y-70583819D01*
X115730106Y-70583819D02*
X115696434Y-70684835D01*
X115696434Y-70684835D02*
X115595419Y-70853193D01*
X115595419Y-70853193D02*
X115494404Y-70954209D01*
X115494404Y-70954209D02*
X115326045Y-71055224D01*
X115326045Y-71055224D02*
X115225030Y-71088896D01*
X115225030Y-71088896D02*
X115090343Y-71088896D01*
X115090343Y-71088896D02*
X114955656Y-71021552D01*
X114955656Y-71021552D02*
X114787297Y-70853193D01*
X115864793Y-71930689D02*
X115460732Y-71526628D01*
X115662763Y-71728659D02*
X116369869Y-71021552D01*
X116369869Y-71021552D02*
X116201511Y-71055224D01*
X116201511Y-71055224D02*
X116066824Y-71055224D01*
X116066824Y-71055224D02*
X115965808Y-71021552D01*
X153665895Y-52539160D02*
X153665895Y-53015350D01*
X153380180Y-52443922D02*
X154380180Y-52777255D01*
X154380180Y-52777255D02*
X153380180Y-53110588D01*
X153380180Y-53443922D02*
X154380180Y-53443922D01*
X154380180Y-53443922D02*
X154380180Y-53682017D01*
X154380180Y-53682017D02*
X154332561Y-53824874D01*
X154332561Y-53824874D02*
X154237323Y-53920112D01*
X154237323Y-53920112D02*
X154142085Y-53967731D01*
X154142085Y-53967731D02*
X153951609Y-54015350D01*
X153951609Y-54015350D02*
X153808752Y-54015350D01*
X153808752Y-54015350D02*
X153618276Y-53967731D01*
X153618276Y-53967731D02*
X153523038Y-53920112D01*
X153523038Y-53920112D02*
X153427800Y-53824874D01*
X153427800Y-53824874D02*
X153380180Y-53682017D01*
X153380180Y-53682017D02*
X153380180Y-53443922D01*
X153475419Y-55015350D02*
X153427800Y-54967731D01*
X153427800Y-54967731D02*
X153380180Y-54824874D01*
X153380180Y-54824874D02*
X153380180Y-54729636D01*
X153380180Y-54729636D02*
X153427800Y-54586779D01*
X153427800Y-54586779D02*
X153523038Y-54491541D01*
X153523038Y-54491541D02*
X153618276Y-54443922D01*
X153618276Y-54443922D02*
X153808752Y-54396303D01*
X153808752Y-54396303D02*
X153951609Y-54396303D01*
X153951609Y-54396303D02*
X154142085Y-54443922D01*
X154142085Y-54443922D02*
X154237323Y-54491541D01*
X154237323Y-54491541D02*
X154332561Y-54586779D01*
X154332561Y-54586779D02*
X154380180Y-54729636D01*
X154380180Y-54729636D02*
X154380180Y-54824874D01*
X154380180Y-54824874D02*
X154332561Y-54967731D01*
X154332561Y-54967731D02*
X154284942Y-55015350D01*
X154380180Y-55634398D02*
X154380180Y-55729636D01*
X154380180Y-55729636D02*
X154332561Y-55824874D01*
X154332561Y-55824874D02*
X154284942Y-55872493D01*
X154284942Y-55872493D02*
X154189704Y-55920112D01*
X154189704Y-55920112D02*
X153999228Y-55967731D01*
X153999228Y-55967731D02*
X153761133Y-55967731D01*
X153761133Y-55967731D02*
X153570657Y-55920112D01*
X153570657Y-55920112D02*
X153475419Y-55872493D01*
X153475419Y-55872493D02*
X153427800Y-55824874D01*
X153427800Y-55824874D02*
X153380180Y-55729636D01*
X153380180Y-55729636D02*
X153380180Y-55634398D01*
X153380180Y-55634398D02*
X153427800Y-55539160D01*
X153427800Y-55539160D02*
X153475419Y-55491541D01*
X153475419Y-55491541D02*
X153570657Y-55443922D01*
X153570657Y-55443922D02*
X153761133Y-55396303D01*
X153761133Y-55396303D02*
X153999228Y-55396303D01*
X153999228Y-55396303D02*
X154189704Y-55443922D01*
X154189704Y-55443922D02*
X154284942Y-55491541D01*
X154284942Y-55491541D02*
X154332561Y-55539160D01*
X154332561Y-55539160D02*
X154380180Y-55634398D01*
X153167438Y-146389411D02*
X153119819Y-146484649D01*
X153119819Y-146484649D02*
X153119819Y-146627506D01*
X153119819Y-146627506D02*
X153167438Y-146770363D01*
X153167438Y-146770363D02*
X153262676Y-146865601D01*
X153262676Y-146865601D02*
X153357914Y-146913220D01*
X153357914Y-146913220D02*
X153548390Y-146960839D01*
X153548390Y-146960839D02*
X153691247Y-146960839D01*
X153691247Y-146960839D02*
X153881723Y-146913220D01*
X153881723Y-146913220D02*
X153976961Y-146865601D01*
X153976961Y-146865601D02*
X154072200Y-146770363D01*
X154072200Y-146770363D02*
X154119819Y-146627506D01*
X154119819Y-146627506D02*
X154119819Y-146532268D01*
X154119819Y-146532268D02*
X154072200Y-146389411D01*
X154072200Y-146389411D02*
X154024580Y-146341792D01*
X154024580Y-146341792D02*
X153691247Y-146341792D01*
X153691247Y-146341792D02*
X153691247Y-146532268D01*
X154119819Y-145913220D02*
X153119819Y-145913220D01*
X153119819Y-145913220D02*
X154119819Y-145341792D01*
X154119819Y-145341792D02*
X153119819Y-145341792D01*
X154119819Y-144865601D02*
X153119819Y-144865601D01*
X153119819Y-144865601D02*
X153119819Y-144627506D01*
X153119819Y-144627506D02*
X153167438Y-144484649D01*
X153167438Y-144484649D02*
X153262676Y-144389411D01*
X153262676Y-144389411D02*
X153357914Y-144341792D01*
X153357914Y-144341792D02*
X153548390Y-144294173D01*
X153548390Y-144294173D02*
X153691247Y-144294173D01*
X153691247Y-144294173D02*
X153881723Y-144341792D01*
X153881723Y-144341792D02*
X153976961Y-144389411D01*
X153976961Y-144389411D02*
X154072200Y-144484649D01*
X154072200Y-144484649D02*
X154119819Y-144627506D01*
X154119819Y-144627506D02*
X154119819Y-144865601D01*
X194336779Y-101619819D02*
X194336779Y-100619819D01*
X194336779Y-100619819D02*
X194670112Y-101334104D01*
X194670112Y-101334104D02*
X195003445Y-100619819D01*
X195003445Y-100619819D02*
X195003445Y-101619819D01*
X195479636Y-101619819D02*
X195479636Y-100619819D01*
X195908207Y-101572200D02*
X196051064Y-101619819D01*
X196051064Y-101619819D02*
X196289159Y-101619819D01*
X196289159Y-101619819D02*
X196384397Y-101572200D01*
X196384397Y-101572200D02*
X196432016Y-101524580D01*
X196432016Y-101524580D02*
X196479635Y-101429342D01*
X196479635Y-101429342D02*
X196479635Y-101334104D01*
X196479635Y-101334104D02*
X196432016Y-101238866D01*
X196432016Y-101238866D02*
X196384397Y-101191247D01*
X196384397Y-101191247D02*
X196289159Y-101143628D01*
X196289159Y-101143628D02*
X196098683Y-101096009D01*
X196098683Y-101096009D02*
X196003445Y-101048390D01*
X196003445Y-101048390D02*
X195955826Y-101000771D01*
X195955826Y-101000771D02*
X195908207Y-100905533D01*
X195908207Y-100905533D02*
X195908207Y-100810295D01*
X195908207Y-100810295D02*
X195955826Y-100715057D01*
X195955826Y-100715057D02*
X196003445Y-100667438D01*
X196003445Y-100667438D02*
X196098683Y-100619819D01*
X196098683Y-100619819D02*
X196336778Y-100619819D01*
X196336778Y-100619819D02*
X196479635Y-100667438D01*
X197098683Y-100619819D02*
X197289159Y-100619819D01*
X197289159Y-100619819D02*
X197384397Y-100667438D01*
X197384397Y-100667438D02*
X197479635Y-100762676D01*
X197479635Y-100762676D02*
X197527254Y-100953152D01*
X197527254Y-100953152D02*
X197527254Y-101286485D01*
X197527254Y-101286485D02*
X197479635Y-101476961D01*
X197479635Y-101476961D02*
X197384397Y-101572200D01*
X197384397Y-101572200D02*
X197289159Y-101619819D01*
X197289159Y-101619819D02*
X197098683Y-101619819D01*
X197098683Y-101619819D02*
X197003445Y-101572200D01*
X197003445Y-101572200D02*
X196908207Y-101476961D01*
X196908207Y-101476961D02*
X196860588Y-101286485D01*
X196860588Y-101286485D02*
X196860588Y-100953152D01*
X196860588Y-100953152D02*
X196908207Y-100762676D01*
X196908207Y-100762676D02*
X197003445Y-100667438D01*
X197003445Y-100667438D02*
X197098683Y-100619819D01*
X198146302Y-100619819D02*
X198241540Y-100619819D01*
X198241540Y-100619819D02*
X198336778Y-100667438D01*
X198336778Y-100667438D02*
X198384397Y-100715057D01*
X198384397Y-100715057D02*
X198432016Y-100810295D01*
X198432016Y-100810295D02*
X198479635Y-101000771D01*
X198479635Y-101000771D02*
X198479635Y-101238866D01*
X198479635Y-101238866D02*
X198432016Y-101429342D01*
X198432016Y-101429342D02*
X198384397Y-101524580D01*
X198384397Y-101524580D02*
X198336778Y-101572200D01*
X198336778Y-101572200D02*
X198241540Y-101619819D01*
X198241540Y-101619819D02*
X198146302Y-101619819D01*
X198146302Y-101619819D02*
X198051064Y-101572200D01*
X198051064Y-101572200D02*
X198003445Y-101524580D01*
X198003445Y-101524580D02*
X197955826Y-101429342D01*
X197955826Y-101429342D02*
X197908207Y-101238866D01*
X197908207Y-101238866D02*
X197908207Y-101000771D01*
X197908207Y-101000771D02*
X197955826Y-100810295D01*
X197955826Y-100810295D02*
X198003445Y-100715057D01*
X198003445Y-100715057D02*
X198051064Y-100667438D01*
X198051064Y-100667438D02*
X198146302Y-100619819D01*
X194289160Y-99072200D02*
X194432017Y-99119819D01*
X194432017Y-99119819D02*
X194670112Y-99119819D01*
X194670112Y-99119819D02*
X194765350Y-99072200D01*
X194765350Y-99072200D02*
X194812969Y-99024580D01*
X194812969Y-99024580D02*
X194860588Y-98929342D01*
X194860588Y-98929342D02*
X194860588Y-98834104D01*
X194860588Y-98834104D02*
X194812969Y-98738866D01*
X194812969Y-98738866D02*
X194765350Y-98691247D01*
X194765350Y-98691247D02*
X194670112Y-98643628D01*
X194670112Y-98643628D02*
X194479636Y-98596009D01*
X194479636Y-98596009D02*
X194384398Y-98548390D01*
X194384398Y-98548390D02*
X194336779Y-98500771D01*
X194336779Y-98500771D02*
X194289160Y-98405533D01*
X194289160Y-98405533D02*
X194289160Y-98310295D01*
X194289160Y-98310295D02*
X194336779Y-98215057D01*
X194336779Y-98215057D02*
X194384398Y-98167438D01*
X194384398Y-98167438D02*
X194479636Y-98119819D01*
X194479636Y-98119819D02*
X194717731Y-98119819D01*
X194717731Y-98119819D02*
X194860588Y-98167438D01*
X195860588Y-99024580D02*
X195812969Y-99072200D01*
X195812969Y-99072200D02*
X195670112Y-99119819D01*
X195670112Y-99119819D02*
X195574874Y-99119819D01*
X195574874Y-99119819D02*
X195432017Y-99072200D01*
X195432017Y-99072200D02*
X195336779Y-98976961D01*
X195336779Y-98976961D02*
X195289160Y-98881723D01*
X195289160Y-98881723D02*
X195241541Y-98691247D01*
X195241541Y-98691247D02*
X195241541Y-98548390D01*
X195241541Y-98548390D02*
X195289160Y-98357914D01*
X195289160Y-98357914D02*
X195336779Y-98262676D01*
X195336779Y-98262676D02*
X195432017Y-98167438D01*
X195432017Y-98167438D02*
X195574874Y-98119819D01*
X195574874Y-98119819D02*
X195670112Y-98119819D01*
X195670112Y-98119819D02*
X195812969Y-98167438D01*
X195812969Y-98167438D02*
X195860588Y-98215057D01*
X196289160Y-99119819D02*
X196289160Y-98119819D01*
X196860588Y-99119819D02*
X196432017Y-98548390D01*
X196860588Y-98119819D02*
X196289160Y-98691247D01*
X197479636Y-98119819D02*
X197574874Y-98119819D01*
X197574874Y-98119819D02*
X197670112Y-98167438D01*
X197670112Y-98167438D02*
X197717731Y-98215057D01*
X197717731Y-98215057D02*
X197765350Y-98310295D01*
X197765350Y-98310295D02*
X197812969Y-98500771D01*
X197812969Y-98500771D02*
X197812969Y-98738866D01*
X197812969Y-98738866D02*
X197765350Y-98929342D01*
X197765350Y-98929342D02*
X197717731Y-99024580D01*
X197717731Y-99024580D02*
X197670112Y-99072200D01*
X197670112Y-99072200D02*
X197574874Y-99119819D01*
X197574874Y-99119819D02*
X197479636Y-99119819D01*
X197479636Y-99119819D02*
X197384398Y-99072200D01*
X197384398Y-99072200D02*
X197336779Y-99024580D01*
X197336779Y-99024580D02*
X197289160Y-98929342D01*
X197289160Y-98929342D02*
X197241541Y-98738866D01*
X197241541Y-98738866D02*
X197241541Y-98500771D01*
X197241541Y-98500771D02*
X197289160Y-98310295D01*
X197289160Y-98310295D02*
X197336779Y-98215057D01*
X197336779Y-98215057D02*
X197384398Y-98167438D01*
X197384398Y-98167438D02*
X197479636Y-98119819D01*
X194336779Y-104369819D02*
X194336779Y-103369819D01*
X194336779Y-103369819D02*
X194670112Y-104084104D01*
X194670112Y-104084104D02*
X195003445Y-103369819D01*
X195003445Y-103369819D02*
X195003445Y-104369819D01*
X195670112Y-103369819D02*
X195860588Y-103369819D01*
X195860588Y-103369819D02*
X195955826Y-103417438D01*
X195955826Y-103417438D02*
X196051064Y-103512676D01*
X196051064Y-103512676D02*
X196098683Y-103703152D01*
X196098683Y-103703152D02*
X196098683Y-104036485D01*
X196098683Y-104036485D02*
X196051064Y-104226961D01*
X196051064Y-104226961D02*
X195955826Y-104322200D01*
X195955826Y-104322200D02*
X195860588Y-104369819D01*
X195860588Y-104369819D02*
X195670112Y-104369819D01*
X195670112Y-104369819D02*
X195574874Y-104322200D01*
X195574874Y-104322200D02*
X195479636Y-104226961D01*
X195479636Y-104226961D02*
X195432017Y-104036485D01*
X195432017Y-104036485D02*
X195432017Y-103703152D01*
X195432017Y-103703152D02*
X195479636Y-103512676D01*
X195479636Y-103512676D02*
X195574874Y-103417438D01*
X195574874Y-103417438D02*
X195670112Y-103369819D01*
X196479636Y-104322200D02*
X196622493Y-104369819D01*
X196622493Y-104369819D02*
X196860588Y-104369819D01*
X196860588Y-104369819D02*
X196955826Y-104322200D01*
X196955826Y-104322200D02*
X197003445Y-104274580D01*
X197003445Y-104274580D02*
X197051064Y-104179342D01*
X197051064Y-104179342D02*
X197051064Y-104084104D01*
X197051064Y-104084104D02*
X197003445Y-103988866D01*
X197003445Y-103988866D02*
X196955826Y-103941247D01*
X196955826Y-103941247D02*
X196860588Y-103893628D01*
X196860588Y-103893628D02*
X196670112Y-103846009D01*
X196670112Y-103846009D02*
X196574874Y-103798390D01*
X196574874Y-103798390D02*
X196527255Y-103750771D01*
X196527255Y-103750771D02*
X196479636Y-103655533D01*
X196479636Y-103655533D02*
X196479636Y-103560295D01*
X196479636Y-103560295D02*
X196527255Y-103465057D01*
X196527255Y-103465057D02*
X196574874Y-103417438D01*
X196574874Y-103417438D02*
X196670112Y-103369819D01*
X196670112Y-103369819D02*
X196908207Y-103369819D01*
X196908207Y-103369819D02*
X197051064Y-103417438D01*
X197479636Y-104369819D02*
X197479636Y-103369819D01*
X198146302Y-103369819D02*
X198241540Y-103369819D01*
X198241540Y-103369819D02*
X198336778Y-103417438D01*
X198336778Y-103417438D02*
X198384397Y-103465057D01*
X198384397Y-103465057D02*
X198432016Y-103560295D01*
X198432016Y-103560295D02*
X198479635Y-103750771D01*
X198479635Y-103750771D02*
X198479635Y-103988866D01*
X198479635Y-103988866D02*
X198432016Y-104179342D01*
X198432016Y-104179342D02*
X198384397Y-104274580D01*
X198384397Y-104274580D02*
X198336778Y-104322200D01*
X198336778Y-104322200D02*
X198241540Y-104369819D01*
X198241540Y-104369819D02*
X198146302Y-104369819D01*
X198146302Y-104369819D02*
X198051064Y-104322200D01*
X198051064Y-104322200D02*
X198003445Y-104274580D01*
X198003445Y-104274580D02*
X197955826Y-104179342D01*
X197955826Y-104179342D02*
X197908207Y-103988866D01*
X197908207Y-103988866D02*
X197908207Y-103750771D01*
X197908207Y-103750771D02*
X197955826Y-103560295D01*
X197955826Y-103560295D02*
X198003445Y-103465057D01*
X198003445Y-103465057D02*
X198051064Y-103417438D01*
X198051064Y-103417438D02*
X198146302Y-103369819D01*
X114121636Y-130030046D02*
X114559369Y-129592313D01*
X114559369Y-129592313D02*
X114593041Y-130097389D01*
X114593041Y-130097389D02*
X114694056Y-129996374D01*
X114694056Y-129996374D02*
X114795071Y-129962702D01*
X114795071Y-129962702D02*
X114862415Y-129962702D01*
X114862415Y-129962702D02*
X114963430Y-129996374D01*
X114963430Y-129996374D02*
X115131789Y-130164733D01*
X115131789Y-130164733D02*
X115165461Y-130265748D01*
X115165461Y-130265748D02*
X115165461Y-130333091D01*
X115165461Y-130333091D02*
X115131789Y-130434107D01*
X115131789Y-130434107D02*
X114929758Y-130636137D01*
X114929758Y-130636137D02*
X114828743Y-130669809D01*
X114828743Y-130669809D02*
X114761400Y-130669809D01*
X114761400Y-129390282D02*
X115704209Y-129861687D01*
X115704209Y-129861687D02*
X115232804Y-128918878D01*
X115401163Y-128750519D02*
X115838896Y-128312786D01*
X115838896Y-128312786D02*
X115872567Y-128817862D01*
X115872567Y-128817862D02*
X115973583Y-128716847D01*
X115973583Y-128716847D02*
X116074598Y-128683175D01*
X116074598Y-128683175D02*
X116141941Y-128683175D01*
X116141941Y-128683175D02*
X116242957Y-128716847D01*
X116242957Y-128716847D02*
X116411316Y-128885206D01*
X116411316Y-128885206D02*
X116444987Y-128986221D01*
X116444987Y-128986221D02*
X116444987Y-129053565D01*
X116444987Y-129053565D02*
X116411316Y-129154580D01*
X116411316Y-129154580D02*
X116209285Y-129356610D01*
X116209285Y-129356610D02*
X116108270Y-129390282D01*
X116108270Y-129390282D02*
X116040926Y-129390282D01*
D12*
X181740536Y-123543659D02*
X182801197Y-122482999D01*
X182952720Y-124553812D02*
X182851704Y-124553812D01*
X182851704Y-124553812D02*
X182649674Y-124452797D01*
X182649674Y-124452797D02*
X182548659Y-124351782D01*
X182548659Y-124351782D02*
X182447643Y-124149751D01*
X182447643Y-124149751D02*
X182447643Y-123947721D01*
X182447643Y-123947721D02*
X182498151Y-123796198D01*
X182498151Y-123796198D02*
X182649674Y-123543660D01*
X182649674Y-123543660D02*
X182801197Y-123392137D01*
X182801197Y-123392137D02*
X183053735Y-123240614D01*
X183053735Y-123240614D02*
X183205258Y-123190106D01*
X183205258Y-123190106D02*
X183407288Y-123190106D01*
X183407288Y-123190106D02*
X183609319Y-123291121D01*
X183609319Y-123291121D02*
X183710334Y-123392137D01*
X183710334Y-123392137D02*
X183811349Y-123594167D01*
X183811349Y-123594167D02*
X183811349Y-123695183D01*
X183306273Y-125008381D02*
X183407288Y-125210411D01*
X183407288Y-125210411D02*
X183659826Y-125462949D01*
X183659826Y-125462949D02*
X183811349Y-125513457D01*
X183811349Y-125513457D02*
X183912365Y-125513457D01*
X183912365Y-125513457D02*
X184063887Y-125462949D01*
X184063887Y-125462949D02*
X184164903Y-125361934D01*
X184164903Y-125361934D02*
X184215410Y-125210411D01*
X184215410Y-125210411D02*
X184215410Y-125109396D01*
X184215410Y-125109396D02*
X184164903Y-124957873D01*
X184164903Y-124957873D02*
X184013380Y-124705335D01*
X184013380Y-124705335D02*
X183962872Y-124553812D01*
X183962872Y-124553812D02*
X183962872Y-124452797D01*
X183962872Y-124452797D02*
X184013380Y-124301274D01*
X184013380Y-124301274D02*
X184114395Y-124200259D01*
X184114395Y-124200259D02*
X184265918Y-124149751D01*
X184265918Y-124149751D02*
X184366933Y-124149751D01*
X184366933Y-124149751D02*
X184518456Y-124200259D01*
X184518456Y-124200259D02*
X184770994Y-124452797D01*
X184770994Y-124452797D02*
X184872009Y-124654827D01*
X184316425Y-126119548D02*
X185377085Y-125058888D01*
X185377085Y-125058888D02*
X185781146Y-125462949D01*
X185781146Y-125462949D02*
X185831654Y-125614472D01*
X185831654Y-125614472D02*
X185831654Y-125715487D01*
X185831654Y-125715487D02*
X185781146Y-125867010D01*
X185781146Y-125867010D02*
X185629624Y-126018533D01*
X185629624Y-126018533D02*
X185478101Y-126069041D01*
X185478101Y-126069041D02*
X185377085Y-126069041D01*
X185377085Y-126069041D02*
X185225563Y-126018533D01*
X185225563Y-126018533D02*
X184821502Y-125614472D01*
D11*
X115830190Y-68396087D02*
X116537297Y-67688980D01*
X116537297Y-67688980D02*
X116806671Y-67958354D01*
X116806671Y-67958354D02*
X116840343Y-68059369D01*
X116840343Y-68059369D02*
X116840343Y-68126713D01*
X116840343Y-68126713D02*
X116806671Y-68227728D01*
X116806671Y-68227728D02*
X116705656Y-68328743D01*
X116705656Y-68328743D02*
X116604641Y-68362415D01*
X116604641Y-68362415D02*
X116537297Y-68362415D01*
X116537297Y-68362415D02*
X116436282Y-68328743D01*
X116436282Y-68328743D02*
X116166908Y-68059369D01*
X116537297Y-69103193D02*
X117244404Y-68396087D01*
X117244404Y-68396087D02*
X117412763Y-68564445D01*
X117412763Y-68564445D02*
X117480106Y-68699132D01*
X117480106Y-68699132D02*
X117480106Y-68833819D01*
X117480106Y-68833819D02*
X117446434Y-68934835D01*
X117446434Y-68934835D02*
X117345419Y-69103193D01*
X117345419Y-69103193D02*
X117244404Y-69204209D01*
X117244404Y-69204209D02*
X117076045Y-69305224D01*
X117076045Y-69305224D02*
X116975030Y-69338896D01*
X116975030Y-69338896D02*
X116840343Y-69338896D01*
X116840343Y-69338896D02*
X116705656Y-69271552D01*
X116705656Y-69271552D02*
X116537297Y-69103193D01*
X118086198Y-69237880D02*
X118153541Y-69305224D01*
X118153541Y-69305224D02*
X118187213Y-69406239D01*
X118187213Y-69406239D02*
X118187213Y-69473583D01*
X118187213Y-69473583D02*
X118153541Y-69574598D01*
X118153541Y-69574598D02*
X118052526Y-69742957D01*
X118052526Y-69742957D02*
X117884167Y-69911315D01*
X117884167Y-69911315D02*
X117715808Y-70012331D01*
X117715808Y-70012331D02*
X117614793Y-70046002D01*
X117614793Y-70046002D02*
X117547450Y-70046002D01*
X117547450Y-70046002D02*
X117446434Y-70012331D01*
X117446434Y-70012331D02*
X117379091Y-69944987D01*
X117379091Y-69944987D02*
X117345419Y-69843972D01*
X117345419Y-69843972D02*
X117345419Y-69776628D01*
X117345419Y-69776628D02*
X117379091Y-69675613D01*
X117379091Y-69675613D02*
X117480106Y-69507254D01*
X117480106Y-69507254D02*
X117648465Y-69338896D01*
X117648465Y-69338896D02*
X117816824Y-69237880D01*
X117816824Y-69237880D02*
X117917839Y-69204209D01*
X117917839Y-69204209D02*
X117985182Y-69204209D01*
X117985182Y-69204209D02*
X118086198Y-69237880D01*
X182080190Y-130328743D02*
X182147534Y-130463430D01*
X182147534Y-130463430D02*
X182315892Y-130631789D01*
X182315892Y-130631789D02*
X182416908Y-130665461D01*
X182416908Y-130665461D02*
X182484251Y-130665461D01*
X182484251Y-130665461D02*
X182585266Y-130631789D01*
X182585266Y-130631789D02*
X182652610Y-130564445D01*
X182652610Y-130564445D02*
X182686282Y-130463430D01*
X182686282Y-130463430D02*
X182686282Y-130396087D01*
X182686282Y-130396087D02*
X182652610Y-130295071D01*
X182652610Y-130295071D02*
X182551595Y-130126713D01*
X182551595Y-130126713D02*
X182517923Y-130025697D01*
X182517923Y-130025697D02*
X182517923Y-129958354D01*
X182517923Y-129958354D02*
X182551595Y-129857339D01*
X182551595Y-129857339D02*
X182618938Y-129789995D01*
X182618938Y-129789995D02*
X182719953Y-129756323D01*
X182719953Y-129756323D02*
X182787297Y-129756323D01*
X182787297Y-129756323D02*
X182888312Y-129789995D01*
X182888312Y-129789995D02*
X183056671Y-129958354D01*
X183056671Y-129958354D02*
X183124015Y-130093041D01*
X183225030Y-131406239D02*
X183157686Y-131406239D01*
X183157686Y-131406239D02*
X183022999Y-131338896D01*
X183022999Y-131338896D02*
X182955656Y-131271552D01*
X182955656Y-131271552D02*
X182888312Y-131136865D01*
X182888312Y-131136865D02*
X182888312Y-131002178D01*
X182888312Y-131002178D02*
X182921984Y-130901163D01*
X182921984Y-130901163D02*
X183022999Y-130732804D01*
X183022999Y-130732804D02*
X183124015Y-130631789D01*
X183124015Y-130631789D02*
X183292373Y-130530774D01*
X183292373Y-130530774D02*
X183393389Y-130497102D01*
X183393389Y-130497102D02*
X183528076Y-130497102D01*
X183528076Y-130497102D02*
X183662763Y-130564445D01*
X183662763Y-130564445D02*
X183730106Y-130631789D01*
X183730106Y-130631789D02*
X183797450Y-130766476D01*
X183797450Y-130766476D02*
X183797450Y-130833819D01*
X183460732Y-131776628D02*
X184167839Y-131069522D01*
X183864793Y-132180689D02*
X183965808Y-131473583D01*
X184571900Y-131473583D02*
X183763778Y-131473583D01*
X185009633Y-131911315D02*
X185076976Y-131978659D01*
X185076976Y-131978659D02*
X185110648Y-132079674D01*
X185110648Y-132079674D02*
X185110648Y-132147018D01*
X185110648Y-132147018D02*
X185076976Y-132248033D01*
X185076976Y-132248033D02*
X184975961Y-132416392D01*
X184975961Y-132416392D02*
X184807602Y-132584750D01*
X184807602Y-132584750D02*
X184639243Y-132685766D01*
X184639243Y-132685766D02*
X184538228Y-132719437D01*
X184538228Y-132719437D02*
X184470885Y-132719437D01*
X184470885Y-132719437D02*
X184369869Y-132685766D01*
X184369869Y-132685766D02*
X184302526Y-132618422D01*
X184302526Y-132618422D02*
X184268854Y-132517407D01*
X184268854Y-132517407D02*
X184268854Y-132450063D01*
X184268854Y-132450063D02*
X184302526Y-132349048D01*
X184302526Y-132349048D02*
X184403541Y-132180689D01*
X184403541Y-132180689D02*
X184571900Y-132012331D01*
X184571900Y-132012331D02*
X184740259Y-131911315D01*
X184740259Y-131911315D02*
X184841274Y-131877644D01*
X184841274Y-131877644D02*
X184908617Y-131877644D01*
X184908617Y-131877644D02*
X185009633Y-131911315D01*
X181871636Y-68780046D02*
X182309369Y-68342313D01*
X182309369Y-68342313D02*
X182343041Y-68847389D01*
X182343041Y-68847389D02*
X182444056Y-68746374D01*
X182444056Y-68746374D02*
X182545071Y-68712702D01*
X182545071Y-68712702D02*
X182612415Y-68712702D01*
X182612415Y-68712702D02*
X182713430Y-68746374D01*
X182713430Y-68746374D02*
X182881789Y-68914733D01*
X182881789Y-68914733D02*
X182915461Y-69015748D01*
X182915461Y-69015748D02*
X182915461Y-69083091D01*
X182915461Y-69083091D02*
X182881789Y-69184107D01*
X182881789Y-69184107D02*
X182679758Y-69386137D01*
X182679758Y-69386137D02*
X182578743Y-69419809D01*
X182578743Y-69419809D02*
X182511400Y-69419809D01*
X182511400Y-68140282D02*
X183454209Y-68611687D01*
X183454209Y-68611687D02*
X182982804Y-67668878D01*
X183151163Y-67500519D02*
X183588896Y-67062786D01*
X183588896Y-67062786D02*
X183622567Y-67567862D01*
X183622567Y-67567862D02*
X183723583Y-67466847D01*
X183723583Y-67466847D02*
X183824598Y-67433175D01*
X183824598Y-67433175D02*
X183891941Y-67433175D01*
X183891941Y-67433175D02*
X183992957Y-67466847D01*
X183992957Y-67466847D02*
X184161316Y-67635206D01*
X184161316Y-67635206D02*
X184194987Y-67736221D01*
X184194987Y-67736221D02*
X184194987Y-67803565D01*
X184194987Y-67803565D02*
X184161316Y-67904580D01*
X184161316Y-67904580D02*
X183959285Y-68106610D01*
X183959285Y-68106610D02*
X183858270Y-68140282D01*
X183858270Y-68140282D02*
X183790926Y-68140282D01*
X117580190Y-66646087D02*
X118287297Y-65938980D01*
X118287297Y-65938980D02*
X118556671Y-66208354D01*
X118556671Y-66208354D02*
X118590343Y-66309369D01*
X118590343Y-66309369D02*
X118590343Y-66376713D01*
X118590343Y-66376713D02*
X118556671Y-66477728D01*
X118556671Y-66477728D02*
X118455656Y-66578743D01*
X118455656Y-66578743D02*
X118354641Y-66612415D01*
X118354641Y-66612415D02*
X118287297Y-66612415D01*
X118287297Y-66612415D02*
X118186282Y-66578743D01*
X118186282Y-66578743D02*
X117916908Y-66309369D01*
X118758702Y-67689911D02*
X118691358Y-67689911D01*
X118691358Y-67689911D02*
X118556671Y-67622567D01*
X118556671Y-67622567D02*
X118489328Y-67555224D01*
X118489328Y-67555224D02*
X118421984Y-67420537D01*
X118421984Y-67420537D02*
X118421984Y-67285850D01*
X118421984Y-67285850D02*
X118455656Y-67184835D01*
X118455656Y-67184835D02*
X118556671Y-67016476D01*
X118556671Y-67016476D02*
X118657686Y-66915461D01*
X118657686Y-66915461D02*
X118826045Y-66814445D01*
X118826045Y-66814445D02*
X118927060Y-66780774D01*
X118927060Y-66780774D02*
X119061747Y-66780774D01*
X119061747Y-66780774D02*
X119196434Y-66848117D01*
X119196434Y-66848117D02*
X119263778Y-66915461D01*
X119263778Y-66915461D02*
X119331121Y-67050148D01*
X119331121Y-67050148D02*
X119331121Y-67117491D01*
X120038228Y-67689911D02*
X119701511Y-67353193D01*
X119701511Y-67353193D02*
X119331121Y-67656239D01*
X119331121Y-67656239D02*
X119398465Y-67656239D01*
X119398465Y-67656239D02*
X119499480Y-67689911D01*
X119499480Y-67689911D02*
X119667839Y-67858270D01*
X119667839Y-67858270D02*
X119701511Y-67959285D01*
X119701511Y-67959285D02*
X119701511Y-68026628D01*
X119701511Y-68026628D02*
X119667839Y-68127644D01*
X119667839Y-68127644D02*
X119499480Y-68296002D01*
X119499480Y-68296002D02*
X119398465Y-68329674D01*
X119398465Y-68329674D02*
X119331121Y-68329674D01*
X119331121Y-68329674D02*
X119230106Y-68296002D01*
X119230106Y-68296002D02*
X119061747Y-68127644D01*
X119061747Y-68127644D02*
X119028076Y-68026628D01*
X119028076Y-68026628D02*
X119028076Y-67959285D01*
X103086779Y-101619819D02*
X103086779Y-100619819D01*
X103086779Y-100619819D02*
X103467731Y-100619819D01*
X103467731Y-100619819D02*
X103562969Y-100667438D01*
X103562969Y-100667438D02*
X103610588Y-100715057D01*
X103610588Y-100715057D02*
X103658207Y-100810295D01*
X103658207Y-100810295D02*
X103658207Y-100953152D01*
X103658207Y-100953152D02*
X103610588Y-101048390D01*
X103610588Y-101048390D02*
X103562969Y-101096009D01*
X103562969Y-101096009D02*
X103467731Y-101143628D01*
X103467731Y-101143628D02*
X103086779Y-101143628D01*
X104086779Y-101619819D02*
X104086779Y-100619819D01*
X104086779Y-100619819D02*
X104324874Y-100619819D01*
X104324874Y-100619819D02*
X104467731Y-100667438D01*
X104467731Y-100667438D02*
X104562969Y-100762676D01*
X104562969Y-100762676D02*
X104610588Y-100857914D01*
X104610588Y-100857914D02*
X104658207Y-101048390D01*
X104658207Y-101048390D02*
X104658207Y-101191247D01*
X104658207Y-101191247D02*
X104610588Y-101381723D01*
X104610588Y-101381723D02*
X104562969Y-101476961D01*
X104562969Y-101476961D02*
X104467731Y-101572200D01*
X104467731Y-101572200D02*
X104324874Y-101619819D01*
X104324874Y-101619819D02*
X104086779Y-101619819D01*
X105515350Y-100953152D02*
X105515350Y-101619819D01*
X105277255Y-100572200D02*
X105039160Y-101286485D01*
X105039160Y-101286485D02*
X105658207Y-101286485D01*
X178830190Y-133896087D02*
X179537297Y-133188980D01*
X179537297Y-133188980D02*
X179267923Y-133929758D01*
X179267923Y-133929758D02*
X180008702Y-133660384D01*
X180008702Y-133660384D02*
X179301595Y-134367491D01*
X180480106Y-134131789D02*
X180614793Y-134266476D01*
X180614793Y-134266476D02*
X180648465Y-134367491D01*
X180648465Y-134367491D02*
X180648465Y-134502178D01*
X180648465Y-134502178D02*
X180547449Y-134670537D01*
X180547449Y-134670537D02*
X180311747Y-134906239D01*
X180311747Y-134906239D02*
X180143388Y-135007254D01*
X180143388Y-135007254D02*
X180008701Y-135007254D01*
X180008701Y-135007254D02*
X179907686Y-134973582D01*
X179907686Y-134973582D02*
X179772999Y-134838895D01*
X179772999Y-134838895D02*
X179739327Y-134737880D01*
X179739327Y-134737880D02*
X179739327Y-134603193D01*
X179739327Y-134603193D02*
X179840343Y-134434834D01*
X179840343Y-134434834D02*
X180076045Y-134199132D01*
X180076045Y-134199132D02*
X180244404Y-134098117D01*
X180244404Y-134098117D02*
X180379091Y-134098117D01*
X180379091Y-134098117D02*
X180480106Y-134131789D01*
X180379091Y-135377643D02*
X180446434Y-135512330D01*
X180446434Y-135512330D02*
X180614793Y-135680689D01*
X180614793Y-135680689D02*
X180715808Y-135714361D01*
X180715808Y-135714361D02*
X180783152Y-135714361D01*
X180783152Y-135714361D02*
X180884167Y-135680689D01*
X180884167Y-135680689D02*
X180951510Y-135613346D01*
X180951510Y-135613346D02*
X180985182Y-135512330D01*
X180985182Y-135512330D02*
X180985182Y-135444987D01*
X180985182Y-135444987D02*
X180951510Y-135343972D01*
X180951510Y-135343972D02*
X180850495Y-135175613D01*
X180850495Y-135175613D02*
X180816823Y-135074598D01*
X180816823Y-135074598D02*
X180816823Y-135007254D01*
X180816823Y-135007254D02*
X180850495Y-134906239D01*
X180850495Y-134906239D02*
X180917839Y-134838895D01*
X180917839Y-134838895D02*
X181018854Y-134805224D01*
X181018854Y-134805224D02*
X181086197Y-134805224D01*
X181086197Y-134805224D02*
X181187213Y-134838895D01*
X181187213Y-134838895D02*
X181355571Y-135007254D01*
X181355571Y-135007254D02*
X181422915Y-135141941D01*
X181052526Y-136118422D02*
X181759632Y-135411315D01*
X182231037Y-135882719D02*
X182298380Y-135950063D01*
X182298380Y-135950063D02*
X182332052Y-136051078D01*
X182332052Y-136051078D02*
X182332052Y-136118422D01*
X182332052Y-136118422D02*
X182298380Y-136219437D01*
X182298380Y-136219437D02*
X182197365Y-136387796D01*
X182197365Y-136387796D02*
X182029006Y-136556154D01*
X182029006Y-136556154D02*
X181860647Y-136657170D01*
X181860647Y-136657170D02*
X181759632Y-136690841D01*
X181759632Y-136690841D02*
X181692289Y-136690841D01*
X181692289Y-136690841D02*
X181591273Y-136657170D01*
X181591273Y-136657170D02*
X181523930Y-136589826D01*
X181523930Y-136589826D02*
X181490258Y-136488811D01*
X181490258Y-136488811D02*
X181490258Y-136421467D01*
X181490258Y-136421467D02*
X181523930Y-136320452D01*
X181523930Y-136320452D02*
X181624945Y-136152093D01*
X181624945Y-136152093D02*
X181793304Y-135983735D01*
X181793304Y-135983735D02*
X181961663Y-135882719D01*
X181961663Y-135882719D02*
X182062678Y-135849048D01*
X182062678Y-135849048D02*
X182130021Y-135849048D01*
X182130021Y-135849048D02*
X182231037Y-135882719D01*
X183984251Y-129300148D02*
X184085266Y-128727728D01*
X183580190Y-128896087D02*
X184287297Y-128188980D01*
X184287297Y-128188980D02*
X184556671Y-128458354D01*
X184556671Y-128458354D02*
X184590343Y-128559369D01*
X184590343Y-128559369D02*
X184590343Y-128626713D01*
X184590343Y-128626713D02*
X184556671Y-128727728D01*
X184556671Y-128727728D02*
X184455656Y-128828743D01*
X184455656Y-128828743D02*
X184354641Y-128862415D01*
X184354641Y-128862415D02*
X184287297Y-128862415D01*
X184287297Y-128862415D02*
X184186282Y-128828743D01*
X184186282Y-128828743D02*
X183916908Y-128559369D01*
X184657686Y-129232804D02*
X184893389Y-129468506D01*
X184624015Y-129939911D02*
X184287297Y-129603193D01*
X184287297Y-129603193D02*
X184994404Y-128896087D01*
X184994404Y-128896087D02*
X185331121Y-129232804D01*
X184927060Y-130175613D02*
X184994404Y-130310300D01*
X184994404Y-130310300D02*
X185162763Y-130478659D01*
X185162763Y-130478659D02*
X185263778Y-130512331D01*
X185263778Y-130512331D02*
X185331121Y-130512331D01*
X185331121Y-130512331D02*
X185432137Y-130478659D01*
X185432137Y-130478659D02*
X185499480Y-130411315D01*
X185499480Y-130411315D02*
X185533152Y-130310300D01*
X185533152Y-130310300D02*
X185533152Y-130242957D01*
X185533152Y-130242957D02*
X185499480Y-130141941D01*
X185499480Y-130141941D02*
X185398465Y-129973583D01*
X185398465Y-129973583D02*
X185364793Y-129872567D01*
X185364793Y-129872567D02*
X185364793Y-129805224D01*
X185364793Y-129805224D02*
X185398465Y-129704209D01*
X185398465Y-129704209D02*
X185465808Y-129636865D01*
X185465808Y-129636865D02*
X185566824Y-129603193D01*
X185566824Y-129603193D02*
X185634167Y-129603193D01*
X185634167Y-129603193D02*
X185735182Y-129636865D01*
X185735182Y-129636865D02*
X185903541Y-129805224D01*
X185903541Y-129805224D02*
X185970885Y-129939911D01*
X185970885Y-130546002D02*
X186206587Y-130781705D01*
X185937213Y-131253109D02*
X185600495Y-130916392D01*
X185600495Y-130916392D02*
X186307602Y-130209285D01*
X186307602Y-130209285D02*
X186644320Y-130546002D01*
X186846350Y-130748033D02*
X187250411Y-131152094D01*
X186341274Y-131657170D02*
X187048381Y-130950064D01*
X184385955Y-127895025D02*
X187443351Y-130952421D01*
X183621636Y-70530046D02*
X184059369Y-70092313D01*
X184059369Y-70092313D02*
X184093041Y-70597389D01*
X184093041Y-70597389D02*
X184194056Y-70496374D01*
X184194056Y-70496374D02*
X184295071Y-70462702D01*
X184295071Y-70462702D02*
X184362415Y-70462702D01*
X184362415Y-70462702D02*
X184463430Y-70496374D01*
X184463430Y-70496374D02*
X184631789Y-70664733D01*
X184631789Y-70664733D02*
X184665461Y-70765748D01*
X184665461Y-70765748D02*
X184665461Y-70833091D01*
X184665461Y-70833091D02*
X184631789Y-70934107D01*
X184631789Y-70934107D02*
X184429758Y-71136137D01*
X184429758Y-71136137D02*
X184328743Y-71169809D01*
X184328743Y-71169809D02*
X184261400Y-71169809D01*
X184261400Y-69890282D02*
X185204209Y-70361687D01*
X185204209Y-70361687D02*
X184732804Y-69418878D01*
X184901163Y-69250519D02*
X185338896Y-68812786D01*
X185338896Y-68812786D02*
X185372567Y-69317862D01*
X185372567Y-69317862D02*
X185473583Y-69216847D01*
X185473583Y-69216847D02*
X185574598Y-69183175D01*
X185574598Y-69183175D02*
X185641941Y-69183175D01*
X185641941Y-69183175D02*
X185742957Y-69216847D01*
X185742957Y-69216847D02*
X185911316Y-69385206D01*
X185911316Y-69385206D02*
X185944987Y-69486221D01*
X185944987Y-69486221D02*
X185944987Y-69553565D01*
X185944987Y-69553565D02*
X185911316Y-69654580D01*
X185911316Y-69654580D02*
X185709285Y-69856610D01*
X185709285Y-69856610D02*
X185608270Y-69890282D01*
X185608270Y-69890282D02*
X185540926Y-69890282D01*
X145915895Y-52539160D02*
X145915895Y-53015350D01*
X145630180Y-52443922D02*
X146630180Y-52777255D01*
X146630180Y-52777255D02*
X145630180Y-53110588D01*
X145630180Y-53443922D02*
X146630180Y-53443922D01*
X146630180Y-53443922D02*
X146630180Y-53682017D01*
X146630180Y-53682017D02*
X146582561Y-53824874D01*
X146582561Y-53824874D02*
X146487323Y-53920112D01*
X146487323Y-53920112D02*
X146392085Y-53967731D01*
X146392085Y-53967731D02*
X146201609Y-54015350D01*
X146201609Y-54015350D02*
X146058752Y-54015350D01*
X146058752Y-54015350D02*
X145868276Y-53967731D01*
X145868276Y-53967731D02*
X145773038Y-53920112D01*
X145773038Y-53920112D02*
X145677800Y-53824874D01*
X145677800Y-53824874D02*
X145630180Y-53682017D01*
X145630180Y-53682017D02*
X145630180Y-53443922D01*
X145725419Y-55015350D02*
X145677800Y-54967731D01*
X145677800Y-54967731D02*
X145630180Y-54824874D01*
X145630180Y-54824874D02*
X145630180Y-54729636D01*
X145630180Y-54729636D02*
X145677800Y-54586779D01*
X145677800Y-54586779D02*
X145773038Y-54491541D01*
X145773038Y-54491541D02*
X145868276Y-54443922D01*
X145868276Y-54443922D02*
X146058752Y-54396303D01*
X146058752Y-54396303D02*
X146201609Y-54396303D01*
X146201609Y-54396303D02*
X146392085Y-54443922D01*
X146392085Y-54443922D02*
X146487323Y-54491541D01*
X146487323Y-54491541D02*
X146582561Y-54586779D01*
X146582561Y-54586779D02*
X146630180Y-54729636D01*
X146630180Y-54729636D02*
X146630180Y-54824874D01*
X146630180Y-54824874D02*
X146582561Y-54967731D01*
X146582561Y-54967731D02*
X146534942Y-55015350D01*
X145630180Y-55967731D02*
X145630180Y-55396303D01*
X145630180Y-55682017D02*
X146630180Y-55682017D01*
X146630180Y-55682017D02*
X146487323Y-55586779D01*
X146487323Y-55586779D02*
X146392085Y-55491541D01*
X146392085Y-55491541D02*
X146344466Y-55396303D01*
X180761905Y-79956819D02*
X181333333Y-79956819D01*
X181047619Y-80956819D02*
X181047619Y-79956819D01*
X181666667Y-80956819D02*
X181666667Y-79956819D01*
X181666667Y-79956819D02*
X182047619Y-79956819D01*
X182047619Y-79956819D02*
X182142857Y-80004438D01*
X182142857Y-80004438D02*
X182190476Y-80052057D01*
X182190476Y-80052057D02*
X182238095Y-80147295D01*
X182238095Y-80147295D02*
X182238095Y-80290152D01*
X182238095Y-80290152D02*
X182190476Y-80385390D01*
X182190476Y-80385390D02*
X182142857Y-80433009D01*
X182142857Y-80433009D02*
X182047619Y-80480628D01*
X182047619Y-80480628D02*
X181666667Y-80480628D01*
X182619048Y-80052057D02*
X182666667Y-80004438D01*
X182666667Y-80004438D02*
X182761905Y-79956819D01*
X182761905Y-79956819D02*
X183000000Y-79956819D01*
X183000000Y-79956819D02*
X183095238Y-80004438D01*
X183095238Y-80004438D02*
X183142857Y-80052057D01*
X183142857Y-80052057D02*
X183190476Y-80147295D01*
X183190476Y-80147295D02*
X183190476Y-80242533D01*
X183190476Y-80242533D02*
X183142857Y-80385390D01*
X183142857Y-80385390D02*
X182571429Y-80956819D01*
X182571429Y-80956819D02*
X183190476Y-80956819D01*
X184047619Y-80290152D02*
X184047619Y-80956819D01*
X183809524Y-79909200D02*
X183571429Y-80623485D01*
X183571429Y-80623485D02*
X184190476Y-80623485D01*
X160761905Y-120456819D02*
X161333333Y-120456819D01*
X161047619Y-121456819D02*
X161047619Y-120456819D01*
X161666667Y-121456819D02*
X161666667Y-120456819D01*
X161666667Y-120456819D02*
X162047619Y-120456819D01*
X162047619Y-120456819D02*
X162142857Y-120504438D01*
X162142857Y-120504438D02*
X162190476Y-120552057D01*
X162190476Y-120552057D02*
X162238095Y-120647295D01*
X162238095Y-120647295D02*
X162238095Y-120790152D01*
X162238095Y-120790152D02*
X162190476Y-120885390D01*
X162190476Y-120885390D02*
X162142857Y-120933009D01*
X162142857Y-120933009D02*
X162047619Y-120980628D01*
X162047619Y-120980628D02*
X161666667Y-120980628D01*
X162619048Y-120552057D02*
X162666667Y-120504438D01*
X162666667Y-120504438D02*
X162761905Y-120456819D01*
X162761905Y-120456819D02*
X163000000Y-120456819D01*
X163000000Y-120456819D02*
X163095238Y-120504438D01*
X163095238Y-120504438D02*
X163142857Y-120552057D01*
X163142857Y-120552057D02*
X163190476Y-120647295D01*
X163190476Y-120647295D02*
X163190476Y-120742533D01*
X163190476Y-120742533D02*
X163142857Y-120885390D01*
X163142857Y-120885390D02*
X162571429Y-121456819D01*
X162571429Y-121456819D02*
X163190476Y-121456819D01*
X163523810Y-120456819D02*
X164142857Y-120456819D01*
X164142857Y-120456819D02*
X163809524Y-120837771D01*
X163809524Y-120837771D02*
X163952381Y-120837771D01*
X163952381Y-120837771D02*
X164047619Y-120885390D01*
X164047619Y-120885390D02*
X164095238Y-120933009D01*
X164095238Y-120933009D02*
X164142857Y-121028247D01*
X164142857Y-121028247D02*
X164142857Y-121266342D01*
X164142857Y-121266342D02*
X164095238Y-121361580D01*
X164095238Y-121361580D02*
X164047619Y-121409200D01*
X164047619Y-121409200D02*
X163952381Y-121456819D01*
X163952381Y-121456819D02*
X163666667Y-121456819D01*
X163666667Y-121456819D02*
X163571429Y-121409200D01*
X163571429Y-121409200D02*
X163523810Y-121361580D01*
X156261905Y-135456819D02*
X156833333Y-135456819D01*
X156547619Y-136456819D02*
X156547619Y-135456819D01*
X157166667Y-136456819D02*
X157166667Y-135456819D01*
X157166667Y-135456819D02*
X157547619Y-135456819D01*
X157547619Y-135456819D02*
X157642857Y-135504438D01*
X157642857Y-135504438D02*
X157690476Y-135552057D01*
X157690476Y-135552057D02*
X157738095Y-135647295D01*
X157738095Y-135647295D02*
X157738095Y-135790152D01*
X157738095Y-135790152D02*
X157690476Y-135885390D01*
X157690476Y-135885390D02*
X157642857Y-135933009D01*
X157642857Y-135933009D02*
X157547619Y-135980628D01*
X157547619Y-135980628D02*
X157166667Y-135980628D01*
X158119048Y-135552057D02*
X158166667Y-135504438D01*
X158166667Y-135504438D02*
X158261905Y-135456819D01*
X158261905Y-135456819D02*
X158500000Y-135456819D01*
X158500000Y-135456819D02*
X158595238Y-135504438D01*
X158595238Y-135504438D02*
X158642857Y-135552057D01*
X158642857Y-135552057D02*
X158690476Y-135647295D01*
X158690476Y-135647295D02*
X158690476Y-135742533D01*
X158690476Y-135742533D02*
X158642857Y-135885390D01*
X158642857Y-135885390D02*
X158071429Y-136456819D01*
X158071429Y-136456819D02*
X158690476Y-136456819D01*
X159642857Y-136456819D02*
X159071429Y-136456819D01*
X159357143Y-136456819D02*
X159357143Y-135456819D01*
X159357143Y-135456819D02*
X159261905Y-135599676D01*
X159261905Y-135599676D02*
X159166667Y-135694914D01*
X159166667Y-135694914D02*
X159071429Y-135742533D01*
X135761905Y-69956819D02*
X136333333Y-69956819D01*
X136047619Y-70956819D02*
X136047619Y-69956819D01*
X136666667Y-70956819D02*
X136666667Y-69956819D01*
X136666667Y-69956819D02*
X137047619Y-69956819D01*
X137047619Y-69956819D02*
X137142857Y-70004438D01*
X137142857Y-70004438D02*
X137190476Y-70052057D01*
X137190476Y-70052057D02*
X137238095Y-70147295D01*
X137238095Y-70147295D02*
X137238095Y-70290152D01*
X137238095Y-70290152D02*
X137190476Y-70385390D01*
X137190476Y-70385390D02*
X137142857Y-70433009D01*
X137142857Y-70433009D02*
X137047619Y-70480628D01*
X137047619Y-70480628D02*
X136666667Y-70480628D01*
X137619048Y-70052057D02*
X137666667Y-70004438D01*
X137666667Y-70004438D02*
X137761905Y-69956819D01*
X137761905Y-69956819D02*
X138000000Y-69956819D01*
X138000000Y-69956819D02*
X138095238Y-70004438D01*
X138095238Y-70004438D02*
X138142857Y-70052057D01*
X138142857Y-70052057D02*
X138190476Y-70147295D01*
X138190476Y-70147295D02*
X138190476Y-70242533D01*
X138190476Y-70242533D02*
X138142857Y-70385390D01*
X138142857Y-70385390D02*
X137571429Y-70956819D01*
X137571429Y-70956819D02*
X138190476Y-70956819D01*
X138809524Y-69956819D02*
X138904762Y-69956819D01*
X138904762Y-69956819D02*
X139000000Y-70004438D01*
X139000000Y-70004438D02*
X139047619Y-70052057D01*
X139047619Y-70052057D02*
X139095238Y-70147295D01*
X139095238Y-70147295D02*
X139142857Y-70337771D01*
X139142857Y-70337771D02*
X139142857Y-70575866D01*
X139142857Y-70575866D02*
X139095238Y-70766342D01*
X139095238Y-70766342D02*
X139047619Y-70861580D01*
X139047619Y-70861580D02*
X139000000Y-70909200D01*
X139000000Y-70909200D02*
X138904762Y-70956819D01*
X138904762Y-70956819D02*
X138809524Y-70956819D01*
X138809524Y-70956819D02*
X138714286Y-70909200D01*
X138714286Y-70909200D02*
X138666667Y-70861580D01*
X138666667Y-70861580D02*
X138619048Y-70766342D01*
X138619048Y-70766342D02*
X138571429Y-70575866D01*
X138571429Y-70575866D02*
X138571429Y-70337771D01*
X138571429Y-70337771D02*
X138619048Y-70147295D01*
X138619048Y-70147295D02*
X138666667Y-70052057D01*
X138666667Y-70052057D02*
X138714286Y-70004438D01*
X138714286Y-70004438D02*
X138809524Y-69956819D01*
X156261905Y-140456819D02*
X156833333Y-140456819D01*
X156547619Y-141456819D02*
X156547619Y-140456819D01*
X157166667Y-141456819D02*
X157166667Y-140456819D01*
X157166667Y-140456819D02*
X157547619Y-140456819D01*
X157547619Y-140456819D02*
X157642857Y-140504438D01*
X157642857Y-140504438D02*
X157690476Y-140552057D01*
X157690476Y-140552057D02*
X157738095Y-140647295D01*
X157738095Y-140647295D02*
X157738095Y-140790152D01*
X157738095Y-140790152D02*
X157690476Y-140885390D01*
X157690476Y-140885390D02*
X157642857Y-140933009D01*
X157642857Y-140933009D02*
X157547619Y-140980628D01*
X157547619Y-140980628D02*
X157166667Y-140980628D01*
X158690476Y-141456819D02*
X158119048Y-141456819D01*
X158404762Y-141456819D02*
X158404762Y-140456819D01*
X158404762Y-140456819D02*
X158309524Y-140599676D01*
X158309524Y-140599676D02*
X158214286Y-140694914D01*
X158214286Y-140694914D02*
X158119048Y-140742533D01*
X159166667Y-141456819D02*
X159357143Y-141456819D01*
X159357143Y-141456819D02*
X159452381Y-141409200D01*
X159452381Y-141409200D02*
X159500000Y-141361580D01*
X159500000Y-141361580D02*
X159595238Y-141218723D01*
X159595238Y-141218723D02*
X159642857Y-141028247D01*
X159642857Y-141028247D02*
X159642857Y-140647295D01*
X159642857Y-140647295D02*
X159595238Y-140552057D01*
X159595238Y-140552057D02*
X159547619Y-140504438D01*
X159547619Y-140504438D02*
X159452381Y-140456819D01*
X159452381Y-140456819D02*
X159261905Y-140456819D01*
X159261905Y-140456819D02*
X159166667Y-140504438D01*
X159166667Y-140504438D02*
X159119048Y-140552057D01*
X159119048Y-140552057D02*
X159071429Y-140647295D01*
X159071429Y-140647295D02*
X159071429Y-140885390D01*
X159071429Y-140885390D02*
X159119048Y-140980628D01*
X159119048Y-140980628D02*
X159166667Y-141028247D01*
X159166667Y-141028247D02*
X159261905Y-141075866D01*
X159261905Y-141075866D02*
X159452381Y-141075866D01*
X159452381Y-141075866D02*
X159547619Y-141028247D01*
X159547619Y-141028247D02*
X159595238Y-140980628D01*
X159595238Y-140980628D02*
X159642857Y-140885390D01*
X137761905Y-113954819D02*
X138333333Y-113954819D01*
X138047619Y-114954819D02*
X138047619Y-113954819D01*
X138666667Y-114954819D02*
X138666667Y-113954819D01*
X138666667Y-113954819D02*
X139047619Y-113954819D01*
X139047619Y-113954819D02*
X139142857Y-114002438D01*
X139142857Y-114002438D02*
X139190476Y-114050057D01*
X139190476Y-114050057D02*
X139238095Y-114145295D01*
X139238095Y-114145295D02*
X139238095Y-114288152D01*
X139238095Y-114288152D02*
X139190476Y-114383390D01*
X139190476Y-114383390D02*
X139142857Y-114431009D01*
X139142857Y-114431009D02*
X139047619Y-114478628D01*
X139047619Y-114478628D02*
X138666667Y-114478628D01*
X140190476Y-114954819D02*
X139619048Y-114954819D01*
X139904762Y-114954819D02*
X139904762Y-113954819D01*
X139904762Y-113954819D02*
X139809524Y-114097676D01*
X139809524Y-114097676D02*
X139714286Y-114192914D01*
X139714286Y-114192914D02*
X139619048Y-114240533D01*
X140761905Y-114383390D02*
X140666667Y-114335771D01*
X140666667Y-114335771D02*
X140619048Y-114288152D01*
X140619048Y-114288152D02*
X140571429Y-114192914D01*
X140571429Y-114192914D02*
X140571429Y-114145295D01*
X140571429Y-114145295D02*
X140619048Y-114050057D01*
X140619048Y-114050057D02*
X140666667Y-114002438D01*
X140666667Y-114002438D02*
X140761905Y-113954819D01*
X140761905Y-113954819D02*
X140952381Y-113954819D01*
X140952381Y-113954819D02*
X141047619Y-114002438D01*
X141047619Y-114002438D02*
X141095238Y-114050057D01*
X141095238Y-114050057D02*
X141142857Y-114145295D01*
X141142857Y-114145295D02*
X141142857Y-114192914D01*
X141142857Y-114192914D02*
X141095238Y-114288152D01*
X141095238Y-114288152D02*
X141047619Y-114335771D01*
X141047619Y-114335771D02*
X140952381Y-114383390D01*
X140952381Y-114383390D02*
X140761905Y-114383390D01*
X140761905Y-114383390D02*
X140666667Y-114431009D01*
X140666667Y-114431009D02*
X140619048Y-114478628D01*
X140619048Y-114478628D02*
X140571429Y-114573866D01*
X140571429Y-114573866D02*
X140571429Y-114764342D01*
X140571429Y-114764342D02*
X140619048Y-114859580D01*
X140619048Y-114859580D02*
X140666667Y-114907200D01*
X140666667Y-114907200D02*
X140761905Y-114954819D01*
X140761905Y-114954819D02*
X140952381Y-114954819D01*
X140952381Y-114954819D02*
X141047619Y-114907200D01*
X141047619Y-114907200D02*
X141095238Y-114859580D01*
X141095238Y-114859580D02*
X141142857Y-114764342D01*
X141142857Y-114764342D02*
X141142857Y-114573866D01*
X141142857Y-114573866D02*
X141095238Y-114478628D01*
X141095238Y-114478628D02*
X141047619Y-114431009D01*
X141047619Y-114431009D02*
X140952381Y-114383390D01*
X180931197Y-121348796D02*
X180426121Y-121853872D01*
X180426121Y-121853872D02*
X180291434Y-121921216D01*
X180291434Y-121921216D02*
X180156747Y-121921216D01*
X180156747Y-121921216D02*
X180022060Y-121853872D01*
X180022060Y-121853872D02*
X179954716Y-121786529D01*
X181604632Y-122022231D02*
X181267915Y-121685514D01*
X181267915Y-121685514D02*
X180897526Y-121988559D01*
X180897526Y-121988559D02*
X180964869Y-121988559D01*
X180964869Y-121988559D02*
X181065884Y-122022231D01*
X181065884Y-122022231D02*
X181234243Y-122190590D01*
X181234243Y-122190590D02*
X181267915Y-122291605D01*
X181267915Y-122291605D02*
X181267915Y-122358949D01*
X181267915Y-122358949D02*
X181234243Y-122459964D01*
X181234243Y-122459964D02*
X181065884Y-122628323D01*
X181065884Y-122628323D02*
X180964869Y-122661994D01*
X180964869Y-122661994D02*
X180897526Y-122661994D01*
X180897526Y-122661994D02*
X180796510Y-122628323D01*
X180796510Y-122628323D02*
X180628152Y-122459964D01*
X180628152Y-122459964D02*
X180594480Y-122358949D01*
X180594480Y-122358949D02*
X180594480Y-122291605D01*
X121149798Y-120628796D02*
X120644722Y-121133872D01*
X120644722Y-121133872D02*
X120510035Y-121201216D01*
X120510035Y-121201216D02*
X120375348Y-121201216D01*
X120375348Y-121201216D02*
X120240661Y-121133872D01*
X120240661Y-121133872D02*
X120173317Y-121066529D01*
X121284485Y-121369575D02*
X121250814Y-121268559D01*
X121250814Y-121268559D02*
X121250814Y-121201216D01*
X121250814Y-121201216D02*
X121284485Y-121100201D01*
X121284485Y-121100201D02*
X121318157Y-121066529D01*
X121318157Y-121066529D02*
X121419172Y-121032857D01*
X121419172Y-121032857D02*
X121486516Y-121032857D01*
X121486516Y-121032857D02*
X121587531Y-121066529D01*
X121587531Y-121066529D02*
X121722218Y-121201216D01*
X121722218Y-121201216D02*
X121755890Y-121302231D01*
X121755890Y-121302231D02*
X121755890Y-121369575D01*
X121755890Y-121369575D02*
X121722218Y-121470590D01*
X121722218Y-121470590D02*
X121688546Y-121504262D01*
X121688546Y-121504262D02*
X121587531Y-121537933D01*
X121587531Y-121537933D02*
X121520188Y-121537933D01*
X121520188Y-121537933D02*
X121419172Y-121504262D01*
X121419172Y-121504262D02*
X121284485Y-121369575D01*
X121284485Y-121369575D02*
X121183470Y-121335903D01*
X121183470Y-121335903D02*
X121116127Y-121335903D01*
X121116127Y-121335903D02*
X121015111Y-121369575D01*
X121015111Y-121369575D02*
X120880424Y-121504262D01*
X120880424Y-121504262D02*
X120846753Y-121605277D01*
X120846753Y-121605277D02*
X120846753Y-121672620D01*
X120846753Y-121672620D02*
X120880424Y-121773636D01*
X120880424Y-121773636D02*
X121015111Y-121908323D01*
X121015111Y-121908323D02*
X121116127Y-121941994D01*
X121116127Y-121941994D02*
X121183470Y-121941994D01*
X121183470Y-121941994D02*
X121284485Y-121908323D01*
X121284485Y-121908323D02*
X121419172Y-121773636D01*
X121419172Y-121773636D02*
X121452844Y-121672620D01*
X121452844Y-121672620D02*
X121452844Y-121605277D01*
X121452844Y-121605277D02*
X121419172Y-121504262D01*
X135333333Y-105954819D02*
X135000000Y-105478628D01*
X134761905Y-105954819D02*
X134761905Y-104954819D01*
X134761905Y-104954819D02*
X135142857Y-104954819D01*
X135142857Y-104954819D02*
X135238095Y-105002438D01*
X135238095Y-105002438D02*
X135285714Y-105050057D01*
X135285714Y-105050057D02*
X135333333Y-105145295D01*
X135333333Y-105145295D02*
X135333333Y-105288152D01*
X135333333Y-105288152D02*
X135285714Y-105383390D01*
X135285714Y-105383390D02*
X135238095Y-105431009D01*
X135238095Y-105431009D02*
X135142857Y-105478628D01*
X135142857Y-105478628D02*
X134761905Y-105478628D01*
X136285714Y-105954819D02*
X135714286Y-105954819D01*
X136000000Y-105954819D02*
X136000000Y-104954819D01*
X136000000Y-104954819D02*
X135904762Y-105097676D01*
X135904762Y-105097676D02*
X135809524Y-105192914D01*
X135809524Y-105192914D02*
X135714286Y-105240533D01*
X151761905Y-129456819D02*
X152333333Y-129456819D01*
X152047619Y-130456819D02*
X152047619Y-129456819D01*
X152666667Y-130456819D02*
X152666667Y-129456819D01*
X152666667Y-129456819D02*
X153047619Y-129456819D01*
X153047619Y-129456819D02*
X153142857Y-129504438D01*
X153142857Y-129504438D02*
X153190476Y-129552057D01*
X153190476Y-129552057D02*
X153238095Y-129647295D01*
X153238095Y-129647295D02*
X153238095Y-129790152D01*
X153238095Y-129790152D02*
X153190476Y-129885390D01*
X153190476Y-129885390D02*
X153142857Y-129933009D01*
X153142857Y-129933009D02*
X153047619Y-129980628D01*
X153047619Y-129980628D02*
X152666667Y-129980628D01*
X154190476Y-130456819D02*
X153619048Y-130456819D01*
X153904762Y-130456819D02*
X153904762Y-129456819D01*
X153904762Y-129456819D02*
X153809524Y-129599676D01*
X153809524Y-129599676D02*
X153714286Y-129694914D01*
X153714286Y-129694914D02*
X153619048Y-129742533D01*
X154571429Y-129552057D02*
X154619048Y-129504438D01*
X154619048Y-129504438D02*
X154714286Y-129456819D01*
X154714286Y-129456819D02*
X154952381Y-129456819D01*
X154952381Y-129456819D02*
X155047619Y-129504438D01*
X155047619Y-129504438D02*
X155095238Y-129552057D01*
X155095238Y-129552057D02*
X155142857Y-129647295D01*
X155142857Y-129647295D02*
X155142857Y-129742533D01*
X155142857Y-129742533D02*
X155095238Y-129885390D01*
X155095238Y-129885390D02*
X154523810Y-130456819D01*
X154523810Y-130456819D02*
X155142857Y-130456819D01*
X159738095Y-107456819D02*
X160309523Y-107456819D01*
X160023809Y-108456819D02*
X160023809Y-107456819D01*
X160642857Y-108456819D02*
X160642857Y-107456819D01*
X160642857Y-107456819D02*
X161023809Y-107456819D01*
X161023809Y-107456819D02*
X161119047Y-107504438D01*
X161119047Y-107504438D02*
X161166666Y-107552057D01*
X161166666Y-107552057D02*
X161214285Y-107647295D01*
X161214285Y-107647295D02*
X161214285Y-107790152D01*
X161214285Y-107790152D02*
X161166666Y-107885390D01*
X161166666Y-107885390D02*
X161119047Y-107933009D01*
X161119047Y-107933009D02*
X161023809Y-107980628D01*
X161023809Y-107980628D02*
X160642857Y-107980628D01*
X162119047Y-107456819D02*
X161642857Y-107456819D01*
X161642857Y-107456819D02*
X161595238Y-107933009D01*
X161595238Y-107933009D02*
X161642857Y-107885390D01*
X161642857Y-107885390D02*
X161738095Y-107837771D01*
X161738095Y-107837771D02*
X161976190Y-107837771D01*
X161976190Y-107837771D02*
X162071428Y-107885390D01*
X162071428Y-107885390D02*
X162119047Y-107933009D01*
X162119047Y-107933009D02*
X162166666Y-108028247D01*
X162166666Y-108028247D02*
X162166666Y-108266342D01*
X162166666Y-108266342D02*
X162119047Y-108361580D01*
X162119047Y-108361580D02*
X162071428Y-108409200D01*
X162071428Y-108409200D02*
X161976190Y-108456819D01*
X161976190Y-108456819D02*
X161738095Y-108456819D01*
X161738095Y-108456819D02*
X161642857Y-108409200D01*
X161642857Y-108409200D02*
X161595238Y-108361580D01*
X158256929Y-98359134D02*
X158209310Y-98406754D01*
X158209310Y-98406754D02*
X158066453Y-98454373D01*
X158066453Y-98454373D02*
X157971215Y-98454373D01*
X157971215Y-98454373D02*
X157828358Y-98406754D01*
X157828358Y-98406754D02*
X157733120Y-98311515D01*
X157733120Y-98311515D02*
X157685501Y-98216277D01*
X157685501Y-98216277D02*
X157637882Y-98025801D01*
X157637882Y-98025801D02*
X157637882Y-97882944D01*
X157637882Y-97882944D02*
X157685501Y-97692468D01*
X157685501Y-97692468D02*
X157733120Y-97597230D01*
X157733120Y-97597230D02*
X157828358Y-97501992D01*
X157828358Y-97501992D02*
X157971215Y-97454373D01*
X157971215Y-97454373D02*
X158066453Y-97454373D01*
X158066453Y-97454373D02*
X158209310Y-97501992D01*
X158209310Y-97501992D02*
X158256929Y-97549611D01*
X158590263Y-97454373D02*
X159209310Y-97454373D01*
X159209310Y-97454373D02*
X158875977Y-97835325D01*
X158875977Y-97835325D02*
X159018834Y-97835325D01*
X159018834Y-97835325D02*
X159114072Y-97882944D01*
X159114072Y-97882944D02*
X159161691Y-97930563D01*
X159161691Y-97930563D02*
X159209310Y-98025801D01*
X159209310Y-98025801D02*
X159209310Y-98263896D01*
X159209310Y-98263896D02*
X159161691Y-98359134D01*
X159161691Y-98359134D02*
X159114072Y-98406754D01*
X159114072Y-98406754D02*
X159018834Y-98454373D01*
X159018834Y-98454373D02*
X158733120Y-98454373D01*
X158733120Y-98454373D02*
X158637882Y-98406754D01*
X158637882Y-98406754D02*
X158590263Y-98359134D01*
X153333333Y-127384580D02*
X153285714Y-127432200D01*
X153285714Y-127432200D02*
X153142857Y-127479819D01*
X153142857Y-127479819D02*
X153047619Y-127479819D01*
X153047619Y-127479819D02*
X152904762Y-127432200D01*
X152904762Y-127432200D02*
X152809524Y-127336961D01*
X152809524Y-127336961D02*
X152761905Y-127241723D01*
X152761905Y-127241723D02*
X152714286Y-127051247D01*
X152714286Y-127051247D02*
X152714286Y-126908390D01*
X152714286Y-126908390D02*
X152761905Y-126717914D01*
X152761905Y-126717914D02*
X152809524Y-126622676D01*
X152809524Y-126622676D02*
X152904762Y-126527438D01*
X152904762Y-126527438D02*
X153047619Y-126479819D01*
X153047619Y-126479819D02*
X153142857Y-126479819D01*
X153142857Y-126479819D02*
X153285714Y-126527438D01*
X153285714Y-126527438D02*
X153333333Y-126575057D01*
X154285714Y-127479819D02*
X153714286Y-127479819D01*
X154000000Y-127479819D02*
X154000000Y-126479819D01*
X154000000Y-126479819D02*
X153904762Y-126622676D01*
X153904762Y-126622676D02*
X153809524Y-126717914D01*
X153809524Y-126717914D02*
X153714286Y-126765533D01*
X130833333Y-98359580D02*
X130785714Y-98407200D01*
X130785714Y-98407200D02*
X130642857Y-98454819D01*
X130642857Y-98454819D02*
X130547619Y-98454819D01*
X130547619Y-98454819D02*
X130404762Y-98407200D01*
X130404762Y-98407200D02*
X130309524Y-98311961D01*
X130309524Y-98311961D02*
X130261905Y-98216723D01*
X130261905Y-98216723D02*
X130214286Y-98026247D01*
X130214286Y-98026247D02*
X130214286Y-97883390D01*
X130214286Y-97883390D02*
X130261905Y-97692914D01*
X130261905Y-97692914D02*
X130309524Y-97597676D01*
X130309524Y-97597676D02*
X130404762Y-97502438D01*
X130404762Y-97502438D02*
X130547619Y-97454819D01*
X130547619Y-97454819D02*
X130642857Y-97454819D01*
X130642857Y-97454819D02*
X130785714Y-97502438D01*
X130785714Y-97502438D02*
X130833333Y-97550057D01*
X131690476Y-97454819D02*
X131500000Y-97454819D01*
X131500000Y-97454819D02*
X131404762Y-97502438D01*
X131404762Y-97502438D02*
X131357143Y-97550057D01*
X131357143Y-97550057D02*
X131261905Y-97692914D01*
X131261905Y-97692914D02*
X131214286Y-97883390D01*
X131214286Y-97883390D02*
X131214286Y-98264342D01*
X131214286Y-98264342D02*
X131261905Y-98359580D01*
X131261905Y-98359580D02*
X131309524Y-98407200D01*
X131309524Y-98407200D02*
X131404762Y-98454819D01*
X131404762Y-98454819D02*
X131595238Y-98454819D01*
X131595238Y-98454819D02*
X131690476Y-98407200D01*
X131690476Y-98407200D02*
X131738095Y-98359580D01*
X131738095Y-98359580D02*
X131785714Y-98264342D01*
X131785714Y-98264342D02*
X131785714Y-98026247D01*
X131785714Y-98026247D02*
X131738095Y-97931009D01*
X131738095Y-97931009D02*
X131690476Y-97883390D01*
X131690476Y-97883390D02*
X131595238Y-97835771D01*
X131595238Y-97835771D02*
X131404762Y-97835771D01*
X131404762Y-97835771D02*
X131309524Y-97883390D01*
X131309524Y-97883390D02*
X131261905Y-97931009D01*
X131261905Y-97931009D02*
X131214286Y-98026247D01*
X144857142Y-86359580D02*
X144809523Y-86407200D01*
X144809523Y-86407200D02*
X144666666Y-86454819D01*
X144666666Y-86454819D02*
X144571428Y-86454819D01*
X144571428Y-86454819D02*
X144428571Y-86407200D01*
X144428571Y-86407200D02*
X144333333Y-86311961D01*
X144333333Y-86311961D02*
X144285714Y-86216723D01*
X144285714Y-86216723D02*
X144238095Y-86026247D01*
X144238095Y-86026247D02*
X144238095Y-85883390D01*
X144238095Y-85883390D02*
X144285714Y-85692914D01*
X144285714Y-85692914D02*
X144333333Y-85597676D01*
X144333333Y-85597676D02*
X144428571Y-85502438D01*
X144428571Y-85502438D02*
X144571428Y-85454819D01*
X144571428Y-85454819D02*
X144666666Y-85454819D01*
X144666666Y-85454819D02*
X144809523Y-85502438D01*
X144809523Y-85502438D02*
X144857142Y-85550057D01*
X145809523Y-86454819D02*
X145238095Y-86454819D01*
X145523809Y-86454819D02*
X145523809Y-85454819D01*
X145523809Y-85454819D02*
X145428571Y-85597676D01*
X145428571Y-85597676D02*
X145333333Y-85692914D01*
X145333333Y-85692914D02*
X145238095Y-85740533D01*
X146142857Y-85454819D02*
X146761904Y-85454819D01*
X146761904Y-85454819D02*
X146428571Y-85835771D01*
X146428571Y-85835771D02*
X146571428Y-85835771D01*
X146571428Y-85835771D02*
X146666666Y-85883390D01*
X146666666Y-85883390D02*
X146714285Y-85931009D01*
X146714285Y-85931009D02*
X146761904Y-86026247D01*
X146761904Y-86026247D02*
X146761904Y-86264342D01*
X146761904Y-86264342D02*
X146714285Y-86359580D01*
X146714285Y-86359580D02*
X146666666Y-86407200D01*
X146666666Y-86407200D02*
X146571428Y-86454819D01*
X146571428Y-86454819D02*
X146285714Y-86454819D01*
X146285714Y-86454819D02*
X146190476Y-86407200D01*
X146190476Y-86407200D02*
X146142857Y-86359580D01*
X145261905Y-129456819D02*
X145833333Y-129456819D01*
X145547619Y-130456819D02*
X145547619Y-129456819D01*
X146166667Y-130456819D02*
X146166667Y-129456819D01*
X146166667Y-129456819D02*
X146547619Y-129456819D01*
X146547619Y-129456819D02*
X146642857Y-129504438D01*
X146642857Y-129504438D02*
X146690476Y-129552057D01*
X146690476Y-129552057D02*
X146738095Y-129647295D01*
X146738095Y-129647295D02*
X146738095Y-129790152D01*
X146738095Y-129790152D02*
X146690476Y-129885390D01*
X146690476Y-129885390D02*
X146642857Y-129933009D01*
X146642857Y-129933009D02*
X146547619Y-129980628D01*
X146547619Y-129980628D02*
X146166667Y-129980628D01*
X147690476Y-130456819D02*
X147119048Y-130456819D01*
X147404762Y-130456819D02*
X147404762Y-129456819D01*
X147404762Y-129456819D02*
X147309524Y-129599676D01*
X147309524Y-129599676D02*
X147214286Y-129694914D01*
X147214286Y-129694914D02*
X147119048Y-129742533D01*
X148547619Y-129456819D02*
X148357143Y-129456819D01*
X148357143Y-129456819D02*
X148261905Y-129504438D01*
X148261905Y-129504438D02*
X148214286Y-129552057D01*
X148214286Y-129552057D02*
X148119048Y-129694914D01*
X148119048Y-129694914D02*
X148071429Y-129885390D01*
X148071429Y-129885390D02*
X148071429Y-130266342D01*
X148071429Y-130266342D02*
X148119048Y-130361580D01*
X148119048Y-130361580D02*
X148166667Y-130409200D01*
X148166667Y-130409200D02*
X148261905Y-130456819D01*
X148261905Y-130456819D02*
X148452381Y-130456819D01*
X148452381Y-130456819D02*
X148547619Y-130409200D01*
X148547619Y-130409200D02*
X148595238Y-130361580D01*
X148595238Y-130361580D02*
X148642857Y-130266342D01*
X148642857Y-130266342D02*
X148642857Y-130028247D01*
X148642857Y-130028247D02*
X148595238Y-129933009D01*
X148595238Y-129933009D02*
X148547619Y-129885390D01*
X148547619Y-129885390D02*
X148452381Y-129837771D01*
X148452381Y-129837771D02*
X148261905Y-129837771D01*
X148261905Y-129837771D02*
X148166667Y-129885390D01*
X148166667Y-129885390D02*
X148119048Y-129933009D01*
X148119048Y-129933009D02*
X148071429Y-130028247D01*
X143166666Y-136453420D02*
X143166666Y-137167705D01*
X143166666Y-137167705D02*
X143119047Y-137310562D01*
X143119047Y-137310562D02*
X143023809Y-137405801D01*
X143023809Y-137405801D02*
X142880952Y-137453420D01*
X142880952Y-137453420D02*
X142785714Y-137453420D01*
X144071428Y-136453420D02*
X143880952Y-136453420D01*
X143880952Y-136453420D02*
X143785714Y-136501039D01*
X143785714Y-136501039D02*
X143738095Y-136548658D01*
X143738095Y-136548658D02*
X143642857Y-136691515D01*
X143642857Y-136691515D02*
X143595238Y-136881991D01*
X143595238Y-136881991D02*
X143595238Y-137262943D01*
X143595238Y-137262943D02*
X143642857Y-137358181D01*
X143642857Y-137358181D02*
X143690476Y-137405801D01*
X143690476Y-137405801D02*
X143785714Y-137453420D01*
X143785714Y-137453420D02*
X143976190Y-137453420D01*
X143976190Y-137453420D02*
X144071428Y-137405801D01*
X144071428Y-137405801D02*
X144119047Y-137358181D01*
X144119047Y-137358181D02*
X144166666Y-137262943D01*
X144166666Y-137262943D02*
X144166666Y-137024848D01*
X144166666Y-137024848D02*
X144119047Y-136929610D01*
X144119047Y-136929610D02*
X144071428Y-136881991D01*
X144071428Y-136881991D02*
X143976190Y-136834372D01*
X143976190Y-136834372D02*
X143785714Y-136834372D01*
X143785714Y-136834372D02*
X143690476Y-136881991D01*
X143690476Y-136881991D02*
X143642857Y-136929610D01*
X143642857Y-136929610D02*
X143595238Y-137024848D01*
X143177666Y-97702726D02*
X143130047Y-97750346D01*
X143130047Y-97750346D02*
X142987190Y-97797965D01*
X142987190Y-97797965D02*
X142891952Y-97797965D01*
X142891952Y-97797965D02*
X142749095Y-97750346D01*
X142749095Y-97750346D02*
X142653857Y-97655107D01*
X142653857Y-97655107D02*
X142606238Y-97559869D01*
X142606238Y-97559869D02*
X142558619Y-97369393D01*
X142558619Y-97369393D02*
X142558619Y-97226536D01*
X142558619Y-97226536D02*
X142606238Y-97036060D01*
X142606238Y-97036060D02*
X142653857Y-96940822D01*
X142653857Y-96940822D02*
X142749095Y-96845584D01*
X142749095Y-96845584D02*
X142891952Y-96797965D01*
X142891952Y-96797965D02*
X142987190Y-96797965D01*
X142987190Y-96797965D02*
X143130047Y-96845584D01*
X143130047Y-96845584D02*
X143177666Y-96893203D01*
X144034809Y-97131298D02*
X144034809Y-97797965D01*
X143796714Y-96750346D02*
X143558619Y-97464631D01*
X143558619Y-97464631D02*
X144177666Y-97464631D01*
X145833333Y-84954819D02*
X145500000Y-84478628D01*
X145261905Y-84954819D02*
X145261905Y-83954819D01*
X145261905Y-83954819D02*
X145642857Y-83954819D01*
X145642857Y-83954819D02*
X145738095Y-84002438D01*
X145738095Y-84002438D02*
X145785714Y-84050057D01*
X145785714Y-84050057D02*
X145833333Y-84145295D01*
X145833333Y-84145295D02*
X145833333Y-84288152D01*
X145833333Y-84288152D02*
X145785714Y-84383390D01*
X145785714Y-84383390D02*
X145738095Y-84431009D01*
X145738095Y-84431009D02*
X145642857Y-84478628D01*
X145642857Y-84478628D02*
X145261905Y-84478628D01*
X146738095Y-83954819D02*
X146261905Y-83954819D01*
X146261905Y-83954819D02*
X146214286Y-84431009D01*
X146214286Y-84431009D02*
X146261905Y-84383390D01*
X146261905Y-84383390D02*
X146357143Y-84335771D01*
X146357143Y-84335771D02*
X146595238Y-84335771D01*
X146595238Y-84335771D02*
X146690476Y-84383390D01*
X146690476Y-84383390D02*
X146738095Y-84431009D01*
X146738095Y-84431009D02*
X146785714Y-84526247D01*
X146785714Y-84526247D02*
X146785714Y-84764342D01*
X146785714Y-84764342D02*
X146738095Y-84859580D01*
X146738095Y-84859580D02*
X146690476Y-84907200D01*
X146690476Y-84907200D02*
X146595238Y-84954819D01*
X146595238Y-84954819D02*
X146357143Y-84954819D01*
X146357143Y-84954819D02*
X146261905Y-84907200D01*
X146261905Y-84907200D02*
X146214286Y-84859580D01*
X159738095Y-82454819D02*
X160309523Y-82454819D01*
X160023809Y-83454819D02*
X160023809Y-82454819D01*
X160642857Y-83454819D02*
X160642857Y-82454819D01*
X160642857Y-82454819D02*
X161023809Y-82454819D01*
X161023809Y-82454819D02*
X161119047Y-82502438D01*
X161119047Y-82502438D02*
X161166666Y-82550057D01*
X161166666Y-82550057D02*
X161214285Y-82645295D01*
X161214285Y-82645295D02*
X161214285Y-82788152D01*
X161214285Y-82788152D02*
X161166666Y-82883390D01*
X161166666Y-82883390D02*
X161119047Y-82931009D01*
X161119047Y-82931009D02*
X161023809Y-82978628D01*
X161023809Y-82978628D02*
X160642857Y-82978628D01*
X161547619Y-82454819D02*
X162166666Y-82454819D01*
X162166666Y-82454819D02*
X161833333Y-82835771D01*
X161833333Y-82835771D02*
X161976190Y-82835771D01*
X161976190Y-82835771D02*
X162071428Y-82883390D01*
X162071428Y-82883390D02*
X162119047Y-82931009D01*
X162119047Y-82931009D02*
X162166666Y-83026247D01*
X162166666Y-83026247D02*
X162166666Y-83264342D01*
X162166666Y-83264342D02*
X162119047Y-83359580D01*
X162119047Y-83359580D02*
X162071428Y-83407200D01*
X162071428Y-83407200D02*
X161976190Y-83454819D01*
X161976190Y-83454819D02*
X161690476Y-83454819D01*
X161690476Y-83454819D02*
X161595238Y-83407200D01*
X161595238Y-83407200D02*
X161547619Y-83359580D01*
X140761905Y-101956819D02*
X141333333Y-101956819D01*
X141047619Y-102956819D02*
X141047619Y-101956819D01*
X141666667Y-102956819D02*
X141666667Y-101956819D01*
X141666667Y-101956819D02*
X142047619Y-101956819D01*
X142047619Y-101956819D02*
X142142857Y-102004438D01*
X142142857Y-102004438D02*
X142190476Y-102052057D01*
X142190476Y-102052057D02*
X142238095Y-102147295D01*
X142238095Y-102147295D02*
X142238095Y-102290152D01*
X142238095Y-102290152D02*
X142190476Y-102385390D01*
X142190476Y-102385390D02*
X142142857Y-102433009D01*
X142142857Y-102433009D02*
X142047619Y-102480628D01*
X142047619Y-102480628D02*
X141666667Y-102480628D01*
X143190476Y-102956819D02*
X142619048Y-102956819D01*
X142904762Y-102956819D02*
X142904762Y-101956819D01*
X142904762Y-101956819D02*
X142809524Y-102099676D01*
X142809524Y-102099676D02*
X142714286Y-102194914D01*
X142714286Y-102194914D02*
X142619048Y-102242533D01*
X143523810Y-101956819D02*
X144190476Y-101956819D01*
X144190476Y-101956819D02*
X143761905Y-102956819D01*
X140488095Y-106204819D02*
X140488095Y-107014342D01*
X140488095Y-107014342D02*
X140535714Y-107109580D01*
X140535714Y-107109580D02*
X140583333Y-107157200D01*
X140583333Y-107157200D02*
X140678571Y-107204819D01*
X140678571Y-107204819D02*
X140869047Y-107204819D01*
X140869047Y-107204819D02*
X140964285Y-107157200D01*
X140964285Y-107157200D02*
X141011904Y-107109580D01*
X141011904Y-107109580D02*
X141059523Y-107014342D01*
X141059523Y-107014342D02*
X141059523Y-106204819D01*
X141488095Y-106300057D02*
X141535714Y-106252438D01*
X141535714Y-106252438D02*
X141630952Y-106204819D01*
X141630952Y-106204819D02*
X141869047Y-106204819D01*
X141869047Y-106204819D02*
X141964285Y-106252438D01*
X141964285Y-106252438D02*
X142011904Y-106300057D01*
X142011904Y-106300057D02*
X142059523Y-106395295D01*
X142059523Y-106395295D02*
X142059523Y-106490533D01*
X142059523Y-106490533D02*
X142011904Y-106633390D01*
X142011904Y-106633390D02*
X141440476Y-107204819D01*
X141440476Y-107204819D02*
X142059523Y-107204819D01*
X130833333Y-91359580D02*
X130785714Y-91407200D01*
X130785714Y-91407200D02*
X130642857Y-91454819D01*
X130642857Y-91454819D02*
X130547619Y-91454819D01*
X130547619Y-91454819D02*
X130404762Y-91407200D01*
X130404762Y-91407200D02*
X130309524Y-91311961D01*
X130309524Y-91311961D02*
X130261905Y-91216723D01*
X130261905Y-91216723D02*
X130214286Y-91026247D01*
X130214286Y-91026247D02*
X130214286Y-90883390D01*
X130214286Y-90883390D02*
X130261905Y-90692914D01*
X130261905Y-90692914D02*
X130309524Y-90597676D01*
X130309524Y-90597676D02*
X130404762Y-90502438D01*
X130404762Y-90502438D02*
X130547619Y-90454819D01*
X130547619Y-90454819D02*
X130642857Y-90454819D01*
X130642857Y-90454819D02*
X130785714Y-90502438D01*
X130785714Y-90502438D02*
X130833333Y-90550057D01*
X131738095Y-90454819D02*
X131261905Y-90454819D01*
X131261905Y-90454819D02*
X131214286Y-90931009D01*
X131214286Y-90931009D02*
X131261905Y-90883390D01*
X131261905Y-90883390D02*
X131357143Y-90835771D01*
X131357143Y-90835771D02*
X131595238Y-90835771D01*
X131595238Y-90835771D02*
X131690476Y-90883390D01*
X131690476Y-90883390D02*
X131738095Y-90931009D01*
X131738095Y-90931009D02*
X131785714Y-91026247D01*
X131785714Y-91026247D02*
X131785714Y-91264342D01*
X131785714Y-91264342D02*
X131738095Y-91359580D01*
X131738095Y-91359580D02*
X131690476Y-91407200D01*
X131690476Y-91407200D02*
X131595238Y-91454819D01*
X131595238Y-91454819D02*
X131357143Y-91454819D01*
X131357143Y-91454819D02*
X131261905Y-91407200D01*
X131261905Y-91407200D02*
X131214286Y-91359580D01*
X164738095Y-107454819D02*
X165309523Y-107454819D01*
X165023809Y-108454819D02*
X165023809Y-107454819D01*
X165642857Y-108454819D02*
X165642857Y-107454819D01*
X165642857Y-107454819D02*
X166023809Y-107454819D01*
X166023809Y-107454819D02*
X166119047Y-107502438D01*
X166119047Y-107502438D02*
X166166666Y-107550057D01*
X166166666Y-107550057D02*
X166214285Y-107645295D01*
X166214285Y-107645295D02*
X166214285Y-107788152D01*
X166214285Y-107788152D02*
X166166666Y-107883390D01*
X166166666Y-107883390D02*
X166119047Y-107931009D01*
X166119047Y-107931009D02*
X166023809Y-107978628D01*
X166023809Y-107978628D02*
X165642857Y-107978628D01*
X167071428Y-107454819D02*
X166880952Y-107454819D01*
X166880952Y-107454819D02*
X166785714Y-107502438D01*
X166785714Y-107502438D02*
X166738095Y-107550057D01*
X166738095Y-107550057D02*
X166642857Y-107692914D01*
X166642857Y-107692914D02*
X166595238Y-107883390D01*
X166595238Y-107883390D02*
X166595238Y-108264342D01*
X166595238Y-108264342D02*
X166642857Y-108359580D01*
X166642857Y-108359580D02*
X166690476Y-108407200D01*
X166690476Y-108407200D02*
X166785714Y-108454819D01*
X166785714Y-108454819D02*
X166976190Y-108454819D01*
X166976190Y-108454819D02*
X167071428Y-108407200D01*
X167071428Y-108407200D02*
X167119047Y-108359580D01*
X167119047Y-108359580D02*
X167166666Y-108264342D01*
X167166666Y-108264342D02*
X167166666Y-108026247D01*
X167166666Y-108026247D02*
X167119047Y-107931009D01*
X167119047Y-107931009D02*
X167071428Y-107883390D01*
X167071428Y-107883390D02*
X166976190Y-107835771D01*
X166976190Y-107835771D02*
X166785714Y-107835771D01*
X166785714Y-107835771D02*
X166690476Y-107883390D01*
X166690476Y-107883390D02*
X166642857Y-107931009D01*
X166642857Y-107931009D02*
X166595238Y-108026247D01*
X140357142Y-97609580D02*
X140309523Y-97657200D01*
X140309523Y-97657200D02*
X140166666Y-97704819D01*
X140166666Y-97704819D02*
X140071428Y-97704819D01*
X140071428Y-97704819D02*
X139928571Y-97657200D01*
X139928571Y-97657200D02*
X139833333Y-97561961D01*
X139833333Y-97561961D02*
X139785714Y-97466723D01*
X139785714Y-97466723D02*
X139738095Y-97276247D01*
X139738095Y-97276247D02*
X139738095Y-97133390D01*
X139738095Y-97133390D02*
X139785714Y-96942914D01*
X139785714Y-96942914D02*
X139833333Y-96847676D01*
X139833333Y-96847676D02*
X139928571Y-96752438D01*
X139928571Y-96752438D02*
X140071428Y-96704819D01*
X140071428Y-96704819D02*
X140166666Y-96704819D01*
X140166666Y-96704819D02*
X140309523Y-96752438D01*
X140309523Y-96752438D02*
X140357142Y-96800057D01*
X141309523Y-97704819D02*
X140738095Y-97704819D01*
X141023809Y-97704819D02*
X141023809Y-96704819D01*
X141023809Y-96704819D02*
X140928571Y-96847676D01*
X140928571Y-96847676D02*
X140833333Y-96942914D01*
X140833333Y-96942914D02*
X140738095Y-96990533D01*
X142261904Y-97704819D02*
X141690476Y-97704819D01*
X141976190Y-97704819D02*
X141976190Y-96704819D01*
X141976190Y-96704819D02*
X141880952Y-96847676D01*
X141880952Y-96847676D02*
X141785714Y-96942914D01*
X141785714Y-96942914D02*
X141690476Y-96990533D01*
X153333333Y-126020110D02*
X153285714Y-126067730D01*
X153285714Y-126067730D02*
X153142857Y-126115349D01*
X153142857Y-126115349D02*
X153047619Y-126115349D01*
X153047619Y-126115349D02*
X152904762Y-126067730D01*
X152904762Y-126067730D02*
X152809524Y-125972491D01*
X152809524Y-125972491D02*
X152761905Y-125877253D01*
X152761905Y-125877253D02*
X152714286Y-125686777D01*
X152714286Y-125686777D02*
X152714286Y-125543920D01*
X152714286Y-125543920D02*
X152761905Y-125353444D01*
X152761905Y-125353444D02*
X152809524Y-125258206D01*
X152809524Y-125258206D02*
X152904762Y-125162968D01*
X152904762Y-125162968D02*
X153047619Y-125115349D01*
X153047619Y-125115349D02*
X153142857Y-125115349D01*
X153142857Y-125115349D02*
X153285714Y-125162968D01*
X153285714Y-125162968D02*
X153333333Y-125210587D01*
X153904762Y-125543920D02*
X153809524Y-125496301D01*
X153809524Y-125496301D02*
X153761905Y-125448682D01*
X153761905Y-125448682D02*
X153714286Y-125353444D01*
X153714286Y-125353444D02*
X153714286Y-125305825D01*
X153714286Y-125305825D02*
X153761905Y-125210587D01*
X153761905Y-125210587D02*
X153809524Y-125162968D01*
X153809524Y-125162968D02*
X153904762Y-125115349D01*
X153904762Y-125115349D02*
X154095238Y-125115349D01*
X154095238Y-125115349D02*
X154190476Y-125162968D01*
X154190476Y-125162968D02*
X154238095Y-125210587D01*
X154238095Y-125210587D02*
X154285714Y-125305825D01*
X154285714Y-125305825D02*
X154285714Y-125353444D01*
X154285714Y-125353444D02*
X154238095Y-125448682D01*
X154238095Y-125448682D02*
X154190476Y-125496301D01*
X154190476Y-125496301D02*
X154095238Y-125543920D01*
X154095238Y-125543920D02*
X153904762Y-125543920D01*
X153904762Y-125543920D02*
X153809524Y-125591539D01*
X153809524Y-125591539D02*
X153761905Y-125639158D01*
X153761905Y-125639158D02*
X153714286Y-125734396D01*
X153714286Y-125734396D02*
X153714286Y-125924872D01*
X153714286Y-125924872D02*
X153761905Y-126020110D01*
X153761905Y-126020110D02*
X153809524Y-126067730D01*
X153809524Y-126067730D02*
X153904762Y-126115349D01*
X153904762Y-126115349D02*
X154095238Y-126115349D01*
X154095238Y-126115349D02*
X154190476Y-126067730D01*
X154190476Y-126067730D02*
X154238095Y-126020110D01*
X154238095Y-126020110D02*
X154285714Y-125924872D01*
X154285714Y-125924872D02*
X154285714Y-125734396D01*
X154285714Y-125734396D02*
X154238095Y-125639158D01*
X154238095Y-125639158D02*
X154190476Y-125591539D01*
X154190476Y-125591539D02*
X154095238Y-125543920D01*
X160261905Y-97456819D02*
X160833333Y-97456819D01*
X160547619Y-98456819D02*
X160547619Y-97456819D01*
X161166667Y-98456819D02*
X161166667Y-97456819D01*
X161166667Y-97456819D02*
X161547619Y-97456819D01*
X161547619Y-97456819D02*
X161642857Y-97504438D01*
X161642857Y-97504438D02*
X161690476Y-97552057D01*
X161690476Y-97552057D02*
X161738095Y-97647295D01*
X161738095Y-97647295D02*
X161738095Y-97790152D01*
X161738095Y-97790152D02*
X161690476Y-97885390D01*
X161690476Y-97885390D02*
X161642857Y-97933009D01*
X161642857Y-97933009D02*
X161547619Y-97980628D01*
X161547619Y-97980628D02*
X161166667Y-97980628D01*
X162690476Y-98456819D02*
X162119048Y-98456819D01*
X162404762Y-98456819D02*
X162404762Y-97456819D01*
X162404762Y-97456819D02*
X162309524Y-97599676D01*
X162309524Y-97599676D02*
X162214286Y-97694914D01*
X162214286Y-97694914D02*
X162119048Y-97742533D01*
X163642857Y-98456819D02*
X163071429Y-98456819D01*
X163357143Y-98456819D02*
X163357143Y-97456819D01*
X163357143Y-97456819D02*
X163261905Y-97599676D01*
X163261905Y-97599676D02*
X163166667Y-97694914D01*
X163166667Y-97694914D02*
X163071429Y-97742533D01*
X106666666Y-92954819D02*
X106666666Y-93669104D01*
X106666666Y-93669104D02*
X106619047Y-93811961D01*
X106619047Y-93811961D02*
X106523809Y-93907200D01*
X106523809Y-93907200D02*
X106380952Y-93954819D01*
X106380952Y-93954819D02*
X106285714Y-93954819D01*
X107095238Y-93050057D02*
X107142857Y-93002438D01*
X107142857Y-93002438D02*
X107238095Y-92954819D01*
X107238095Y-92954819D02*
X107476190Y-92954819D01*
X107476190Y-92954819D02*
X107571428Y-93002438D01*
X107571428Y-93002438D02*
X107619047Y-93050057D01*
X107619047Y-93050057D02*
X107666666Y-93145295D01*
X107666666Y-93145295D02*
X107666666Y-93240533D01*
X107666666Y-93240533D02*
X107619047Y-93383390D01*
X107619047Y-93383390D02*
X107047619Y-93954819D01*
X107047619Y-93954819D02*
X107666666Y-93954819D01*
X141261905Y-129456819D02*
X141833333Y-129456819D01*
X141547619Y-130456819D02*
X141547619Y-129456819D01*
X142166667Y-130456819D02*
X142166667Y-129456819D01*
X142166667Y-129456819D02*
X142547619Y-129456819D01*
X142547619Y-129456819D02*
X142642857Y-129504438D01*
X142642857Y-129504438D02*
X142690476Y-129552057D01*
X142690476Y-129552057D02*
X142738095Y-129647295D01*
X142738095Y-129647295D02*
X142738095Y-129790152D01*
X142738095Y-129790152D02*
X142690476Y-129885390D01*
X142690476Y-129885390D02*
X142642857Y-129933009D01*
X142642857Y-129933009D02*
X142547619Y-129980628D01*
X142547619Y-129980628D02*
X142166667Y-129980628D01*
X143690476Y-130456819D02*
X143119048Y-130456819D01*
X143404762Y-130456819D02*
X143404762Y-129456819D01*
X143404762Y-129456819D02*
X143309524Y-129599676D01*
X143309524Y-129599676D02*
X143214286Y-129694914D01*
X143214286Y-129694914D02*
X143119048Y-129742533D01*
X144595238Y-129456819D02*
X144119048Y-129456819D01*
X144119048Y-129456819D02*
X144071429Y-129933009D01*
X144071429Y-129933009D02*
X144119048Y-129885390D01*
X144119048Y-129885390D02*
X144214286Y-129837771D01*
X144214286Y-129837771D02*
X144452381Y-129837771D01*
X144452381Y-129837771D02*
X144547619Y-129885390D01*
X144547619Y-129885390D02*
X144595238Y-129933009D01*
X144595238Y-129933009D02*
X144642857Y-130028247D01*
X144642857Y-130028247D02*
X144642857Y-130266342D01*
X144642857Y-130266342D02*
X144595238Y-130361580D01*
X144595238Y-130361580D02*
X144547619Y-130409200D01*
X144547619Y-130409200D02*
X144452381Y-130456819D01*
X144452381Y-130456819D02*
X144214286Y-130456819D01*
X144214286Y-130456819D02*
X144119048Y-130409200D01*
X144119048Y-130409200D02*
X144071429Y-130361580D01*
X156261905Y-129456819D02*
X156833333Y-129456819D01*
X156547619Y-130456819D02*
X156547619Y-129456819D01*
X157166667Y-130456819D02*
X157166667Y-129456819D01*
X157166667Y-129456819D02*
X157547619Y-129456819D01*
X157547619Y-129456819D02*
X157642857Y-129504438D01*
X157642857Y-129504438D02*
X157690476Y-129552057D01*
X157690476Y-129552057D02*
X157738095Y-129647295D01*
X157738095Y-129647295D02*
X157738095Y-129790152D01*
X157738095Y-129790152D02*
X157690476Y-129885390D01*
X157690476Y-129885390D02*
X157642857Y-129933009D01*
X157642857Y-129933009D02*
X157547619Y-129980628D01*
X157547619Y-129980628D02*
X157166667Y-129980628D01*
X158690476Y-130456819D02*
X158119048Y-130456819D01*
X158404762Y-130456819D02*
X158404762Y-129456819D01*
X158404762Y-129456819D02*
X158309524Y-129599676D01*
X158309524Y-129599676D02*
X158214286Y-129694914D01*
X158214286Y-129694914D02*
X158119048Y-129742533D01*
X159023810Y-129456819D02*
X159642857Y-129456819D01*
X159642857Y-129456819D02*
X159309524Y-129837771D01*
X159309524Y-129837771D02*
X159452381Y-129837771D01*
X159452381Y-129837771D02*
X159547619Y-129885390D01*
X159547619Y-129885390D02*
X159595238Y-129933009D01*
X159595238Y-129933009D02*
X159642857Y-130028247D01*
X159642857Y-130028247D02*
X159642857Y-130266342D01*
X159642857Y-130266342D02*
X159595238Y-130361580D01*
X159595238Y-130361580D02*
X159547619Y-130409200D01*
X159547619Y-130409200D02*
X159452381Y-130456819D01*
X159452381Y-130456819D02*
X159166667Y-130456819D01*
X159166667Y-130456819D02*
X159071429Y-130409200D01*
X159071429Y-130409200D02*
X159023810Y-130361580D01*
X142988095Y-89204819D02*
X142988095Y-90014342D01*
X142988095Y-90014342D02*
X143035714Y-90109580D01*
X143035714Y-90109580D02*
X143083333Y-90157200D01*
X143083333Y-90157200D02*
X143178571Y-90204819D01*
X143178571Y-90204819D02*
X143369047Y-90204819D01*
X143369047Y-90204819D02*
X143464285Y-90157200D01*
X143464285Y-90157200D02*
X143511904Y-90109580D01*
X143511904Y-90109580D02*
X143559523Y-90014342D01*
X143559523Y-90014342D02*
X143559523Y-89204819D01*
X144559523Y-90204819D02*
X143988095Y-90204819D01*
X144273809Y-90204819D02*
X144273809Y-89204819D01*
X144273809Y-89204819D02*
X144178571Y-89347676D01*
X144178571Y-89347676D02*
X144083333Y-89442914D01*
X144083333Y-89442914D02*
X143988095Y-89490533D01*
X164238095Y-82454819D02*
X164809523Y-82454819D01*
X164523809Y-83454819D02*
X164523809Y-82454819D01*
X165142857Y-83454819D02*
X165142857Y-82454819D01*
X165142857Y-82454819D02*
X165523809Y-82454819D01*
X165523809Y-82454819D02*
X165619047Y-82502438D01*
X165619047Y-82502438D02*
X165666666Y-82550057D01*
X165666666Y-82550057D02*
X165714285Y-82645295D01*
X165714285Y-82645295D02*
X165714285Y-82788152D01*
X165714285Y-82788152D02*
X165666666Y-82883390D01*
X165666666Y-82883390D02*
X165619047Y-82931009D01*
X165619047Y-82931009D02*
X165523809Y-82978628D01*
X165523809Y-82978628D02*
X165142857Y-82978628D01*
X166571428Y-82788152D02*
X166571428Y-83454819D01*
X166333333Y-82407200D02*
X166095238Y-83121485D01*
X166095238Y-83121485D02*
X166714285Y-83121485D01*
X164738095Y-77954819D02*
X165309523Y-77954819D01*
X165023809Y-78954819D02*
X165023809Y-77954819D01*
X165642857Y-78954819D02*
X165642857Y-77954819D01*
X165642857Y-77954819D02*
X166023809Y-77954819D01*
X166023809Y-77954819D02*
X166119047Y-78002438D01*
X166119047Y-78002438D02*
X166166666Y-78050057D01*
X166166666Y-78050057D02*
X166214285Y-78145295D01*
X166214285Y-78145295D02*
X166214285Y-78288152D01*
X166214285Y-78288152D02*
X166166666Y-78383390D01*
X166166666Y-78383390D02*
X166119047Y-78431009D01*
X166119047Y-78431009D02*
X166023809Y-78478628D01*
X166023809Y-78478628D02*
X165642857Y-78478628D01*
X166595238Y-78050057D02*
X166642857Y-78002438D01*
X166642857Y-78002438D02*
X166738095Y-77954819D01*
X166738095Y-77954819D02*
X166976190Y-77954819D01*
X166976190Y-77954819D02*
X167071428Y-78002438D01*
X167071428Y-78002438D02*
X167119047Y-78050057D01*
X167119047Y-78050057D02*
X167166666Y-78145295D01*
X167166666Y-78145295D02*
X167166666Y-78240533D01*
X167166666Y-78240533D02*
X167119047Y-78383390D01*
X167119047Y-78383390D02*
X166547619Y-78954819D01*
X166547619Y-78954819D02*
X167166666Y-78954819D01*
X133666666Y-133954819D02*
X133666666Y-134669104D01*
X133666666Y-134669104D02*
X133619047Y-134811961D01*
X133619047Y-134811961D02*
X133523809Y-134907200D01*
X133523809Y-134907200D02*
X133380952Y-134954819D01*
X133380952Y-134954819D02*
X133285714Y-134954819D01*
X134666666Y-134954819D02*
X134095238Y-134954819D01*
X134380952Y-134954819D02*
X134380952Y-133954819D01*
X134380952Y-133954819D02*
X134285714Y-134097676D01*
X134285714Y-134097676D02*
X134190476Y-134192914D01*
X134190476Y-134192914D02*
X134095238Y-134240533D01*
X175649798Y-64628796D02*
X175144722Y-65133872D01*
X175144722Y-65133872D02*
X175010035Y-65201216D01*
X175010035Y-65201216D02*
X174875348Y-65201216D01*
X174875348Y-65201216D02*
X174740661Y-65133872D01*
X174740661Y-65133872D02*
X174673317Y-65066529D01*
X175313081Y-65706292D02*
X175447768Y-65840979D01*
X175447768Y-65840979D02*
X175548783Y-65874651D01*
X175548783Y-65874651D02*
X175616127Y-65874651D01*
X175616127Y-65874651D02*
X175784485Y-65840979D01*
X175784485Y-65840979D02*
X175952844Y-65739964D01*
X175952844Y-65739964D02*
X176222218Y-65470590D01*
X176222218Y-65470590D02*
X176255890Y-65369575D01*
X176255890Y-65369575D02*
X176255890Y-65302231D01*
X176255890Y-65302231D02*
X176222218Y-65201216D01*
X176222218Y-65201216D02*
X176087531Y-65066529D01*
X176087531Y-65066529D02*
X175986516Y-65032857D01*
X175986516Y-65032857D02*
X175919172Y-65032857D01*
X175919172Y-65032857D02*
X175818157Y-65066529D01*
X175818157Y-65066529D02*
X175649798Y-65234888D01*
X175649798Y-65234888D02*
X175616127Y-65335903D01*
X175616127Y-65335903D02*
X175616127Y-65403246D01*
X175616127Y-65403246D02*
X175649798Y-65504262D01*
X175649798Y-65504262D02*
X175784485Y-65638949D01*
X175784485Y-65638949D02*
X175885501Y-65672620D01*
X175885501Y-65672620D02*
X175952844Y-65672620D01*
X175952844Y-65672620D02*
X176053859Y-65638949D01*
X134023809Y-88478628D02*
X134023809Y-88954819D01*
X133690476Y-87954819D02*
X134023809Y-88478628D01*
X134023809Y-88478628D02*
X134357142Y-87954819D01*
X135214285Y-88954819D02*
X134642857Y-88954819D01*
X134928571Y-88954819D02*
X134928571Y-87954819D01*
X134928571Y-87954819D02*
X134833333Y-88097676D01*
X134833333Y-88097676D02*
X134738095Y-88192914D01*
X134738095Y-88192914D02*
X134642857Y-88240533D01*
X159738095Y-112454819D02*
X160309523Y-112454819D01*
X160023809Y-113454819D02*
X160023809Y-112454819D01*
X160642857Y-113454819D02*
X160642857Y-112454819D01*
X160642857Y-112454819D02*
X161023809Y-112454819D01*
X161023809Y-112454819D02*
X161119047Y-112502438D01*
X161119047Y-112502438D02*
X161166666Y-112550057D01*
X161166666Y-112550057D02*
X161214285Y-112645295D01*
X161214285Y-112645295D02*
X161214285Y-112788152D01*
X161214285Y-112788152D02*
X161166666Y-112883390D01*
X161166666Y-112883390D02*
X161119047Y-112931009D01*
X161119047Y-112931009D02*
X161023809Y-112978628D01*
X161023809Y-112978628D02*
X160642857Y-112978628D01*
X161547619Y-112454819D02*
X162214285Y-112454819D01*
X162214285Y-112454819D02*
X161785714Y-113454819D01*
X129222341Y-69940386D02*
X128717265Y-69435310D01*
X128717265Y-69435310D02*
X128649921Y-69300623D01*
X128649921Y-69300623D02*
X128649921Y-69165936D01*
X128649921Y-69165936D02*
X128717265Y-69031249D01*
X128717265Y-69031249D02*
X128784608Y-68963905D01*
X128952967Y-70209760D02*
X128481562Y-70681165D01*
X128481562Y-70681165D02*
X128077501Y-69671012D01*
X129238095Y-101456819D02*
X129809523Y-101456819D01*
X129523809Y-102456819D02*
X129523809Y-101456819D01*
X130142857Y-102456819D02*
X130142857Y-101456819D01*
X130142857Y-101456819D02*
X130523809Y-101456819D01*
X130523809Y-101456819D02*
X130619047Y-101504438D01*
X130619047Y-101504438D02*
X130666666Y-101552057D01*
X130666666Y-101552057D02*
X130714285Y-101647295D01*
X130714285Y-101647295D02*
X130714285Y-101790152D01*
X130714285Y-101790152D02*
X130666666Y-101885390D01*
X130666666Y-101885390D02*
X130619047Y-101933009D01*
X130619047Y-101933009D02*
X130523809Y-101980628D01*
X130523809Y-101980628D02*
X130142857Y-101980628D01*
X131190476Y-102456819D02*
X131380952Y-102456819D01*
X131380952Y-102456819D02*
X131476190Y-102409200D01*
X131476190Y-102409200D02*
X131523809Y-102361580D01*
X131523809Y-102361580D02*
X131619047Y-102218723D01*
X131619047Y-102218723D02*
X131666666Y-102028247D01*
X131666666Y-102028247D02*
X131666666Y-101647295D01*
X131666666Y-101647295D02*
X131619047Y-101552057D01*
X131619047Y-101552057D02*
X131571428Y-101504438D01*
X131571428Y-101504438D02*
X131476190Y-101456819D01*
X131476190Y-101456819D02*
X131285714Y-101456819D01*
X131285714Y-101456819D02*
X131190476Y-101504438D01*
X131190476Y-101504438D02*
X131142857Y-101552057D01*
X131142857Y-101552057D02*
X131095238Y-101647295D01*
X131095238Y-101647295D02*
X131095238Y-101885390D01*
X131095238Y-101885390D02*
X131142857Y-101980628D01*
X131142857Y-101980628D02*
X131190476Y-102028247D01*
X131190476Y-102028247D02*
X131285714Y-102075866D01*
X131285714Y-102075866D02*
X131476190Y-102075866D01*
X131476190Y-102075866D02*
X131571428Y-102028247D01*
X131571428Y-102028247D02*
X131619047Y-101980628D01*
X131619047Y-101980628D02*
X131666666Y-101885390D01*
X159738095Y-77956819D02*
X160309523Y-77956819D01*
X160023809Y-78956819D02*
X160023809Y-77956819D01*
X160642857Y-78956819D02*
X160642857Y-77956819D01*
X160642857Y-77956819D02*
X161023809Y-77956819D01*
X161023809Y-77956819D02*
X161119047Y-78004438D01*
X161119047Y-78004438D02*
X161166666Y-78052057D01*
X161166666Y-78052057D02*
X161214285Y-78147295D01*
X161214285Y-78147295D02*
X161214285Y-78290152D01*
X161214285Y-78290152D02*
X161166666Y-78385390D01*
X161166666Y-78385390D02*
X161119047Y-78433009D01*
X161119047Y-78433009D02*
X161023809Y-78480628D01*
X161023809Y-78480628D02*
X160642857Y-78480628D01*
X162166666Y-78956819D02*
X161595238Y-78956819D01*
X161880952Y-78956819D02*
X161880952Y-77956819D01*
X161880952Y-77956819D02*
X161785714Y-78099676D01*
X161785714Y-78099676D02*
X161690476Y-78194914D01*
X161690476Y-78194914D02*
X161595238Y-78242533D01*
X145583333Y-104204819D02*
X145250000Y-103728628D01*
X145011905Y-104204819D02*
X145011905Y-103204819D01*
X145011905Y-103204819D02*
X145392857Y-103204819D01*
X145392857Y-103204819D02*
X145488095Y-103252438D01*
X145488095Y-103252438D02*
X145535714Y-103300057D01*
X145535714Y-103300057D02*
X145583333Y-103395295D01*
X145583333Y-103395295D02*
X145583333Y-103538152D01*
X145583333Y-103538152D02*
X145535714Y-103633390D01*
X145535714Y-103633390D02*
X145488095Y-103681009D01*
X145488095Y-103681009D02*
X145392857Y-103728628D01*
X145392857Y-103728628D02*
X145011905Y-103728628D01*
X146440476Y-103538152D02*
X146440476Y-104204819D01*
X146202381Y-103157200D02*
X145964286Y-103871485D01*
X145964286Y-103871485D02*
X146583333Y-103871485D01*
X186666666Y-92954819D02*
X186666666Y-93669104D01*
X186666666Y-93669104D02*
X186619047Y-93811961D01*
X186619047Y-93811961D02*
X186523809Y-93907200D01*
X186523809Y-93907200D02*
X186380952Y-93954819D01*
X186380952Y-93954819D02*
X186285714Y-93954819D01*
X187047619Y-92954819D02*
X187666666Y-92954819D01*
X187666666Y-92954819D02*
X187333333Y-93335771D01*
X187333333Y-93335771D02*
X187476190Y-93335771D01*
X187476190Y-93335771D02*
X187571428Y-93383390D01*
X187571428Y-93383390D02*
X187619047Y-93431009D01*
X187619047Y-93431009D02*
X187666666Y-93526247D01*
X187666666Y-93526247D02*
X187666666Y-93764342D01*
X187666666Y-93764342D02*
X187619047Y-93859580D01*
X187619047Y-93859580D02*
X187571428Y-93907200D01*
X187571428Y-93907200D02*
X187476190Y-93954819D01*
X187476190Y-93954819D02*
X187190476Y-93954819D01*
X187190476Y-93954819D02*
X187095238Y-93907200D01*
X187095238Y-93907200D02*
X187047619Y-93859580D01*
X160761905Y-129456819D02*
X161333333Y-129456819D01*
X161047619Y-130456819D02*
X161047619Y-129456819D01*
X161666667Y-130456819D02*
X161666667Y-129456819D01*
X161666667Y-129456819D02*
X162047619Y-129456819D01*
X162047619Y-129456819D02*
X162142857Y-129504438D01*
X162142857Y-129504438D02*
X162190476Y-129552057D01*
X162190476Y-129552057D02*
X162238095Y-129647295D01*
X162238095Y-129647295D02*
X162238095Y-129790152D01*
X162238095Y-129790152D02*
X162190476Y-129885390D01*
X162190476Y-129885390D02*
X162142857Y-129933009D01*
X162142857Y-129933009D02*
X162047619Y-129980628D01*
X162047619Y-129980628D02*
X161666667Y-129980628D01*
X163190476Y-130456819D02*
X162619048Y-130456819D01*
X162904762Y-130456819D02*
X162904762Y-129456819D01*
X162904762Y-129456819D02*
X162809524Y-129599676D01*
X162809524Y-129599676D02*
X162714286Y-129694914D01*
X162714286Y-129694914D02*
X162619048Y-129742533D01*
X164047619Y-129790152D02*
X164047619Y-130456819D01*
X163809524Y-129409200D02*
X163571429Y-130123485D01*
X163571429Y-130123485D02*
X164190476Y-130123485D01*
X106761905Y-107456819D02*
X107333333Y-107456819D01*
X107047619Y-108456819D02*
X107047619Y-107456819D01*
X107666667Y-108456819D02*
X107666667Y-107456819D01*
X107666667Y-107456819D02*
X108047619Y-107456819D01*
X108047619Y-107456819D02*
X108142857Y-107504438D01*
X108142857Y-107504438D02*
X108190476Y-107552057D01*
X108190476Y-107552057D02*
X108238095Y-107647295D01*
X108238095Y-107647295D02*
X108238095Y-107790152D01*
X108238095Y-107790152D02*
X108190476Y-107885390D01*
X108190476Y-107885390D02*
X108142857Y-107933009D01*
X108142857Y-107933009D02*
X108047619Y-107980628D01*
X108047619Y-107980628D02*
X107666667Y-107980628D01*
X109190476Y-108456819D02*
X108619048Y-108456819D01*
X108904762Y-108456819D02*
X108904762Y-107456819D01*
X108904762Y-107456819D02*
X108809524Y-107599676D01*
X108809524Y-107599676D02*
X108714286Y-107694914D01*
X108714286Y-107694914D02*
X108619048Y-107742533D01*
X109809524Y-107456819D02*
X109904762Y-107456819D01*
X109904762Y-107456819D02*
X110000000Y-107504438D01*
X110000000Y-107504438D02*
X110047619Y-107552057D01*
X110047619Y-107552057D02*
X110095238Y-107647295D01*
X110095238Y-107647295D02*
X110142857Y-107837771D01*
X110142857Y-107837771D02*
X110142857Y-108075866D01*
X110142857Y-108075866D02*
X110095238Y-108266342D01*
X110095238Y-108266342D02*
X110047619Y-108361580D01*
X110047619Y-108361580D02*
X110000000Y-108409200D01*
X110000000Y-108409200D02*
X109904762Y-108456819D01*
X109904762Y-108456819D02*
X109809524Y-108456819D01*
X109809524Y-108456819D02*
X109714286Y-108409200D01*
X109714286Y-108409200D02*
X109666667Y-108361580D01*
X109666667Y-108361580D02*
X109619048Y-108266342D01*
X109619048Y-108266342D02*
X109571429Y-108075866D01*
X109571429Y-108075866D02*
X109571429Y-107837771D01*
X109571429Y-107837771D02*
X109619048Y-107647295D01*
X109619048Y-107647295D02*
X109666667Y-107552057D01*
X109666667Y-107552057D02*
X109714286Y-107504438D01*
X109714286Y-107504438D02*
X109809524Y-107456819D01*
X156857142Y-93926737D02*
X156809523Y-93974357D01*
X156809523Y-93974357D02*
X156666666Y-94021976D01*
X156666666Y-94021976D02*
X156571428Y-94021976D01*
X156571428Y-94021976D02*
X156428571Y-93974357D01*
X156428571Y-93974357D02*
X156333333Y-93879118D01*
X156333333Y-93879118D02*
X156285714Y-93783880D01*
X156285714Y-93783880D02*
X156238095Y-93593404D01*
X156238095Y-93593404D02*
X156238095Y-93450547D01*
X156238095Y-93450547D02*
X156285714Y-93260071D01*
X156285714Y-93260071D02*
X156333333Y-93164833D01*
X156333333Y-93164833D02*
X156428571Y-93069595D01*
X156428571Y-93069595D02*
X156571428Y-93021976D01*
X156571428Y-93021976D02*
X156666666Y-93021976D01*
X156666666Y-93021976D02*
X156809523Y-93069595D01*
X156809523Y-93069595D02*
X156857142Y-93117214D01*
X157809523Y-94021976D02*
X157238095Y-94021976D01*
X157523809Y-94021976D02*
X157523809Y-93021976D01*
X157523809Y-93021976D02*
X157428571Y-93164833D01*
X157428571Y-93164833D02*
X157333333Y-93260071D01*
X157333333Y-93260071D02*
X157238095Y-93307690D01*
X158190476Y-93117214D02*
X158238095Y-93069595D01*
X158238095Y-93069595D02*
X158333333Y-93021976D01*
X158333333Y-93021976D02*
X158571428Y-93021976D01*
X158571428Y-93021976D02*
X158666666Y-93069595D01*
X158666666Y-93069595D02*
X158714285Y-93117214D01*
X158714285Y-93117214D02*
X158761904Y-93212452D01*
X158761904Y-93212452D02*
X158761904Y-93307690D01*
X158761904Y-93307690D02*
X158714285Y-93450547D01*
X158714285Y-93450547D02*
X158142857Y-94021976D01*
X158142857Y-94021976D02*
X158761904Y-94021976D01*
X164238095Y-112454819D02*
X164809523Y-112454819D01*
X164523809Y-113454819D02*
X164523809Y-112454819D01*
X165142857Y-113454819D02*
X165142857Y-112454819D01*
X165142857Y-112454819D02*
X165523809Y-112454819D01*
X165523809Y-112454819D02*
X165619047Y-112502438D01*
X165619047Y-112502438D02*
X165666666Y-112550057D01*
X165666666Y-112550057D02*
X165714285Y-112645295D01*
X165714285Y-112645295D02*
X165714285Y-112788152D01*
X165714285Y-112788152D02*
X165666666Y-112883390D01*
X165666666Y-112883390D02*
X165619047Y-112931009D01*
X165619047Y-112931009D02*
X165523809Y-112978628D01*
X165523809Y-112978628D02*
X165142857Y-112978628D01*
X166285714Y-112883390D02*
X166190476Y-112835771D01*
X166190476Y-112835771D02*
X166142857Y-112788152D01*
X166142857Y-112788152D02*
X166095238Y-112692914D01*
X166095238Y-112692914D02*
X166095238Y-112645295D01*
X166095238Y-112645295D02*
X166142857Y-112550057D01*
X166142857Y-112550057D02*
X166190476Y-112502438D01*
X166190476Y-112502438D02*
X166285714Y-112454819D01*
X166285714Y-112454819D02*
X166476190Y-112454819D01*
X166476190Y-112454819D02*
X166571428Y-112502438D01*
X166571428Y-112502438D02*
X166619047Y-112550057D01*
X166619047Y-112550057D02*
X166666666Y-112645295D01*
X166666666Y-112645295D02*
X166666666Y-112692914D01*
X166666666Y-112692914D02*
X166619047Y-112788152D01*
X166619047Y-112788152D02*
X166571428Y-112835771D01*
X166571428Y-112835771D02*
X166476190Y-112883390D01*
X166476190Y-112883390D02*
X166285714Y-112883390D01*
X166285714Y-112883390D02*
X166190476Y-112931009D01*
X166190476Y-112931009D02*
X166142857Y-112978628D01*
X166142857Y-112978628D02*
X166095238Y-113073866D01*
X166095238Y-113073866D02*
X166095238Y-113264342D01*
X166095238Y-113264342D02*
X166142857Y-113359580D01*
X166142857Y-113359580D02*
X166190476Y-113407200D01*
X166190476Y-113407200D02*
X166285714Y-113454819D01*
X166285714Y-113454819D02*
X166476190Y-113454819D01*
X166476190Y-113454819D02*
X166571428Y-113407200D01*
X166571428Y-113407200D02*
X166619047Y-113359580D01*
X166619047Y-113359580D02*
X166666666Y-113264342D01*
X166666666Y-113264342D02*
X166666666Y-113073866D01*
X166666666Y-113073866D02*
X166619047Y-112978628D01*
X166619047Y-112978628D02*
X166571428Y-112931009D01*
X166571428Y-112931009D02*
X166476190Y-112883390D01*
X143166666Y-56954819D02*
X143166666Y-57669104D01*
X143166666Y-57669104D02*
X143119047Y-57811961D01*
X143119047Y-57811961D02*
X143023809Y-57907200D01*
X143023809Y-57907200D02*
X142880952Y-57954819D01*
X142880952Y-57954819D02*
X142785714Y-57954819D01*
X144071428Y-57288152D02*
X144071428Y-57954819D01*
X143833333Y-56907200D02*
X143595238Y-57621485D01*
X143595238Y-57621485D02*
X144214285Y-57621485D01*
X138654761Y-106002557D02*
X138559523Y-105954938D01*
X138559523Y-105954938D02*
X138464285Y-105859700D01*
X138464285Y-105859700D02*
X138321428Y-105716842D01*
X138321428Y-105716842D02*
X138226190Y-105669223D01*
X138226190Y-105669223D02*
X138130952Y-105669223D01*
X138178571Y-105907319D02*
X138083333Y-105859700D01*
X138083333Y-105859700D02*
X137988095Y-105764461D01*
X137988095Y-105764461D02*
X137940476Y-105573985D01*
X137940476Y-105573985D02*
X137940476Y-105240652D01*
X137940476Y-105240652D02*
X137988095Y-105050176D01*
X137988095Y-105050176D02*
X138083333Y-104954938D01*
X138083333Y-104954938D02*
X138178571Y-104907319D01*
X138178571Y-104907319D02*
X138369047Y-104907319D01*
X138369047Y-104907319D02*
X138464285Y-104954938D01*
X138464285Y-104954938D02*
X138559523Y-105050176D01*
X138559523Y-105050176D02*
X138607142Y-105240652D01*
X138607142Y-105240652D02*
X138607142Y-105573985D01*
X138607142Y-105573985D02*
X138559523Y-105764461D01*
X138559523Y-105764461D02*
X138464285Y-105859700D01*
X138464285Y-105859700D02*
X138369047Y-105907319D01*
X138369047Y-105907319D02*
X138178571Y-105907319D01*
X139559523Y-105907319D02*
X138988095Y-105907319D01*
X139273809Y-105907319D02*
X139273809Y-104907319D01*
X139273809Y-104907319D02*
X139178571Y-105050176D01*
X139178571Y-105050176D02*
X139083333Y-105145414D01*
X139083333Y-105145414D02*
X138988095Y-105193033D01*
D13*
X183700000Y-82500000D02*
G75*
G02*
X181300000Y-82500000I-1200000J0D01*
G01*
X181300000Y-82500000D02*
G75*
G02*
X183700000Y-82500000I1200000J0D01*
G01*
X163700000Y-123000000D02*
G75*
G02*
X161300000Y-123000000I-1200000J0D01*
G01*
X161300000Y-123000000D02*
G75*
G02*
X163700000Y-123000000I1200000J0D01*
G01*
X159200000Y-138000000D02*
G75*
G02*
X156800000Y-138000000I-1200000J0D01*
G01*
X156800000Y-138000000D02*
G75*
G02*
X159200000Y-138000000I1200000J0D01*
G01*
X138700000Y-72500000D02*
G75*
G02*
X136300000Y-72500000I-1200000J0D01*
G01*
X136300000Y-72500000D02*
G75*
G02*
X138700000Y-72500000I1200000J0D01*
G01*
X159200000Y-143000000D02*
G75*
G02*
X156800000Y-143000000I-1200000J0D01*
G01*
X156800000Y-143000000D02*
G75*
G02*
X159200000Y-143000000I1200000J0D01*
G01*
X140700000Y-112000000D02*
G75*
G02*
X138300000Y-112000000I-1200000J0D01*
G01*
X138300000Y-112000000D02*
G75*
G02*
X140700000Y-112000000I1200000J0D01*
G01*
D14*
X173610267Y-130974077D02*
X175585923Y-132949733D01*
X174012582Y-130571761D02*
X173610267Y-130974077D01*
X175585923Y-132949733D02*
X177784290Y-130751366D01*
X177604685Y-126979659D02*
X175183608Y-129400736D01*
X178955315Y-129580341D02*
X181376392Y-127159264D01*
X180974077Y-123610267D02*
X178775710Y-125808634D01*
X182547418Y-125988239D02*
X182949733Y-125585923D01*
X182949733Y-125585923D02*
X180974077Y-123610267D01*
D10*
X172881868Y-127814171D02*
G75*
G02*
X171881868Y-127814171I-500000J0D01*
G01*
X171881868Y-127814171D02*
G75*
G02*
X172881868Y-127814171I500000J0D01*
G01*
D14*
X117050267Y-125585923D02*
X119248634Y-127784290D01*
X119025923Y-123610267D02*
X117050267Y-125585923D01*
X119428239Y-124012582D02*
X119025923Y-123610267D01*
X120419659Y-128955315D02*
X122840736Y-131376392D01*
X123020341Y-127604685D02*
X120599264Y-125183608D01*
X124011761Y-132547418D02*
X124414077Y-132949733D01*
X124414077Y-132949733D02*
X126389733Y-130974077D01*
X126389733Y-130974077D02*
X124191366Y-128775710D01*
D10*
X122685829Y-122381868D02*
G75*
G02*
X121685829Y-122381868I-500000J0D01*
G01*
X121685829Y-122381868D02*
G75*
G02*
X122685829Y-122381868I500000J0D01*
G01*
D13*
X134977500Y-107762742D02*
X134977500Y-108237258D01*
X136022500Y-107762742D02*
X136022500Y-108237258D01*
X154700000Y-132000000D02*
G75*
G02*
X152300000Y-132000000I-1200000J0D01*
G01*
X152300000Y-132000000D02*
G75*
G02*
X154700000Y-132000000I1200000J0D01*
G01*
X162700000Y-110000000D02*
G75*
G02*
X160300000Y-110000000I-1200000J0D01*
G01*
X160300000Y-110000000D02*
G75*
G02*
X162700000Y-110000000I1200000J0D01*
G01*
X157990000Y-95915580D02*
X157990000Y-95634420D01*
X159010000Y-95915580D02*
X159010000Y-95634420D01*
X150584420Y-126515000D02*
X150865580Y-126515000D01*
X150584420Y-127535000D02*
X150865580Y-127535000D01*
X132490000Y-98634420D02*
X132490000Y-98915580D01*
X133510000Y-98634420D02*
X133510000Y-98915580D01*
X148640580Y-83980000D02*
X148359420Y-83980000D01*
X148640580Y-85000000D02*
X148359420Y-85000000D01*
X148200000Y-132000000D02*
G75*
G02*
X145800000Y-132000000I-1200000J0D01*
G01*
X145800000Y-132000000D02*
G75*
G02*
X148200000Y-132000000I1200000J0D01*
G01*
D14*
X144793000Y-138603000D02*
X144793000Y-141397000D01*
X144793000Y-141397000D02*
X147901960Y-141397000D01*
X145361960Y-138603000D02*
X144793000Y-138603000D01*
X149558040Y-141397000D02*
X152981960Y-141397000D01*
X150441960Y-138603000D02*
X147018040Y-138603000D01*
X154638040Y-141397000D02*
X155207000Y-141397000D01*
X155207000Y-138603000D02*
X152098040Y-138603000D01*
X155207000Y-141397000D02*
X155207000Y-138603000D01*
D10*
X146658782Y-135500000D02*
G75*
G02*
X145658782Y-135500000I-500000J0D01*
G01*
X145658782Y-135500000D02*
G75*
G02*
X146658782Y-135500000I500000J0D01*
G01*
D13*
X142740000Y-94884420D02*
X142740000Y-95165580D01*
X143760000Y-94884420D02*
X143760000Y-95165580D01*
X148262742Y-85477500D02*
X148737258Y-85477500D01*
X148262742Y-86522500D02*
X148737258Y-86522500D01*
X162700000Y-85000000D02*
G75*
G02*
X160300000Y-85000000I-1200000J0D01*
G01*
X160300000Y-85000000D02*
G75*
G02*
X162700000Y-85000000I1200000J0D01*
G01*
X143700000Y-104500000D02*
G75*
G02*
X141300000Y-104500000I-1200000J0D01*
G01*
X141300000Y-104500000D02*
G75*
G02*
X143700000Y-104500000I1200000J0D01*
G01*
X142400000Y-107375000D02*
X142400000Y-123575000D01*
X142400000Y-123575000D02*
X142800000Y-123575000D01*
X142800000Y-107375000D02*
X142400000Y-107375000D01*
X158600000Y-107375000D02*
X158600000Y-123575000D01*
X158600000Y-123575000D02*
X158200000Y-123575000D01*
X158736000Y-107115000D02*
X158400000Y-106875000D01*
X158736000Y-106635000D01*
X158736000Y-107115000D01*
G36*
X158736000Y-107115000D02*
G01*
X158400000Y-106875000D01*
X158736000Y-106635000D01*
X158736000Y-107115000D01*
G37*
X132490000Y-92140580D02*
X132490000Y-91859420D01*
X133510000Y-92140580D02*
X133510000Y-91859420D01*
X166200000Y-110000000D02*
G75*
G02*
X163800000Y-110000000I-1200000J0D01*
G01*
X163800000Y-110000000D02*
G75*
G02*
X166200000Y-110000000I1200000J0D01*
G01*
X141240000Y-94884420D02*
X141240000Y-95165580D01*
X142260000Y-94884420D02*
X142260000Y-95165580D01*
X150584420Y-124990000D02*
X150865580Y-124990000D01*
X150584420Y-126010000D02*
X150865580Y-126010000D01*
X163200000Y-100000000D02*
G75*
G02*
X160800000Y-100000000I-1200000J0D01*
G01*
X160800000Y-100000000D02*
G75*
G02*
X163200000Y-100000000I1200000J0D01*
G01*
D14*
X108603000Y-94793000D02*
X108603000Y-97901960D01*
X108603000Y-99558040D02*
X108603000Y-102981960D01*
X108603000Y-104638040D02*
X108603000Y-105207000D01*
X108603000Y-105207000D02*
X111397000Y-105207000D01*
X111397000Y-94793000D02*
X108603000Y-94793000D01*
X111397000Y-95361960D02*
X111397000Y-94793000D01*
X111397000Y-100441960D02*
X111397000Y-97018040D01*
X111397000Y-105207000D02*
X111397000Y-102098040D01*
D10*
X115000000Y-96158782D02*
G75*
G02*
X114000000Y-96158782I-500000J0D01*
G01*
X114000000Y-96158782D02*
G75*
G02*
X115000000Y-96158782I500000J0D01*
G01*
D13*
X144200000Y-132000000D02*
G75*
G02*
X141800000Y-132000000I-1200000J0D01*
G01*
X141800000Y-132000000D02*
G75*
G02*
X144200000Y-132000000I1200000J0D01*
G01*
X159200000Y-132000000D02*
G75*
G02*
X156800000Y-132000000I-1200000J0D01*
G01*
X156800000Y-132000000D02*
G75*
G02*
X159200000Y-132000000I1200000J0D01*
G01*
D10*
X146400000Y-91750000D02*
X146400000Y-91850000D01*
X146400000Y-91850000D02*
X145100000Y-91850000D01*
X146400000Y-98600000D02*
X146400000Y-98150000D01*
X146400000Y-98600000D02*
X146850000Y-98600000D01*
X146750000Y-91400000D02*
X146400000Y-91750000D01*
X146850000Y-91400000D02*
X146750000Y-91400000D01*
X153600000Y-91400000D02*
X153150000Y-91400000D01*
X153600000Y-91400000D02*
X153600000Y-91850000D01*
X153600000Y-98600000D02*
X153150000Y-98600000D01*
X153600000Y-98600000D02*
X153600000Y-98150000D01*
D13*
X166200000Y-85000000D02*
G75*
G02*
X163800000Y-85000000I-1200000J0D01*
G01*
X163800000Y-85000000D02*
G75*
G02*
X166200000Y-85000000I1200000J0D01*
G01*
X166200000Y-80500000D02*
G75*
G02*
X163800000Y-80500000I-1200000J0D01*
G01*
X163800000Y-80500000D02*
G75*
G02*
X166200000Y-80500000I1200000J0D01*
G01*
D10*
X133900000Y-135850000D02*
X133900000Y-136350000D01*
X133900000Y-135850000D02*
X134400000Y-135850000D01*
X133900000Y-139150000D02*
X133900000Y-138650000D01*
X133900000Y-139150000D02*
X134400000Y-139150000D01*
X137100000Y-135850000D02*
X136600000Y-135850000D01*
X137100000Y-135850000D02*
X137100000Y-136350000D01*
X137100000Y-139150000D02*
X136600000Y-139150000D01*
X137100000Y-139150000D02*
X137100000Y-138650000D01*
D14*
X173610267Y-69025923D02*
X175808634Y-71224290D01*
X175585923Y-67050267D02*
X173610267Y-69025923D01*
X175988239Y-67452582D02*
X175585923Y-67050267D01*
X176979659Y-72395315D02*
X179400736Y-74816392D01*
X179580341Y-71044685D02*
X177159264Y-68623608D01*
X180571761Y-75987418D02*
X180974077Y-76389733D01*
X180974077Y-76389733D02*
X182949733Y-74414077D01*
X182949733Y-74414077D02*
X180751366Y-72215710D01*
D10*
X178314171Y-77618132D02*
G75*
G02*
X177314171Y-77618132I-500000J0D01*
G01*
X177314171Y-77618132D02*
G75*
G02*
X178314171Y-77618132I500000J0D01*
G01*
D14*
X133972700Y-89619900D02*
X133972700Y-101380100D01*
X133972700Y-101380100D02*
X135786260Y-101380100D01*
X135786260Y-89619900D02*
X133972700Y-89619900D01*
X137213740Y-101380100D02*
X139027300Y-101380100D01*
X139027300Y-89619900D02*
X137213740Y-89619900D01*
X139027300Y-101380100D02*
X139027300Y-89619900D01*
D13*
X162700000Y-115000000D02*
G75*
G02*
X160300000Y-115000000I-1200000J0D01*
G01*
X160300000Y-115000000D02*
G75*
G02*
X162700000Y-115000000I1200000J0D01*
G01*
D14*
X117050267Y-74414077D02*
X119025923Y-76389733D01*
X117452582Y-74011761D02*
X117050267Y-74414077D01*
X119025923Y-76389733D02*
X121224290Y-74191366D01*
X121044685Y-70419659D02*
X118623608Y-72840736D01*
X122395315Y-73020341D02*
X124816392Y-70599264D01*
X124414077Y-67050267D02*
X122215710Y-69248634D01*
X125987418Y-69428239D02*
X126389733Y-69025923D01*
X126389733Y-69025923D02*
X124414077Y-67050267D01*
D10*
X128118132Y-72185829D02*
G75*
G02*
X127118132Y-72185829I-500000J0D01*
G01*
X127118132Y-72185829D02*
G75*
G02*
X128118132Y-72185829I500000J0D01*
G01*
D13*
X131700000Y-104000000D02*
G75*
G02*
X129300000Y-104000000I-1200000J0D01*
G01*
X129300000Y-104000000D02*
G75*
G02*
X131700000Y-104000000I1200000J0D01*
G01*
X162700000Y-80500000D02*
G75*
G02*
X160300000Y-80500000I-1200000J0D01*
G01*
X160300000Y-80500000D02*
G75*
G02*
X162700000Y-80500000I1200000J0D01*
G01*
X146977500Y-104737258D02*
X146977500Y-104262742D01*
X148022500Y-104737258D02*
X148022500Y-104262742D01*
D14*
X188603000Y-94793000D02*
X188603000Y-97901960D01*
X188603000Y-99558040D02*
X188603000Y-102981960D01*
X188603000Y-104638040D02*
X188603000Y-105207000D01*
X188603000Y-105207000D02*
X191397000Y-105207000D01*
X191397000Y-94793000D02*
X188603000Y-94793000D01*
X191397000Y-95361960D02*
X191397000Y-94793000D01*
X191397000Y-100441960D02*
X191397000Y-97018040D01*
X191397000Y-105207000D02*
X191397000Y-102098040D01*
D10*
X186000000Y-103841218D02*
G75*
G02*
X185000000Y-103841218I-500000J0D01*
G01*
X185000000Y-103841218D02*
G75*
G02*
X186000000Y-103841218I500000J0D01*
G01*
D13*
X163700000Y-132000000D02*
G75*
G02*
X161300000Y-132000000I-1200000J0D01*
G01*
X161300000Y-132000000D02*
G75*
G02*
X163700000Y-132000000I1200000J0D01*
G01*
X109700000Y-110000000D02*
G75*
G02*
X107300000Y-110000000I-1200000J0D01*
G01*
X107300000Y-110000000D02*
G75*
G02*
X109700000Y-110000000I1200000J0D01*
G01*
X156490000Y-95915580D02*
X156490000Y-95634420D01*
X157510000Y-95915580D02*
X157510000Y-95634420D01*
X166200000Y-115000000D02*
G75*
G02*
X163800000Y-115000000I-1200000J0D01*
G01*
X163800000Y-115000000D02*
G75*
G02*
X166200000Y-115000000I1200000J0D01*
G01*
D14*
X144793000Y-58603000D02*
X144793000Y-61397000D01*
X144793000Y-61397000D02*
X147901960Y-61397000D01*
X145361960Y-58603000D02*
X144793000Y-58603000D01*
X149558040Y-61397000D02*
X152981960Y-61397000D01*
X150441960Y-58603000D02*
X147018040Y-58603000D01*
X154638040Y-61397000D02*
X155207000Y-61397000D01*
X155207000Y-58603000D02*
X152098040Y-58603000D01*
X155207000Y-61397000D02*
X155207000Y-58603000D01*
D10*
X154341218Y-64500000D02*
G75*
G02*
X153341218Y-64500000I-500000J0D01*
G01*
X153341218Y-64500000D02*
G75*
G02*
X154341218Y-64500000I500000J0D01*
G01*
D14*
X137674500Y-107659640D02*
X137674500Y-108340360D01*
X137674500Y-109651000D02*
X139325500Y-109651000D01*
X139325500Y-106349000D02*
X137674500Y-106349000D01*
X139325500Y-107387860D02*
X139325500Y-106349000D01*
X139325500Y-109651000D02*
X139325500Y-108612140D01*
%LPC*%
D15*
X182500000Y-82500000D03*
X162500000Y-123000000D03*
X158000000Y-138000000D03*
X137500000Y-72500000D03*
X158000000Y-143000000D03*
X139500000Y-112000000D03*
D16*
X174524274Y-129912427D03*
X178443624Y-130239675D03*
X178116376Y-126320325D03*
X182035726Y-126647573D03*
D17*
X120087573Y-124524274D03*
X119760325Y-128443624D03*
X123679675Y-128116376D03*
X123352427Y-132035726D03*
D18*
X135500000Y-107175000D03*
X135500000Y-108825000D03*
D15*
X153500000Y-132000000D03*
X161500000Y-110000000D03*
D19*
X158500000Y-96550000D03*
X158500000Y-95000000D03*
D20*
X149950000Y-127025000D03*
X151500000Y-127025000D03*
D21*
X133000000Y-98000000D03*
X133000000Y-99550000D03*
D22*
X149275000Y-84490000D03*
X147725000Y-84490000D03*
D15*
X147000000Y-132000000D03*
D23*
X146190000Y-138498601D03*
X148730000Y-141501399D03*
X151270000Y-138498601D03*
X153810000Y-141501399D03*
D21*
X143250000Y-94250000D03*
X143250000Y-95800000D03*
D24*
X147675000Y-86000000D03*
X149325000Y-86000000D03*
D15*
X161500000Y-85000000D03*
X142500000Y-104500000D03*
D25*
X157500000Y-107950000D03*
X155500000Y-107950000D03*
X153500000Y-107950000D03*
X151500000Y-107950000D03*
X149500000Y-107950000D03*
X147500000Y-107950000D03*
X145500000Y-107950000D03*
X143500000Y-107950000D03*
X143500000Y-123000000D03*
X145500000Y-123000000D03*
X147500000Y-123000000D03*
X149500000Y-123000000D03*
X151500000Y-123000000D03*
X153500000Y-123000000D03*
X155500000Y-123000000D03*
X157500000Y-123000000D03*
D19*
X133000000Y-92775000D03*
X133000000Y-91225000D03*
D15*
X165000000Y-110000000D03*
D21*
X141750000Y-94250000D03*
X141750000Y-95800000D03*
D20*
X149950000Y-125500000D03*
X151500000Y-125500000D03*
D15*
X162000000Y-100000000D03*
D26*
X111501399Y-96190000D03*
X108498601Y-98730000D03*
X111501399Y-101270000D03*
X108498601Y-103810000D03*
D15*
X143000000Y-132000000D03*
X158000000Y-132000000D03*
D27*
X145800000Y-92200000D03*
X145800000Y-93000000D03*
X145800000Y-93800000D03*
X145800000Y-94600000D03*
X145800000Y-95400000D03*
X145800000Y-96200000D03*
X145800000Y-97000000D03*
X145800000Y-97800000D03*
D28*
X147200000Y-99200000D03*
X148000000Y-99200000D03*
X148800000Y-99200000D03*
X149600000Y-99200000D03*
X150400000Y-99200000D03*
X151200000Y-99200000D03*
X152000000Y-99200000D03*
X152800000Y-99200000D03*
D27*
X154200000Y-97800000D03*
X154200000Y-97000000D03*
X154200000Y-96200000D03*
X154200000Y-95400000D03*
X154200000Y-94600000D03*
X154200000Y-93800000D03*
X154200000Y-93000000D03*
X154200000Y-92200000D03*
D28*
X152800000Y-90800000D03*
X152000000Y-90800000D03*
X151200000Y-90800000D03*
X150400000Y-90800000D03*
X149600000Y-90800000D03*
X148800000Y-90800000D03*
X148000000Y-90800000D03*
X147200000Y-90800000D03*
D15*
X165000000Y-85000000D03*
X165000000Y-80500000D03*
D29*
X136975000Y-137500000D03*
X134025000Y-137500000D03*
D30*
X135500000Y-136000000D03*
D31*
X179912427Y-75475726D03*
X180239675Y-71556376D03*
X176320325Y-71883624D03*
X176647573Y-67964274D03*
D32*
X136500000Y-91097100D03*
X136500000Y-99902900D03*
D15*
X161500000Y-115000000D03*
D33*
X125475726Y-70087573D03*
X121556376Y-69760325D03*
X121883624Y-73679675D03*
X117964274Y-73352427D03*
D15*
X130500000Y-104000000D03*
X161500000Y-80500000D03*
D34*
X147500000Y-105325000D03*
X147500000Y-103675000D03*
D26*
X188498601Y-103810000D03*
X191501399Y-101270000D03*
X188498601Y-98730000D03*
X191501399Y-96190000D03*
D15*
X162500000Y-132000000D03*
X108500000Y-110000000D03*
D19*
X157000000Y-96550000D03*
X157000000Y-95000000D03*
D15*
X165000000Y-115000000D03*
D23*
X153810000Y-61501399D03*
X151270000Y-58498601D03*
X148730000Y-61501399D03*
X146190000Y-58498601D03*
D35*
X137458600Y-107047500D03*
X137458600Y-108952500D03*
X139541400Y-108000000D03*
%LPD*%
M02*
