G04 #@! TF.GenerationSoftware,KiCad,Pcbnew,8.0.4*
G04 #@! TF.CreationDate,2024-09-30T00:02:48+08:00*
G04 #@! TF.ProjectId,Transformer_Monitor_V1,5472616e-7366-46f7-926d-65725f4d6f6e,rev?*
G04 #@! TF.SameCoordinates,Original*
G04 #@! TF.FileFunction,Soldermask,Top*
G04 #@! TF.FilePolarity,Negative*
%FSLAX46Y46*%
G04 Gerber Fmt 4.6, Leading zero omitted, Abs format (unit mm)*
G04 Created by KiCad (PCBNEW 8.0.4) date 2024-09-30 00:02:48*
%MOMM*%
%LPD*%
G01*
G04 APERTURE LIST*
G04 Aperture macros list*
%AMRoundRect*
0 Rectangle with rounded corners*
0 $1 Rounding radius*
0 $2 $3 $4 $5 $6 $7 $8 $9 X,Y pos of 4 corners*
0 Add a 4 corners polygon primitive as box body*
4,1,4,$2,$3,$4,$5,$6,$7,$8,$9,$2,$3,0*
0 Add four circle primitives for the rounded corners*
1,1,$1+$1,$2,$3*
1,1,$1+$1,$4,$5*
1,1,$1+$1,$6,$7*
1,1,$1+$1,$8,$9*
0 Add four rect primitives between the rounded corners*
20,1,$1+$1,$2,$3,$4,$5,0*
20,1,$1+$1,$4,$5,$6,$7,0*
20,1,$1+$1,$6,$7,$8,$9,0*
20,1,$1+$1,$8,$9,$2,$3,0*%
%AMRotRect*
0 Rectangle, with rotation*
0 The origin of the aperture is its center*
0 $1 length*
0 $2 width*
0 $3 Rotation angle, in degrees counterclockwise*
0 Add horizontal line*
21,1,$1,$2,0,0,$3*%
G04 Aperture macros list end*
%ADD10C,2.000000*%
%ADD11RotRect,0.990600X3.708400X45.000000*%
%ADD12RotRect,0.990600X3.708400X315.000000*%
%ADD13RoundRect,0.200000X-0.275000X0.200000X-0.275000X-0.200000X0.275000X-0.200000X0.275000X0.200000X0*%
%ADD14RoundRect,0.225000X0.250000X-0.225000X0.250000X0.225000X-0.250000X0.225000X-0.250000X-0.225000X0*%
%ADD15RoundRect,0.225000X-0.225000X-0.250000X0.225000X-0.250000X0.225000X0.250000X-0.225000X0.250000X0*%
%ADD16RoundRect,0.225000X-0.250000X0.225000X-0.250000X-0.225000X0.250000X-0.225000X0.250000X0.225000X0*%
%ADD17RoundRect,0.225000X0.225000X0.250000X-0.225000X0.250000X-0.225000X-0.250000X0.225000X-0.250000X0*%
%ADD18R,0.990600X3.708400*%
%ADD19RoundRect,0.200000X-0.200000X-0.275000X0.200000X-0.275000X0.200000X0.275000X-0.200000X0.275000X0*%
%ADD20RoundRect,0.317500X-0.317500X1.157500X-0.317500X-1.157500X0.317500X-1.157500X0.317500X1.157500X0*%
%ADD21R,3.708400X0.990600*%
%ADD22R,1.500000X0.550000*%
%ADD23R,0.550000X1.500000*%
%ADD24R,1.050000X2.200000*%
%ADD25R,1.000000X1.050000*%
%ADD26RotRect,0.990600X3.708400X135.000000*%
%ADD27R,0.762000X4.394200*%
%ADD28RotRect,0.990600X3.708400X225.000000*%
%ADD29RoundRect,0.200000X0.275000X-0.200000X0.275000X0.200000X-0.275000X0.200000X-0.275000X-0.200000X0*%
%ADD30R,1.270000X0.558800*%
G04 APERTURE END LIST*
D10*
X182500000Y-82500000D03*
X162500000Y-123000000D03*
X158000000Y-138000000D03*
X137500000Y-72500000D03*
X158000000Y-143000000D03*
X139500000Y-112000000D03*
D11*
X174524274Y-129912427D03*
X178443624Y-130239675D03*
X178116376Y-126320325D03*
X182035726Y-126647573D03*
D12*
X120087573Y-124524274D03*
X119760325Y-128443624D03*
X123679675Y-128116376D03*
X123352427Y-132035726D03*
D13*
X135500000Y-107175000D03*
X135500000Y-108825000D03*
D10*
X153500000Y-132000000D03*
X161500000Y-110000000D03*
D14*
X158500000Y-96550000D03*
X158500000Y-95000000D03*
D15*
X149950000Y-127025000D03*
X151500000Y-127025000D03*
D16*
X133000000Y-98000000D03*
X133000000Y-99550000D03*
D17*
X149275000Y-84490000D03*
X147725000Y-84490000D03*
D10*
X147000000Y-132000000D03*
D18*
X146190000Y-138498601D03*
X148730000Y-141501399D03*
X151270000Y-138498601D03*
X153810000Y-141501399D03*
D16*
X143250000Y-94250000D03*
X143250000Y-95800000D03*
D19*
X147675000Y-86000000D03*
X149325000Y-86000000D03*
D10*
X161500000Y-85000000D03*
X142500000Y-104500000D03*
D20*
X157500000Y-107950000D03*
X155500000Y-107950000D03*
X153500000Y-107950000D03*
X151500000Y-107950000D03*
X149500000Y-107950000D03*
X147500000Y-107950000D03*
X145500000Y-107950000D03*
X143500000Y-107950000D03*
X143500000Y-123000000D03*
X145500000Y-123000000D03*
X147500000Y-123000000D03*
X149500000Y-123000000D03*
X151500000Y-123000000D03*
X153500000Y-123000000D03*
X155500000Y-123000000D03*
X157500000Y-123000000D03*
D14*
X133000000Y-92775000D03*
X133000000Y-91225000D03*
D10*
X165000000Y-110000000D03*
D16*
X141750000Y-94250000D03*
X141750000Y-95800000D03*
D15*
X149950000Y-125500000D03*
X151500000Y-125500000D03*
D10*
X162000000Y-100000000D03*
D21*
X111501399Y-96190000D03*
X108498601Y-98730000D03*
X111501399Y-101270000D03*
X108498601Y-103810000D03*
D10*
X143000000Y-132000000D03*
X158000000Y-132000000D03*
D22*
X145800000Y-92200000D03*
X145800000Y-93000000D03*
X145800000Y-93800000D03*
X145800000Y-94600000D03*
X145800000Y-95400000D03*
X145800000Y-96200000D03*
X145800000Y-97000000D03*
X145800000Y-97800000D03*
D23*
X147200000Y-99200000D03*
X148000000Y-99200000D03*
X148800000Y-99200000D03*
X149600000Y-99200000D03*
X150400000Y-99200000D03*
X151200000Y-99200000D03*
X152000000Y-99200000D03*
X152800000Y-99200000D03*
D22*
X154200000Y-97800000D03*
X154200000Y-97000000D03*
X154200000Y-96200000D03*
X154200000Y-95400000D03*
X154200000Y-94600000D03*
X154200000Y-93800000D03*
X154200000Y-93000000D03*
X154200000Y-92200000D03*
D23*
X152800000Y-90800000D03*
X152000000Y-90800000D03*
X151200000Y-90800000D03*
X150400000Y-90800000D03*
X149600000Y-90800000D03*
X148800000Y-90800000D03*
X148000000Y-90800000D03*
X147200000Y-90800000D03*
D10*
X165000000Y-85000000D03*
X165000000Y-80500000D03*
D24*
X136975000Y-137500000D03*
X134025000Y-137500000D03*
D25*
X135500000Y-136000000D03*
D26*
X179912427Y-75475726D03*
X180239675Y-71556376D03*
X176320325Y-71883624D03*
X176647573Y-67964274D03*
D27*
X136500000Y-91097100D03*
X136500000Y-99902900D03*
D10*
X161500000Y-115000000D03*
D28*
X125475726Y-70087573D03*
X121556376Y-69760325D03*
X121883624Y-73679675D03*
X117964274Y-73352427D03*
D10*
X130500000Y-104000000D03*
X161500000Y-80500000D03*
D29*
X147500000Y-105325000D03*
X147500000Y-103675000D03*
D21*
X188498601Y-103810000D03*
X191501399Y-101270000D03*
X188498601Y-98730000D03*
X191501399Y-96190000D03*
D10*
X162500000Y-132000000D03*
X108500000Y-110000000D03*
D14*
X157000000Y-96550000D03*
X157000000Y-95000000D03*
D10*
X165000000Y-115000000D03*
D18*
X153810000Y-61501399D03*
X151270000Y-58498601D03*
X148730000Y-61501399D03*
X146190000Y-58498601D03*
D30*
X137458600Y-107047500D03*
X137458600Y-108952500D03*
X139541400Y-108000000D03*
M02*
