M48
; DRILL file {KiCad 8.0.4} date 2024-09-30T00:03:35+0800
; FORMAT={-:-/ absolute / metric / decimal}
; #@! TF.CreationDate,2024-09-30T00:03:35+08:00
; #@! TF.GenerationSoftware,Kicad,Pcbnew,8.0.4
; #@! TF.FileFunction,Plated,1,2,PTH
FMAT,2
METRIC
; #@! TA.AperFunction,Plated,PTH,ViaDrill
T1C0.300
%
G90
G05
T1
X105.0Y-90.0
X105.0Y-110.0
X105.0Y-115.0
X105.007Y-84.971
X110.0Y-75.0
X110.0Y-80.0
X110.0Y-85.0
X110.0Y-90.0
X110.0Y-115.0
X110.0Y-120.0
X110.0Y-125.0
X114.25Y-98.75
X114.25Y-101.25
X115.0Y-75.0
X115.0Y-80.0
X115.0Y-85.0
X115.0Y-90.0
X115.0Y-105.0
X115.0Y-110.0
X115.0Y-115.0
X115.0Y-120.0
X115.0Y-125.0
X120.0Y-80.0
X120.0Y-85.0
X120.0Y-90.0
X120.0Y-100.0
X120.0Y-105.0
X120.0Y-110.0
X122.5Y-123.25
X124.25Y-125.0
X125.0Y-60.0
X125.0Y-65.0
X125.0Y-85.0
X125.0Y-90.0
X125.0Y-95.0
X125.0Y-100.0
X125.0Y-105.0
X125.0Y-135.0
X125.0Y-140.0
X126.0Y-126.75
X128.0Y-128.75
X129.922Y-59.923
X130.0Y-65.0
X130.0Y-70.0
X130.0Y-95.0
X130.0Y-100.0
X130.0Y-135.0
X130.0Y-140.0
X134.0Y-107.75
X135.0Y-55.0
X135.0Y-60.0
X135.0Y-65.0
X135.0Y-70.0
X135.0Y-75.0
X135.0Y-125.0
X135.0Y-145.0
X137.5Y-105.5
X139.974Y-134.875
X140.0Y-55.0
X140.0Y-60.0
X140.0Y-65.0
X140.0Y-70.0
X140.0Y-75.0
X140.0Y-80.0
X140.0Y-120.0
X140.0Y-140.0
X140.0Y-145.0
X140.5Y-94.25
X140.5Y-95.75
X144.384Y-96.243
X144.4Y-91.25
X144.4Y-92.1
X144.4Y-93.0
X144.4Y-93.8
X145.0Y-55.0
X145.0Y-65.0
X145.0Y-75.0
X145.0Y-80.0
X145.25Y-100.75
X145.535Y-105.7
X146.25Y-100.75
X147.25Y-96.75
X147.25Y-100.75
X147.25Y-121.0
X147.744Y-118.334
X147.75Y-83.25
X147.75Y-102.5
X148.25Y-100.75
X148.5Y-87.25
X149.0Y-125.5
X149.25Y-100.75
X149.25Y-121.0
X149.615Y-89.422
X150.0Y-55.0
X150.0Y-80.0
X150.25Y-100.75
X150.5Y-97.25
X150.5Y-105.75
X150.85Y-102.5
X151.5Y-128.25
X152.0Y-105.75
X152.5Y-93.5
X152.5Y-96.5
X153.25Y-121.0
X153.75Y-105.75
X154.069Y-90.155
X155.0Y-55.0
X155.0Y-80.0
X155.25Y-121.0
X155.481Y-88.665
X155.712Y-91.362
X155.75Y-92.562
X155.75Y-93.5
X155.75Y-95.81
X155.75Y-97.75
X155.75Y-105.75
X157.25Y-121.0
X159.25Y-94.0
X160.0Y-55.0
X160.0Y-65.0
X160.0Y-70.0
X160.0Y-75.0
X160.0Y-120.0
X160.0Y-125.0
X160.0Y-135.0
X160.0Y-140.0
X160.0Y-145.0
X161.0Y-91.0
X165.0Y-55.0
X165.0Y-65.0
X165.0Y-70.0
X165.0Y-75.0
X165.0Y-117.5
X165.0Y-120.0
X165.0Y-125.0
X165.0Y-130.0
X165.0Y-135.0
X165.0Y-140.0
X165.0Y-145.0
X167.5Y-96.25
X167.5Y-98.75
X167.5Y-101.25
X167.5Y-103.75
X170.0Y-60.0
X170.0Y-65.0
X170.0Y-70.0
X170.0Y-75.0
X170.0Y-80.0
X170.0Y-90.0
X170.0Y-95.0
X170.0Y-130.0
X170.0Y-135.0
X170.0Y-140.0
X173.5Y-127.25
X175.0Y-60.0
X175.0Y-85.0
X175.0Y-90.0
X175.0Y-95.0
X175.0Y-125.75
X175.0Y-135.0
X175.0Y-140.0
X177.0Y-123.75
X179.0Y-121.75
X180.0Y-80.0
X180.0Y-85.0
X180.0Y-90.0
X180.0Y-95.0
X185.0Y-75.0
X185.0Y-80.0
X185.0Y-85.0
X185.0Y-90.0
X185.0Y-95.0
X185.0Y-110.0
X185.0Y-115.0
X185.0Y-120.0
X190.0Y-75.0
X190.0Y-80.0
X190.0Y-85.0
X190.0Y-90.0
X190.0Y-110.0
X190.0Y-115.0
X190.0Y-120.0
X190.0Y-125.0
X195.0Y-85.0
X195.0Y-90.0
X195.0Y-110.0
X195.0Y-115.0
M30
